G04 #@! TF.GenerationSoftware,KiCad,Pcbnew,6.0.7*
G04 #@! TF.CreationDate,2022-09-06T12:37:21-05:00*
G04 #@! TF.ProjectId,panel,70616e65-6c2e-46b6-9963-61645f706362,rev?*
G04 #@! TF.SameCoordinates,Original*
G04 #@! TF.FileFunction,Soldermask,Bot*
G04 #@! TF.FilePolarity,Negative*
%FSLAX46Y46*%
G04 Gerber Fmt 4.6, Leading zero omitted, Abs format (unit mm)*
G04 Created by KiCad (PCBNEW 6.0.7) date 2022-09-06 12:37:21*
%MOMM*%
%LPD*%
G01*
G04 APERTURE LIST*
%ADD10C,0.600000*%
%ADD11C,2.000000*%
%ADD12C,1.524000*%
%ADD13R,1.000000X1.000000*%
%ADD14C,1.000000*%
%ADD15C,2.400000*%
%ADD16C,1.700000*%
G04 APERTURE END LIST*
D10*
G04 #@! TO.C,REF\u002A\u002A*
X146999987Y-99755647D03*
G04 #@! TD*
G04 #@! TO.C,REF\u002A\u002A*
X105999995Y-91853400D03*
G04 #@! TD*
G04 #@! TO.C,REF\u002A\u002A*
X20000000Y-169611776D03*
G04 #@! TD*
G04 #@! TO.C,REF\u002A\u002A*
X148999987Y-99755814D03*
G04 #@! TD*
G04 #@! TO.C,REF\u002A\u002A*
X147999995Y-91852234D03*
G04 #@! TD*
G04 #@! TO.C,REF\u002A\u002A*
X22000000Y-173278442D03*
G04 #@! TD*
G04 #@! TO.C,REF\u002A\u002A*
X22000000Y-16666666D03*
G04 #@! TD*
G04 #@! TO.C,REF\u002A\u002A*
X62999996Y-91852478D03*
G04 #@! TD*
G04 #@! TO.C,REF\u002A\u002A*
X190000000Y-19166666D03*
G04 #@! TD*
G04 #@! TO.C,REF\u002A\u002A*
X185850000Y-135606776D03*
G04 #@! TD*
G04 #@! TO.C,REF\u002A\u002A*
X22000000Y-174945109D03*
G04 #@! TD*
G04 #@! TO.C,REF\u002A\u002A*
X193666666Y-169611776D03*
G04 #@! TD*
G04 #@! TO.C,REF\u002A\u002A*
X20000000Y-22000000D03*
G04 #@! TD*
G04 #@! TO.C,REF\u002A\u002A*
X148000010Y-169460572D03*
G04 #@! TD*
G04 #@! TO.C,REF\u002A\u002A*
X147999995Y-22153094D03*
G04 #@! TD*
G04 #@! TO.C,REF\u002A\u002A*
X63000018Y-99756805D03*
G04 #@! TD*
G04 #@! TO.C,REF\u002A\u002A*
X15833334Y-22000000D03*
G04 #@! TD*
G04 #@! TO.C,REF\u002A\u002A*
X64000018Y-99756682D03*
G04 #@! TD*
G04 #@! TO.C,REF\u002A\u002A*
X190000000Y-174945109D03*
G04 #@! TD*
G04 #@! TO.C,REF\u002A\u002A*
X190000000Y-175778442D03*
G04 #@! TD*
G04 #@! TO.C,REF\u002A\u002A*
X22000000Y-175778442D03*
G04 #@! TD*
G04 #@! TO.C,REF\u002A\u002A*
X65000018Y-99756559D03*
G04 #@! TD*
G04 #@! TO.C,REF\u002A\u002A*
X194500000Y-169611776D03*
G04 #@! TD*
G04 #@! TO.C,REF\u002A\u002A*
X193666666Y-22000000D03*
G04 #@! TD*
G04 #@! TO.C,REF\u002A\u002A*
X19166667Y-169611776D03*
G04 #@! TD*
G04 #@! TO.C,REF\u002A\u002A*
X22000000Y-172445109D03*
G04 #@! TD*
G04 #@! TO.C,REF\u002A\u002A*
X22150000Y-134606776D03*
G04 #@! TD*
G04 #@! TO.C,REF\u002A\u002A*
X192000000Y-169611776D03*
G04 #@! TD*
G04 #@! TO.C,REF\u002A\u002A*
X22000000Y-19166666D03*
G04 #@! TD*
G04 #@! TO.C,REF\u002A\u002A*
X146999995Y-91852261D03*
G04 #@! TD*
G04 #@! TO.C,REF\u002A\u002A*
X149000010Y-169460644D03*
G04 #@! TD*
G04 #@! TO.C,REF\u002A\u002A*
X105999995Y-22151927D03*
G04 #@! TD*
D11*
G04 #@! TO.C,REF\u002A\u002A*
X17500000Y-174111776D03*
G04 #@! TD*
D10*
G04 #@! TO.C,REF\u002A\u002A*
X190000000Y-17500000D03*
G04 #@! TD*
G04 #@! TO.C,REF\u002A\u002A*
X147999987Y-99755730D03*
G04 #@! TD*
G04 #@! TO.C,REF\u002A\u002A*
X16666667Y-169611776D03*
G04 #@! TD*
G04 #@! TO.C,REF\u002A\u002A*
X197000000Y-22000000D03*
G04 #@! TD*
D12*
G04 #@! TO.C,J1*
X63535000Y-30953553D03*
X40385000Y-30953553D03*
D13*
X28735000Y-29703553D03*
D14*
X29735000Y-27703553D03*
X30735000Y-29703553D03*
X31735000Y-27703553D03*
X32735000Y-29703553D03*
X33735000Y-27703553D03*
X34735000Y-29703553D03*
X35735000Y-27703553D03*
X36735000Y-29703553D03*
X37735000Y-27703553D03*
X38735000Y-29703553D03*
X41735000Y-27703553D03*
X42735000Y-29703553D03*
X43735000Y-27703553D03*
X44735000Y-29703553D03*
X45735000Y-27703553D03*
X46735000Y-29703553D03*
X47735000Y-27703553D03*
X48735000Y-29703553D03*
X49735000Y-27703553D03*
X50735000Y-29703553D03*
X51735000Y-27703553D03*
X52735000Y-29703553D03*
X53735000Y-27703553D03*
X54735000Y-29703553D03*
X55735000Y-27703553D03*
X56735000Y-29703553D03*
X57735000Y-27703553D03*
X58735000Y-29703553D03*
X59735000Y-27703553D03*
X60735000Y-29703553D03*
X61735000Y-27703553D03*
X28735000Y-32203553D03*
X29735000Y-34203553D03*
X30735000Y-32203553D03*
X31735000Y-34203553D03*
X32735000Y-32203553D03*
X33735000Y-34203553D03*
X34735000Y-32203553D03*
X35735000Y-34203553D03*
X36735000Y-32203553D03*
X37735000Y-34203553D03*
X38735000Y-32203553D03*
X41735000Y-34203553D03*
X42735000Y-32203553D03*
X43735000Y-34203553D03*
X44735000Y-32203553D03*
X45735000Y-34203553D03*
X46735000Y-32203553D03*
X47735000Y-34203553D03*
X48735000Y-32203553D03*
X49735000Y-34203553D03*
X50735000Y-32203553D03*
X51735000Y-34203553D03*
X52735000Y-32203553D03*
X53735000Y-34203553D03*
X54735000Y-32203553D03*
X55735000Y-34203553D03*
X56735000Y-32203553D03*
X57735000Y-34203553D03*
X58735000Y-32203553D03*
X59735000Y-34203553D03*
X60735000Y-32203553D03*
X61735000Y-34203553D03*
G04 #@! TD*
D10*
G04 #@! TO.C,REF\u002A\u002A*
X22000000Y-176611776D03*
G04 #@! TD*
G04 #@! TO.C,REF\u002A\u002A*
X19166667Y-22000000D03*
G04 #@! TD*
G04 #@! TO.C,REF\u002A\u002A*
X185850000Y-56001776D03*
G04 #@! TD*
G04 #@! TO.C,REF\u002A\u002A*
X190000000Y-171611776D03*
G04 #@! TD*
G04 #@! TO.C,REF\u002A\u002A*
X63999996Y-91852452D03*
G04 #@! TD*
G04 #@! TO.C,REF\u002A\u002A*
X190000000Y-172445109D03*
G04 #@! TD*
G04 #@! TO.C,REF\u002A\u002A*
X17500000Y-22000000D03*
G04 #@! TD*
G04 #@! TO.C,REF\u002A\u002A*
X190000000Y-16666666D03*
G04 #@! TD*
G04 #@! TO.C,REF\u002A\u002A*
X64000010Y-169459998D03*
G04 #@! TD*
G04 #@! TO.C,REF\u002A\u002A*
X18333334Y-169611776D03*
G04 #@! TD*
G04 #@! TO.C,REF\u002A\u002A*
X106999995Y-91853372D03*
G04 #@! TD*
G04 #@! TO.C,REF\u002A\u002A*
X107000010Y-169457580D03*
G04 #@! TD*
G04 #@! TO.C,REF\u002A\u002A*
X22150000Y-133606776D03*
G04 #@! TD*
G04 #@! TO.C,REF\u002A\u002A*
X106000010Y-169457507D03*
G04 #@! TD*
D11*
G04 #@! TO.C,REF\u002A\u002A*
X17500000Y-17500000D03*
G04 #@! TD*
D10*
G04 #@! TO.C,REF\u002A\u002A*
X195333333Y-169611776D03*
G04 #@! TD*
G04 #@! TO.C,REF\u002A\u002A*
X148999995Y-22153122D03*
G04 #@! TD*
G04 #@! TO.C,REF\u002A\u002A*
X16666667Y-22000000D03*
G04 #@! TD*
G04 #@! TO.C,REF\u002A\u002A*
X22150000Y-57001776D03*
G04 #@! TD*
G04 #@! TO.C,REF\u002A\u002A*
X63000003Y-22150702D03*
G04 #@! TD*
G04 #@! TO.C,REF\u002A\u002A*
X22150000Y-135606776D03*
G04 #@! TD*
G04 #@! TO.C,REF\u002A\u002A*
X22000000Y-174111776D03*
G04 #@! TD*
G04 #@! TO.C,REF\u002A\u002A*
X185850000Y-133606776D03*
G04 #@! TD*
G04 #@! TO.C,REF\u002A\u002A*
X105000010Y-169457434D03*
G04 #@! TD*
G04 #@! TO.C,REF\u002A\u002A*
X190000000Y-15833333D03*
G04 #@! TD*
G04 #@! TO.C,REF\u002A\u002A*
X147000010Y-169460499D03*
G04 #@! TD*
G04 #@! TO.C,REF\u002A\u002A*
X106999987Y-99752313D03*
G04 #@! TD*
G04 #@! TO.C,REF\u002A\u002A*
X64000003Y-22150675D03*
G04 #@! TD*
G04 #@! TO.C,REF\u002A\u002A*
X15000000Y-22000000D03*
G04 #@! TD*
D11*
G04 #@! TO.C,REF\u002A\u002A*
X194500000Y-174111776D03*
G04 #@! TD*
D10*
G04 #@! TO.C,REF\u002A\u002A*
X190000000Y-20000000D03*
G04 #@! TD*
G04 #@! TO.C,REF\u002A\u002A*
X63000010Y-169459928D03*
G04 #@! TD*
G04 #@! TO.C,REF\u002A\u002A*
X22150000Y-58001776D03*
G04 #@! TD*
G04 #@! TO.C,REF\u002A\u002A*
X65000003Y-22150649D03*
G04 #@! TD*
D11*
G04 #@! TO.C,J2*
X181200000Y-146027106D03*
D15*
X181200000Y-107087106D03*
G04 #@! TD*
D10*
G04 #@! TO.C,REF\u002A\u002A*
X197000000Y-169611776D03*
G04 #@! TD*
D12*
G04 #@! TO.C,J1*
X40385000Y-108557106D03*
X63535000Y-108557106D03*
D13*
X28735000Y-107307106D03*
D14*
X29735000Y-105307106D03*
X30735000Y-107307106D03*
X31735000Y-105307106D03*
X32735000Y-107307106D03*
X33735000Y-105307106D03*
X34735000Y-107307106D03*
X35735000Y-105307106D03*
X36735000Y-107307106D03*
X37735000Y-105307106D03*
X38735000Y-107307106D03*
X41735000Y-105307106D03*
X42735000Y-107307106D03*
X43735000Y-105307106D03*
X44735000Y-107307106D03*
X45735000Y-105307106D03*
X46735000Y-107307106D03*
X47735000Y-105307106D03*
X48735000Y-107307106D03*
X49735000Y-105307106D03*
X50735000Y-107307106D03*
X51735000Y-105307106D03*
X52735000Y-107307106D03*
X53735000Y-105307106D03*
X54735000Y-107307106D03*
X55735000Y-105307106D03*
X56735000Y-107307106D03*
X57735000Y-105307106D03*
X58735000Y-107307106D03*
X59735000Y-105307106D03*
X60735000Y-107307106D03*
X61735000Y-105307106D03*
X28735000Y-109807106D03*
X29735000Y-111807106D03*
X30735000Y-109807106D03*
X31735000Y-111807106D03*
X32735000Y-109807106D03*
X33735000Y-111807106D03*
X34735000Y-109807106D03*
X35735000Y-111807106D03*
X36735000Y-109807106D03*
X37735000Y-111807106D03*
X38735000Y-109807106D03*
X41735000Y-111807106D03*
X42735000Y-109807106D03*
X43735000Y-111807106D03*
X44735000Y-109807106D03*
X45735000Y-111807106D03*
X46735000Y-109807106D03*
X47735000Y-111807106D03*
X48735000Y-109807106D03*
X49735000Y-111807106D03*
X50735000Y-109807106D03*
X51735000Y-111807106D03*
X52735000Y-109807106D03*
X53735000Y-111807106D03*
X54735000Y-109807106D03*
X55735000Y-111807106D03*
X56735000Y-109807106D03*
X57735000Y-111807106D03*
X58735000Y-109807106D03*
X59735000Y-111807106D03*
X60735000Y-109807106D03*
X61735000Y-111807106D03*
G04 #@! TD*
D10*
G04 #@! TO.C,REF\u002A\u002A*
X15833334Y-169611776D03*
G04 #@! TD*
G04 #@! TO.C,REF\u002A\u002A*
X190000000Y-15000000D03*
G04 #@! TD*
G04 #@! TO.C,REF\u002A\u002A*
X190000000Y-18333333D03*
G04 #@! TD*
G04 #@! TO.C,REF\u002A\u002A*
X22000000Y-15000000D03*
G04 #@! TD*
G04 #@! TO.C,REF\u002A\u002A*
X15000000Y-169611776D03*
G04 #@! TD*
G04 #@! TO.C,REF\u002A\u002A*
X185850000Y-57001776D03*
G04 #@! TD*
G04 #@! TO.C,REF\u002A\u002A*
X22000000Y-15833333D03*
G04 #@! TD*
D11*
G04 #@! TO.C,J2*
X181200000Y-68423553D03*
D15*
X181200000Y-29483553D03*
G04 #@! TD*
D10*
G04 #@! TO.C,REF\u002A\u002A*
X65000010Y-169460068D03*
G04 #@! TD*
G04 #@! TO.C,REF\u002A\u002A*
X106999995Y-22151955D03*
G04 #@! TD*
G04 #@! TO.C,REF\u002A\u002A*
X64999996Y-91852425D03*
G04 #@! TD*
G04 #@! TO.C,REF\u002A\u002A*
X146999995Y-22153066D03*
G04 #@! TD*
G04 #@! TO.C,REF\u002A\u002A*
X22000000Y-17500000D03*
G04 #@! TD*
G04 #@! TO.C,REF\u002A\u002A*
X194500000Y-22000000D03*
G04 #@! TD*
G04 #@! TO.C,REF\u002A\u002A*
X104999995Y-91853428D03*
G04 #@! TD*
G04 #@! TO.C,REF\u002A\u002A*
X192000000Y-22000000D03*
G04 #@! TD*
G04 #@! TO.C,REF\u002A\u002A*
X22000000Y-18333333D03*
G04 #@! TD*
G04 #@! TO.C,REF\u002A\u002A*
X192833333Y-22000000D03*
G04 #@! TD*
G04 #@! TO.C,REF\u002A\u002A*
X195333333Y-22000000D03*
G04 #@! TD*
G04 #@! TO.C,REF\u002A\u002A*
X105999987Y-99752230D03*
G04 #@! TD*
G04 #@! TO.C,REF\u002A\u002A*
X18333334Y-22000000D03*
G04 #@! TD*
G04 #@! TO.C,REF\u002A\u002A*
X22000000Y-20000000D03*
G04 #@! TD*
G04 #@! TO.C,REF\u002A\u002A*
X190000000Y-176611776D03*
G04 #@! TD*
D11*
G04 #@! TO.C,REF\u002A\u002A*
X194500000Y-17500000D03*
G04 #@! TD*
D10*
G04 #@! TO.C,REF\u002A\u002A*
X104999987Y-99752146D03*
G04 #@! TD*
G04 #@! TO.C,REF\u002A\u002A*
X196166666Y-169611776D03*
G04 #@! TD*
G04 #@! TO.C,REF\u002A\u002A*
X148999995Y-91852206D03*
G04 #@! TD*
G04 #@! TO.C,REF\u002A\u002A*
X196166666Y-22000000D03*
G04 #@! TD*
G04 #@! TO.C,REF\u002A\u002A*
X22000000Y-171611776D03*
G04 #@! TD*
G04 #@! TO.C,REF\u002A\u002A*
X192833333Y-169611776D03*
G04 #@! TD*
G04 #@! TO.C,REF\u002A\u002A*
X185850000Y-58001776D03*
G04 #@! TD*
G04 #@! TO.C,REF\u002A\u002A*
X190000000Y-174111776D03*
G04 #@! TD*
G04 #@! TO.C,REF\u002A\u002A*
X22150000Y-56001776D03*
G04 #@! TD*
G04 #@! TO.C,REF\u002A\u002A*
X17500000Y-169611776D03*
G04 #@! TD*
G04 #@! TO.C,REF\u002A\u002A*
X185850000Y-134606776D03*
G04 #@! TD*
G04 #@! TO.C,REF\u002A\u002A*
X104999995Y-22151899D03*
G04 #@! TD*
G04 #@! TO.C,REF\u002A\u002A*
X190000000Y-173278442D03*
G04 #@! TD*
D16*
G04 #@! TO.C,REF\u002A\u002A*
X194500000Y-20000000D03*
G04 #@! TD*
G04 #@! TO.C,REF\u002A\u002A*
X17500000Y-20000000D03*
G04 #@! TD*
G04 #@! TO.C,REF\u002A\u002A*
X17500000Y-171611776D03*
G04 #@! TD*
M02*
