M48
INCH,TZ
T1C0.0157
T2C0.0307
%
G90
G05
T1
X10551Y-10198
X10551Y-40751
X11260Y-14923
X11260Y-45475
X11693Y-16301
X11693Y-46853
X11850Y-10198
X11850Y-40751
X12559Y-10198
X12559Y-40751
X13031Y-14923
X13031Y-16183
X13031Y-45475
X13031Y-46735
X13346Y-10198
X13346Y-40751
X13386Y-24805
X13386Y-55357
X14055Y-14765
X14055Y-15553
X14055Y-45318
X14055Y-46105
X14134Y-10198
X14134Y-40751
X15039Y-14765
X15039Y-15513
X15039Y-17757
X15039Y-18151
X15039Y-45318
X15039Y-46066
X15039Y-48310
X15039Y-48704
X15236Y-10198
X15236Y-40751
X16102Y-10198
X16102Y-40751
X16339Y-18938
X16339Y-19923
X16339Y-20907
X16339Y-49491
X16339Y-50475
X16339Y-51459
X16811Y-10198
X16811Y-40751
X17205Y-15120
X17205Y-16025
X17205Y-16970
X17205Y-18033
X17205Y-45672
X17205Y-46578
X17205Y-47522
X17205Y-48585
X17244Y-18938
X17244Y-49491
X17323Y-24805
X17323Y-26576
X17323Y-55357
X17323Y-57129
X17382Y-20494
X17382Y-51046
X17697Y-22934
X17697Y-53487
X17717Y-21222
X17717Y-51774
X17756Y-19805
X17756Y-50357
X17953Y-14096
X17953Y-14844
X17953Y-15513
X17953Y-16222
X17953Y-16891
X17953Y-44648
X17953Y-45396
X17953Y-46066
X17953Y-46774
X17953Y-47444
X17992Y-17600
X17992Y-48152
X18425Y-22127
X18425Y-52680
X18465Y-23564
X18465Y-54117
X18504Y-18427
X18504Y-48979
X18661Y-20592
X18661Y-51145
X18819Y-14057
X18819Y-14608
X18819Y-15907
X18819Y-44609
X18819Y-45160
X18819Y-46459
X19055Y-16832
X19055Y-47385
X19252Y-10198
X19252Y-19214
X19252Y-40751
X19252Y-49767
X19291Y-22836
X19291Y-53389
X19370Y-24411
X19370Y-54963
X19528Y-21379
X19528Y-51932
X19567Y-14057
X19567Y-44609
X19646Y-17403
X19646Y-47956
X19685Y-15513
X19685Y-46066
X20079Y-23702
X20079Y-54255
X20118Y-20120
X20118Y-50672
X20138Y-25139
X20138Y-55692
X20197Y-10198
X20197Y-40751
X20276Y-16064
X20276Y-46617
X20354Y-14411
X20354Y-44963
X20394Y-22206
X20394Y-52759
X20472Y-18269
X20472Y-48822
X20748Y-16576
X20748Y-47129
X20906Y-20868
X20906Y-24450
X20906Y-51420
X20906Y-55003
X21004Y-25612
X21004Y-56164
X21063Y-10159
X21063Y-40711
X21142Y-15513
X21142Y-23072
X21142Y-46066
X21142Y-53625
X21299Y-17206
X21299Y-47759
X21339Y-19175
X21339Y-49727
X21378Y-14608
X21378Y-45160
X21693Y-21655
X21693Y-52208
X21811Y-16222
X21811Y-46774
X21850Y-23663
X21850Y-24686
X21850Y-54215
X21850Y-55239
X21870Y-25612
X21870Y-56164
X21890Y-17757
X21890Y-48310
X22008Y-19726
X22008Y-50278
X22087Y-10159
X22087Y-40711
X22441Y-16852
X22441Y-47404
X22520Y-18348
X22520Y-48900
X22598Y-22560
X22598Y-53113
X22756Y-24686
X22756Y-25612
X22756Y-55239
X22756Y-56164
X23071Y-16261
X23071Y-19962
X23071Y-46814
X23071Y-50515
X23110Y-17521
X23110Y-18742
X23110Y-48074
X23110Y-49294
X23465Y-23427
X23465Y-53979
X23602Y-25612
X23602Y-56164
X23720Y-14490
X23720Y-45042
X24114Y-14883
X24114Y-45436
X24134Y-15907
X24134Y-16852
X24134Y-17797
X24134Y-18742
X24134Y-19962
X24134Y-21360
X24134Y-46459
X24134Y-47404
X24134Y-48349
X24134Y-49294
X24134Y-50515
X24134Y-51912
X24409Y-24726
X24409Y-25631
X24409Y-55278
X24409Y-56184
X24449Y-23781
X24449Y-54334
X25114Y-14883
X25114Y-45436
X25134Y-15907
X25134Y-16852
X25134Y-17797
X25134Y-18742
X25134Y-19962
X25134Y-21360
X25134Y-46459
X25134Y-47404
X25134Y-48349
X25134Y-49294
X25134Y-50515
X25134Y-51912
X25177Y-22560
X25177Y-23781
X25177Y-53113
X25177Y-54334
X25409Y-24726
X25409Y-25631
X25409Y-55278
X25409Y-56184
X26114Y-14883
X26114Y-45436
X26134Y-15907
X26134Y-16852
X26134Y-17797
X26134Y-18742
X26134Y-19962
X26134Y-21360
X26134Y-46459
X26134Y-47404
X26134Y-48349
X26134Y-49294
X26134Y-50515
X26134Y-51912
X26177Y-22560
X26177Y-23781
X26177Y-53113
X26177Y-54334
X26409Y-24726
X26409Y-25631
X26409Y-55278
X26409Y-56184
X26957Y-14883
X26957Y-45436
X26976Y-15907
X26976Y-16852
X26976Y-17797
X26976Y-18742
X26976Y-19962
X26976Y-21360
X26976Y-46459
X26976Y-47404
X26976Y-48349
X26976Y-49294
X26976Y-50515
X26976Y-51912
X27020Y-22560
X27020Y-23781
X27020Y-53113
X27020Y-54334
X27252Y-24726
X27252Y-25631
X27252Y-55278
X27252Y-56184
X27957Y-14883
X27957Y-45436
X27976Y-15907
X27976Y-16852
X27976Y-17797
X27976Y-18742
X27976Y-19962
X27976Y-21360
X27976Y-46459
X27976Y-47404
X27976Y-48349
X27976Y-49294
X27976Y-50515
X27976Y-51912
X28020Y-22560
X28020Y-23781
X28020Y-53113
X28020Y-54334
X28252Y-24726
X28252Y-25631
X28252Y-55278
X28252Y-56184
X28957Y-14883
X28957Y-45436
X28976Y-15907
X28976Y-16852
X28976Y-17797
X28976Y-18742
X28976Y-19962
X28976Y-21360
X28976Y-46459
X28976Y-47404
X28976Y-48349
X28976Y-49294
X28976Y-50515
X28976Y-51912
X29020Y-22560
X29020Y-23781
X29020Y-53113
X29020Y-54334
X29252Y-24726
X29252Y-25631
X29252Y-55278
X29252Y-56184
X29957Y-14883
X29957Y-45436
X29976Y-15907
X29976Y-16852
X29976Y-17797
X29976Y-18742
X29976Y-19962
X29976Y-21360
X29976Y-46459
X29976Y-47404
X29976Y-48349
X29976Y-49294
X29976Y-50515
X29976Y-51912
X30020Y-22560
X30020Y-23781
X30020Y-53113
X30020Y-54334
X30252Y-24726
X30252Y-25631
X30252Y-55278
X30252Y-56184
X30957Y-14883
X30957Y-45436
X30976Y-15907
X30976Y-16852
X30976Y-17797
X30976Y-18742
X30976Y-19962
X30976Y-21360
X30976Y-46459
X30976Y-47404
X30976Y-48349
X30976Y-49294
X30976Y-50515
X30976Y-51912
X31020Y-22560
X31020Y-23781
X31020Y-53113
X31020Y-54334
X31252Y-24726
X31252Y-25631
X31252Y-55278
X31252Y-56184
X31957Y-14883
X31957Y-45436
X31976Y-15907
X31976Y-16852
X31976Y-17797
X31976Y-18742
X31976Y-19962
X31976Y-21360
X31976Y-46459
X31976Y-47404
X31976Y-48349
X31976Y-49294
X31976Y-50515
X31976Y-51912
X32020Y-22560
X32020Y-23781
X32020Y-53113
X32020Y-54334
X32252Y-24726
X32252Y-25631
X32252Y-55278
X32252Y-56184
X32957Y-14883
X32957Y-45436
X32976Y-15907
X32976Y-16852
X32976Y-17797
X32976Y-18742
X32976Y-19962
X32976Y-21360
X32976Y-46459
X32976Y-47404
X32976Y-48349
X32976Y-49294
X32976Y-50515
X32976Y-51912
X33020Y-22560
X33020Y-23781
X33020Y-53113
X33020Y-54334
X33252Y-24726
X33252Y-25631
X33252Y-55278
X33252Y-56184
X33957Y-14883
X33957Y-45436
X33976Y-15907
X33976Y-16852
X33976Y-17797
X33976Y-18742
X33976Y-19962
X33976Y-21360
X33976Y-46459
X33976Y-47404
X33976Y-48349
X33976Y-49294
X33976Y-50515
X33976Y-51912
X34020Y-22560
X34020Y-23781
X34020Y-53113
X34020Y-54334
X34252Y-24726
X34252Y-25631
X34252Y-55278
X34252Y-56184
X34957Y-14883
X34957Y-45436
X34976Y-15907
X34976Y-16852
X34976Y-17797
X34976Y-18742
X34976Y-19962
X34976Y-21360
X34976Y-46459
X34976Y-47404
X34976Y-48349
X34976Y-49294
X34976Y-50515
X34976Y-51912
X35020Y-22560
X35020Y-23781
X35020Y-53113
X35020Y-54334
X35252Y-24726
X35252Y-25631
X35252Y-55278
X35252Y-56184
X35957Y-14883
X35957Y-45436
X35976Y-15907
X35976Y-16852
X35976Y-17797
X35976Y-18742
X35976Y-19962
X35976Y-21360
X35976Y-46459
X35976Y-47404
X35976Y-48349
X35976Y-49294
X35976Y-50515
X35976Y-51912
X36020Y-22560
X36020Y-23781
X36020Y-53113
X36020Y-54334
X36252Y-24726
X36252Y-25631
X36252Y-55278
X36252Y-56184
X36319Y-10395
X36319Y-40948
X36957Y-14883
X36957Y-45436
X36976Y-15907
X36976Y-16852
X36976Y-17797
X36976Y-18742
X36976Y-19962
X36976Y-21360
X36976Y-46459
X36976Y-47404
X36976Y-48349
X36976Y-49294
X36976Y-50515
X36976Y-51912
X37020Y-22560
X37020Y-23781
X37020Y-53113
X37020Y-54334
X37252Y-24726
X37252Y-25631
X37252Y-55278
X37252Y-56184
X37319Y-10395
X37319Y-40948
X37957Y-14883
X37957Y-45436
X37976Y-15907
X37976Y-16852
X37976Y-17797
X37976Y-18742
X37976Y-19962
X37976Y-21360
X37976Y-46459
X37976Y-47404
X37976Y-48349
X37976Y-49294
X37976Y-50515
X37976Y-51912
X38020Y-22560
X38020Y-23781
X38020Y-53113
X38020Y-54334
X38252Y-24726
X38252Y-25631
X38252Y-55278
X38252Y-56184
X38319Y-10395
X38319Y-40948
X38957Y-14883
X38957Y-45436
X38976Y-15907
X38976Y-16852
X38976Y-17797
X38976Y-18742
X38976Y-19962
X38976Y-21360
X38976Y-46459
X38976Y-47404
X38976Y-48349
X38976Y-49294
X38976Y-50515
X38976Y-51912
X39020Y-22560
X39020Y-23781
X39020Y-53113
X39020Y-54334
X39252Y-24726
X39252Y-25631
X39252Y-55278
X39252Y-56184
X39319Y-10395
X39319Y-40948
X39957Y-14883
X39957Y-45436
X39976Y-15907
X39976Y-16852
X39976Y-17797
X39976Y-18742
X39976Y-19962
X39976Y-21360
X39976Y-46459
X39976Y-47404
X39976Y-48349
X39976Y-49294
X39976Y-50515
X39976Y-51912
X40020Y-22560
X40020Y-23781
X40020Y-53113
X40020Y-54334
X40252Y-24726
X40252Y-25631
X40252Y-55278
X40252Y-56184
X40319Y-9431
X40319Y-10395
X40319Y-39983
X40319Y-40948
X40957Y-14883
X40957Y-45436
X40976Y-15907
X40976Y-16852
X40976Y-17797
X40976Y-18742
X40976Y-19962
X40976Y-21360
X40976Y-46459
X40976Y-47404
X40976Y-48349
X40976Y-49294
X40976Y-50515
X40976Y-51912
X41020Y-22560
X41020Y-23781
X41020Y-53113
X41020Y-54334
X41252Y-24726
X41252Y-25631
X41252Y-55278
X41252Y-56184
X41319Y-9431
X41319Y-10395
X41319Y-39983
X41319Y-40948
X41957Y-14883
X41957Y-45436
X41976Y-15907
X41976Y-16852
X41976Y-17797
X41976Y-18742
X41976Y-19962
X41976Y-21360
X41976Y-46459
X41976Y-47404
X41976Y-48349
X41976Y-49294
X41976Y-50515
X41976Y-51912
X42020Y-22560
X42020Y-23781
X42020Y-53113
X42020Y-54334
X42252Y-24726
X42252Y-25631
X42252Y-55278
X42252Y-56184
X42319Y-9431
X42319Y-10395
X42319Y-39983
X42319Y-40948
X42957Y-14883
X42957Y-45436
X42976Y-15907
X42976Y-16852
X42976Y-17797
X42976Y-18742
X42976Y-19962
X42976Y-21360
X42976Y-46459
X42976Y-47404
X42976Y-48349
X42976Y-49294
X42976Y-50515
X42976Y-51912
X43020Y-22560
X43020Y-23781
X43020Y-53113
X43020Y-54334
X43252Y-24726
X43252Y-25631
X43252Y-55278
X43252Y-56184
X43319Y-9431
X43319Y-10395
X43319Y-39983
X43319Y-40948
X43957Y-14883
X43957Y-45436
X43976Y-15907
X43976Y-16852
X43976Y-17797
X43976Y-18742
X43976Y-19962
X43976Y-21360
X43976Y-46459
X43976Y-47404
X43976Y-48349
X43976Y-49294
X43976Y-50515
X43976Y-51912
X44020Y-22560
X44020Y-23781
X44020Y-53113
X44020Y-54334
X44252Y-24726
X44252Y-25631
X44252Y-55278
X44252Y-56184
X44319Y-9431
X44319Y-10395
X44319Y-39983
X44319Y-40948
X44957Y-14883
X44957Y-45436
X44976Y-15907
X44976Y-16852
X44976Y-17797
X44976Y-18742
X44976Y-19962
X44976Y-21360
X44976Y-46459
X44976Y-47404
X44976Y-48349
X44976Y-49294
X44976Y-50515
X44976Y-51912
X45020Y-22560
X45020Y-23781
X45020Y-53113
X45020Y-54334
X45252Y-24726
X45252Y-25631
X45252Y-55278
X45252Y-56184
X45319Y-9431
X45319Y-10395
X45319Y-39983
X45319Y-40948
X45957Y-14883
X45957Y-45436
X45976Y-15907
X45976Y-16852
X45976Y-17797
X45976Y-18742
X45976Y-19962
X45976Y-21360
X45976Y-46459
X45976Y-47404
X45976Y-48349
X45976Y-49294
X45976Y-50515
X45976Y-51912
X46020Y-22560
X46020Y-23781
X46020Y-53113
X46020Y-54334
X46252Y-24726
X46252Y-25631
X46252Y-55278
X46252Y-56184
X46319Y-9431
X46319Y-10395
X46319Y-39983
X46319Y-40948
X46957Y-14883
X46957Y-45436
X46976Y-15907
X46976Y-16852
X46976Y-17797
X46976Y-18742
X46976Y-19962
X46976Y-21360
X46976Y-46459
X46976Y-47404
X46976Y-48349
X46976Y-49294
X46976Y-50515
X46976Y-51912
X47020Y-22560
X47020Y-23781
X47020Y-53113
X47020Y-54334
X47252Y-24726
X47252Y-25631
X47252Y-55278
X47252Y-56184
X47319Y-9431
X47319Y-10395
X47319Y-39983
X47319Y-40948
X47957Y-14883
X47957Y-45436
X47976Y-15907
X47976Y-16852
X47976Y-17797
X47976Y-18742
X47976Y-19962
X47976Y-21360
X47976Y-46459
X47976Y-47404
X47976Y-48349
X47976Y-49294
X47976Y-50515
X47976Y-51912
X48020Y-22560
X48020Y-23781
X48020Y-53113
X48020Y-54334
X48252Y-24726
X48252Y-25631
X48252Y-55278
X48252Y-56184
X48319Y-9431
X48319Y-10395
X48319Y-39983
X48319Y-40948
X48957Y-14883
X48957Y-45436
X48976Y-15907
X48976Y-16852
X48976Y-17797
X48976Y-18742
X48976Y-19962
X48976Y-21360
X48976Y-46459
X48976Y-47404
X48976Y-48349
X48976Y-49294
X48976Y-50515
X48976Y-51912
X49020Y-22560
X49020Y-23781
X49020Y-53113
X49020Y-54334
X49252Y-24726
X49252Y-25631
X49252Y-55278
X49252Y-56184
X49319Y-9431
X49319Y-10395
X49319Y-39983
X49319Y-40948
X49957Y-14883
X49957Y-45436
X49976Y-15907
X49976Y-16852
X49976Y-17797
X49976Y-18742
X49976Y-19962
X49976Y-21360
X49976Y-46459
X49976Y-47404
X49976Y-48349
X49976Y-49294
X49976Y-50515
X49976Y-51912
X50020Y-22560
X50020Y-23781
X50020Y-53113
X50020Y-54334
X50252Y-24726
X50252Y-25631
X50252Y-55278
X50252Y-56184
X50319Y-9431
X50319Y-10395
X50319Y-39983
X50319Y-40948
X50957Y-14883
X50957Y-45436
X50976Y-15907
X50976Y-16852
X50976Y-17797
X50976Y-18742
X50976Y-19962
X50976Y-21360
X50976Y-46459
X50976Y-47404
X50976Y-48349
X50976Y-49294
X50976Y-50515
X50976Y-51912
X51020Y-22560
X51020Y-23781
X51020Y-53113
X51020Y-54334
X51252Y-24726
X51252Y-25631
X51252Y-55278
X51252Y-56184
X51319Y-9431
X51319Y-10395
X51319Y-39983
X51319Y-40948
X51957Y-14883
X51957Y-45436
X51976Y-15907
X51976Y-16852
X51976Y-17797
X51976Y-18742
X51976Y-19962
X51976Y-21360
X51976Y-46459
X51976Y-47404
X51976Y-48349
X51976Y-49294
X51976Y-50515
X51976Y-51912
X52020Y-22560
X52020Y-23781
X52020Y-53113
X52020Y-54334
X52252Y-24726
X52252Y-25631
X52252Y-55278
X52252Y-56184
X52319Y-9431
X52319Y-10395
X52319Y-39983
X52319Y-40948
X52957Y-14883
X52957Y-45436
X52976Y-15907
X52976Y-16852
X52976Y-17797
X52976Y-18742
X52976Y-19962
X52976Y-21360
X52976Y-46459
X52976Y-47404
X52976Y-48349
X52976Y-49294
X52976Y-50515
X52976Y-51912
X53020Y-22560
X53020Y-23781
X53020Y-53113
X53020Y-54334
X53252Y-24726
X53252Y-25631
X53252Y-55278
X53252Y-56184
X53319Y-9431
X53319Y-10395
X53319Y-39983
X53319Y-40948
X53957Y-14883
X53957Y-45436
X53976Y-15907
X53976Y-16852
X53976Y-17797
X53976Y-18742
X53976Y-19962
X53976Y-21360
X53976Y-46459
X53976Y-47404
X53976Y-48349
X53976Y-49294
X53976Y-50515
X53976Y-51912
X54020Y-22560
X54020Y-23781
X54020Y-53113
X54020Y-54334
X54252Y-24726
X54252Y-25631
X54252Y-55278
X54252Y-56184
X54319Y-9431
X54319Y-10395
X54319Y-39983
X54319Y-40948
X54957Y-14883
X54957Y-45436
X54976Y-15907
X54976Y-16852
X54976Y-17797
X54976Y-18742
X54976Y-19962
X54976Y-21360
X54976Y-46459
X54976Y-47404
X54976Y-48349
X54976Y-49294
X54976Y-50515
X54976Y-51912
X55020Y-22560
X55020Y-23781
X55020Y-53113
X55020Y-54334
X55252Y-24726
X55252Y-25631
X55252Y-55278
X55252Y-56184
X55319Y-9431
X55319Y-10395
X55319Y-39983
X55319Y-40948
X55957Y-14883
X55957Y-45436
X55976Y-15907
X55976Y-16852
X55976Y-17797
X55976Y-18742
X55976Y-19962
X55976Y-21360
X55976Y-46459
X55976Y-47404
X55976Y-48349
X55976Y-49294
X55976Y-50515
X55976Y-51912
X56020Y-22560
X56020Y-23781
X56020Y-53113
X56020Y-54334
X56252Y-24726
X56252Y-25631
X56252Y-55278
X56252Y-56184
X56319Y-9431
X56319Y-10395
X56319Y-39983
X56319Y-40948
X56957Y-14883
X56957Y-45436
X56976Y-15907
X56976Y-16852
X56976Y-17797
X56976Y-18742
X56976Y-19962
X56976Y-21360
X56976Y-46459
X56976Y-47404
X56976Y-48349
X56976Y-49294
X56976Y-50515
X56976Y-51912
X57020Y-22560
X57020Y-23781
X57020Y-53113
X57020Y-54334
X57252Y-24726
X57252Y-25631
X57252Y-55278
X57252Y-56184
X57319Y-9431
X57319Y-10395
X57319Y-39983
X57319Y-40948
X57957Y-14883
X57957Y-45436
X57976Y-15907
X57976Y-16852
X57976Y-17797
X57976Y-18742
X57976Y-19962
X57976Y-21360
X57976Y-46459
X57976Y-47404
X57976Y-48349
X57976Y-49294
X57976Y-50515
X57976Y-51912
X58020Y-22560
X58020Y-23781
X58020Y-53113
X58020Y-54334
X58252Y-24726
X58252Y-25631
X58252Y-55278
X58252Y-56184
X58319Y-9431
X58319Y-10395
X58319Y-39983
X58319Y-40948
X58957Y-14883
X58957Y-45436
X58976Y-15907
X58976Y-16852
X58976Y-17797
X58976Y-18742
X58976Y-19962
X58976Y-21360
X58976Y-46459
X58976Y-47404
X58976Y-48349
X58976Y-49294
X58976Y-50515
X58976Y-51912
X59020Y-22560
X59020Y-23781
X59020Y-53113
X59020Y-54334
X59252Y-24726
X59252Y-25631
X59252Y-55278
X59252Y-56184
X59319Y-9431
X59319Y-10395
X59319Y-39983
X59319Y-40948
X59890Y-20801
X59890Y-51353
X59902Y-21852
X59902Y-52404
X59957Y-14883
X59957Y-45436
X59976Y-15907
X59976Y-16852
X59976Y-17797
X59976Y-18742
X59976Y-19962
X59976Y-21360
X59976Y-46459
X59976Y-47404
X59976Y-48349
X59976Y-49294
X59976Y-50515
X59976Y-51912
X60020Y-22560
X60020Y-23781
X60020Y-53113
X60020Y-54334
X60252Y-24726
X60252Y-25631
X60252Y-55278
X60252Y-56184
X60319Y-9431
X60319Y-10395
X60319Y-39983
X60319Y-40948
X61319Y-9431
X61319Y-10395
X61319Y-39983
X61319Y-40948
X61957Y-14883
X61957Y-45436
X61976Y-15907
X61976Y-16852
X61976Y-17797
X61976Y-18742
X61976Y-46459
X61976Y-47404
X61976Y-48349
X61976Y-49294
X62319Y-9431
X62319Y-10395
X62319Y-39983
X62319Y-40948
X62441Y-21340
X62441Y-51893
X62461Y-20001
X62461Y-22541
X62461Y-23781
X62461Y-24726
X62461Y-25887
X62461Y-50554
X62461Y-53093
X62461Y-54334
X62461Y-55278
X62461Y-56440
X62957Y-14883
X62957Y-45436
X62976Y-15907
X62976Y-16852
X62976Y-17797
X62976Y-18742
X62976Y-46459
X62976Y-47404
X62976Y-48349
X62976Y-49294
X63319Y-9431
X63319Y-10395
X63319Y-39983
X63319Y-40948
X63976Y-15907
X63976Y-16852
X63976Y-17797
X63976Y-18742
X63976Y-46459
X63976Y-47404
X63976Y-48349
X63976Y-49294
X64252Y-20041
X64252Y-50593
X64272Y-21340
X64272Y-22501
X64272Y-23801
X64272Y-24706
X64272Y-25946
X64272Y-51893
X64272Y-53054
X64272Y-54353
X64272Y-55259
X64272Y-56499
X64319Y-9431
X64319Y-10395
X64319Y-39983
X64319Y-40948
X64539Y-13997
X64539Y-44550
X64976Y-15907
X64976Y-16852
X64976Y-17797
X64976Y-18742
X64976Y-46459
X64976Y-47404
X64976Y-48349
X64976Y-49294
X65138Y-11281
X65138Y-41834
X65539Y-13997
X65539Y-44550
X65669Y-23801
X65669Y-24726
X65669Y-25631
X65669Y-54353
X65669Y-55278
X65669Y-56184
X65709Y-21379
X65709Y-22560
X65709Y-51932
X65709Y-53113
X65925Y-12049
X65925Y-42601
X65976Y-15907
X65976Y-16852
X65976Y-17797
X65976Y-18742
X65976Y-19962
X65976Y-46459
X65976Y-47404
X65976Y-48349
X65976Y-49294
X65976Y-50515
X66102Y-10454
X66102Y-41007
X66539Y-13997
X66539Y-44550
X66614Y-28663
X66614Y-29663
X66614Y-30663
X66614Y-31663
X66614Y-32663
X66614Y-59215
X66614Y-60215
X66614Y-61215
X66614Y-62215
X66614Y-63215
X66811Y-11222
X66811Y-41774
X66890Y-13230
X66890Y-43782
X66976Y-17797
X66976Y-18742
X66976Y-19962
X66976Y-48349
X66976Y-49294
X66976Y-50515
X67055Y-20801
X67055Y-51353
X67067Y-21852
X67067Y-52404
X67539Y-13997
X67539Y-44550
X67614Y-28663
X67614Y-29663
X67614Y-30663
X67614Y-31663
X67614Y-32663
X67614Y-59215
X67614Y-60215
X67614Y-61215
X67614Y-62215
X67614Y-63215
X67717Y-12127
X67717Y-42680
X67976Y-15907
X67976Y-16852
X67976Y-17797
X67976Y-18742
X67976Y-19962
X67976Y-46459
X67976Y-47404
X67976Y-48349
X67976Y-49294
X67976Y-50515
X68020Y-22560
X68020Y-23781
X68020Y-53113
X68020Y-54334
X68031Y-24726
X68031Y-25631
X68031Y-55278
X68031Y-56184
X68614Y-28663
X68614Y-29663
X68614Y-30663
X68614Y-31663
X68614Y-32663
X68614Y-59215
X68614Y-60215
X68614Y-61215
X68614Y-62215
X68614Y-63215
X68642Y-13112
X68642Y-43664
X68976Y-15907
X68976Y-16852
X68976Y-17797
X68976Y-18742
X68976Y-19962
X68976Y-46459
X68976Y-47404
X68976Y-48349
X68976Y-49294
X68976Y-50515
X69016Y-24726
X69016Y-25631
X69016Y-55278
X69016Y-56184
X69020Y-22560
X69020Y-23781
X69020Y-53113
X69020Y-54334
X69567Y-20159
X69567Y-21852
X69567Y-50711
X69567Y-52404
X69614Y-28663
X69614Y-29663
X69614Y-30663
X69614Y-31663
X69614Y-32663
X69614Y-59215
X69614Y-60215
X69614Y-61215
X69614Y-62215
X69614Y-63215
X69976Y-15907
X69976Y-16852
X69976Y-18742
X69976Y-46459
X69976Y-47404
X69976Y-49294
X69980Y-13919
X69980Y-44471
X70236Y-17757
X70236Y-48310
X70394Y-23860
X70394Y-54412
X70472Y-25671
X70472Y-56223
X70669Y-22521
X70669Y-53074
X70709Y-17757
X70709Y-48310
X71781Y-9893
X71781Y-40446
X72559Y-14017
X72559Y-14962
X72559Y-15907
X72559Y-16852
X72559Y-17797
X72559Y-18742
X72559Y-19686
X72559Y-20316
X72559Y-21261
X72559Y-22206
X72559Y-22836
X72559Y-23781
X72559Y-24726
X72559Y-44570
X72559Y-45515
X72559Y-46459
X72559Y-47404
X72559Y-48349
X72559Y-49294
X72559Y-50239
X72559Y-50869
X72559Y-51814
X72559Y-52759
X72559Y-53389
X72559Y-54334
X72559Y-55278
X72598Y-13013
X72598Y-43566
X72835Y-13702
X72835Y-14312
X72835Y-14667
X72835Y-15257
X72835Y-15612
X72835Y-16202
X72835Y-16557
X72835Y-17147
X72835Y-17502
X72835Y-18092
X72835Y-18447
X72835Y-19036
X72835Y-19392
X72835Y-23131
X72835Y-23486
X72835Y-24076
X72835Y-24431
X72835Y-25021
X72835Y-25376
X72835Y-44255
X72835Y-44865
X72835Y-45220
X72835Y-45809
X72835Y-46165
X72835Y-46754
X72835Y-47109
X72835Y-47699
X72835Y-48054
X72835Y-48644
X72835Y-48999
X72835Y-49589
X72835Y-49944
X72835Y-53684
X72835Y-54039
X72835Y-54628
X72835Y-54984
X72835Y-55573
X72835Y-55928
X73898Y-29686
X73898Y-60239
T2
X11313Y-11694
X11313Y-12679
X11313Y-42247
X11313Y-43231
X11707Y-10907
X11707Y-13466
X11707Y-41459
X11707Y-44019
X12100Y-11694
X12100Y-12679
X12100Y-42247
X12100Y-43231
X12494Y-10907
X12494Y-13466
X12494Y-41459
X12494Y-44019
X12888Y-11694
X12888Y-12679
X12888Y-42247
X12888Y-43231
X13281Y-10907
X13281Y-13466
X13281Y-41459
X13281Y-44019
X13675Y-11694
X13675Y-12679
X13675Y-42247
X13675Y-43231
X14069Y-10907
X14069Y-13466
X14069Y-41459
X14069Y-44019
X14463Y-11694
X14463Y-12679
X14463Y-42247
X14463Y-43231
X14856Y-10907
X14856Y-13466
X14856Y-41459
X14856Y-44019
X15250Y-11694
X15250Y-12679
X15250Y-42247
X15250Y-43231
X16431Y-10907
X16431Y-13466
X16431Y-41459
X16431Y-44019
X16825Y-11694
X16825Y-12679
X16825Y-42247
X16825Y-43231
X17219Y-10907
X17219Y-13466
X17219Y-41459
X17219Y-44019
X17612Y-11694
X17612Y-12679
X17612Y-42247
X17612Y-43231
X18006Y-10907
X18006Y-13466
X18006Y-41459
X18006Y-44019
X18400Y-11694
X18400Y-12679
X18400Y-42247
X18400Y-43231
X18793Y-10907
X18793Y-13466
X18793Y-41459
X18793Y-44019
X19187Y-11694
X19187Y-12679
X19187Y-42247
X19187Y-43231
X19581Y-10907
X19581Y-13466
X19581Y-41459
X19581Y-44019
X19974Y-11694
X19974Y-12679
X19974Y-42247
X19974Y-43231
X20368Y-10907
X20368Y-13466
X20368Y-41459
X20368Y-44019
X20762Y-11694
X20762Y-12679
X20762Y-42247
X20762Y-43231
X21156Y-10907
X21156Y-13466
X21156Y-41459
X21156Y-44019
X21549Y-11694
X21549Y-12679
X21549Y-42247
X21549Y-43231
X21943Y-10907
X21943Y-13466
X21943Y-41459
X21943Y-44019
X22337Y-11694
X22337Y-12679
X22337Y-42247
X22337Y-43231
X22730Y-10907
X22730Y-13466
X22730Y-41459
X22730Y-44019
X23124Y-11694
X23124Y-12679
X23124Y-42247
X23124Y-43231
X23518Y-10907
X23518Y-13466
X23518Y-41459
X23518Y-44019
X23911Y-11694
X23911Y-12679
X23911Y-42247
X23911Y-43231
X24305Y-10907
X24305Y-13466
X24305Y-41459
X24305Y-44019
T0
M30
