G04 #@! TF.GenerationSoftware,KiCad,Pcbnew,6.0.7*
G04 #@! TF.CreationDate,2022-09-06T12:37:21-05:00*
G04 #@! TF.ProjectId,panel,70616e65-6c2e-46b6-9963-61645f706362,rev?*
G04 #@! TF.SameCoordinates,Original*
G04 #@! TF.FileFunction,Soldermask,Top*
G04 #@! TF.FilePolarity,Negative*
%FSLAX46Y46*%
G04 Gerber Fmt 4.6, Leading zero omitted, Abs format (unit mm)*
G04 Created by KiCad (PCBNEW 6.0.7) date 2022-09-06 12:37:21*
%MOMM*%
%LPD*%
G01*
G04 APERTURE LIST*
G04 Aperture macros list*
%AMRoundRect*
0 Rectangle with rounded corners*
0 $1 Rounding radius*
0 $2 $3 $4 $5 $6 $7 $8 $9 X,Y pos of 4 corners*
0 Add a 4 corners polygon primitive as box body*
4,1,4,$2,$3,$4,$5,$6,$7,$8,$9,$2,$3,0*
0 Add four circle primitives for the rounded corners*
1,1,$1+$1,$2,$3*
1,1,$1+$1,$4,$5*
1,1,$1+$1,$6,$7*
1,1,$1+$1,$8,$9*
0 Add four rect primitives between the rounded corners*
20,1,$1+$1,$2,$3,$4,$5,0*
20,1,$1+$1,$4,$5,$6,$7,0*
20,1,$1+$1,$6,$7,$8,$9,0*
20,1,$1+$1,$8,$9,$2,$3,0*%
G04 Aperture macros list end*
%ADD10C,0.600000*%
%ADD11C,1.700000*%
%ADD12RoundRect,0.218750X0.218750X0.256250X-0.218750X0.256250X-0.218750X-0.256250X0.218750X-0.256250X0*%
%ADD13RoundRect,0.200000X-0.200000X-0.275000X0.200000X-0.275000X0.200000X0.275000X-0.200000X0.275000X0*%
%ADD14RoundRect,0.200000X0.275000X-0.200000X0.275000X0.200000X-0.275000X0.200000X-0.275000X-0.200000X0*%
%ADD15C,2.000000*%
%ADD16RoundRect,0.200000X-0.275000X0.200000X-0.275000X-0.200000X0.275000X-0.200000X0.275000X0.200000X0*%
%ADD17C,1.524000*%
%ADD18R,1.000000X1.000000*%
%ADD19C,1.000000*%
%ADD20C,2.400000*%
%ADD21R,1.500000X0.500000*%
%ADD22R,1.200000X0.500000*%
%ADD23R,2.600000X2.600000*%
%ADD24R,1.500000X0.600000*%
G04 APERTURE END LIST*
D10*
G04 #@! TO.C,REF\u002A\u002A*
X146999987Y-99755647D03*
G04 #@! TD*
G04 #@! TO.C,REF\u002A\u002A*
X105999995Y-91853400D03*
G04 #@! TD*
G04 #@! TO.C,REF\u002A\u002A*
X20000000Y-169611776D03*
G04 #@! TD*
D11*
G04 #@! TO.C,REF\u002A\u002A*
X17500000Y-171611776D03*
G04 #@! TD*
D10*
G04 #@! TO.C,REF\u002A\u002A*
X148999987Y-99755814D03*
G04 #@! TD*
G04 #@! TO.C,REF\u002A\u002A*
X147999995Y-91852234D03*
G04 #@! TD*
G04 #@! TO.C,REF\u002A\u002A*
X22000000Y-173278442D03*
G04 #@! TD*
G04 #@! TO.C,REF\u002A\u002A*
X22000000Y-16666666D03*
G04 #@! TD*
G04 #@! TO.C,REF\u002A\u002A*
X62999996Y-91852478D03*
G04 #@! TD*
G04 #@! TO.C,REF\u002A\u002A*
X190000000Y-19166666D03*
G04 #@! TD*
G04 #@! TO.C,REF\u002A\u002A*
X185850000Y-135606776D03*
G04 #@! TD*
G04 #@! TO.C,REF\u002A\u002A*
X22000000Y-174945109D03*
G04 #@! TD*
D11*
G04 #@! TO.C,REF\u002A\u002A*
X194500000Y-20000000D03*
G04 #@! TD*
D12*
G04 #@! TO.C,D2*
X42075000Y-63003553D03*
X40500000Y-63003553D03*
G04 #@! TD*
D10*
G04 #@! TO.C,REF\u002A\u002A*
X193666666Y-169611776D03*
G04 #@! TD*
D13*
G04 #@! TO.C,R1*
X30100000Y-37903553D03*
X31750000Y-37903553D03*
G04 #@! TD*
D10*
G04 #@! TO.C,REF\u002A\u002A*
X20000000Y-22000000D03*
G04 #@! TD*
G04 #@! TO.C,REF\u002A\u002A*
X148000010Y-169460572D03*
G04 #@! TD*
G04 #@! TO.C,REF\u002A\u002A*
X147999995Y-22153094D03*
G04 #@! TD*
G04 #@! TO.C,REF\u002A\u002A*
X63000018Y-99756805D03*
G04 #@! TD*
G04 #@! TO.C,REF\u002A\u002A*
X15833334Y-22000000D03*
G04 #@! TD*
G04 #@! TO.C,REF\u002A\u002A*
X64000018Y-99756682D03*
G04 #@! TD*
D13*
G04 #@! TO.C,R9*
X36087500Y-140607106D03*
X37737500Y-140607106D03*
G04 #@! TD*
D10*
G04 #@! TO.C,REF\u002A\u002A*
X190000000Y-174945109D03*
G04 #@! TD*
G04 #@! TO.C,REF\u002A\u002A*
X190000000Y-175778442D03*
G04 #@! TD*
G04 #@! TO.C,REF\u002A\u002A*
X22000000Y-175778442D03*
G04 #@! TD*
G04 #@! TO.C,REF\u002A\u002A*
X65000018Y-99756559D03*
G04 #@! TD*
G04 #@! TO.C,REF\u002A\u002A*
X194500000Y-169611776D03*
G04 #@! TD*
D14*
G04 #@! TO.C,R3*
X39200000Y-120107106D03*
X39200000Y-118457106D03*
G04 #@! TD*
D10*
G04 #@! TO.C,REF\u002A\u002A*
X193666666Y-22000000D03*
G04 #@! TD*
G04 #@! TO.C,REF\u002A\u002A*
X19166667Y-169611776D03*
G04 #@! TD*
D13*
G04 #@! TO.C,R10*
X169050000Y-115407106D03*
X170700000Y-115407106D03*
G04 #@! TD*
G04 #@! TO.C,R2*
X39750000Y-46103553D03*
X41400000Y-46103553D03*
G04 #@! TD*
D10*
G04 #@! TO.C,REF\u002A\u002A*
X22000000Y-172445109D03*
G04 #@! TD*
G04 #@! TO.C,REF\u002A\u002A*
X22150000Y-134606776D03*
G04 #@! TD*
G04 #@! TO.C,REF\u002A\u002A*
X192000000Y-169611776D03*
G04 #@! TD*
G04 #@! TO.C,REF\u002A\u002A*
X22000000Y-19166666D03*
G04 #@! TD*
G04 #@! TO.C,REF\u002A\u002A*
X146999995Y-91852261D03*
G04 #@! TD*
G04 #@! TO.C,REF\u002A\u002A*
X149000010Y-169460644D03*
G04 #@! TD*
D11*
G04 #@! TO.C,REF\u002A\u002A*
X17500000Y-20000000D03*
G04 #@! TD*
D12*
G04 #@! TO.C,D2*
X42075000Y-140607106D03*
X40500000Y-140607106D03*
G04 #@! TD*
D10*
G04 #@! TO.C,REF\u002A\u002A*
X105999995Y-22151927D03*
G04 #@! TD*
D15*
G04 #@! TO.C,REF\u002A\u002A*
X17500000Y-174111776D03*
G04 #@! TD*
D10*
G04 #@! TO.C,REF\u002A\u002A*
X190000000Y-17500000D03*
G04 #@! TD*
D16*
G04 #@! TO.C,R6*
X33100000Y-120357106D03*
X33100000Y-122007106D03*
G04 #@! TD*
D14*
G04 #@! TO.C,R3*
X39200000Y-42503553D03*
X39200000Y-40853553D03*
G04 #@! TD*
D10*
G04 #@! TO.C,REF\u002A\u002A*
X147999987Y-99755730D03*
G04 #@! TD*
D14*
G04 #@! TO.C,R5*
X29700000Y-48228553D03*
X29700000Y-46578553D03*
G04 #@! TD*
D10*
G04 #@! TO.C,REF\u002A\u002A*
X16666667Y-169611776D03*
G04 #@! TD*
G04 #@! TO.C,REF\u002A\u002A*
X197000000Y-22000000D03*
G04 #@! TD*
D17*
G04 #@! TO.C,J1*
X63535000Y-30953553D03*
X40385000Y-30953553D03*
D18*
X28735000Y-29703553D03*
D19*
X29735000Y-27703553D03*
X30735000Y-29703553D03*
X31735000Y-27703553D03*
X32735000Y-29703553D03*
X33735000Y-27703553D03*
X34735000Y-29703553D03*
X35735000Y-27703553D03*
X36735000Y-29703553D03*
X37735000Y-27703553D03*
X38735000Y-29703553D03*
X41735000Y-27703553D03*
X42735000Y-29703553D03*
X43735000Y-27703553D03*
X44735000Y-29703553D03*
X45735000Y-27703553D03*
X46735000Y-29703553D03*
X47735000Y-27703553D03*
X48735000Y-29703553D03*
X49735000Y-27703553D03*
X50735000Y-29703553D03*
X51735000Y-27703553D03*
X52735000Y-29703553D03*
X53735000Y-27703553D03*
X54735000Y-29703553D03*
X55735000Y-27703553D03*
X56735000Y-29703553D03*
X57735000Y-27703553D03*
X58735000Y-29703553D03*
X59735000Y-27703553D03*
X60735000Y-29703553D03*
X61735000Y-27703553D03*
X28735000Y-32203553D03*
X29735000Y-34203553D03*
X30735000Y-32203553D03*
X31735000Y-34203553D03*
X32735000Y-32203553D03*
X33735000Y-34203553D03*
X34735000Y-32203553D03*
X35735000Y-34203553D03*
X36735000Y-32203553D03*
X37735000Y-34203553D03*
X38735000Y-32203553D03*
X41735000Y-34203553D03*
X42735000Y-32203553D03*
X43735000Y-34203553D03*
X44735000Y-32203553D03*
X45735000Y-34203553D03*
X46735000Y-32203553D03*
X47735000Y-34203553D03*
X48735000Y-32203553D03*
X49735000Y-34203553D03*
X50735000Y-32203553D03*
X51735000Y-34203553D03*
X52735000Y-32203553D03*
X53735000Y-34203553D03*
X54735000Y-32203553D03*
X55735000Y-34203553D03*
X56735000Y-32203553D03*
X57735000Y-34203553D03*
X58735000Y-32203553D03*
X59735000Y-34203553D03*
X60735000Y-32203553D03*
X61735000Y-34203553D03*
G04 #@! TD*
D10*
G04 #@! TO.C,REF\u002A\u002A*
X22000000Y-176611776D03*
G04 #@! TD*
G04 #@! TO.C,REF\u002A\u002A*
X19166667Y-22000000D03*
G04 #@! TD*
G04 #@! TO.C,REF\u002A\u002A*
X185850000Y-56001776D03*
G04 #@! TD*
G04 #@! TO.C,REF\u002A\u002A*
X190000000Y-171611776D03*
G04 #@! TD*
G04 #@! TO.C,REF\u002A\u002A*
X63999996Y-91852452D03*
G04 #@! TD*
G04 #@! TO.C,REF\u002A\u002A*
X190000000Y-172445109D03*
G04 #@! TD*
G04 #@! TO.C,REF\u002A\u002A*
X17500000Y-22000000D03*
G04 #@! TD*
G04 #@! TO.C,REF\u002A\u002A*
X190000000Y-16666666D03*
G04 #@! TD*
G04 #@! TO.C,REF\u002A\u002A*
X64000010Y-169459998D03*
G04 #@! TD*
G04 #@! TO.C,REF\u002A\u002A*
X18333334Y-169611776D03*
G04 #@! TD*
D13*
G04 #@! TO.C,R10*
X169050000Y-37803553D03*
X170700000Y-37803553D03*
G04 #@! TD*
D10*
G04 #@! TO.C,REF\u002A\u002A*
X106999995Y-91853372D03*
G04 #@! TD*
D12*
G04 #@! TO.C,D1*
X42075000Y-145107106D03*
X40500000Y-145107106D03*
G04 #@! TD*
D10*
G04 #@! TO.C,REF\u002A\u002A*
X107000010Y-169457580D03*
G04 #@! TD*
D12*
G04 #@! TO.C,D1*
X42075000Y-67503553D03*
X40500000Y-67503553D03*
G04 #@! TD*
D14*
G04 #@! TO.C,R7*
X29700000Y-44403553D03*
X29700000Y-42753553D03*
G04 #@! TD*
D10*
G04 #@! TO.C,REF\u002A\u002A*
X22150000Y-133606776D03*
G04 #@! TD*
G04 #@! TO.C,REF\u002A\u002A*
X106000010Y-169457507D03*
G04 #@! TD*
D15*
G04 #@! TO.C,REF\u002A\u002A*
X17500000Y-17500000D03*
G04 #@! TD*
D10*
G04 #@! TO.C,REF\u002A\u002A*
X195333333Y-169611776D03*
G04 #@! TD*
G04 #@! TO.C,REF\u002A\u002A*
X148999995Y-22153122D03*
G04 #@! TD*
G04 #@! TO.C,REF\u002A\u002A*
X16666667Y-22000000D03*
G04 #@! TD*
G04 #@! TO.C,REF\u002A\u002A*
X22150000Y-57001776D03*
G04 #@! TD*
G04 #@! TO.C,REF\u002A\u002A*
X63000003Y-22150702D03*
G04 #@! TD*
G04 #@! TO.C,REF\u002A\u002A*
X22150000Y-135606776D03*
G04 #@! TD*
D13*
G04 #@! TO.C,R9*
X36087500Y-63003553D03*
X37737500Y-63003553D03*
G04 #@! TD*
D10*
G04 #@! TO.C,REF\u002A\u002A*
X22000000Y-174111776D03*
G04 #@! TD*
G04 #@! TO.C,REF\u002A\u002A*
X185850000Y-133606776D03*
G04 #@! TD*
G04 #@! TO.C,REF\u002A\u002A*
X105000010Y-169457434D03*
G04 #@! TD*
D14*
G04 #@! TO.C,R4*
X41200000Y-120157106D03*
X41200000Y-118507106D03*
G04 #@! TD*
D10*
G04 #@! TO.C,REF\u002A\u002A*
X190000000Y-15833333D03*
G04 #@! TD*
G04 #@! TO.C,REF\u002A\u002A*
X147000010Y-169460499D03*
G04 #@! TD*
D14*
G04 #@! TO.C,R5*
X29700000Y-125832106D03*
X29700000Y-124182106D03*
G04 #@! TD*
D10*
G04 #@! TO.C,REF\u002A\u002A*
X106999987Y-99752313D03*
G04 #@! TD*
G04 #@! TO.C,REF\u002A\u002A*
X64000003Y-22150675D03*
G04 #@! TD*
G04 #@! TO.C,REF\u002A\u002A*
X15000000Y-22000000D03*
G04 #@! TD*
D15*
G04 #@! TO.C,REF\u002A\u002A*
X194500000Y-174111776D03*
G04 #@! TD*
D10*
G04 #@! TO.C,REF\u002A\u002A*
X190000000Y-20000000D03*
G04 #@! TD*
G04 #@! TO.C,REF\u002A\u002A*
X63000010Y-169459928D03*
G04 #@! TD*
G04 #@! TO.C,REF\u002A\u002A*
X22150000Y-58001776D03*
G04 #@! TD*
G04 #@! TO.C,REF\u002A\u002A*
X65000003Y-22150649D03*
G04 #@! TD*
D15*
G04 #@! TO.C,J2*
X181200000Y-146027106D03*
D20*
X181200000Y-107087106D03*
D21*
X181300000Y-133637106D03*
X181300000Y-132837106D03*
X181300000Y-132037106D03*
X181300000Y-131237106D03*
X181300000Y-130437106D03*
X181300000Y-129637106D03*
D22*
X183000000Y-142007106D03*
X183000000Y-141207106D03*
X183000000Y-140407106D03*
X183000000Y-139607106D03*
X183000000Y-138807106D03*
X183000000Y-138007106D03*
X183000000Y-137207106D03*
X183000000Y-136407106D03*
X183000000Y-135607106D03*
X183000000Y-134807106D03*
X183000000Y-117207106D03*
X183000000Y-116407106D03*
X183000000Y-115607106D03*
X183000000Y-114807106D03*
X183000000Y-114007106D03*
X183000000Y-113207106D03*
X183000000Y-112407106D03*
X183000000Y-111607106D03*
X183000000Y-110807106D03*
D23*
X187730000Y-150382106D03*
X187730000Y-102732106D03*
D24*
X181300000Y-128462106D03*
X181300000Y-127192106D03*
X181300000Y-125922106D03*
X181300000Y-124652106D03*
X181300000Y-123382106D03*
X181300000Y-122112106D03*
X181300000Y-120842106D03*
X181300000Y-119572106D03*
X181300000Y-118302106D03*
X181300000Y-117032106D03*
X181300000Y-115762106D03*
X181300000Y-114492106D03*
X181300000Y-113222106D03*
X181300000Y-111952106D03*
X181300000Y-110682106D03*
X181300000Y-142432106D03*
X181300000Y-141162106D03*
X181300000Y-139892106D03*
X181300000Y-138622106D03*
X181300000Y-137352106D03*
X181300000Y-136082106D03*
X181300000Y-134812106D03*
D22*
X183000000Y-134007106D03*
X183000000Y-133207106D03*
X183000000Y-132407106D03*
X183000000Y-131607106D03*
X183000000Y-130807106D03*
X183000000Y-130007106D03*
X183000000Y-129207106D03*
X183000000Y-128407106D03*
X183000000Y-127607106D03*
X183000000Y-126807106D03*
X183000000Y-126007106D03*
X183000000Y-125207106D03*
X183000000Y-124407106D03*
X183000000Y-123607106D03*
X183000000Y-122807106D03*
X183000000Y-122007106D03*
X183000000Y-121207106D03*
X183000000Y-120407106D03*
X183000000Y-119607106D03*
X183000000Y-118807106D03*
X183000000Y-118007106D03*
G04 #@! TD*
D10*
G04 #@! TO.C,REF\u002A\u002A*
X197000000Y-169611776D03*
G04 #@! TD*
D17*
G04 #@! TO.C,J1*
X40385000Y-108557106D03*
X63535000Y-108557106D03*
D18*
X28735000Y-107307106D03*
D19*
X29735000Y-105307106D03*
X30735000Y-107307106D03*
X31735000Y-105307106D03*
X32735000Y-107307106D03*
X33735000Y-105307106D03*
X34735000Y-107307106D03*
X35735000Y-105307106D03*
X36735000Y-107307106D03*
X37735000Y-105307106D03*
X38735000Y-107307106D03*
X41735000Y-105307106D03*
X42735000Y-107307106D03*
X43735000Y-105307106D03*
X44735000Y-107307106D03*
X45735000Y-105307106D03*
X46735000Y-107307106D03*
X47735000Y-105307106D03*
X48735000Y-107307106D03*
X49735000Y-105307106D03*
X50735000Y-107307106D03*
X51735000Y-105307106D03*
X52735000Y-107307106D03*
X53735000Y-105307106D03*
X54735000Y-107307106D03*
X55735000Y-105307106D03*
X56735000Y-107307106D03*
X57735000Y-105307106D03*
X58735000Y-107307106D03*
X59735000Y-105307106D03*
X60735000Y-107307106D03*
X61735000Y-105307106D03*
X28735000Y-109807106D03*
X29735000Y-111807106D03*
X30735000Y-109807106D03*
X31735000Y-111807106D03*
X32735000Y-109807106D03*
X33735000Y-111807106D03*
X34735000Y-109807106D03*
X35735000Y-111807106D03*
X36735000Y-109807106D03*
X37735000Y-111807106D03*
X38735000Y-109807106D03*
X41735000Y-111807106D03*
X42735000Y-109807106D03*
X43735000Y-111807106D03*
X44735000Y-109807106D03*
X45735000Y-111807106D03*
X46735000Y-109807106D03*
X47735000Y-111807106D03*
X48735000Y-109807106D03*
X49735000Y-111807106D03*
X50735000Y-109807106D03*
X51735000Y-111807106D03*
X52735000Y-109807106D03*
X53735000Y-111807106D03*
X54735000Y-109807106D03*
X55735000Y-111807106D03*
X56735000Y-109807106D03*
X57735000Y-111807106D03*
X58735000Y-109807106D03*
X59735000Y-111807106D03*
X60735000Y-109807106D03*
X61735000Y-111807106D03*
G04 #@! TD*
D10*
G04 #@! TO.C,REF\u002A\u002A*
X15833334Y-169611776D03*
G04 #@! TD*
G04 #@! TO.C,REF\u002A\u002A*
X190000000Y-15000000D03*
G04 #@! TD*
G04 #@! TO.C,REF\u002A\u002A*
X190000000Y-18333333D03*
G04 #@! TD*
G04 #@! TO.C,REF\u002A\u002A*
X22000000Y-15000000D03*
G04 #@! TD*
G04 #@! TO.C,REF\u002A\u002A*
X15000000Y-169611776D03*
G04 #@! TD*
G04 #@! TO.C,REF\u002A\u002A*
X185850000Y-57001776D03*
G04 #@! TD*
G04 #@! TO.C,REF\u002A\u002A*
X22000000Y-15833333D03*
G04 #@! TD*
D15*
G04 #@! TO.C,J2*
X181200000Y-68423553D03*
D20*
X181200000Y-29483553D03*
D21*
X181300000Y-56033553D03*
X181300000Y-55233553D03*
X181300000Y-54433553D03*
X181300000Y-53633553D03*
X181300000Y-52833553D03*
X181300000Y-52033553D03*
D22*
X183000000Y-64403553D03*
X183000000Y-63603553D03*
X183000000Y-62803553D03*
X183000000Y-62003553D03*
X183000000Y-61203553D03*
X183000000Y-60403553D03*
X183000000Y-59603553D03*
X183000000Y-58803553D03*
X183000000Y-58003553D03*
X183000000Y-57203553D03*
X183000000Y-39603553D03*
X183000000Y-38803553D03*
X183000000Y-38003553D03*
X183000000Y-37203553D03*
X183000000Y-36403553D03*
X183000000Y-35603553D03*
X183000000Y-34803553D03*
X183000000Y-34003553D03*
X183000000Y-33203553D03*
D23*
X187730000Y-72778553D03*
X187730000Y-25128553D03*
D24*
X181300000Y-50858553D03*
X181300000Y-49588553D03*
X181300000Y-48318553D03*
X181300000Y-47048553D03*
X181300000Y-45778553D03*
X181300000Y-44508553D03*
X181300000Y-43238553D03*
X181300000Y-41968553D03*
X181300000Y-40698553D03*
X181300000Y-39428553D03*
X181300000Y-38158553D03*
X181300000Y-36888553D03*
X181300000Y-35618553D03*
X181300000Y-34348553D03*
X181300000Y-33078553D03*
X181300000Y-64828553D03*
X181300000Y-63558553D03*
X181300000Y-62288553D03*
X181300000Y-61018553D03*
X181300000Y-59748553D03*
X181300000Y-58478553D03*
X181300000Y-57208553D03*
D22*
X183000000Y-56403553D03*
X183000000Y-55603553D03*
X183000000Y-54803553D03*
X183000000Y-54003553D03*
X183000000Y-53203553D03*
X183000000Y-52403553D03*
X183000000Y-51603553D03*
X183000000Y-50803553D03*
X183000000Y-50003553D03*
X183000000Y-49203553D03*
X183000000Y-48403553D03*
X183000000Y-47603553D03*
X183000000Y-46803553D03*
X183000000Y-46003553D03*
X183000000Y-45203553D03*
X183000000Y-44403553D03*
X183000000Y-43603553D03*
X183000000Y-42803553D03*
X183000000Y-42003553D03*
X183000000Y-41203553D03*
X183000000Y-40403553D03*
G04 #@! TD*
D10*
G04 #@! TO.C,REF\u002A\u002A*
X65000010Y-169460068D03*
G04 #@! TD*
G04 #@! TO.C,REF\u002A\u002A*
X106999995Y-22151955D03*
G04 #@! TD*
D13*
G04 #@! TO.C,R1*
X30100000Y-115507106D03*
X31750000Y-115507106D03*
G04 #@! TD*
D10*
G04 #@! TO.C,REF\u002A\u002A*
X64999996Y-91852425D03*
G04 #@! TD*
G04 #@! TO.C,REF\u002A\u002A*
X146999995Y-22153066D03*
G04 #@! TD*
G04 #@! TO.C,REF\u002A\u002A*
X22000000Y-17500000D03*
G04 #@! TD*
G04 #@! TO.C,REF\u002A\u002A*
X194500000Y-22000000D03*
G04 #@! TD*
G04 #@! TO.C,REF\u002A\u002A*
X104999995Y-91853428D03*
G04 #@! TD*
D14*
G04 #@! TO.C,R7*
X29700000Y-122007106D03*
X29700000Y-120357106D03*
G04 #@! TD*
D13*
G04 #@! TO.C,R8*
X35950000Y-67503553D03*
X37600000Y-67503553D03*
G04 #@! TD*
D10*
G04 #@! TO.C,REF\u002A\u002A*
X192000000Y-22000000D03*
G04 #@! TD*
G04 #@! TO.C,REF\u002A\u002A*
X22000000Y-18333333D03*
G04 #@! TD*
G04 #@! TO.C,REF\u002A\u002A*
X192833333Y-22000000D03*
G04 #@! TD*
G04 #@! TO.C,REF\u002A\u002A*
X195333333Y-22000000D03*
G04 #@! TD*
D16*
G04 #@! TO.C,R6*
X33100000Y-42753553D03*
X33100000Y-44403553D03*
G04 #@! TD*
D10*
G04 #@! TO.C,REF\u002A\u002A*
X105999987Y-99752230D03*
G04 #@! TD*
G04 #@! TO.C,REF\u002A\u002A*
X18333334Y-22000000D03*
G04 #@! TD*
G04 #@! TO.C,REF\u002A\u002A*
X22000000Y-20000000D03*
G04 #@! TD*
D13*
G04 #@! TO.C,R2*
X39750000Y-123707106D03*
X41400000Y-123707106D03*
G04 #@! TD*
D10*
G04 #@! TO.C,REF\u002A\u002A*
X190000000Y-176611776D03*
G04 #@! TD*
D15*
G04 #@! TO.C,REF\u002A\u002A*
X194500000Y-17500000D03*
G04 #@! TD*
D10*
G04 #@! TO.C,REF\u002A\u002A*
X104999987Y-99752146D03*
G04 #@! TD*
G04 #@! TO.C,REF\u002A\u002A*
X196166666Y-169611776D03*
G04 #@! TD*
G04 #@! TO.C,REF\u002A\u002A*
X148999995Y-91852206D03*
G04 #@! TD*
G04 #@! TO.C,REF\u002A\u002A*
X196166666Y-22000000D03*
G04 #@! TD*
D14*
G04 #@! TO.C,R4*
X41200000Y-42553553D03*
X41200000Y-40903553D03*
G04 #@! TD*
D10*
G04 #@! TO.C,REF\u002A\u002A*
X22000000Y-171611776D03*
G04 #@! TD*
G04 #@! TO.C,REF\u002A\u002A*
X192833333Y-169611776D03*
G04 #@! TD*
G04 #@! TO.C,REF\u002A\u002A*
X185850000Y-58001776D03*
G04 #@! TD*
G04 #@! TO.C,REF\u002A\u002A*
X190000000Y-174111776D03*
G04 #@! TD*
D13*
G04 #@! TO.C,R8*
X35950000Y-145107106D03*
X37600000Y-145107106D03*
G04 #@! TD*
D10*
G04 #@! TO.C,REF\u002A\u002A*
X22150000Y-56001776D03*
G04 #@! TD*
G04 #@! TO.C,REF\u002A\u002A*
X17500000Y-169611776D03*
G04 #@! TD*
G04 #@! TO.C,REF\u002A\u002A*
X185850000Y-134606776D03*
G04 #@! TD*
D16*
G04 #@! TO.C,R11*
X170700000Y-41153553D03*
X170700000Y-42803553D03*
G04 #@! TD*
G04 #@! TO.C,R11*
X170700000Y-118757106D03*
X170700000Y-120407106D03*
G04 #@! TD*
D10*
G04 #@! TO.C,REF\u002A\u002A*
X104999995Y-22151899D03*
G04 #@! TD*
G04 #@! TO.C,REF\u002A\u002A*
X190000000Y-173278442D03*
G04 #@! TD*
M02*
