M48
INCH,TZ
T1C0.0236
T2C0.0492
T3C0.0650
T4C0.0787
T5C0.0945
%
G90
G05
T1
X5906Y-8661
X5906Y-66776
X6234Y-8661
X6234Y-66776
X6562Y-8661
X6562Y-66776
X6890Y-8661
X6890Y-66776
X7218Y-8661
X7218Y-66776
X7546Y-8661
X7546Y-66776
X7874Y-8661
X7874Y-66776
X8661Y-5906
X8661Y-6234
X8661Y-6562
X8661Y-6890
X8661Y-7218
X8661Y-7546
X8661Y-7874
X8661Y-67564
X8661Y-67892
X8661Y-68220
X8661Y-68548
X8661Y-68876
X8661Y-69204
X8661Y-69532
X8720Y-22048
X8720Y-22442
X8720Y-22835
X8720Y-52601
X8720Y-52995
X8720Y-53388
X24803Y-36162
X24803Y-8721
X24803Y-66717
X24803Y-39274
X25197Y-36162
X25197Y-8721
X25197Y-66717
X25197Y-39274
X25591Y-36162
X25591Y-8721
X25591Y-66717
X25591Y-39274
X41339Y-39272
X41339Y-8721
X41339Y-36163
X41339Y-66716
X41732Y-39273
X41732Y-8721
X41732Y-36163
X41732Y-66716
X42126Y-39273
X42126Y-8721
X42126Y-36163
X42126Y-66716
X57874Y-39274
X57874Y-8722
X57874Y-36162
X57874Y-66717
X58268Y-39274
X58268Y-8722
X58268Y-36162
X58268Y-66717
X58661Y-39274
X58661Y-8722
X58661Y-36162
X58661Y-66717
X73169Y-22048
X73169Y-22442
X73169Y-22835
X73169Y-52601
X73169Y-52995
X73169Y-53388
X74803Y-5906
X74803Y-6234
X74803Y-6562
X74803Y-6890
X74803Y-7218
X74803Y-7546
X74803Y-7874
X74803Y-67564
X74803Y-67892
X74803Y-68220
X74803Y-68548
X74803Y-68876
X74803Y-69204
X74803Y-69532
X75591Y-8661
X75591Y-66776
X75919Y-8661
X75919Y-66776
X76247Y-8661
X76247Y-66776
X76575Y-8661
X76575Y-66776
X76903Y-8661
X76903Y-66776
X77231Y-8661
X77231Y-66776
X77559Y-8661
X77559Y-66776
T2
X71339Y-26938
X71339Y-57491
T3
X71339Y-11608
X71339Y-42160
T4
X6890Y-6890
X6890Y-68548
X76575Y-6890
X76575Y-68548
T5
X15900Y-12186
X15900Y-42739
X25014Y-12186
X25014Y-42739
T0
M30
