M48
; DRILL file {KiCad 9.0.6} date 2026-03-10T14:28:35-0500
; FORMAT={-:-/ absolute / metric / decimal}
; #@! TF.CreationDate,2026-03-10T14:28:35-05:00
; #@! TF.GenerationSoftware,Kicad,Pcbnew,9.0.6
; #@! TF.FileFunction,Plated,1,6,PTH
FMAT,2
METRIC
; #@! TA.AperFunction,Plated,PTH,ViaDrill
T1C0.203
%
G90
G05
T1
X100.6Y-179.029
X100.6Y-180.029
X100.6Y-181.029
X100.6Y-226.629
X100.6Y-227.629
X100.6Y-228.629
X101.1Y-188.429
X101.1Y-189.229
X101.1Y-190.029
X101.1Y-190.829
X101.1Y-191.629
X101.1Y-192.429
X101.1Y-193.229
X101.1Y-194.029
X101.1Y-194.829
X101.1Y-196.429
X101.1Y-198.829
X101.1Y-201.229
X101.1Y-202.829
X101.1Y-203.629
X101.1Y-204.429
X101.1Y-205.229
X101.1Y-206.029
X101.1Y-206.829
X101.1Y-207.629
X101.1Y-208.429
X101.1Y-209.229
X101.1Y-210.029
X101.1Y-210.829
X101.1Y-211.629
X101.1Y-212.429
X101.1Y-213.229
X101.1Y-214.029
X101.1Y-214.829
X101.1Y-217.3
X101.1Y-218.153
X101.1Y-218.853
X101.199Y-215.679
X101.199Y-216.379
X105.3Y-202.029
X105.8Y-187.429
X105.8Y-192.329
X105.8Y-195.029
X105.9Y-197.729
X105.9Y-198.429
X105.9Y-199.129
X105.9Y-200.329
X105.9Y-207.729
X105.9Y-214.729
X106.7Y-197.729
X106.7Y-198.429
X106.7Y-199.129
X111.5Y-190.229
X111.5Y-190.979
X111.5Y-191.679
X111.5Y-192.429
X111.5Y-202.729
X111.5Y-203.479
X111.5Y-204.179
X111.5Y-204.929
X111.5Y-207.929
X111.5Y-208.679
X111.5Y-209.379
X111.5Y-210.129
X112.1Y-212.329
X112.1Y-213.079
X112.1Y-213.779
X112.1Y-214.529
X113.7Y-205.0
X120.8Y-224.929
X120.8Y-225.729
X120.8Y-226.529
X120.8Y-227.329
X121.6Y-224.929
X121.6Y-225.729
X121.6Y-226.529
X121.6Y-227.329
X122.4Y-224.929
X122.4Y-225.729
X122.4Y-226.529
X122.4Y-227.329
X196.1Y-221.629
X197.3Y-221.629
X199.6Y-221.629
X200.7Y-221.629
X206.4Y-225.229
X214.4Y-186.029
X214.4Y-193.529
X219.6Y-198.929
X219.6Y-200.529
X219.6Y-203.029
X219.6Y-204.629
X220.2Y-199.379
X220.2Y-200.079
X220.2Y-203.479
X220.2Y-204.179
X220.2Y-207.929
X220.2Y-208.679
X220.2Y-209.379
X220.2Y-210.129
X220.2Y-212.329
X220.2Y-213.079
X220.2Y-213.779
X220.2Y-214.529
X223.5Y-186.029
X223.5Y-193.529
X225.3Y-196.829
X225.3Y-197.579
X225.3Y-198.279
X225.3Y-199.029
X225.3Y-200.829
X225.3Y-201.579
X225.3Y-202.279
X225.3Y-203.0
X228.0Y-205.329
X228.0Y-206.079
X228.0Y-206.779
X228.004Y-207.545
X230.1Y-210.129
X230.1Y-210.879
X230.1Y-211.579
X230.1Y-212.329
X232.7Y-214.916
X232.7Y-216.379
X232.7Y-217.129
X232.712Y-215.616
X238.8Y-217.929
X240.3Y-217.929
X240.3Y-219.429
X241.8Y-217.929
X241.8Y-219.429
X241.8Y-220.929
X244.0Y-216.729
X244.0Y-222.229
X245.0Y-216.729
X245.0Y-222.229
X247.0Y-216.729
X247.5Y-222.229
X248.0Y-216.729
X249.0Y-216.729
X249.5Y-222.229
X250.0Y-216.729
X251.0Y-216.729
X251.5Y-222.229
X252.0Y-216.729
X253.0Y-216.729
X253.5Y-222.229
X254.0Y-216.729
X255.0Y-216.729
X255.5Y-222.229
X256.0Y-216.729
X258.0Y-216.729
X258.0Y-222.029
X258.55Y-222.679
X260.0Y-216.729
X260.5Y-222.229
X261.0Y-216.729
X263.0Y-216.729
X263.486Y-222.232
X264.0Y-216.729
X267.0Y-222.929
X268.0Y-216.729
X268.0Y-222.529
X269.0Y-216.729
X270.0Y-222.529
X271.0Y-216.779
X271.0Y-222.529
X272.0Y-222.529
X273.0Y-216.729
X274.0Y-216.729
X274.0Y-222.529
X275.0Y-216.729
X275.0Y-222.529
X276.0Y-216.729
X276.0Y-222.529
X277.0Y-216.779
X277.0Y-223.229
M30
