%TF.GenerationSoftware,KiCad,Pcbnew,9.0.6*%
%TF.CreationDate,2026-03-10T14:28:35-05:00*%
%TF.ProjectId,u2CEM,75324345-4d2e-46b6-9963-61645f706362,rev?*%
%TF.SameCoordinates,Original*%
%TF.FileFunction,Drillmap*%
%TF.FilePolarity,Positive*%
%FSLAX45Y45*%
G04 Gerber Fmt 4.5, Leading zero omitted, Abs format (unit mm)*
G04 Created by KiCad (PCBNEW 9.0.6) date 2026-03-10 14:28:35*
%MOMM*%
%LPD*%
G01*
G04 APERTURE LIST*
%ADD10C,0.001000*%
%ADD11C,0.010000*%
%ADD12C,0.200000*%
%ADD13C,0.100000*%
G04 APERTURE END LIST*
D10*
X10130000Y-18647900D02*
X10130000Y-18252900D01*
X10090000Y-18212900D02*
X9440000Y-18212900D01*
X10130000Y-22522900D02*
G75*
G02*
X10090000Y-22562900I-40000J0D01*
G01*
X10070000Y-18687900D02*
X10090000Y-18687900D01*
X28000000Y-21600000D02*
X28160000Y-21600000D01*
X9840000Y-16720000D02*
X23660000Y-16720000D01*
X9400000Y-22602900D02*
G75*
G02*
X9440000Y-22562900I40000J0D01*
G01*
X21400000Y-23360000D02*
X21400000Y-23300000D01*
X9440000Y-18212900D02*
G75*
G02*
X9400000Y-18172900I0J40000D01*
G01*
X10090000Y-22087900D02*
G75*
G02*
X10130000Y-22127900I0J-40000D01*
G01*
X23660000Y-16720000D02*
G75*
G02*
X23700000Y-16760000I0J-40000D01*
G01*
X10070000Y-22087900D02*
G75*
G02*
X10030000Y-22047900I0J40000D01*
G01*
X28160000Y-23400000D02*
X21440000Y-23400000D01*
X10130000Y-18647900D02*
G75*
G02*
X10090000Y-18687900I-40000J0D01*
G01*
X10090000Y-22087900D02*
X10070000Y-22087900D01*
X9800000Y-16760000D02*
X9800000Y-17672900D01*
X10090000Y-18212900D02*
G75*
G02*
X10130000Y-18252900I0J-40000D01*
G01*
X9400000Y-17752900D02*
G75*
G02*
X9440000Y-17712900I40000J0D01*
G01*
X21200000Y-23100000D02*
X9440000Y-23100000D01*
X28200000Y-23360000D02*
G75*
G02*
X28160000Y-23400000I-40000J0D01*
G01*
X9440000Y-23100000D02*
G75*
G02*
X9400000Y-23060000I0J40000D01*
G01*
X9760000Y-17712900D02*
X9440000Y-17712900D01*
X21200000Y-23100000D02*
G75*
G02*
X21400000Y-23300000I0J-200000D01*
G01*
X9400000Y-18172900D02*
X9400000Y-17752900D01*
X21440000Y-23400000D02*
G75*
G02*
X21400000Y-23360000I0J40000D01*
G01*
X9800000Y-16760000D02*
G75*
G02*
X9840000Y-16720000I40000J0D01*
G01*
X23700000Y-16760000D02*
X23700000Y-21300000D01*
X24000000Y-21600000D02*
G75*
G02*
X23700000Y-21300000I0J300000D01*
G01*
X28200000Y-21640000D02*
X28200000Y-23360000D01*
X9800000Y-17672900D02*
G75*
G02*
X9760000Y-17712900I-40000J0D01*
G01*
X28160000Y-21600000D02*
G75*
G02*
X28200000Y-21640000I0J-40000D01*
G01*
X10130000Y-22522900D02*
X10130000Y-22127900D01*
X10030000Y-18727900D02*
G75*
G02*
X10070000Y-18687900I40000J0D01*
G01*
X9400000Y-23060000D02*
X9400000Y-22602900D01*
X9440000Y-22562900D02*
X10090000Y-22562900D01*
X10030000Y-22047900D02*
X10030000Y-18727900D01*
X24099000Y-21600000D02*
X24000000Y-21600000D01*
D11*
X26470000Y-21600000D02*
X24099000Y-21600000D01*
X26470000Y-22100000D02*
X26470000Y-21600000D01*
X26630000Y-21600000D02*
X26630000Y-22100000D01*
X26630000Y-21600000D02*
X28000000Y-21600000D01*
X26550000Y-22180000D02*
G75*
G02*
X26470000Y-22100000I0J80000D01*
G01*
X26630000Y-22100000D02*
G75*
G02*
X26550000Y-22180000I-80000J0D01*
G01*
D12*
D13*
X10049840Y-17892740D02*
X10070160Y-17913060D01*
X10070160Y-17892740D02*
X10049840Y-17913060D01*
X10049840Y-17992740D02*
X10070160Y-18013060D01*
X10070160Y-17992740D02*
X10049840Y-18013060D01*
X10049840Y-18092740D02*
X10070160Y-18113060D01*
X10070160Y-18092740D02*
X10049840Y-18113060D01*
X10049840Y-22652740D02*
X10070160Y-22673060D01*
X10070160Y-22652740D02*
X10049840Y-22673060D01*
X10049840Y-22752740D02*
X10070160Y-22773060D01*
X10070160Y-22752740D02*
X10049840Y-22773060D01*
X10049840Y-22852740D02*
X10070160Y-22873060D01*
X10070160Y-22852740D02*
X10049840Y-22873060D01*
X10099840Y-18832740D02*
X10120160Y-18853060D01*
X10120160Y-18832740D02*
X10099840Y-18853060D01*
X10099840Y-18912740D02*
X10120160Y-18933060D01*
X10120160Y-18912740D02*
X10099840Y-18933060D01*
X10099840Y-18992740D02*
X10120160Y-19013060D01*
X10120160Y-18992740D02*
X10099840Y-19013060D01*
X10099840Y-19072740D02*
X10120160Y-19093060D01*
X10120160Y-19072740D02*
X10099840Y-19093060D01*
X10099840Y-19152740D02*
X10120160Y-19173060D01*
X10120160Y-19152740D02*
X10099840Y-19173060D01*
X10099840Y-19232740D02*
X10120160Y-19253060D01*
X10120160Y-19232740D02*
X10099840Y-19253060D01*
X10099840Y-19312740D02*
X10120160Y-19333060D01*
X10120160Y-19312740D02*
X10099840Y-19333060D01*
X10099840Y-19392740D02*
X10120160Y-19413060D01*
X10120160Y-19392740D02*
X10099840Y-19413060D01*
X10099840Y-19472740D02*
X10120160Y-19493060D01*
X10120160Y-19472740D02*
X10099840Y-19493060D01*
X10099840Y-19632740D02*
X10120160Y-19653060D01*
X10120160Y-19632740D02*
X10099840Y-19653060D01*
X10099840Y-19872740D02*
X10120160Y-19893060D01*
X10120160Y-19872740D02*
X10099840Y-19893060D01*
X10099840Y-20112740D02*
X10120160Y-20133060D01*
X10120160Y-20112740D02*
X10099840Y-20133060D01*
X10099840Y-20272740D02*
X10120160Y-20293060D01*
X10120160Y-20272740D02*
X10099840Y-20293060D01*
X10099840Y-20352740D02*
X10120160Y-20373060D01*
X10120160Y-20352740D02*
X10099840Y-20373060D01*
X10099840Y-20432740D02*
X10120160Y-20453060D01*
X10120160Y-20432740D02*
X10099840Y-20453060D01*
X10099840Y-20512740D02*
X10120160Y-20533060D01*
X10120160Y-20512740D02*
X10099840Y-20533060D01*
X10099840Y-20592740D02*
X10120160Y-20613060D01*
X10120160Y-20592740D02*
X10099840Y-20613060D01*
X10099840Y-20672740D02*
X10120160Y-20693060D01*
X10120160Y-20672740D02*
X10099840Y-20693060D01*
X10099840Y-20752740D02*
X10120160Y-20773060D01*
X10120160Y-20752740D02*
X10099840Y-20773060D01*
X10099840Y-20832740D02*
X10120160Y-20853060D01*
X10120160Y-20832740D02*
X10099840Y-20853060D01*
X10099840Y-20912740D02*
X10120160Y-20933060D01*
X10120160Y-20912740D02*
X10099840Y-20933060D01*
X10099840Y-20992740D02*
X10120160Y-21013060D01*
X10120160Y-20992740D02*
X10099840Y-21013060D01*
X10099840Y-21072740D02*
X10120160Y-21093060D01*
X10120160Y-21072740D02*
X10099840Y-21093060D01*
X10099840Y-21152740D02*
X10120160Y-21173060D01*
X10120160Y-21152740D02*
X10099840Y-21173060D01*
X10099840Y-21232740D02*
X10120160Y-21253060D01*
X10120160Y-21232740D02*
X10099840Y-21253060D01*
X10099840Y-21312740D02*
X10120160Y-21333060D01*
X10120160Y-21312740D02*
X10099840Y-21333060D01*
X10099840Y-21392740D02*
X10120160Y-21413060D01*
X10120160Y-21392740D02*
X10099840Y-21413060D01*
X10099840Y-21472740D02*
X10120160Y-21493060D01*
X10120160Y-21472740D02*
X10099840Y-21493060D01*
X10099840Y-21719840D02*
X10120160Y-21740160D01*
X10120160Y-21719840D02*
X10099840Y-21740160D01*
X10099840Y-21805190D02*
X10120160Y-21825510D01*
X10120160Y-21805190D02*
X10099840Y-21825510D01*
X10099840Y-21875140D02*
X10120160Y-21895460D01*
X10120160Y-21875140D02*
X10099840Y-21895460D01*
X10109709Y-21557740D02*
X10130029Y-21578060D01*
X10130029Y-21557740D02*
X10109709Y-21578060D01*
X10109709Y-21627740D02*
X10130029Y-21648060D01*
X10130029Y-21627740D02*
X10109709Y-21648060D01*
X10519840Y-20192740D02*
X10540160Y-20213060D01*
X10540160Y-20192740D02*
X10519840Y-20213060D01*
X10569840Y-18732740D02*
X10590160Y-18753060D01*
X10590160Y-18732740D02*
X10569840Y-18753060D01*
X10569840Y-19222740D02*
X10590160Y-19243060D01*
X10590160Y-19222740D02*
X10569840Y-19243060D01*
X10569840Y-19492740D02*
X10590160Y-19513060D01*
X10590160Y-19492740D02*
X10569840Y-19513060D01*
X10579840Y-19762740D02*
X10600160Y-19783060D01*
X10600160Y-19762740D02*
X10579840Y-19783060D01*
X10579840Y-19832740D02*
X10600160Y-19853060D01*
X10600160Y-19832740D02*
X10579840Y-19853060D01*
X10579840Y-19902740D02*
X10600160Y-19923060D01*
X10600160Y-19902740D02*
X10579840Y-19923060D01*
X10579840Y-20022740D02*
X10600160Y-20043060D01*
X10600160Y-20022740D02*
X10579840Y-20043060D01*
X10579840Y-20762740D02*
X10600160Y-20783060D01*
X10600160Y-20762740D02*
X10579840Y-20783060D01*
X10579840Y-21462740D02*
X10600160Y-21483060D01*
X10600160Y-21462740D02*
X10579840Y-21483060D01*
X10659840Y-19762740D02*
X10680160Y-19783060D01*
X10680160Y-19762740D02*
X10659840Y-19783060D01*
X10659840Y-19832740D02*
X10680160Y-19853060D01*
X10680160Y-19832740D02*
X10659840Y-19853060D01*
X10659840Y-19902740D02*
X10680160Y-19923060D01*
X10680160Y-19902740D02*
X10659840Y-19923060D01*
X11139840Y-19012740D02*
X11160160Y-19033060D01*
X11160160Y-19012740D02*
X11139840Y-19033060D01*
X11139840Y-19087740D02*
X11160160Y-19108060D01*
X11160160Y-19087740D02*
X11139840Y-19108060D01*
X11139840Y-19157740D02*
X11160160Y-19178060D01*
X11160160Y-19157740D02*
X11139840Y-19178060D01*
X11139840Y-19232740D02*
X11160160Y-19253060D01*
X11160160Y-19232740D02*
X11139840Y-19253060D01*
X11139840Y-20262740D02*
X11160160Y-20283060D01*
X11160160Y-20262740D02*
X11139840Y-20283060D01*
X11139840Y-20337740D02*
X11160160Y-20358060D01*
X11160160Y-20337740D02*
X11139840Y-20358060D01*
X11139840Y-20407740D02*
X11160160Y-20428060D01*
X11160160Y-20407740D02*
X11139840Y-20428060D01*
X11139840Y-20482740D02*
X11160160Y-20503060D01*
X11160160Y-20482740D02*
X11139840Y-20503060D01*
X11139840Y-20782740D02*
X11160160Y-20803060D01*
X11160160Y-20782740D02*
X11139840Y-20803060D01*
X11139840Y-20857740D02*
X11160160Y-20878060D01*
X11160160Y-20857740D02*
X11139840Y-20878060D01*
X11139840Y-20927740D02*
X11160160Y-20948060D01*
X11160160Y-20927740D02*
X11139840Y-20948060D01*
X11139840Y-21002740D02*
X11160160Y-21023060D01*
X11160160Y-21002740D02*
X11139840Y-21023060D01*
X11199840Y-21222740D02*
X11220160Y-21243060D01*
X11220160Y-21222740D02*
X11199840Y-21243060D01*
X11199840Y-21297740D02*
X11220160Y-21318060D01*
X11220160Y-21297740D02*
X11199840Y-21318060D01*
X11199840Y-21367740D02*
X11220160Y-21388060D01*
X11220160Y-21367740D02*
X11199840Y-21388060D01*
X11199840Y-21442740D02*
X11220160Y-21463060D01*
X11220160Y-21442740D02*
X11199840Y-21463060D01*
X11359840Y-20489840D02*
X11380160Y-20510160D01*
X11380160Y-20489840D02*
X11359840Y-20510160D01*
X12069840Y-22482740D02*
X12090160Y-22503060D01*
X12090160Y-22482740D02*
X12069840Y-22503060D01*
X12069840Y-22562740D02*
X12090160Y-22583060D01*
X12090160Y-22562740D02*
X12069840Y-22583060D01*
X12069840Y-22642740D02*
X12090160Y-22663060D01*
X12090160Y-22642740D02*
X12069840Y-22663060D01*
X12069840Y-22722740D02*
X12090160Y-22743060D01*
X12090160Y-22722740D02*
X12069840Y-22743060D01*
X12149840Y-22482740D02*
X12170160Y-22503060D01*
X12170160Y-22482740D02*
X12149840Y-22503060D01*
X12149840Y-22562740D02*
X12170160Y-22583060D01*
X12170160Y-22562740D02*
X12149840Y-22583060D01*
X12149840Y-22642740D02*
X12170160Y-22663060D01*
X12170160Y-22642740D02*
X12149840Y-22663060D01*
X12149840Y-22722740D02*
X12170160Y-22743060D01*
X12170160Y-22722740D02*
X12149840Y-22743060D01*
X12229840Y-22482740D02*
X12250160Y-22503060D01*
X12250160Y-22482740D02*
X12229840Y-22503060D01*
X12229840Y-22562740D02*
X12250160Y-22583060D01*
X12250160Y-22562740D02*
X12229840Y-22583060D01*
X12229840Y-22642740D02*
X12250160Y-22663060D01*
X12250160Y-22642740D02*
X12229840Y-22663060D01*
X12229840Y-22722740D02*
X12250160Y-22743060D01*
X12250160Y-22722740D02*
X12229840Y-22743060D01*
X19599840Y-22152740D02*
X19620160Y-22173060D01*
X19620160Y-22152740D02*
X19599840Y-22173060D01*
X19719840Y-22152740D02*
X19740160Y-22173060D01*
X19740160Y-22152740D02*
X19719840Y-22173060D01*
X19949840Y-22152740D02*
X19970160Y-22173060D01*
X19970160Y-22152740D02*
X19949840Y-22173060D01*
X20059840Y-22152740D02*
X20080160Y-22173060D01*
X20080160Y-22152740D02*
X20059840Y-22173060D01*
X20629840Y-22512740D02*
X20650160Y-22533060D01*
X20650160Y-22512740D02*
X20629840Y-22533060D01*
X21429840Y-18592740D02*
X21450160Y-18613060D01*
X21450160Y-18592740D02*
X21429840Y-18613060D01*
X21429840Y-19342740D02*
X21450160Y-19363060D01*
X21450160Y-19342740D02*
X21429840Y-19363060D01*
X21949840Y-19882740D02*
X21970160Y-19903060D01*
X21970160Y-19882740D02*
X21949840Y-19903060D01*
X21949840Y-20042740D02*
X21970160Y-20063060D01*
X21970160Y-20042740D02*
X21949840Y-20063060D01*
X21949840Y-20292740D02*
X21970160Y-20313060D01*
X21970160Y-20292740D02*
X21949840Y-20313060D01*
X21949840Y-20452740D02*
X21970160Y-20473060D01*
X21970160Y-20452740D02*
X21949840Y-20473060D01*
X22009840Y-19927740D02*
X22030160Y-19948060D01*
X22030160Y-19927740D02*
X22009840Y-19948060D01*
X22009840Y-19997740D02*
X22030160Y-20018060D01*
X22030160Y-19997740D02*
X22009840Y-20018060D01*
X22009840Y-20337740D02*
X22030160Y-20358060D01*
X22030160Y-20337740D02*
X22009840Y-20358060D01*
X22009840Y-20407740D02*
X22030160Y-20428060D01*
X22030160Y-20407740D02*
X22009840Y-20428060D01*
X22009840Y-20782740D02*
X22030160Y-20803060D01*
X22030160Y-20782740D02*
X22009840Y-20803060D01*
X22009840Y-20857740D02*
X22030160Y-20878060D01*
X22030160Y-20857740D02*
X22009840Y-20878060D01*
X22009840Y-20927740D02*
X22030160Y-20948060D01*
X22030160Y-20927740D02*
X22009840Y-20948060D01*
X22009840Y-21002740D02*
X22030160Y-21023060D01*
X22030160Y-21002740D02*
X22009840Y-21023060D01*
X22009840Y-21222740D02*
X22030160Y-21243060D01*
X22030160Y-21222740D02*
X22009840Y-21243060D01*
X22009840Y-21297740D02*
X22030160Y-21318060D01*
X22030160Y-21297740D02*
X22009840Y-21318060D01*
X22009840Y-21367740D02*
X22030160Y-21388060D01*
X22030160Y-21367740D02*
X22009840Y-21388060D01*
X22009840Y-21442740D02*
X22030160Y-21463060D01*
X22030160Y-21442740D02*
X22009840Y-21463060D01*
X22339840Y-18592740D02*
X22360160Y-18613060D01*
X22360160Y-18592740D02*
X22339840Y-18613060D01*
X22339840Y-19342740D02*
X22360160Y-19363060D01*
X22360160Y-19342740D02*
X22339840Y-19363060D01*
X22519840Y-19672740D02*
X22540160Y-19693060D01*
X22540160Y-19672740D02*
X22519840Y-19693060D01*
X22519840Y-19747740D02*
X22540160Y-19768060D01*
X22540160Y-19747740D02*
X22519840Y-19768060D01*
X22519840Y-19817740D02*
X22540160Y-19838060D01*
X22540160Y-19817740D02*
X22519840Y-19838060D01*
X22519840Y-19892740D02*
X22540160Y-19913060D01*
X22540160Y-19892740D02*
X22519840Y-19913060D01*
X22519840Y-20072740D02*
X22540160Y-20093060D01*
X22540160Y-20072740D02*
X22519840Y-20093060D01*
X22519840Y-20147740D02*
X22540160Y-20168060D01*
X22540160Y-20147740D02*
X22519840Y-20168060D01*
X22519840Y-20217740D02*
X22540160Y-20238060D01*
X22540160Y-20217740D02*
X22519840Y-20238060D01*
X22519840Y-20289840D02*
X22540160Y-20310160D01*
X22540160Y-20289840D02*
X22519840Y-20310160D01*
X22789840Y-20522740D02*
X22810160Y-20543060D01*
X22810160Y-20522740D02*
X22789840Y-20543060D01*
X22789840Y-20597740D02*
X22810160Y-20618060D01*
X22810160Y-20597740D02*
X22789840Y-20618060D01*
X22789840Y-20667740D02*
X22810160Y-20688060D01*
X22810160Y-20667740D02*
X22789840Y-20688060D01*
X22790229Y-20744296D02*
X22810549Y-20764616D01*
X22810549Y-20744296D02*
X22790229Y-20764616D01*
X22999840Y-21002740D02*
X23020160Y-21023060D01*
X23020160Y-21002740D02*
X22999840Y-21023060D01*
X22999840Y-21077740D02*
X23020160Y-21098060D01*
X23020160Y-21077740D02*
X22999840Y-21098060D01*
X22999840Y-21147740D02*
X23020160Y-21168060D01*
X23020160Y-21147740D02*
X22999840Y-21168060D01*
X22999840Y-21222740D02*
X23020160Y-21243060D01*
X23020160Y-21222740D02*
X22999840Y-21243060D01*
X23259819Y-21481457D02*
X23280139Y-21501777D01*
X23280139Y-21481457D02*
X23259819Y-21501777D01*
X23259840Y-21627740D02*
X23280160Y-21648060D01*
X23280160Y-21627740D02*
X23259840Y-21648060D01*
X23259840Y-21702740D02*
X23280160Y-21723060D01*
X23280160Y-21702740D02*
X23259840Y-21723060D01*
X23261054Y-21551397D02*
X23281374Y-21571717D01*
X23281374Y-21551397D02*
X23261054Y-21571717D01*
X23869840Y-21782740D02*
X23890160Y-21803060D01*
X23890160Y-21782740D02*
X23869840Y-21803060D01*
X24019840Y-21782740D02*
X24040160Y-21803060D01*
X24040160Y-21782740D02*
X24019840Y-21803060D01*
X24019840Y-21932740D02*
X24040160Y-21953060D01*
X24040160Y-21932740D02*
X24019840Y-21953060D01*
X24169840Y-21782740D02*
X24190160Y-21803060D01*
X24190160Y-21782740D02*
X24169840Y-21803060D01*
X24169840Y-21932740D02*
X24190160Y-21953060D01*
X24190160Y-21932740D02*
X24169840Y-21953060D01*
X24169840Y-22082740D02*
X24190160Y-22103060D01*
X24190160Y-22082740D02*
X24169840Y-22103060D01*
X24389840Y-21662740D02*
X24410160Y-21683060D01*
X24410160Y-21662740D02*
X24389840Y-21683060D01*
X24389840Y-22212740D02*
X24410160Y-22233060D01*
X24410160Y-22212740D02*
X24389840Y-22233060D01*
X24489840Y-21662740D02*
X24510160Y-21683060D01*
X24510160Y-21662740D02*
X24489840Y-21683060D01*
X24489840Y-22212740D02*
X24510160Y-22233060D01*
X24510160Y-22212740D02*
X24489840Y-22233060D01*
X24689840Y-21662740D02*
X24710160Y-21683060D01*
X24710160Y-21662740D02*
X24689840Y-21683060D01*
X24739840Y-22212740D02*
X24760160Y-22233060D01*
X24760160Y-22212740D02*
X24739840Y-22233060D01*
X24789840Y-21662740D02*
X24810160Y-21683060D01*
X24810160Y-21662740D02*
X24789840Y-21683060D01*
X24889840Y-21662740D02*
X24910160Y-21683060D01*
X24910160Y-21662740D02*
X24889840Y-21683060D01*
X24939840Y-22212740D02*
X24960160Y-22233060D01*
X24960160Y-22212740D02*
X24939840Y-22233060D01*
X24989840Y-21662740D02*
X25010160Y-21683060D01*
X25010160Y-21662740D02*
X24989840Y-21683060D01*
X25089840Y-21662740D02*
X25110160Y-21683060D01*
X25110160Y-21662740D02*
X25089840Y-21683060D01*
X25139840Y-22212740D02*
X25160160Y-22233060D01*
X25160160Y-22212740D02*
X25139840Y-22233060D01*
X25189840Y-21662740D02*
X25210160Y-21683060D01*
X25210160Y-21662740D02*
X25189840Y-21683060D01*
X25289840Y-21662740D02*
X25310160Y-21683060D01*
X25310160Y-21662740D02*
X25289840Y-21683060D01*
X25339840Y-22212740D02*
X25360160Y-22233060D01*
X25360160Y-22212740D02*
X25339840Y-22233060D01*
X25389840Y-21662740D02*
X25410160Y-21683060D01*
X25410160Y-21662740D02*
X25389840Y-21683060D01*
X25489840Y-21662740D02*
X25510160Y-21683060D01*
X25510160Y-21662740D02*
X25489840Y-21683060D01*
X25539840Y-22212740D02*
X25560160Y-22233060D01*
X25560160Y-22212740D02*
X25539840Y-22233060D01*
X25589840Y-21662740D02*
X25610160Y-21683060D01*
X25610160Y-21662740D02*
X25589840Y-21683060D01*
X25789840Y-21662740D02*
X25810160Y-21683060D01*
X25810160Y-21662740D02*
X25789840Y-21683060D01*
X25789840Y-22192740D02*
X25810160Y-22213060D01*
X25810160Y-22192740D02*
X25789840Y-22213060D01*
X25844840Y-22257740D02*
X25865160Y-22278060D01*
X25865160Y-22257740D02*
X25844840Y-22278060D01*
X25989840Y-21662740D02*
X26010160Y-21683060D01*
X26010160Y-21662740D02*
X25989840Y-21683060D01*
X26039840Y-22212740D02*
X26060160Y-22233060D01*
X26060160Y-22212740D02*
X26039840Y-22233060D01*
X26089840Y-21662740D02*
X26110160Y-21683060D01*
X26110160Y-21662740D02*
X26089840Y-21683060D01*
X26289840Y-21662740D02*
X26310160Y-21683060D01*
X26310160Y-21662740D02*
X26289840Y-21683060D01*
X26338408Y-22213026D02*
X26358728Y-22233346D01*
X26358728Y-22213026D02*
X26338408Y-22233346D01*
X26389840Y-21662740D02*
X26410160Y-21683060D01*
X26410160Y-21662740D02*
X26389840Y-21683060D01*
X26689840Y-22282740D02*
X26710160Y-22303060D01*
X26710160Y-22282740D02*
X26689840Y-22303060D01*
X26789840Y-21662740D02*
X26810160Y-21683060D01*
X26810160Y-21662740D02*
X26789840Y-21683060D01*
X26789840Y-22242740D02*
X26810160Y-22263060D01*
X26810160Y-22242740D02*
X26789840Y-22263060D01*
X26889840Y-21662740D02*
X26910160Y-21683060D01*
X26910160Y-21662740D02*
X26889840Y-21683060D01*
X26989840Y-22242740D02*
X27010160Y-22263060D01*
X27010160Y-22242740D02*
X26989840Y-22263060D01*
X27089840Y-21667790D02*
X27110160Y-21688110D01*
X27110160Y-21667790D02*
X27089840Y-21688110D01*
X27089840Y-22242740D02*
X27110160Y-22263060D01*
X27110160Y-22242740D02*
X27089840Y-22263060D01*
X27189840Y-22242740D02*
X27210160Y-22263060D01*
X27210160Y-22242740D02*
X27189840Y-22263060D01*
X27289840Y-21662740D02*
X27310160Y-21683060D01*
X27310160Y-21662740D02*
X27289840Y-21683060D01*
X27389840Y-21662740D02*
X27410160Y-21683060D01*
X27410160Y-21662740D02*
X27389840Y-21683060D01*
X27389840Y-22242740D02*
X27410160Y-22263060D01*
X27410160Y-22242740D02*
X27389840Y-22263060D01*
X27489840Y-21662740D02*
X27510160Y-21683060D01*
X27510160Y-21662740D02*
X27489840Y-21683060D01*
X27489840Y-22242740D02*
X27510160Y-22263060D01*
X27510160Y-22242740D02*
X27489840Y-22263060D01*
X27589840Y-21662740D02*
X27610160Y-21683060D01*
X27610160Y-21662740D02*
X27589840Y-21683060D01*
X27589840Y-22242740D02*
X27610160Y-22263060D01*
X27610160Y-22242740D02*
X27589840Y-22263060D01*
X27689840Y-21667790D02*
X27710160Y-21688110D01*
X27710160Y-21667790D02*
X27689840Y-21688110D01*
X27689840Y-22312740D02*
X27710160Y-22333060D01*
X27710160Y-22312740D02*
X27689840Y-22333060D01*
D12*
X9660727Y-23711534D02*
X9660727Y-23511534D01*
X9660727Y-23511534D02*
X9708346Y-23511534D01*
X9708346Y-23511534D02*
X9736917Y-23521058D01*
X9736917Y-23521058D02*
X9755965Y-23540105D01*
X9755965Y-23540105D02*
X9765489Y-23559153D01*
X9765489Y-23559153D02*
X9775013Y-23597248D01*
X9775013Y-23597248D02*
X9775013Y-23625819D01*
X9775013Y-23625819D02*
X9765489Y-23663915D01*
X9765489Y-23663915D02*
X9755965Y-23682962D01*
X9755965Y-23682962D02*
X9736917Y-23702010D01*
X9736917Y-23702010D02*
X9708346Y-23711534D01*
X9708346Y-23711534D02*
X9660727Y-23711534D01*
X9860727Y-23711534D02*
X9860727Y-23578200D01*
X9860727Y-23616296D02*
X9870251Y-23597248D01*
X9870251Y-23597248D02*
X9879774Y-23587724D01*
X9879774Y-23587724D02*
X9898822Y-23578200D01*
X9898822Y-23578200D02*
X9917870Y-23578200D01*
X9984536Y-23711534D02*
X9984536Y-23578200D01*
X9984536Y-23511534D02*
X9975013Y-23521058D01*
X9975013Y-23521058D02*
X9984536Y-23530581D01*
X9984536Y-23530581D02*
X9994060Y-23521058D01*
X9994060Y-23521058D02*
X9984536Y-23511534D01*
X9984536Y-23511534D02*
X9984536Y-23530581D01*
X10108346Y-23711534D02*
X10089298Y-23702010D01*
X10089298Y-23702010D02*
X10079774Y-23682962D01*
X10079774Y-23682962D02*
X10079774Y-23511534D01*
X10213108Y-23711534D02*
X10194060Y-23702010D01*
X10194060Y-23702010D02*
X10184536Y-23682962D01*
X10184536Y-23682962D02*
X10184536Y-23511534D01*
X10441679Y-23711534D02*
X10441679Y-23511534D01*
X10441679Y-23511534D02*
X10508346Y-23654391D01*
X10508346Y-23654391D02*
X10575013Y-23511534D01*
X10575013Y-23511534D02*
X10575013Y-23711534D01*
X10755965Y-23711534D02*
X10755965Y-23606772D01*
X10755965Y-23606772D02*
X10746441Y-23587724D01*
X10746441Y-23587724D02*
X10727394Y-23578200D01*
X10727394Y-23578200D02*
X10689298Y-23578200D01*
X10689298Y-23578200D02*
X10670251Y-23587724D01*
X10755965Y-23702010D02*
X10736917Y-23711534D01*
X10736917Y-23711534D02*
X10689298Y-23711534D01*
X10689298Y-23711534D02*
X10670251Y-23702010D01*
X10670251Y-23702010D02*
X10660727Y-23682962D01*
X10660727Y-23682962D02*
X10660727Y-23663915D01*
X10660727Y-23663915D02*
X10670251Y-23644867D01*
X10670251Y-23644867D02*
X10689298Y-23635343D01*
X10689298Y-23635343D02*
X10736917Y-23635343D01*
X10736917Y-23635343D02*
X10755965Y-23625819D01*
X10851203Y-23578200D02*
X10851203Y-23778200D01*
X10851203Y-23587724D02*
X10870251Y-23578200D01*
X10870251Y-23578200D02*
X10908346Y-23578200D01*
X10908346Y-23578200D02*
X10927394Y-23587724D01*
X10927394Y-23587724D02*
X10936917Y-23597248D01*
X10936917Y-23597248D02*
X10946441Y-23616296D01*
X10946441Y-23616296D02*
X10946441Y-23673438D01*
X10946441Y-23673438D02*
X10936917Y-23692486D01*
X10936917Y-23692486D02*
X10927394Y-23702010D01*
X10927394Y-23702010D02*
X10908346Y-23711534D01*
X10908346Y-23711534D02*
X10870251Y-23711534D01*
X10870251Y-23711534D02*
X10851203Y-23702010D01*
X11032155Y-23692486D02*
X11041679Y-23702010D01*
X11041679Y-23702010D02*
X11032155Y-23711534D01*
X11032155Y-23711534D02*
X11022632Y-23702010D01*
X11022632Y-23702010D02*
X11032155Y-23692486D01*
X11032155Y-23692486D02*
X11032155Y-23711534D01*
X11032155Y-23587724D02*
X11041679Y-23597248D01*
X11041679Y-23597248D02*
X11032155Y-23606772D01*
X11032155Y-23606772D02*
X11022632Y-23597248D01*
X11022632Y-23597248D02*
X11032155Y-23587724D01*
X11032155Y-23587724D02*
X11032155Y-23606772D01*
D13*
X9379630Y-24029890D02*
X9399950Y-24050210D01*
X9399950Y-24029890D02*
X9379630Y-24050210D01*
D12*
X9698822Y-23931534D02*
X9717870Y-23931534D01*
X9717870Y-23931534D02*
X9736917Y-23941058D01*
X9736917Y-23941058D02*
X9746441Y-23950581D01*
X9746441Y-23950581D02*
X9755965Y-23969629D01*
X9755965Y-23969629D02*
X9765489Y-24007724D01*
X9765489Y-24007724D02*
X9765489Y-24055343D01*
X9765489Y-24055343D02*
X9755965Y-24093438D01*
X9755965Y-24093438D02*
X9746441Y-24112486D01*
X9746441Y-24112486D02*
X9736917Y-24122010D01*
X9736917Y-24122010D02*
X9717870Y-24131534D01*
X9717870Y-24131534D02*
X9698822Y-24131534D01*
X9698822Y-24131534D02*
X9679774Y-24122010D01*
X9679774Y-24122010D02*
X9670251Y-24112486D01*
X9670251Y-24112486D02*
X9660727Y-24093438D01*
X9660727Y-24093438D02*
X9651203Y-24055343D01*
X9651203Y-24055343D02*
X9651203Y-24007724D01*
X9651203Y-24007724D02*
X9660727Y-23969629D01*
X9660727Y-23969629D02*
X9670251Y-23950581D01*
X9670251Y-23950581D02*
X9679774Y-23941058D01*
X9679774Y-23941058D02*
X9698822Y-23931534D01*
X9851203Y-24112486D02*
X9860727Y-24122010D01*
X9860727Y-24122010D02*
X9851203Y-24131534D01*
X9851203Y-24131534D02*
X9841679Y-24122010D01*
X9841679Y-24122010D02*
X9851203Y-24112486D01*
X9851203Y-24112486D02*
X9851203Y-24131534D01*
X9936917Y-23950581D02*
X9946441Y-23941058D01*
X9946441Y-23941058D02*
X9965489Y-23931534D01*
X9965489Y-23931534D02*
X10013108Y-23931534D01*
X10013108Y-23931534D02*
X10032155Y-23941058D01*
X10032155Y-23941058D02*
X10041679Y-23950581D01*
X10041679Y-23950581D02*
X10051203Y-23969629D01*
X10051203Y-23969629D02*
X10051203Y-23988677D01*
X10051203Y-23988677D02*
X10041679Y-24017248D01*
X10041679Y-24017248D02*
X9927394Y-24131534D01*
X9927394Y-24131534D02*
X10051203Y-24131534D01*
X10175013Y-23931534D02*
X10194060Y-23931534D01*
X10194060Y-23931534D02*
X10213108Y-23941058D01*
X10213108Y-23941058D02*
X10222632Y-23950581D01*
X10222632Y-23950581D02*
X10232155Y-23969629D01*
X10232155Y-23969629D02*
X10241679Y-24007724D01*
X10241679Y-24007724D02*
X10241679Y-24055343D01*
X10241679Y-24055343D02*
X10232155Y-24093438D01*
X10232155Y-24093438D02*
X10222632Y-24112486D01*
X10222632Y-24112486D02*
X10213108Y-24122010D01*
X10213108Y-24122010D02*
X10194060Y-24131534D01*
X10194060Y-24131534D02*
X10175013Y-24131534D01*
X10175013Y-24131534D02*
X10155965Y-24122010D01*
X10155965Y-24122010D02*
X10146441Y-24112486D01*
X10146441Y-24112486D02*
X10136917Y-24093438D01*
X10136917Y-24093438D02*
X10127394Y-24055343D01*
X10127394Y-24055343D02*
X10127394Y-24007724D01*
X10127394Y-24007724D02*
X10136917Y-23969629D01*
X10136917Y-23969629D02*
X10146441Y-23950581D01*
X10146441Y-23950581D02*
X10155965Y-23941058D01*
X10155965Y-23941058D02*
X10175013Y-23931534D01*
X10308346Y-23931534D02*
X10432155Y-23931534D01*
X10432155Y-23931534D02*
X10365489Y-24007724D01*
X10365489Y-24007724D02*
X10394060Y-24007724D01*
X10394060Y-24007724D02*
X10413108Y-24017248D01*
X10413108Y-24017248D02*
X10422632Y-24026772D01*
X10422632Y-24026772D02*
X10432155Y-24045819D01*
X10432155Y-24045819D02*
X10432155Y-24093438D01*
X10432155Y-24093438D02*
X10422632Y-24112486D01*
X10422632Y-24112486D02*
X10413108Y-24122010D01*
X10413108Y-24122010D02*
X10394060Y-24131534D01*
X10394060Y-24131534D02*
X10336917Y-24131534D01*
X10336917Y-24131534D02*
X10317870Y-24122010D01*
X10317870Y-24122010D02*
X10308346Y-24112486D01*
X10517870Y-24131534D02*
X10517870Y-23998200D01*
X10517870Y-24017248D02*
X10527394Y-24007724D01*
X10527394Y-24007724D02*
X10546441Y-23998200D01*
X10546441Y-23998200D02*
X10575013Y-23998200D01*
X10575013Y-23998200D02*
X10594060Y-24007724D01*
X10594060Y-24007724D02*
X10603584Y-24026772D01*
X10603584Y-24026772D02*
X10603584Y-24131534D01*
X10603584Y-24026772D02*
X10613108Y-24007724D01*
X10613108Y-24007724D02*
X10632155Y-23998200D01*
X10632155Y-23998200D02*
X10660727Y-23998200D01*
X10660727Y-23998200D02*
X10679775Y-24007724D01*
X10679775Y-24007724D02*
X10689298Y-24026772D01*
X10689298Y-24026772D02*
X10689298Y-24131534D01*
X10784536Y-24131534D02*
X10784536Y-23998200D01*
X10784536Y-24017248D02*
X10794060Y-24007724D01*
X10794060Y-24007724D02*
X10813108Y-23998200D01*
X10813108Y-23998200D02*
X10841679Y-23998200D01*
X10841679Y-23998200D02*
X10860727Y-24007724D01*
X10860727Y-24007724D02*
X10870251Y-24026772D01*
X10870251Y-24026772D02*
X10870251Y-24131534D01*
X10870251Y-24026772D02*
X10879775Y-24007724D01*
X10879775Y-24007724D02*
X10898822Y-23998200D01*
X10898822Y-23998200D02*
X10927394Y-23998200D01*
X10927394Y-23998200D02*
X10946441Y-24007724D01*
X10946441Y-24007724D02*
X10955965Y-24026772D01*
X10955965Y-24026772D02*
X10955965Y-24131534D01*
X11346441Y-23922010D02*
X11175013Y-24179153D01*
X11603584Y-23931534D02*
X11622632Y-23931534D01*
X11622632Y-23931534D02*
X11641679Y-23941058D01*
X11641679Y-23941058D02*
X11651203Y-23950581D01*
X11651203Y-23950581D02*
X11660727Y-23969629D01*
X11660727Y-23969629D02*
X11670251Y-24007724D01*
X11670251Y-24007724D02*
X11670251Y-24055343D01*
X11670251Y-24055343D02*
X11660727Y-24093438D01*
X11660727Y-24093438D02*
X11651203Y-24112486D01*
X11651203Y-24112486D02*
X11641679Y-24122010D01*
X11641679Y-24122010D02*
X11622632Y-24131534D01*
X11622632Y-24131534D02*
X11603584Y-24131534D01*
X11603584Y-24131534D02*
X11584536Y-24122010D01*
X11584536Y-24122010D02*
X11575013Y-24112486D01*
X11575013Y-24112486D02*
X11565489Y-24093438D01*
X11565489Y-24093438D02*
X11555965Y-24055343D01*
X11555965Y-24055343D02*
X11555965Y-24007724D01*
X11555965Y-24007724D02*
X11565489Y-23969629D01*
X11565489Y-23969629D02*
X11575013Y-23950581D01*
X11575013Y-23950581D02*
X11584536Y-23941058D01*
X11584536Y-23941058D02*
X11603584Y-23931534D01*
X11755965Y-24112486D02*
X11765489Y-24122010D01*
X11765489Y-24122010D02*
X11755965Y-24131534D01*
X11755965Y-24131534D02*
X11746441Y-24122010D01*
X11746441Y-24122010D02*
X11755965Y-24112486D01*
X11755965Y-24112486D02*
X11755965Y-24131534D01*
X11889298Y-23931534D02*
X11908346Y-23931534D01*
X11908346Y-23931534D02*
X11927394Y-23941058D01*
X11927394Y-23941058D02*
X11936917Y-23950581D01*
X11936917Y-23950581D02*
X11946441Y-23969629D01*
X11946441Y-23969629D02*
X11955965Y-24007724D01*
X11955965Y-24007724D02*
X11955965Y-24055343D01*
X11955965Y-24055343D02*
X11946441Y-24093438D01*
X11946441Y-24093438D02*
X11936917Y-24112486D01*
X11936917Y-24112486D02*
X11927394Y-24122010D01*
X11927394Y-24122010D02*
X11908346Y-24131534D01*
X11908346Y-24131534D02*
X11889298Y-24131534D01*
X11889298Y-24131534D02*
X11870251Y-24122010D01*
X11870251Y-24122010D02*
X11860727Y-24112486D01*
X11860727Y-24112486D02*
X11851203Y-24093438D01*
X11851203Y-24093438D02*
X11841679Y-24055343D01*
X11841679Y-24055343D02*
X11841679Y-24007724D01*
X11841679Y-24007724D02*
X11851203Y-23969629D01*
X11851203Y-23969629D02*
X11860727Y-23950581D01*
X11860727Y-23950581D02*
X11870251Y-23941058D01*
X11870251Y-23941058D02*
X11889298Y-23931534D01*
X12079775Y-23931534D02*
X12098822Y-23931534D01*
X12098822Y-23931534D02*
X12117870Y-23941058D01*
X12117870Y-23941058D02*
X12127394Y-23950581D01*
X12127394Y-23950581D02*
X12136917Y-23969629D01*
X12136917Y-23969629D02*
X12146441Y-24007724D01*
X12146441Y-24007724D02*
X12146441Y-24055343D01*
X12146441Y-24055343D02*
X12136917Y-24093438D01*
X12136917Y-24093438D02*
X12127394Y-24112486D01*
X12127394Y-24112486D02*
X12117870Y-24122010D01*
X12117870Y-24122010D02*
X12098822Y-24131534D01*
X12098822Y-24131534D02*
X12079775Y-24131534D01*
X12079775Y-24131534D02*
X12060727Y-24122010D01*
X12060727Y-24122010D02*
X12051203Y-24112486D01*
X12051203Y-24112486D02*
X12041679Y-24093438D01*
X12041679Y-24093438D02*
X12032156Y-24055343D01*
X12032156Y-24055343D02*
X12032156Y-24007724D01*
X12032156Y-24007724D02*
X12041679Y-23969629D01*
X12041679Y-23969629D02*
X12051203Y-23950581D01*
X12051203Y-23950581D02*
X12060727Y-23941058D01*
X12060727Y-23941058D02*
X12079775Y-23931534D01*
X12260727Y-24017248D02*
X12241679Y-24007724D01*
X12241679Y-24007724D02*
X12232156Y-23998200D01*
X12232156Y-23998200D02*
X12222632Y-23979153D01*
X12222632Y-23979153D02*
X12222632Y-23969629D01*
X12222632Y-23969629D02*
X12232156Y-23950581D01*
X12232156Y-23950581D02*
X12241679Y-23941058D01*
X12241679Y-23941058D02*
X12260727Y-23931534D01*
X12260727Y-23931534D02*
X12298822Y-23931534D01*
X12298822Y-23931534D02*
X12317870Y-23941058D01*
X12317870Y-23941058D02*
X12327394Y-23950581D01*
X12327394Y-23950581D02*
X12336917Y-23969629D01*
X12336917Y-23969629D02*
X12336917Y-23979153D01*
X12336917Y-23979153D02*
X12327394Y-23998200D01*
X12327394Y-23998200D02*
X12317870Y-24007724D01*
X12317870Y-24007724D02*
X12298822Y-24017248D01*
X12298822Y-24017248D02*
X12260727Y-24017248D01*
X12260727Y-24017248D02*
X12241679Y-24026772D01*
X12241679Y-24026772D02*
X12232156Y-24036296D01*
X12232156Y-24036296D02*
X12222632Y-24055343D01*
X12222632Y-24055343D02*
X12222632Y-24093438D01*
X12222632Y-24093438D02*
X12232156Y-24112486D01*
X12232156Y-24112486D02*
X12241679Y-24122010D01*
X12241679Y-24122010D02*
X12260727Y-24131534D01*
X12260727Y-24131534D02*
X12298822Y-24131534D01*
X12298822Y-24131534D02*
X12317870Y-24122010D01*
X12317870Y-24122010D02*
X12327394Y-24112486D01*
X12327394Y-24112486D02*
X12336917Y-24093438D01*
X12336917Y-24093438D02*
X12336917Y-24055343D01*
X12336917Y-24055343D02*
X12327394Y-24036296D01*
X12327394Y-24036296D02*
X12317870Y-24026772D01*
X12317870Y-24026772D02*
X12298822Y-24017248D01*
X12460727Y-23931534D02*
X12479775Y-23931534D01*
X12479775Y-23931534D02*
X12498822Y-23941058D01*
X12498822Y-23941058D02*
X12508346Y-23950581D01*
X12508346Y-23950581D02*
X12517870Y-23969629D01*
X12517870Y-23969629D02*
X12527394Y-24007724D01*
X12527394Y-24007724D02*
X12527394Y-24055343D01*
X12527394Y-24055343D02*
X12517870Y-24093438D01*
X12517870Y-24093438D02*
X12508346Y-24112486D01*
X12508346Y-24112486D02*
X12498822Y-24122010D01*
X12498822Y-24122010D02*
X12479775Y-24131534D01*
X12479775Y-24131534D02*
X12460727Y-24131534D01*
X12460727Y-24131534D02*
X12441679Y-24122010D01*
X12441679Y-24122010D02*
X12432156Y-24112486D01*
X12432156Y-24112486D02*
X12422632Y-24093438D01*
X12422632Y-24093438D02*
X12413108Y-24055343D01*
X12413108Y-24055343D02*
X12413108Y-24007724D01*
X12413108Y-24007724D02*
X12422632Y-23969629D01*
X12422632Y-23969629D02*
X12432156Y-23950581D01*
X12432156Y-23950581D02*
X12441679Y-23941058D01*
X12441679Y-23941058D02*
X12460727Y-23931534D01*
X12603584Y-23931534D02*
X12603584Y-23969629D01*
X12679775Y-23931534D02*
X12679775Y-23969629D01*
X12975013Y-24207724D02*
X12965489Y-24198200D01*
X12965489Y-24198200D02*
X12946441Y-24169629D01*
X12946441Y-24169629D02*
X12936918Y-24150581D01*
X12936918Y-24150581D02*
X12927394Y-24122010D01*
X12927394Y-24122010D02*
X12917870Y-24074391D01*
X12917870Y-24074391D02*
X12917870Y-24036296D01*
X12917870Y-24036296D02*
X12927394Y-23988677D01*
X12927394Y-23988677D02*
X12936918Y-23960105D01*
X12936918Y-23960105D02*
X12946441Y-23941058D01*
X12946441Y-23941058D02*
X12965489Y-23912486D01*
X12965489Y-23912486D02*
X12975013Y-23902962D01*
X13155965Y-24131534D02*
X13041679Y-24131534D01*
X13098822Y-24131534D02*
X13098822Y-23931534D01*
X13098822Y-23931534D02*
X13079775Y-23960105D01*
X13079775Y-23960105D02*
X13060727Y-23979153D01*
X13060727Y-23979153D02*
X13041679Y-23988677D01*
X13222632Y-23931534D02*
X13355965Y-23931534D01*
X13355965Y-23931534D02*
X13270251Y-24131534D01*
X13413108Y-23931534D02*
X13546441Y-23931534D01*
X13546441Y-23931534D02*
X13460727Y-24131534D01*
X13775013Y-24131534D02*
X13775013Y-23931534D01*
X13860727Y-24131534D02*
X13860727Y-24026772D01*
X13860727Y-24026772D02*
X13851203Y-24007724D01*
X13851203Y-24007724D02*
X13832156Y-23998200D01*
X13832156Y-23998200D02*
X13803584Y-23998200D01*
X13803584Y-23998200D02*
X13784537Y-24007724D01*
X13784537Y-24007724D02*
X13775013Y-24017248D01*
X13984537Y-24131534D02*
X13965489Y-24122010D01*
X13965489Y-24122010D02*
X13955965Y-24112486D01*
X13955965Y-24112486D02*
X13946441Y-24093438D01*
X13946441Y-24093438D02*
X13946441Y-24036296D01*
X13946441Y-24036296D02*
X13955965Y-24017248D01*
X13955965Y-24017248D02*
X13965489Y-24007724D01*
X13965489Y-24007724D02*
X13984537Y-23998200D01*
X13984537Y-23998200D02*
X14013108Y-23998200D01*
X14013108Y-23998200D02*
X14032156Y-24007724D01*
X14032156Y-24007724D02*
X14041680Y-24017248D01*
X14041680Y-24017248D02*
X14051203Y-24036296D01*
X14051203Y-24036296D02*
X14051203Y-24093438D01*
X14051203Y-24093438D02*
X14041680Y-24112486D01*
X14041680Y-24112486D02*
X14032156Y-24122010D01*
X14032156Y-24122010D02*
X14013108Y-24131534D01*
X14013108Y-24131534D02*
X13984537Y-24131534D01*
X14165489Y-24131534D02*
X14146441Y-24122010D01*
X14146441Y-24122010D02*
X14136918Y-24102962D01*
X14136918Y-24102962D02*
X14136918Y-23931534D01*
X14317870Y-24122010D02*
X14298822Y-24131534D01*
X14298822Y-24131534D02*
X14260727Y-24131534D01*
X14260727Y-24131534D02*
X14241680Y-24122010D01*
X14241680Y-24122010D02*
X14232156Y-24102962D01*
X14232156Y-24102962D02*
X14232156Y-24026772D01*
X14232156Y-24026772D02*
X14241680Y-24007724D01*
X14241680Y-24007724D02*
X14260727Y-23998200D01*
X14260727Y-23998200D02*
X14298822Y-23998200D01*
X14298822Y-23998200D02*
X14317870Y-24007724D01*
X14317870Y-24007724D02*
X14327394Y-24026772D01*
X14327394Y-24026772D02*
X14327394Y-24045819D01*
X14327394Y-24045819D02*
X14232156Y-24064867D01*
X14403584Y-24122010D02*
X14422632Y-24131534D01*
X14422632Y-24131534D02*
X14460727Y-24131534D01*
X14460727Y-24131534D02*
X14479775Y-24122010D01*
X14479775Y-24122010D02*
X14489299Y-24102962D01*
X14489299Y-24102962D02*
X14489299Y-24093438D01*
X14489299Y-24093438D02*
X14479775Y-24074391D01*
X14479775Y-24074391D02*
X14460727Y-24064867D01*
X14460727Y-24064867D02*
X14432156Y-24064867D01*
X14432156Y-24064867D02*
X14413108Y-24055343D01*
X14413108Y-24055343D02*
X14403584Y-24036296D01*
X14403584Y-24036296D02*
X14403584Y-24026772D01*
X14403584Y-24026772D02*
X14413108Y-24007724D01*
X14413108Y-24007724D02*
X14432156Y-23998200D01*
X14432156Y-23998200D02*
X14460727Y-23998200D01*
X14460727Y-23998200D02*
X14479775Y-24007724D01*
X14555965Y-24207724D02*
X14565489Y-24198200D01*
X14565489Y-24198200D02*
X14584537Y-24169629D01*
X14584537Y-24169629D02*
X14594061Y-24150581D01*
X14594061Y-24150581D02*
X14603584Y-24122010D01*
X14603584Y-24122010D02*
X14613108Y-24074391D01*
X14613108Y-24074391D02*
X14613108Y-24036296D01*
X14613108Y-24036296D02*
X14603584Y-23988677D01*
X14603584Y-23988677D02*
X14594061Y-23960105D01*
X14594061Y-23960105D02*
X14584537Y-23941058D01*
X14584537Y-23941058D02*
X14565489Y-23912486D01*
X14565489Y-23912486D02*
X14555965Y-23902962D01*
M02*
