G04 #@! TF.GenerationSoftware,KiCad,Pcbnew,9.0.6*
G04 #@! TF.CreationDate,2026-03-10T14:48:13-05:00*
G04 #@! TF.ProjectId,u2CEM,75324345-4d2e-46b6-9963-61645f706362,rev?*
G04 #@! TF.SameCoordinates,Original*
G04 #@! TF.FileFunction,Soldermask,Top*
G04 #@! TF.FilePolarity,Negative*
%FSLAX46Y46*%
G04 Gerber Fmt 4.6, Leading zero omitted, Abs format (unit mm)*
G04 Created by KiCad (PCBNEW 9.0.6) date 2026-03-10 14:48:13*
%MOMM*%
%LPD*%
G01*
G04 APERTURE LIST*
G04 Aperture macros list*
%AMRoundRect*
0 Rectangle with rounded corners*
0 $1 Rounding radius*
0 $2 $3 $4 $5 $6 $7 $8 $9 X,Y pos of 4 corners*
0 Add a 4 corners polygon primitive as box body*
4,1,4,$2,$3,$4,$5,$6,$7,$8,$9,$2,$3,0*
0 Add four circle primitives for the rounded corners*
1,1,$1+$1,$2,$3*
1,1,$1+$1,$4,$5*
1,1,$1+$1,$6,$7*
1,1,$1+$1,$8,$9*
0 Add four rect primitives between the rounded corners*
20,1,$1+$1,$2,$3,$4,$5,0*
20,1,$1+$1,$4,$5,$6,$7,0*
20,1,$1+$1,$6,$7,$8,$9,0*
20,1,$1+$1,$8,$9,$2,$3,0*%
G04 Aperture macros list end*
%ADD10RoundRect,0.200000X0.200000X0.275000X-0.200000X0.275000X-0.200000X-0.275000X0.200000X-0.275000X0*%
%ADD11C,3.000000*%
%ADD12RoundRect,0.218750X0.218750X0.256250X-0.218750X0.256250X-0.218750X-0.256250X0.218750X-0.256250X0*%
%ADD13C,3.200000*%
%ADD14RoundRect,0.200000X-0.200000X-0.275000X0.200000X-0.275000X0.200000X0.275000X-0.200000X0.275000X0*%
%ADD15R,0.700000X4.200000*%
%ADD16RoundRect,0.200000X-0.275000X0.200000X-0.275000X-0.200000X0.275000X-0.200000X0.275000X0.200000X0*%
%ADD17C,2.400000*%
%ADD18C,2.000000*%
%ADD19R,1.500000X0.500000*%
%ADD20R,1.200000X0.500000*%
%ADD21R,2.600000X2.600000*%
%ADD22R,1.500000X0.600000*%
%ADD23C,0.508000*%
G04 APERTURE END LIST*
D10*
G04 #@! TO.C,R7*
X107900000Y-202029000D03*
X106250000Y-202029000D03*
G04 #@! TD*
D11*
G04 #@! TO.C,REF\u002A\u002A*
X115000000Y-175000000D03*
G04 #@! TD*
D10*
G04 #@! TO.C,R6*
X109525000Y-203879000D03*
X107875000Y-203879000D03*
G04 #@! TD*
D12*
G04 #@! TO.C,D1*
X221875000Y-193529000D03*
X220300000Y-193529000D03*
G04 #@! TD*
D13*
G04 #@! TO.C,REF\u002A\u002A*
X276000000Y-228000000D03*
G04 #@! TD*
G04 #@! TO.C,REF\u002A\u002A*
X114000000Y-225000000D03*
G04 #@! TD*
D12*
G04 #@! TO.C,D2*
X221875000Y-186029000D03*
X220300000Y-186029000D03*
G04 #@! TD*
D14*
G04 #@! TO.C,R8*
X215750000Y-193529000D03*
X217400000Y-193529000D03*
G04 #@! TD*
D15*
G04 #@! TO.C,J1*
X277000000Y-219500000D03*
X276000000Y-219500000D03*
X275000000Y-219500000D03*
X274000000Y-219500000D03*
X273000000Y-219500000D03*
X272000000Y-219500000D03*
X271000000Y-219500000D03*
X270000000Y-219500000D03*
X269000000Y-219500000D03*
X268000000Y-219500000D03*
X267000000Y-219500000D03*
X264000000Y-219500000D03*
X263000000Y-219500000D03*
X262000000Y-219500000D03*
X261000000Y-219500000D03*
X260000000Y-219500000D03*
X259000000Y-219500000D03*
X258000000Y-219500000D03*
X257000000Y-219500000D03*
X256000000Y-219500000D03*
X255000000Y-219500000D03*
X254000000Y-219500000D03*
X253000000Y-219500000D03*
X252000000Y-219500000D03*
X251000000Y-219500000D03*
X250000000Y-219500000D03*
X249000000Y-219500000D03*
X248000000Y-219500000D03*
X247000000Y-219500000D03*
X246000000Y-219500000D03*
X245000000Y-219500000D03*
X244000000Y-219500000D03*
G04 #@! TD*
D14*
G04 #@! TO.C,R9*
X215887500Y-186029000D03*
X217537500Y-186029000D03*
G04 #@! TD*
D11*
G04 #@! TO.C,REF\u002A\u002A*
X270000000Y-230000000D03*
G04 #@! TD*
D16*
G04 #@! TO.C,R10*
X108200000Y-208554000D03*
X108200000Y-210204000D03*
G04 #@! TD*
D13*
G04 #@! TO.C,REF\u002A\u002A*
X104000000Y-173200000D03*
G04 #@! TD*
G04 #@! TO.C,REF\u002A\u002A*
X231000000Y-173200000D03*
G04 #@! TD*
D16*
G04 #@! TO.C,R11*
X108200000Y-213879000D03*
X108200000Y-215529000D03*
G04 #@! TD*
D11*
G04 #@! TO.C,REF\u002A\u002A*
X220000000Y-175000000D03*
G04 #@! TD*
D13*
G04 #@! TO.C,REF\u002A\u002A*
X231000000Y-187200000D03*
G04 #@! TD*
D10*
G04 #@! TO.C,R5*
X109525000Y-205879000D03*
X107875000Y-205879000D03*
G04 #@! TD*
D17*
G04 #@! TO.C,J2*
X104100000Y-223349000D03*
D18*
X104100000Y-184409000D03*
D19*
X104000000Y-196799000D03*
X104000000Y-197599000D03*
X104000000Y-198399000D03*
X104000000Y-199199000D03*
X104000000Y-199999000D03*
X104000000Y-200799000D03*
D20*
X102300000Y-188429000D03*
X102300000Y-189229000D03*
X102300000Y-190029000D03*
X102300000Y-190829000D03*
X102300000Y-191629000D03*
X102300000Y-192429000D03*
X102300000Y-193229000D03*
X102300000Y-194029000D03*
X102300000Y-194829000D03*
X102300000Y-195629000D03*
X102300000Y-213229000D03*
X102300000Y-214029000D03*
X102300000Y-214829000D03*
X102300000Y-215629000D03*
X102300000Y-216429000D03*
X102300000Y-217229000D03*
X102300000Y-218029000D03*
X102300000Y-218829000D03*
X102300000Y-219629000D03*
D21*
X97570000Y-180054000D03*
X97570000Y-227704000D03*
D22*
X104000000Y-201974000D03*
X104000000Y-203244000D03*
X104000000Y-204514000D03*
X104000000Y-205784000D03*
X104000000Y-207054000D03*
X104000000Y-208324000D03*
X104000000Y-209594000D03*
X104000000Y-210864000D03*
X104000000Y-212134000D03*
X104000000Y-213404000D03*
X104000000Y-214674000D03*
X104000000Y-215944000D03*
X104000000Y-217214000D03*
X104000000Y-218484000D03*
X104000000Y-219754000D03*
X104000000Y-188004000D03*
X104000000Y-189274000D03*
X104000000Y-190544000D03*
X104000000Y-191814000D03*
X104000000Y-193084000D03*
X104000000Y-194354000D03*
X104000000Y-195624000D03*
D20*
X102300000Y-196429000D03*
X102300000Y-197229000D03*
X102300000Y-198029000D03*
X102300000Y-198829000D03*
X102300000Y-199629000D03*
X102300000Y-200429000D03*
X102300000Y-201229000D03*
X102300000Y-202029000D03*
X102300000Y-202829000D03*
X102300000Y-203629000D03*
X102300000Y-204429000D03*
X102300000Y-205229000D03*
X102300000Y-206029000D03*
X102300000Y-206829000D03*
X102300000Y-207629000D03*
X102300000Y-208429000D03*
X102300000Y-209229000D03*
X102300000Y-210029000D03*
X102300000Y-210829000D03*
X102300000Y-211629000D03*
X102300000Y-212429000D03*
G04 #@! TD*
D23*
X240300000Y-219429000D03*
X268000000Y-222529000D03*
X238800000Y-217929000D03*
X268000000Y-216729000D03*
X240300000Y-217929000D03*
X106700000Y-198429000D03*
X241800000Y-219429000D03*
X269000000Y-216729000D03*
X106700000Y-199129000D03*
X106700000Y-197729000D03*
X241800000Y-220929000D03*
X241800000Y-217929000D03*
X105900000Y-199129000D03*
X105900000Y-198429000D03*
X214400000Y-186029000D03*
X270000000Y-222529000D03*
X105900000Y-197729000D03*
X199600000Y-221629000D03*
X105900000Y-200329000D03*
X267000000Y-222929002D03*
X244000000Y-222229000D03*
X112100000Y-212329000D03*
X101100000Y-192429000D03*
X220200000Y-212329000D03*
X100600000Y-226629000D03*
X264000000Y-216729000D03*
X254000000Y-216729000D03*
X258000000Y-216729000D03*
X111500000Y-210129000D03*
X101100000Y-202829000D03*
X101100000Y-207629000D03*
X263000000Y-216729000D03*
X105900000Y-214729000D03*
X250000000Y-216729000D03*
X249500000Y-222229000D03*
X225300000Y-200829000D03*
X100600000Y-181029000D03*
X258000000Y-222029000D03*
X261000000Y-216729000D03*
X228000000Y-205329000D03*
X251500000Y-222229000D03*
X101100000Y-196429000D03*
X271000000Y-222529000D03*
X111500000Y-204929000D03*
X105900000Y-207729000D03*
X251000000Y-216729000D03*
X111500000Y-207929000D03*
X232699790Y-214916174D03*
X101100000Y-217300000D03*
X255000000Y-216729000D03*
X101100000Y-212429000D03*
X101100000Y-190029000D03*
X256000000Y-216729000D03*
X232700000Y-217129000D03*
X105800000Y-195029000D03*
X255500000Y-222229000D03*
X260500000Y-222229000D03*
X101100000Y-198829000D03*
X112100000Y-214529000D03*
X101100000Y-194829000D03*
X260000000Y-216729000D03*
X219600000Y-198929000D03*
X111500000Y-192429000D03*
X230100000Y-210129000D03*
X220200000Y-210129000D03*
X100600000Y-227629000D03*
X230100000Y-212329000D03*
X220200000Y-207929000D03*
X247000000Y-216729000D03*
X263485685Y-222231863D03*
X219600000Y-203029000D03*
X100600000Y-179029000D03*
X253000000Y-216729000D03*
X274000000Y-216729000D03*
X100600000Y-228629000D03*
X105800000Y-187429000D03*
X219600000Y-204629000D03*
X223500000Y-193529000D03*
X244000000Y-216729000D03*
X223500000Y-186029000D03*
X101100000Y-214829000D03*
X111500000Y-202729000D03*
X100600000Y-180029000D03*
X247500000Y-222229000D03*
X248000000Y-216729000D03*
X105300000Y-202029000D03*
X228003889Y-207544556D03*
X274000000Y-222529000D03*
X249000000Y-216729000D03*
X225300000Y-196829000D03*
X245000000Y-216729000D03*
X105800000Y-192329000D03*
X245000000Y-222229000D03*
X219600000Y-200529000D03*
X271000000Y-216779498D03*
X225300000Y-199029000D03*
X101100000Y-210029000D03*
X252000000Y-216729000D03*
X220200000Y-214529000D03*
X225300000Y-203000000D03*
X277000000Y-216779498D03*
X253500000Y-222229000D03*
X101100000Y-201229000D03*
X101100000Y-205229000D03*
X111500000Y-190229000D03*
X225300000Y-197579000D03*
X101100000Y-188429000D03*
X101100000Y-189229000D03*
X225300000Y-198279000D03*
X101100000Y-194029000D03*
X225300000Y-202279000D03*
X101100000Y-193229000D03*
X225300000Y-201579000D03*
X101100000Y-206829000D03*
X228000000Y-206779000D03*
X228000000Y-206079000D03*
X101100000Y-206029000D03*
X101100000Y-211629000D03*
X230100000Y-211579000D03*
X230100000Y-210879000D03*
X101100000Y-210829000D03*
X232700000Y-216379000D03*
X101198689Y-216379000D03*
X101198689Y-215679000D03*
X232712145Y-215615567D03*
X101100000Y-190829000D03*
X220200000Y-199379000D03*
X111500000Y-190979000D03*
X111500000Y-191679000D03*
X220200000Y-200079000D03*
X101100000Y-191629000D03*
X111500000Y-203479000D03*
X220200000Y-203479000D03*
X101100000Y-203629000D03*
X220200000Y-204179000D03*
X101100000Y-204429000D03*
X111500000Y-204179000D03*
X220200000Y-208679000D03*
X111500000Y-208679000D03*
X101100000Y-208429000D03*
X220200000Y-209379000D03*
X101100000Y-209229000D03*
X111500000Y-209379000D03*
X112100000Y-213079000D03*
X101100000Y-213229000D03*
X220200000Y-213079000D03*
X220200000Y-213779000D03*
X101100000Y-214029000D03*
X112100000Y-213779000D03*
X121600000Y-224929000D03*
X122400000Y-224929000D03*
X121600000Y-227329000D03*
X120800000Y-226529000D03*
X122400000Y-225729000D03*
X120800000Y-225729000D03*
X121600000Y-225729000D03*
X206400000Y-225229000D03*
X120800000Y-224929000D03*
X122400000Y-226529000D03*
X275000000Y-216729000D03*
X276000000Y-216729000D03*
X277000000Y-223229000D03*
X120800000Y-227329000D03*
X275000000Y-222529000D03*
X121600000Y-226529000D03*
X214400000Y-193529000D03*
X276000000Y-222529000D03*
X122400000Y-227329000D03*
X258550000Y-222679000D03*
X113700000Y-205000000D03*
X200700000Y-221629000D03*
X273000000Y-216729000D03*
X197300000Y-221629000D03*
X101100000Y-218153500D03*
X101100000Y-218853003D03*
X196100000Y-221629000D03*
X272000000Y-222529000D03*
M02*
