G04 #@! TF.GenerationSoftware,KiCad,Pcbnew,9.0.6*
G04 #@! TF.CreationDate,2026-03-10T14:48:13-05:00*
G04 #@! TF.ProjectId,u2CEM,75324345-4d2e-46b6-9963-61645f706362,rev?*
G04 #@! TF.SameCoordinates,Original*
G04 #@! TF.FileFunction,Legend,Bot*
G04 #@! TF.FilePolarity,Positive*
%FSLAX46Y46*%
G04 Gerber Fmt 4.6, Leading zero omitted, Abs format (unit mm)*
G04 Created by KiCad (PCBNEW 9.0.6) date 2026-03-10 14:48:13*
%MOMM*%
%LPD*%
G01*
G04 APERTURE LIST*
G04 Aperture macros list*
%AMRoundRect*
0 Rectangle with rounded corners*
0 $1 Rounding radius*
0 $2 $3 $4 $5 $6 $7 $8 $9 X,Y pos of 4 corners*
0 Add a 4 corners polygon primitive as box body*
4,1,4,$2,$3,$4,$5,$6,$7,$8,$9,$2,$3,0*
0 Add four circle primitives for the rounded corners*
1,1,$1+$1,$2,$3*
1,1,$1+$1,$4,$5*
1,1,$1+$1,$6,$7*
1,1,$1+$1,$8,$9*
0 Add four rect primitives between the rounded corners*
20,1,$1+$1,$2,$3,$4,$5,0*
20,1,$1+$1,$4,$5,$6,$7,0*
20,1,$1+$1,$6,$7,$8,$9,0*
20,1,$1+$1,$8,$9,$2,$3,0*%
G04 Aperture macros list end*
%ADD10C,0.150000*%
%ADD11C,0.120000*%
%ADD12C,3.200000*%
%ADD13R,0.700000X4.200000*%
%ADD14C,2.400000*%
%ADD15C,2.000000*%
%ADD16RoundRect,0.200000X0.275000X-0.200000X0.275000X0.200000X-0.275000X0.200000X-0.275000X-0.200000X0*%
%ADD17RoundRect,0.200000X-0.200000X-0.275000X0.200000X-0.275000X0.200000X0.275000X-0.200000X0.275000X0*%
%ADD18C,0.508000*%
G04 APERTURE END LIST*
D10*
X266846666Y-228353819D02*
X267179999Y-227877628D01*
X267418094Y-228353819D02*
X267418094Y-227353819D01*
X267418094Y-227353819D02*
X267037142Y-227353819D01*
X267037142Y-227353819D02*
X266941904Y-227401438D01*
X266941904Y-227401438D02*
X266894285Y-227449057D01*
X266894285Y-227449057D02*
X266846666Y-227544295D01*
X266846666Y-227544295D02*
X266846666Y-227687152D01*
X266846666Y-227687152D02*
X266894285Y-227782390D01*
X266894285Y-227782390D02*
X266941904Y-227830009D01*
X266941904Y-227830009D02*
X267037142Y-227877628D01*
X267037142Y-227877628D02*
X267418094Y-227877628D01*
X266513332Y-227353819D02*
X265894285Y-227353819D01*
X265894285Y-227353819D02*
X266227618Y-227734771D01*
X266227618Y-227734771D02*
X266084761Y-227734771D01*
X266084761Y-227734771D02*
X265989523Y-227782390D01*
X265989523Y-227782390D02*
X265941904Y-227830009D01*
X265941904Y-227830009D02*
X265894285Y-227925247D01*
X265894285Y-227925247D02*
X265894285Y-228163342D01*
X265894285Y-228163342D02*
X265941904Y-228258580D01*
X265941904Y-228258580D02*
X265989523Y-228306200D01*
X265989523Y-228306200D02*
X266084761Y-228353819D01*
X266084761Y-228353819D02*
X266370475Y-228353819D01*
X266370475Y-228353819D02*
X266465713Y-228306200D01*
X266465713Y-228306200D02*
X266513332Y-228258580D01*
X271216666Y-225773819D02*
X271549999Y-225297628D01*
X271788094Y-225773819D02*
X271788094Y-224773819D01*
X271788094Y-224773819D02*
X271407142Y-224773819D01*
X271407142Y-224773819D02*
X271311904Y-224821438D01*
X271311904Y-224821438D02*
X271264285Y-224869057D01*
X271264285Y-224869057D02*
X271216666Y-224964295D01*
X271216666Y-224964295D02*
X271216666Y-225107152D01*
X271216666Y-225107152D02*
X271264285Y-225202390D01*
X271264285Y-225202390D02*
X271311904Y-225250009D01*
X271311904Y-225250009D02*
X271407142Y-225297628D01*
X271407142Y-225297628D02*
X271788094Y-225297628D01*
X270264285Y-225773819D02*
X270835713Y-225773819D01*
X270549999Y-225773819D02*
X270549999Y-224773819D01*
X270549999Y-224773819D02*
X270645237Y-224916676D01*
X270645237Y-224916676D02*
X270740475Y-225011914D01*
X270740475Y-225011914D02*
X270835713Y-225059533D01*
X245191666Y-225113819D02*
X245524999Y-224637628D01*
X245763094Y-225113819D02*
X245763094Y-224113819D01*
X245763094Y-224113819D02*
X245382142Y-224113819D01*
X245382142Y-224113819D02*
X245286904Y-224161438D01*
X245286904Y-224161438D02*
X245239285Y-224209057D01*
X245239285Y-224209057D02*
X245191666Y-224304295D01*
X245191666Y-224304295D02*
X245191666Y-224447152D01*
X245191666Y-224447152D02*
X245239285Y-224542390D01*
X245239285Y-224542390D02*
X245286904Y-224590009D01*
X245286904Y-224590009D02*
X245382142Y-224637628D01*
X245382142Y-224637628D02*
X245763094Y-224637628D01*
X244810713Y-224209057D02*
X244763094Y-224161438D01*
X244763094Y-224161438D02*
X244667856Y-224113819D01*
X244667856Y-224113819D02*
X244429761Y-224113819D01*
X244429761Y-224113819D02*
X244334523Y-224161438D01*
X244334523Y-224161438D02*
X244286904Y-224209057D01*
X244286904Y-224209057D02*
X244239285Y-224304295D01*
X244239285Y-224304295D02*
X244239285Y-224399533D01*
X244239285Y-224399533D02*
X244286904Y-224542390D01*
X244286904Y-224542390D02*
X244858332Y-225113819D01*
X244858332Y-225113819D02*
X244239285Y-225113819D01*
X263106666Y-225853819D02*
X263439999Y-225377628D01*
X263678094Y-225853819D02*
X263678094Y-224853819D01*
X263678094Y-224853819D02*
X263297142Y-224853819D01*
X263297142Y-224853819D02*
X263201904Y-224901438D01*
X263201904Y-224901438D02*
X263154285Y-224949057D01*
X263154285Y-224949057D02*
X263106666Y-225044295D01*
X263106666Y-225044295D02*
X263106666Y-225187152D01*
X263106666Y-225187152D02*
X263154285Y-225282390D01*
X263154285Y-225282390D02*
X263201904Y-225330009D01*
X263201904Y-225330009D02*
X263297142Y-225377628D01*
X263297142Y-225377628D02*
X263678094Y-225377628D01*
X262249523Y-225187152D02*
X262249523Y-225853819D01*
X262487618Y-224806200D02*
X262725713Y-225520485D01*
X262725713Y-225520485D02*
X262106666Y-225520485D01*
D11*
G04 #@! TO.C,R3*
X266177500Y-225616258D02*
X266177500Y-225141742D01*
X267222500Y-225616258D02*
X267222500Y-225141742D01*
G04 #@! TO.C,R1*
X268677500Y-225616258D02*
X268677500Y-225141742D01*
X269722500Y-225616258D02*
X269722500Y-225141742D01*
G04 #@! TO.C,R2*
X244787742Y-222706500D02*
X245262258Y-222706500D01*
X244787742Y-223751500D02*
X245262258Y-223751500D01*
G04 #@! TO.C,R4*
X264177500Y-225616258D02*
X264177500Y-225141742D01*
X265222500Y-225616258D02*
X265222500Y-225141742D01*
G04 #@! TD*
%LPC*%
D12*
G04 #@! TO.C,REF\u002A\u002A*
X276000000Y-228000000D03*
G04 #@! TD*
G04 #@! TO.C,REF\u002A\u002A*
X114000000Y-225000000D03*
G04 #@! TD*
D13*
G04 #@! TO.C,J1*
X277000000Y-219500000D03*
X276000000Y-219500000D03*
X275000000Y-219500000D03*
X274000000Y-219500000D03*
X273000000Y-219500000D03*
X272000000Y-219500000D03*
X271000000Y-219500000D03*
X270000000Y-219500000D03*
X269000000Y-219500000D03*
X268000000Y-219500000D03*
X267000000Y-219500000D03*
X264000000Y-219500000D03*
X263000000Y-219500000D03*
X262000000Y-219500000D03*
X261000000Y-219500000D03*
X260000000Y-219500000D03*
X259000000Y-219500000D03*
X258000000Y-219500000D03*
X257000000Y-219500000D03*
X256000000Y-219500000D03*
X255000000Y-219500000D03*
X254000000Y-219500000D03*
X253000000Y-219500000D03*
X252000000Y-219500000D03*
X251000000Y-219500000D03*
X250000000Y-219500000D03*
X249000000Y-219500000D03*
X248000000Y-219500000D03*
X247000000Y-219500000D03*
X246000000Y-219500000D03*
X245000000Y-219500000D03*
X244000000Y-219500000D03*
G04 #@! TD*
D12*
G04 #@! TO.C,REF\u002A\u002A*
X104000000Y-173200000D03*
G04 #@! TD*
G04 #@! TO.C,REF\u002A\u002A*
X231000000Y-173200000D03*
G04 #@! TD*
G04 #@! TO.C,REF\u002A\u002A*
X231000000Y-187200000D03*
G04 #@! TD*
D14*
G04 #@! TO.C,J2*
X104100000Y-223349000D03*
D15*
X104100000Y-184409000D03*
G04 #@! TD*
D16*
G04 #@! TO.C,R3*
X266700000Y-226204000D03*
X266700000Y-224554000D03*
G04 #@! TD*
G04 #@! TO.C,R1*
X269200000Y-226204000D03*
X269200000Y-224554000D03*
G04 #@! TD*
D17*
G04 #@! TO.C,R2*
X244200000Y-223229000D03*
X245850000Y-223229000D03*
G04 #@! TD*
D16*
G04 #@! TO.C,R4*
X264700000Y-226204000D03*
X264700000Y-224554000D03*
G04 #@! TD*
D18*
X240300000Y-219429000D03*
X268000000Y-222529000D03*
X238800000Y-217929000D03*
X268000000Y-216729000D03*
X240300000Y-217929000D03*
X106700000Y-198429000D03*
X241800000Y-219429000D03*
X269000000Y-216729000D03*
X106700000Y-199129000D03*
X106700000Y-197729000D03*
X241800000Y-220929000D03*
X241800000Y-217929000D03*
X105900000Y-199129000D03*
X105900000Y-198429000D03*
X214400000Y-186029000D03*
X270000000Y-222529000D03*
X105900000Y-197729000D03*
X199600000Y-221629000D03*
X105900000Y-200329000D03*
X267000000Y-222929002D03*
X244000000Y-222229000D03*
X112100000Y-212329000D03*
X101100000Y-192429000D03*
X220200000Y-212329000D03*
X100600000Y-226629000D03*
X264000000Y-216729000D03*
X254000000Y-216729000D03*
X258000000Y-216729000D03*
X111500000Y-210129000D03*
X101100000Y-202829000D03*
X101100000Y-207629000D03*
X263000000Y-216729000D03*
X105900000Y-214729000D03*
X250000000Y-216729000D03*
X249500000Y-222229000D03*
X225300000Y-200829000D03*
X100600000Y-181029000D03*
X258000000Y-222029000D03*
X261000000Y-216729000D03*
X228000000Y-205329000D03*
X251500000Y-222229000D03*
X101100000Y-196429000D03*
X271000000Y-222529000D03*
X111500000Y-204929000D03*
X105900000Y-207729000D03*
X251000000Y-216729000D03*
X111500000Y-207929000D03*
X232699790Y-214916174D03*
X101100000Y-217300000D03*
X255000000Y-216729000D03*
X101100000Y-212429000D03*
X101100000Y-190029000D03*
X256000000Y-216729000D03*
X232700000Y-217129000D03*
X105800000Y-195029000D03*
X255500000Y-222229000D03*
X260500000Y-222229000D03*
X101100000Y-198829000D03*
X112100000Y-214529000D03*
X101100000Y-194829000D03*
X260000000Y-216729000D03*
X219600000Y-198929000D03*
X111500000Y-192429000D03*
X230100000Y-210129000D03*
X220200000Y-210129000D03*
X100600000Y-227629000D03*
X230100000Y-212329000D03*
X220200000Y-207929000D03*
X247000000Y-216729000D03*
X263485685Y-222231863D03*
X219600000Y-203029000D03*
X100600000Y-179029000D03*
X253000000Y-216729000D03*
X274000000Y-216729000D03*
X100600000Y-228629000D03*
X105800000Y-187429000D03*
X219600000Y-204629000D03*
X223500000Y-193529000D03*
X244000000Y-216729000D03*
X223500000Y-186029000D03*
X101100000Y-214829000D03*
X111500000Y-202729000D03*
X100600000Y-180029000D03*
X247500000Y-222229000D03*
X248000000Y-216729000D03*
X105300000Y-202029000D03*
X228003889Y-207544556D03*
X274000000Y-222529000D03*
X249000000Y-216729000D03*
X225300000Y-196829000D03*
X245000000Y-216729000D03*
X105800000Y-192329000D03*
X245000000Y-222229000D03*
X219600000Y-200529000D03*
X271000000Y-216779498D03*
X225300000Y-199029000D03*
X101100000Y-210029000D03*
X252000000Y-216729000D03*
X220200000Y-214529000D03*
X225300000Y-203000000D03*
X277000000Y-216779498D03*
X253500000Y-222229000D03*
X101100000Y-201229000D03*
X101100000Y-205229000D03*
X111500000Y-190229000D03*
X225300000Y-197579000D03*
X101100000Y-188429000D03*
X101100000Y-189229000D03*
X225300000Y-198279000D03*
X101100000Y-194029000D03*
X225300000Y-202279000D03*
X101100000Y-193229000D03*
X225300000Y-201579000D03*
X101100000Y-206829000D03*
X228000000Y-206779000D03*
X228000000Y-206079000D03*
X101100000Y-206029000D03*
X101100000Y-211629000D03*
X230100000Y-211579000D03*
X230100000Y-210879000D03*
X101100000Y-210829000D03*
X232700000Y-216379000D03*
X101198689Y-216379000D03*
X101198689Y-215679000D03*
X232712145Y-215615567D03*
X101100000Y-190829000D03*
X220200000Y-199379000D03*
X111500000Y-190979000D03*
X111500000Y-191679000D03*
X220200000Y-200079000D03*
X101100000Y-191629000D03*
X111500000Y-203479000D03*
X220200000Y-203479000D03*
X101100000Y-203629000D03*
X220200000Y-204179000D03*
X101100000Y-204429000D03*
X111500000Y-204179000D03*
X220200000Y-208679000D03*
X111500000Y-208679000D03*
X101100000Y-208429000D03*
X220200000Y-209379000D03*
X101100000Y-209229000D03*
X111500000Y-209379000D03*
X112100000Y-213079000D03*
X101100000Y-213229000D03*
X220200000Y-213079000D03*
X220200000Y-213779000D03*
X101100000Y-214029000D03*
X112100000Y-213779000D03*
X121600000Y-224929000D03*
X122400000Y-224929000D03*
X121600000Y-227329000D03*
X120800000Y-226529000D03*
X122400000Y-225729000D03*
X120800000Y-225729000D03*
X121600000Y-225729000D03*
X206400000Y-225229000D03*
X120800000Y-224929000D03*
X122400000Y-226529000D03*
X275000000Y-216729000D03*
X276000000Y-216729000D03*
X277000000Y-223229000D03*
X120800000Y-227329000D03*
X275000000Y-222529000D03*
X121600000Y-226529000D03*
X214400000Y-193529000D03*
X276000000Y-222529000D03*
X122400000Y-227329000D03*
X258550000Y-222679000D03*
X113700000Y-205000000D03*
X200700000Y-221629000D03*
X273000000Y-216729000D03*
X197300000Y-221629000D03*
X101100000Y-218153500D03*
X101100000Y-218853003D03*
X196100000Y-221629000D03*
X272000000Y-222529000D03*
%LPD*%
M02*
