G04 #@! TF.GenerationSoftware,KiCad,Pcbnew,9.0.6*
G04 #@! TF.CreationDate,2026-03-10T14:48:13-05:00*
G04 #@! TF.ProjectId,u2CEM,75324345-4d2e-46b6-9963-61645f706362,rev?*
G04 #@! TF.SameCoordinates,Original*
G04 #@! TF.FileFunction,AssemblyDrawing,Top*
%FSLAX46Y46*%
G04 Gerber Fmt 4.6, Leading zero omitted, Abs format (unit mm)*
G04 Created by KiCad (PCBNEW 9.0.6) date 2026-03-10 14:48:13*
%MOMM*%
%LPD*%
G01*
G04 APERTURE LIST*
%ADD10C,0.060000*%
%ADD11C,0.150000*%
%ADD12C,0.100000*%
%ADD13C,0.200000*%
G04 APERTURE END LIST*
D10*
X107008333Y-202210927D02*
X106875000Y-202020451D01*
X106779762Y-202210927D02*
X106779762Y-201810927D01*
X106779762Y-201810927D02*
X106932143Y-201810927D01*
X106932143Y-201810927D02*
X106970238Y-201829975D01*
X106970238Y-201829975D02*
X106989285Y-201849022D01*
X106989285Y-201849022D02*
X107008333Y-201887118D01*
X107008333Y-201887118D02*
X107008333Y-201944260D01*
X107008333Y-201944260D02*
X106989285Y-201982356D01*
X106989285Y-201982356D02*
X106970238Y-202001403D01*
X106970238Y-202001403D02*
X106932143Y-202020451D01*
X106932143Y-202020451D02*
X106779762Y-202020451D01*
X107141666Y-201810927D02*
X107408333Y-201810927D01*
X107408333Y-201810927D02*
X107236904Y-202210927D01*
X114466666Y-175181927D02*
X114333333Y-174991451D01*
X114238095Y-175181927D02*
X114238095Y-174781927D01*
X114238095Y-174781927D02*
X114390476Y-174781927D01*
X114390476Y-174781927D02*
X114428571Y-174800975D01*
X114428571Y-174800975D02*
X114447618Y-174820022D01*
X114447618Y-174820022D02*
X114466666Y-174858118D01*
X114466666Y-174858118D02*
X114466666Y-174915260D01*
X114466666Y-174915260D02*
X114447618Y-174953356D01*
X114447618Y-174953356D02*
X114428571Y-174972403D01*
X114428571Y-174972403D02*
X114390476Y-174991451D01*
X114390476Y-174991451D02*
X114238095Y-174991451D01*
X114638095Y-174972403D02*
X114771428Y-174972403D01*
X114828571Y-175181927D02*
X114638095Y-175181927D01*
X114638095Y-175181927D02*
X114638095Y-174781927D01*
X114638095Y-174781927D02*
X114828571Y-174781927D01*
X115133333Y-174972403D02*
X115000000Y-174972403D01*
X115000000Y-175181927D02*
X115000000Y-174781927D01*
X115000000Y-174781927D02*
X115190476Y-174781927D01*
X115399999Y-174781927D02*
X115399999Y-174877165D01*
X115304761Y-174839070D02*
X115399999Y-174877165D01*
X115399999Y-174877165D02*
X115495238Y-174839070D01*
X115342857Y-174953356D02*
X115399999Y-174877165D01*
X115399999Y-174877165D02*
X115457142Y-174953356D01*
X115704761Y-174781927D02*
X115704761Y-174877165D01*
X115609523Y-174839070D02*
X115704761Y-174877165D01*
X115704761Y-174877165D02*
X115800000Y-174839070D01*
X115647619Y-174953356D02*
X115704761Y-174877165D01*
X115704761Y-174877165D02*
X115761904Y-174953356D01*
X108633333Y-204060927D02*
X108500000Y-203870451D01*
X108404762Y-204060927D02*
X108404762Y-203660927D01*
X108404762Y-203660927D02*
X108557143Y-203660927D01*
X108557143Y-203660927D02*
X108595238Y-203679975D01*
X108595238Y-203679975D02*
X108614285Y-203699022D01*
X108614285Y-203699022D02*
X108633333Y-203737118D01*
X108633333Y-203737118D02*
X108633333Y-203794260D01*
X108633333Y-203794260D02*
X108614285Y-203832356D01*
X108614285Y-203832356D02*
X108595238Y-203851403D01*
X108595238Y-203851403D02*
X108557143Y-203870451D01*
X108557143Y-203870451D02*
X108404762Y-203870451D01*
X108976190Y-203660927D02*
X108900000Y-203660927D01*
X108900000Y-203660927D02*
X108861904Y-203679975D01*
X108861904Y-203679975D02*
X108842857Y-203699022D01*
X108842857Y-203699022D02*
X108804762Y-203756165D01*
X108804762Y-203756165D02*
X108785714Y-203832356D01*
X108785714Y-203832356D02*
X108785714Y-203984737D01*
X108785714Y-203984737D02*
X108804762Y-204022832D01*
X108804762Y-204022832D02*
X108823809Y-204041880D01*
X108823809Y-204041880D02*
X108861904Y-204060927D01*
X108861904Y-204060927D02*
X108938095Y-204060927D01*
X108938095Y-204060927D02*
X108976190Y-204041880D01*
X108976190Y-204041880D02*
X108995238Y-204022832D01*
X108995238Y-204022832D02*
X109014285Y-203984737D01*
X109014285Y-203984737D02*
X109014285Y-203889499D01*
X109014285Y-203889499D02*
X108995238Y-203851403D01*
X108995238Y-203851403D02*
X108976190Y-203832356D01*
X108976190Y-203832356D02*
X108938095Y-203813308D01*
X108938095Y-203813308D02*
X108861904Y-203813308D01*
X108861904Y-203813308D02*
X108823809Y-203832356D01*
X108823809Y-203832356D02*
X108804762Y-203851403D01*
X108804762Y-203851403D02*
X108785714Y-203889499D01*
X220792262Y-193710927D02*
X220792262Y-193310927D01*
X220792262Y-193310927D02*
X220887500Y-193310927D01*
X220887500Y-193310927D02*
X220944643Y-193329975D01*
X220944643Y-193329975D02*
X220982738Y-193368070D01*
X220982738Y-193368070D02*
X221001785Y-193406165D01*
X221001785Y-193406165D02*
X221020833Y-193482356D01*
X221020833Y-193482356D02*
X221020833Y-193539499D01*
X221020833Y-193539499D02*
X221001785Y-193615689D01*
X221001785Y-193615689D02*
X220982738Y-193653784D01*
X220982738Y-193653784D02*
X220944643Y-193691880D01*
X220944643Y-193691880D02*
X220887500Y-193710927D01*
X220887500Y-193710927D02*
X220792262Y-193710927D01*
X221401785Y-193710927D02*
X221173214Y-193710927D01*
X221287500Y-193710927D02*
X221287500Y-193310927D01*
X221287500Y-193310927D02*
X221249404Y-193368070D01*
X221249404Y-193368070D02*
X221211309Y-193406165D01*
X221211309Y-193406165D02*
X221173214Y-193425213D01*
D11*
X274666666Y-228454819D02*
X274333333Y-227978628D01*
X274095238Y-228454819D02*
X274095238Y-227454819D01*
X274095238Y-227454819D02*
X274476190Y-227454819D01*
X274476190Y-227454819D02*
X274571428Y-227502438D01*
X274571428Y-227502438D02*
X274619047Y-227550057D01*
X274619047Y-227550057D02*
X274666666Y-227645295D01*
X274666666Y-227645295D02*
X274666666Y-227788152D01*
X274666666Y-227788152D02*
X274619047Y-227883390D01*
X274619047Y-227883390D02*
X274571428Y-227931009D01*
X274571428Y-227931009D02*
X274476190Y-227978628D01*
X274476190Y-227978628D02*
X274095238Y-227978628D01*
X275095238Y-227931009D02*
X275428571Y-227931009D01*
X275571428Y-228454819D02*
X275095238Y-228454819D01*
X275095238Y-228454819D02*
X275095238Y-227454819D01*
X275095238Y-227454819D02*
X275571428Y-227454819D01*
X276333333Y-227931009D02*
X276000000Y-227931009D01*
X276000000Y-228454819D02*
X276000000Y-227454819D01*
X276000000Y-227454819D02*
X276476190Y-227454819D01*
X277000000Y-227454819D02*
X277000000Y-227692914D01*
X276761905Y-227597676D02*
X277000000Y-227692914D01*
X277000000Y-227692914D02*
X277238095Y-227597676D01*
X276857143Y-227883390D02*
X277000000Y-227692914D01*
X277000000Y-227692914D02*
X277142857Y-227883390D01*
X277761905Y-227454819D02*
X277761905Y-227692914D01*
X277523810Y-227597676D02*
X277761905Y-227692914D01*
X277761905Y-227692914D02*
X278000000Y-227597676D01*
X277619048Y-227883390D02*
X277761905Y-227692914D01*
X277761905Y-227692914D02*
X277904762Y-227883390D01*
X112666666Y-225454819D02*
X112333333Y-224978628D01*
X112095238Y-225454819D02*
X112095238Y-224454819D01*
X112095238Y-224454819D02*
X112476190Y-224454819D01*
X112476190Y-224454819D02*
X112571428Y-224502438D01*
X112571428Y-224502438D02*
X112619047Y-224550057D01*
X112619047Y-224550057D02*
X112666666Y-224645295D01*
X112666666Y-224645295D02*
X112666666Y-224788152D01*
X112666666Y-224788152D02*
X112619047Y-224883390D01*
X112619047Y-224883390D02*
X112571428Y-224931009D01*
X112571428Y-224931009D02*
X112476190Y-224978628D01*
X112476190Y-224978628D02*
X112095238Y-224978628D01*
X113095238Y-224931009D02*
X113428571Y-224931009D01*
X113571428Y-225454819D02*
X113095238Y-225454819D01*
X113095238Y-225454819D02*
X113095238Y-224454819D01*
X113095238Y-224454819D02*
X113571428Y-224454819D01*
X114333333Y-224931009D02*
X114000000Y-224931009D01*
X114000000Y-225454819D02*
X114000000Y-224454819D01*
X114000000Y-224454819D02*
X114476190Y-224454819D01*
X115000000Y-224454819D02*
X115000000Y-224692914D01*
X114761905Y-224597676D02*
X115000000Y-224692914D01*
X115000000Y-224692914D02*
X115238095Y-224597676D01*
X114857143Y-224883390D02*
X115000000Y-224692914D01*
X115000000Y-224692914D02*
X115142857Y-224883390D01*
X115761905Y-224454819D02*
X115761905Y-224692914D01*
X115523810Y-224597676D02*
X115761905Y-224692914D01*
X115761905Y-224692914D02*
X116000000Y-224597676D01*
X115619048Y-224883390D02*
X115761905Y-224692914D01*
X115761905Y-224692914D02*
X115904762Y-224883390D01*
D10*
X220792262Y-186210927D02*
X220792262Y-185810927D01*
X220792262Y-185810927D02*
X220887500Y-185810927D01*
X220887500Y-185810927D02*
X220944643Y-185829975D01*
X220944643Y-185829975D02*
X220982738Y-185868070D01*
X220982738Y-185868070D02*
X221001785Y-185906165D01*
X221001785Y-185906165D02*
X221020833Y-185982356D01*
X221020833Y-185982356D02*
X221020833Y-186039499D01*
X221020833Y-186039499D02*
X221001785Y-186115689D01*
X221001785Y-186115689D02*
X220982738Y-186153784D01*
X220982738Y-186153784D02*
X220944643Y-186191880D01*
X220944643Y-186191880D02*
X220887500Y-186210927D01*
X220887500Y-186210927D02*
X220792262Y-186210927D01*
X221173214Y-185849022D02*
X221192262Y-185829975D01*
X221192262Y-185829975D02*
X221230357Y-185810927D01*
X221230357Y-185810927D02*
X221325595Y-185810927D01*
X221325595Y-185810927D02*
X221363690Y-185829975D01*
X221363690Y-185829975D02*
X221382738Y-185849022D01*
X221382738Y-185849022D02*
X221401785Y-185887118D01*
X221401785Y-185887118D02*
X221401785Y-185925213D01*
X221401785Y-185925213D02*
X221382738Y-185982356D01*
X221382738Y-185982356D02*
X221154166Y-186210927D01*
X221154166Y-186210927D02*
X221401785Y-186210927D01*
X216508333Y-193710927D02*
X216375000Y-193520451D01*
X216279762Y-193710927D02*
X216279762Y-193310927D01*
X216279762Y-193310927D02*
X216432143Y-193310927D01*
X216432143Y-193310927D02*
X216470238Y-193329975D01*
X216470238Y-193329975D02*
X216489285Y-193349022D01*
X216489285Y-193349022D02*
X216508333Y-193387118D01*
X216508333Y-193387118D02*
X216508333Y-193444260D01*
X216508333Y-193444260D02*
X216489285Y-193482356D01*
X216489285Y-193482356D02*
X216470238Y-193501403D01*
X216470238Y-193501403D02*
X216432143Y-193520451D01*
X216432143Y-193520451D02*
X216279762Y-193520451D01*
X216736904Y-193482356D02*
X216698809Y-193463308D01*
X216698809Y-193463308D02*
X216679762Y-193444260D01*
X216679762Y-193444260D02*
X216660714Y-193406165D01*
X216660714Y-193406165D02*
X216660714Y-193387118D01*
X216660714Y-193387118D02*
X216679762Y-193349022D01*
X216679762Y-193349022D02*
X216698809Y-193329975D01*
X216698809Y-193329975D02*
X216736904Y-193310927D01*
X216736904Y-193310927D02*
X216813095Y-193310927D01*
X216813095Y-193310927D02*
X216851190Y-193329975D01*
X216851190Y-193329975D02*
X216870238Y-193349022D01*
X216870238Y-193349022D02*
X216889285Y-193387118D01*
X216889285Y-193387118D02*
X216889285Y-193406165D01*
X216889285Y-193406165D02*
X216870238Y-193444260D01*
X216870238Y-193444260D02*
X216851190Y-193463308D01*
X216851190Y-193463308D02*
X216813095Y-193482356D01*
X216813095Y-193482356D02*
X216736904Y-193482356D01*
X216736904Y-193482356D02*
X216698809Y-193501403D01*
X216698809Y-193501403D02*
X216679762Y-193520451D01*
X216679762Y-193520451D02*
X216660714Y-193558546D01*
X216660714Y-193558546D02*
X216660714Y-193634737D01*
X216660714Y-193634737D02*
X216679762Y-193672832D01*
X216679762Y-193672832D02*
X216698809Y-193691880D01*
X216698809Y-193691880D02*
X216736904Y-193710927D01*
X216736904Y-193710927D02*
X216813095Y-193710927D01*
X216813095Y-193710927D02*
X216851190Y-193691880D01*
X216851190Y-193691880D02*
X216870238Y-193672832D01*
X216870238Y-193672832D02*
X216889285Y-193634737D01*
X216889285Y-193634737D02*
X216889285Y-193558546D01*
X216889285Y-193558546D02*
X216870238Y-193520451D01*
X216870238Y-193520451D02*
X216851190Y-193501403D01*
X216851190Y-193501403D02*
X216813095Y-193482356D01*
X216645833Y-186210927D02*
X216512500Y-186020451D01*
X216417262Y-186210927D02*
X216417262Y-185810927D01*
X216417262Y-185810927D02*
X216569643Y-185810927D01*
X216569643Y-185810927D02*
X216607738Y-185829975D01*
X216607738Y-185829975D02*
X216626785Y-185849022D01*
X216626785Y-185849022D02*
X216645833Y-185887118D01*
X216645833Y-185887118D02*
X216645833Y-185944260D01*
X216645833Y-185944260D02*
X216626785Y-185982356D01*
X216626785Y-185982356D02*
X216607738Y-186001403D01*
X216607738Y-186001403D02*
X216569643Y-186020451D01*
X216569643Y-186020451D02*
X216417262Y-186020451D01*
X216836309Y-186210927D02*
X216912500Y-186210927D01*
X216912500Y-186210927D02*
X216950595Y-186191880D01*
X216950595Y-186191880D02*
X216969643Y-186172832D01*
X216969643Y-186172832D02*
X217007738Y-186115689D01*
X217007738Y-186115689D02*
X217026785Y-186039499D01*
X217026785Y-186039499D02*
X217026785Y-185887118D01*
X217026785Y-185887118D02*
X217007738Y-185849022D01*
X217007738Y-185849022D02*
X216988690Y-185829975D01*
X216988690Y-185829975D02*
X216950595Y-185810927D01*
X216950595Y-185810927D02*
X216874404Y-185810927D01*
X216874404Y-185810927D02*
X216836309Y-185829975D01*
X216836309Y-185829975D02*
X216817262Y-185849022D01*
X216817262Y-185849022D02*
X216798214Y-185887118D01*
X216798214Y-185887118D02*
X216798214Y-185982356D01*
X216798214Y-185982356D02*
X216817262Y-186020451D01*
X216817262Y-186020451D02*
X216836309Y-186039499D01*
X216836309Y-186039499D02*
X216874404Y-186058546D01*
X216874404Y-186058546D02*
X216950595Y-186058546D01*
X216950595Y-186058546D02*
X216988690Y-186039499D01*
X216988690Y-186039499D02*
X217007738Y-186020451D01*
X217007738Y-186020451D02*
X217026785Y-185982356D01*
X269466666Y-230181927D02*
X269333333Y-229991451D01*
X269238095Y-230181927D02*
X269238095Y-229781927D01*
X269238095Y-229781927D02*
X269390476Y-229781927D01*
X269390476Y-229781927D02*
X269428571Y-229800975D01*
X269428571Y-229800975D02*
X269447618Y-229820022D01*
X269447618Y-229820022D02*
X269466666Y-229858118D01*
X269466666Y-229858118D02*
X269466666Y-229915260D01*
X269466666Y-229915260D02*
X269447618Y-229953356D01*
X269447618Y-229953356D02*
X269428571Y-229972403D01*
X269428571Y-229972403D02*
X269390476Y-229991451D01*
X269390476Y-229991451D02*
X269238095Y-229991451D01*
X269638095Y-229972403D02*
X269771428Y-229972403D01*
X269828571Y-230181927D02*
X269638095Y-230181927D01*
X269638095Y-230181927D02*
X269638095Y-229781927D01*
X269638095Y-229781927D02*
X269828571Y-229781927D01*
X270133333Y-229972403D02*
X270000000Y-229972403D01*
X270000000Y-230181927D02*
X270000000Y-229781927D01*
X270000000Y-229781927D02*
X270190476Y-229781927D01*
X270399999Y-229781927D02*
X270399999Y-229877165D01*
X270304761Y-229839070D02*
X270399999Y-229877165D01*
X270399999Y-229877165D02*
X270495238Y-229839070D01*
X270342857Y-229953356D02*
X270399999Y-229877165D01*
X270399999Y-229877165D02*
X270457142Y-229953356D01*
X270704761Y-229781927D02*
X270704761Y-229877165D01*
X270609523Y-229839070D02*
X270704761Y-229877165D01*
X270704761Y-229877165D02*
X270800000Y-229839070D01*
X270647619Y-229953356D02*
X270704761Y-229877165D01*
X270704761Y-229877165D02*
X270761904Y-229953356D01*
X108381927Y-209636142D02*
X108191451Y-209769475D01*
X108381927Y-209864713D02*
X107981927Y-209864713D01*
X107981927Y-209864713D02*
X107981927Y-209712332D01*
X107981927Y-209712332D02*
X108000975Y-209674237D01*
X108000975Y-209674237D02*
X108020022Y-209655190D01*
X108020022Y-209655190D02*
X108058118Y-209636142D01*
X108058118Y-209636142D02*
X108115260Y-209636142D01*
X108115260Y-209636142D02*
X108153356Y-209655190D01*
X108153356Y-209655190D02*
X108172403Y-209674237D01*
X108172403Y-209674237D02*
X108191451Y-209712332D01*
X108191451Y-209712332D02*
X108191451Y-209864713D01*
X108381927Y-209255190D02*
X108381927Y-209483761D01*
X108381927Y-209369475D02*
X107981927Y-209369475D01*
X107981927Y-209369475D02*
X108039070Y-209407571D01*
X108039070Y-209407571D02*
X108077165Y-209445666D01*
X108077165Y-209445666D02*
X108096213Y-209483761D01*
X107981927Y-209007571D02*
X107981927Y-208969476D01*
X107981927Y-208969476D02*
X108000975Y-208931380D01*
X108000975Y-208931380D02*
X108020022Y-208912333D01*
X108020022Y-208912333D02*
X108058118Y-208893285D01*
X108058118Y-208893285D02*
X108134308Y-208874238D01*
X108134308Y-208874238D02*
X108229546Y-208874238D01*
X108229546Y-208874238D02*
X108305737Y-208893285D01*
X108305737Y-208893285D02*
X108343832Y-208912333D01*
X108343832Y-208912333D02*
X108362880Y-208931380D01*
X108362880Y-208931380D02*
X108381927Y-208969476D01*
X108381927Y-208969476D02*
X108381927Y-209007571D01*
X108381927Y-209007571D02*
X108362880Y-209045666D01*
X108362880Y-209045666D02*
X108343832Y-209064714D01*
X108343832Y-209064714D02*
X108305737Y-209083761D01*
X108305737Y-209083761D02*
X108229546Y-209102809D01*
X108229546Y-209102809D02*
X108134308Y-209102809D01*
X108134308Y-209102809D02*
X108058118Y-209083761D01*
X108058118Y-209083761D02*
X108020022Y-209064714D01*
X108020022Y-209064714D02*
X108000975Y-209045666D01*
X108000975Y-209045666D02*
X107981927Y-209007571D01*
D11*
X102666666Y-173654819D02*
X102333333Y-173178628D01*
X102095238Y-173654819D02*
X102095238Y-172654819D01*
X102095238Y-172654819D02*
X102476190Y-172654819D01*
X102476190Y-172654819D02*
X102571428Y-172702438D01*
X102571428Y-172702438D02*
X102619047Y-172750057D01*
X102619047Y-172750057D02*
X102666666Y-172845295D01*
X102666666Y-172845295D02*
X102666666Y-172988152D01*
X102666666Y-172988152D02*
X102619047Y-173083390D01*
X102619047Y-173083390D02*
X102571428Y-173131009D01*
X102571428Y-173131009D02*
X102476190Y-173178628D01*
X102476190Y-173178628D02*
X102095238Y-173178628D01*
X103095238Y-173131009D02*
X103428571Y-173131009D01*
X103571428Y-173654819D02*
X103095238Y-173654819D01*
X103095238Y-173654819D02*
X103095238Y-172654819D01*
X103095238Y-172654819D02*
X103571428Y-172654819D01*
X104333333Y-173131009D02*
X104000000Y-173131009D01*
X104000000Y-173654819D02*
X104000000Y-172654819D01*
X104000000Y-172654819D02*
X104476190Y-172654819D01*
X105000000Y-172654819D02*
X105000000Y-172892914D01*
X104761905Y-172797676D02*
X105000000Y-172892914D01*
X105000000Y-172892914D02*
X105238095Y-172797676D01*
X104857143Y-173083390D02*
X105000000Y-172892914D01*
X105000000Y-172892914D02*
X105142857Y-173083390D01*
X105761905Y-172654819D02*
X105761905Y-172892914D01*
X105523810Y-172797676D02*
X105761905Y-172892914D01*
X105761905Y-172892914D02*
X106000000Y-172797676D01*
X105619048Y-173083390D02*
X105761905Y-172892914D01*
X105761905Y-172892914D02*
X105904762Y-173083390D01*
X229666666Y-173654819D02*
X229333333Y-173178628D01*
X229095238Y-173654819D02*
X229095238Y-172654819D01*
X229095238Y-172654819D02*
X229476190Y-172654819D01*
X229476190Y-172654819D02*
X229571428Y-172702438D01*
X229571428Y-172702438D02*
X229619047Y-172750057D01*
X229619047Y-172750057D02*
X229666666Y-172845295D01*
X229666666Y-172845295D02*
X229666666Y-172988152D01*
X229666666Y-172988152D02*
X229619047Y-173083390D01*
X229619047Y-173083390D02*
X229571428Y-173131009D01*
X229571428Y-173131009D02*
X229476190Y-173178628D01*
X229476190Y-173178628D02*
X229095238Y-173178628D01*
X230095238Y-173131009D02*
X230428571Y-173131009D01*
X230571428Y-173654819D02*
X230095238Y-173654819D01*
X230095238Y-173654819D02*
X230095238Y-172654819D01*
X230095238Y-172654819D02*
X230571428Y-172654819D01*
X231333333Y-173131009D02*
X231000000Y-173131009D01*
X231000000Y-173654819D02*
X231000000Y-172654819D01*
X231000000Y-172654819D02*
X231476190Y-172654819D01*
X232000000Y-172654819D02*
X232000000Y-172892914D01*
X231761905Y-172797676D02*
X232000000Y-172892914D01*
X232000000Y-172892914D02*
X232238095Y-172797676D01*
X231857143Y-173083390D02*
X232000000Y-172892914D01*
X232000000Y-172892914D02*
X232142857Y-173083390D01*
X232761905Y-172654819D02*
X232761905Y-172892914D01*
X232523810Y-172797676D02*
X232761905Y-172892914D01*
X232761905Y-172892914D02*
X233000000Y-172797676D01*
X232619048Y-173083390D02*
X232761905Y-172892914D01*
X232761905Y-172892914D02*
X232904762Y-173083390D01*
X107224819Y-215727808D02*
X106224819Y-215727808D01*
X106224819Y-215727808D02*
X106224819Y-215489713D01*
X106224819Y-215489713D02*
X106272438Y-215346856D01*
X106272438Y-215346856D02*
X106367676Y-215251618D01*
X106367676Y-215251618D02*
X106462914Y-215203999D01*
X106462914Y-215203999D02*
X106653390Y-215156380D01*
X106653390Y-215156380D02*
X106796247Y-215156380D01*
X106796247Y-215156380D02*
X106986723Y-215203999D01*
X106986723Y-215203999D02*
X107081961Y-215251618D01*
X107081961Y-215251618D02*
X107177200Y-215346856D01*
X107177200Y-215346856D02*
X107224819Y-215489713D01*
X107224819Y-215489713D02*
X107224819Y-215727808D01*
X107224819Y-214727808D02*
X106224819Y-214727808D01*
X106224819Y-214727808D02*
X107224819Y-214156380D01*
X107224819Y-214156380D02*
X106224819Y-214156380D01*
X107224819Y-213680189D02*
X106224819Y-213680189D01*
D10*
X108381927Y-214961142D02*
X108191451Y-215094475D01*
X108381927Y-215189713D02*
X107981927Y-215189713D01*
X107981927Y-215189713D02*
X107981927Y-215037332D01*
X107981927Y-215037332D02*
X108000975Y-214999237D01*
X108000975Y-214999237D02*
X108020022Y-214980190D01*
X108020022Y-214980190D02*
X108058118Y-214961142D01*
X108058118Y-214961142D02*
X108115260Y-214961142D01*
X108115260Y-214961142D02*
X108153356Y-214980190D01*
X108153356Y-214980190D02*
X108172403Y-214999237D01*
X108172403Y-214999237D02*
X108191451Y-215037332D01*
X108191451Y-215037332D02*
X108191451Y-215189713D01*
X108381927Y-214580190D02*
X108381927Y-214808761D01*
X108381927Y-214694475D02*
X107981927Y-214694475D01*
X107981927Y-214694475D02*
X108039070Y-214732571D01*
X108039070Y-214732571D02*
X108077165Y-214770666D01*
X108077165Y-214770666D02*
X108096213Y-214808761D01*
X108381927Y-214199238D02*
X108381927Y-214427809D01*
X108381927Y-214313523D02*
X107981927Y-214313523D01*
X107981927Y-214313523D02*
X108039070Y-214351619D01*
X108039070Y-214351619D02*
X108077165Y-214389714D01*
X108077165Y-214389714D02*
X108096213Y-214427809D01*
X219466666Y-175181927D02*
X219333333Y-174991451D01*
X219238095Y-175181927D02*
X219238095Y-174781927D01*
X219238095Y-174781927D02*
X219390476Y-174781927D01*
X219390476Y-174781927D02*
X219428571Y-174800975D01*
X219428571Y-174800975D02*
X219447618Y-174820022D01*
X219447618Y-174820022D02*
X219466666Y-174858118D01*
X219466666Y-174858118D02*
X219466666Y-174915260D01*
X219466666Y-174915260D02*
X219447618Y-174953356D01*
X219447618Y-174953356D02*
X219428571Y-174972403D01*
X219428571Y-174972403D02*
X219390476Y-174991451D01*
X219390476Y-174991451D02*
X219238095Y-174991451D01*
X219638095Y-174972403D02*
X219771428Y-174972403D01*
X219828571Y-175181927D02*
X219638095Y-175181927D01*
X219638095Y-175181927D02*
X219638095Y-174781927D01*
X219638095Y-174781927D02*
X219828571Y-174781927D01*
X220133333Y-174972403D02*
X220000000Y-174972403D01*
X220000000Y-175181927D02*
X220000000Y-174781927D01*
X220000000Y-174781927D02*
X220190476Y-174781927D01*
X220399999Y-174781927D02*
X220399999Y-174877165D01*
X220304761Y-174839070D02*
X220399999Y-174877165D01*
X220399999Y-174877165D02*
X220495238Y-174839070D01*
X220342857Y-174953356D02*
X220399999Y-174877165D01*
X220399999Y-174877165D02*
X220457142Y-174953356D01*
X220704761Y-174781927D02*
X220704761Y-174877165D01*
X220609523Y-174839070D02*
X220704761Y-174877165D01*
X220704761Y-174877165D02*
X220800000Y-174839070D01*
X220647619Y-174953356D02*
X220704761Y-174877165D01*
X220704761Y-174877165D02*
X220761904Y-174953356D01*
D11*
X229666666Y-187654819D02*
X229333333Y-187178628D01*
X229095238Y-187654819D02*
X229095238Y-186654819D01*
X229095238Y-186654819D02*
X229476190Y-186654819D01*
X229476190Y-186654819D02*
X229571428Y-186702438D01*
X229571428Y-186702438D02*
X229619047Y-186750057D01*
X229619047Y-186750057D02*
X229666666Y-186845295D01*
X229666666Y-186845295D02*
X229666666Y-186988152D01*
X229666666Y-186988152D02*
X229619047Y-187083390D01*
X229619047Y-187083390D02*
X229571428Y-187131009D01*
X229571428Y-187131009D02*
X229476190Y-187178628D01*
X229476190Y-187178628D02*
X229095238Y-187178628D01*
X230095238Y-187131009D02*
X230428571Y-187131009D01*
X230571428Y-187654819D02*
X230095238Y-187654819D01*
X230095238Y-187654819D02*
X230095238Y-186654819D01*
X230095238Y-186654819D02*
X230571428Y-186654819D01*
X231333333Y-187131009D02*
X231000000Y-187131009D01*
X231000000Y-187654819D02*
X231000000Y-186654819D01*
X231000000Y-186654819D02*
X231476190Y-186654819D01*
X232000000Y-186654819D02*
X232000000Y-186892914D01*
X231761905Y-186797676D02*
X232000000Y-186892914D01*
X232000000Y-186892914D02*
X232238095Y-186797676D01*
X231857143Y-187083390D02*
X232000000Y-186892914D01*
X232000000Y-186892914D02*
X232142857Y-187083390D01*
X232761905Y-186654819D02*
X232761905Y-186892914D01*
X232523810Y-186797676D02*
X232761905Y-186892914D01*
X232761905Y-186892914D02*
X233000000Y-186797676D01*
X232619048Y-187083390D02*
X232761905Y-186892914D01*
X232761905Y-186892914D02*
X232904762Y-187083390D01*
D10*
X108633333Y-206060927D02*
X108500000Y-205870451D01*
X108404762Y-206060927D02*
X108404762Y-205660927D01*
X108404762Y-205660927D02*
X108557143Y-205660927D01*
X108557143Y-205660927D02*
X108595238Y-205679975D01*
X108595238Y-205679975D02*
X108614285Y-205699022D01*
X108614285Y-205699022D02*
X108633333Y-205737118D01*
X108633333Y-205737118D02*
X108633333Y-205794260D01*
X108633333Y-205794260D02*
X108614285Y-205832356D01*
X108614285Y-205832356D02*
X108595238Y-205851403D01*
X108595238Y-205851403D02*
X108557143Y-205870451D01*
X108557143Y-205870451D02*
X108404762Y-205870451D01*
X108995238Y-205660927D02*
X108804762Y-205660927D01*
X108804762Y-205660927D02*
X108785714Y-205851403D01*
X108785714Y-205851403D02*
X108804762Y-205832356D01*
X108804762Y-205832356D02*
X108842857Y-205813308D01*
X108842857Y-205813308D02*
X108938095Y-205813308D01*
X108938095Y-205813308D02*
X108976190Y-205832356D01*
X108976190Y-205832356D02*
X108995238Y-205851403D01*
X108995238Y-205851403D02*
X109014285Y-205889499D01*
X109014285Y-205889499D02*
X109014285Y-205984737D01*
X109014285Y-205984737D02*
X108995238Y-206022832D01*
X108995238Y-206022832D02*
X108976190Y-206041880D01*
X108976190Y-206041880D02*
X108938095Y-206060927D01*
X108938095Y-206060927D02*
X108842857Y-206060927D01*
X108842857Y-206060927D02*
X108804762Y-206041880D01*
X108804762Y-206041880D02*
X108785714Y-206022832D01*
D11*
X89154819Y-212783761D02*
X88154819Y-212783761D01*
X88154819Y-212783761D02*
X88154819Y-212402809D01*
X88154819Y-212402809D02*
X88202438Y-212307571D01*
X88202438Y-212307571D02*
X88250057Y-212259952D01*
X88250057Y-212259952D02*
X88345295Y-212212333D01*
X88345295Y-212212333D02*
X88488152Y-212212333D01*
X88488152Y-212212333D02*
X88583390Y-212259952D01*
X88583390Y-212259952D02*
X88631009Y-212307571D01*
X88631009Y-212307571D02*
X88678628Y-212402809D01*
X88678628Y-212402809D02*
X88678628Y-212783761D01*
X89107200Y-211831380D02*
X89154819Y-211688523D01*
X89154819Y-211688523D02*
X89154819Y-211450428D01*
X89154819Y-211450428D02*
X89107200Y-211355190D01*
X89107200Y-211355190D02*
X89059580Y-211307571D01*
X89059580Y-211307571D02*
X88964342Y-211259952D01*
X88964342Y-211259952D02*
X88869104Y-211259952D01*
X88869104Y-211259952D02*
X88773866Y-211307571D01*
X88773866Y-211307571D02*
X88726247Y-211355190D01*
X88726247Y-211355190D02*
X88678628Y-211450428D01*
X88678628Y-211450428D02*
X88631009Y-211640904D01*
X88631009Y-211640904D02*
X88583390Y-211736142D01*
X88583390Y-211736142D02*
X88535771Y-211783761D01*
X88535771Y-211783761D02*
X88440533Y-211831380D01*
X88440533Y-211831380D02*
X88345295Y-211831380D01*
X88345295Y-211831380D02*
X88250057Y-211783761D01*
X88250057Y-211783761D02*
X88202438Y-211736142D01*
X88202438Y-211736142D02*
X88154819Y-211640904D01*
X88154819Y-211640904D02*
X88154819Y-211402809D01*
X88154819Y-211402809D02*
X88202438Y-211259952D01*
X88869104Y-210878999D02*
X88869104Y-210402809D01*
X89154819Y-210974237D02*
X88154819Y-210640904D01*
X88154819Y-210640904D02*
X89154819Y-210307571D01*
X89107200Y-210021856D02*
X89154819Y-209878999D01*
X89154819Y-209878999D02*
X89154819Y-209640904D01*
X89154819Y-209640904D02*
X89107200Y-209545666D01*
X89107200Y-209545666D02*
X89059580Y-209498047D01*
X89059580Y-209498047D02*
X88964342Y-209450428D01*
X88964342Y-209450428D02*
X88869104Y-209450428D01*
X88869104Y-209450428D02*
X88773866Y-209498047D01*
X88773866Y-209498047D02*
X88726247Y-209545666D01*
X88726247Y-209545666D02*
X88678628Y-209640904D01*
X88678628Y-209640904D02*
X88631009Y-209831380D01*
X88631009Y-209831380D02*
X88583390Y-209926618D01*
X88583390Y-209926618D02*
X88535771Y-209974237D01*
X88535771Y-209974237D02*
X88440533Y-210021856D01*
X88440533Y-210021856D02*
X88345295Y-210021856D01*
X88345295Y-210021856D02*
X88250057Y-209974237D01*
X88250057Y-209974237D02*
X88202438Y-209926618D01*
X88202438Y-209926618D02*
X88154819Y-209831380D01*
X88154819Y-209831380D02*
X88154819Y-209593285D01*
X88154819Y-209593285D02*
X88202438Y-209450428D01*
X88488152Y-208593285D02*
X89154819Y-208593285D01*
X88107200Y-208831380D02*
X88821485Y-209069475D01*
X88821485Y-209069475D02*
X88821485Y-208450428D01*
X89154819Y-208069475D02*
X88154819Y-208069475D01*
X88154819Y-208069475D02*
X88869104Y-207736142D01*
X88869104Y-207736142D02*
X88154819Y-207402809D01*
X88154819Y-207402809D02*
X89154819Y-207402809D01*
X88250057Y-206974237D02*
X88202438Y-206926618D01*
X88202438Y-206926618D02*
X88154819Y-206831380D01*
X88154819Y-206831380D02*
X88154819Y-206593285D01*
X88154819Y-206593285D02*
X88202438Y-206498047D01*
X88202438Y-206498047D02*
X88250057Y-206450428D01*
X88250057Y-206450428D02*
X88345295Y-206402809D01*
X88345295Y-206402809D02*
X88440533Y-206402809D01*
X88440533Y-206402809D02*
X88583390Y-206450428D01*
X88583390Y-206450428D02*
X89154819Y-207021856D01*
X89154819Y-207021856D02*
X89154819Y-206402809D01*
X89154819Y-205450428D02*
X89154819Y-206021856D01*
X89154819Y-205736142D02*
X88154819Y-205736142D01*
X88154819Y-205736142D02*
X88297676Y-205831380D01*
X88297676Y-205831380D02*
X88392914Y-205926618D01*
X88392914Y-205926618D02*
X88440533Y-206021856D01*
X88154819Y-205117094D02*
X88154819Y-204498047D01*
X88154819Y-204498047D02*
X88535771Y-204831380D01*
X88535771Y-204831380D02*
X88535771Y-204688523D01*
X88535771Y-204688523D02*
X88583390Y-204593285D01*
X88583390Y-204593285D02*
X88631009Y-204545666D01*
X88631009Y-204545666D02*
X88726247Y-204498047D01*
X88726247Y-204498047D02*
X88964342Y-204498047D01*
X88964342Y-204498047D02*
X89059580Y-204545666D01*
X89059580Y-204545666D02*
X89107200Y-204593285D01*
X89107200Y-204593285D02*
X89154819Y-204688523D01*
X89154819Y-204688523D02*
X89154819Y-204974237D01*
X89154819Y-204974237D02*
X89107200Y-205069475D01*
X89107200Y-205069475D02*
X89059580Y-205117094D01*
X88154819Y-203878999D02*
X88154819Y-203783761D01*
X88154819Y-203783761D02*
X88202438Y-203688523D01*
X88202438Y-203688523D02*
X88250057Y-203640904D01*
X88250057Y-203640904D02*
X88345295Y-203593285D01*
X88345295Y-203593285D02*
X88535771Y-203545666D01*
X88535771Y-203545666D02*
X88773866Y-203545666D01*
X88773866Y-203545666D02*
X88964342Y-203593285D01*
X88964342Y-203593285D02*
X89059580Y-203640904D01*
X89059580Y-203640904D02*
X89107200Y-203688523D01*
X89107200Y-203688523D02*
X89154819Y-203783761D01*
X89154819Y-203783761D02*
X89154819Y-203878999D01*
X89154819Y-203878999D02*
X89107200Y-203974237D01*
X89107200Y-203974237D02*
X89059580Y-204021856D01*
X89059580Y-204021856D02*
X88964342Y-204069475D01*
X88964342Y-204069475D02*
X88773866Y-204117094D01*
X88773866Y-204117094D02*
X88535771Y-204117094D01*
X88535771Y-204117094D02*
X88345295Y-204069475D01*
X88345295Y-204069475D02*
X88250057Y-204021856D01*
X88250057Y-204021856D02*
X88202438Y-203974237D01*
X88202438Y-203974237D02*
X88154819Y-203878999D01*
X88154819Y-202926618D02*
X88154819Y-202831380D01*
X88154819Y-202831380D02*
X88202438Y-202736142D01*
X88202438Y-202736142D02*
X88250057Y-202688523D01*
X88250057Y-202688523D02*
X88345295Y-202640904D01*
X88345295Y-202640904D02*
X88535771Y-202593285D01*
X88535771Y-202593285D02*
X88773866Y-202593285D01*
X88773866Y-202593285D02*
X88964342Y-202640904D01*
X88964342Y-202640904D02*
X89059580Y-202688523D01*
X89059580Y-202688523D02*
X89107200Y-202736142D01*
X89107200Y-202736142D02*
X89154819Y-202831380D01*
X89154819Y-202831380D02*
X89154819Y-202926618D01*
X89154819Y-202926618D02*
X89107200Y-203021856D01*
X89107200Y-203021856D02*
X89059580Y-203069475D01*
X89059580Y-203069475D02*
X88964342Y-203117094D01*
X88964342Y-203117094D02*
X88773866Y-203164713D01*
X88773866Y-203164713D02*
X88535771Y-203164713D01*
X88535771Y-203164713D02*
X88345295Y-203117094D01*
X88345295Y-203117094D02*
X88250057Y-203069475D01*
X88250057Y-203069475D02*
X88202438Y-203021856D01*
X88202438Y-203021856D02*
X88154819Y-202926618D01*
X88250057Y-202212332D02*
X88202438Y-202164713D01*
X88202438Y-202164713D02*
X88154819Y-202069475D01*
X88154819Y-202069475D02*
X88154819Y-201831380D01*
X88154819Y-201831380D02*
X88202438Y-201736142D01*
X88202438Y-201736142D02*
X88250057Y-201688523D01*
X88250057Y-201688523D02*
X88345295Y-201640904D01*
X88345295Y-201640904D02*
X88440533Y-201640904D01*
X88440533Y-201640904D02*
X88583390Y-201688523D01*
X88583390Y-201688523D02*
X89154819Y-202259951D01*
X89154819Y-202259951D02*
X89154819Y-201640904D01*
X89154819Y-200688523D02*
X89154819Y-201259951D01*
X89154819Y-200974237D02*
X88154819Y-200974237D01*
X88154819Y-200974237D02*
X88297676Y-201069475D01*
X88297676Y-201069475D02*
X88392914Y-201164713D01*
X88392914Y-201164713D02*
X88440533Y-201259951D01*
X88154819Y-200402808D02*
X88154819Y-199831380D01*
X89154819Y-200117094D02*
X88154819Y-200117094D01*
X89154819Y-198926618D02*
X88678628Y-199259951D01*
X89154819Y-199498046D02*
X88154819Y-199498046D01*
X88154819Y-199498046D02*
X88154819Y-199117094D01*
X88154819Y-199117094D02*
X88202438Y-199021856D01*
X88202438Y-199021856D02*
X88250057Y-198974237D01*
X88250057Y-198974237D02*
X88345295Y-198926618D01*
X88345295Y-198926618D02*
X88488152Y-198926618D01*
X88488152Y-198926618D02*
X88583390Y-198974237D01*
X88583390Y-198974237D02*
X88631009Y-199021856D01*
X88631009Y-199021856D02*
X88678628Y-199117094D01*
X88678628Y-199117094D02*
X88678628Y-199498046D01*
X89654819Y-206212333D02*
X90369104Y-206212333D01*
X90369104Y-206212333D02*
X90511961Y-206259952D01*
X90511961Y-206259952D02*
X90607200Y-206355190D01*
X90607200Y-206355190D02*
X90654819Y-206498047D01*
X90654819Y-206498047D02*
X90654819Y-206593285D01*
X89750057Y-205783761D02*
X89702438Y-205736142D01*
X89702438Y-205736142D02*
X89654819Y-205640904D01*
X89654819Y-205640904D02*
X89654819Y-205402809D01*
X89654819Y-205402809D02*
X89702438Y-205307571D01*
X89702438Y-205307571D02*
X89750057Y-205259952D01*
X89750057Y-205259952D02*
X89845295Y-205212333D01*
X89845295Y-205212333D02*
X89940533Y-205212333D01*
X89940533Y-205212333D02*
X90083390Y-205259952D01*
X90083390Y-205259952D02*
X90654819Y-205831380D01*
X90654819Y-205831380D02*
X90654819Y-205212333D01*
D12*
G04 #@! TO.C,R7*
X106275000Y-201616500D02*
X107875000Y-201616500D01*
X106275000Y-202441500D02*
X106275000Y-201616500D01*
X107875000Y-201616500D02*
X107875000Y-202441500D01*
X107875000Y-202441500D02*
X106275000Y-202441500D01*
G04 #@! TO.C,REF\u002A\u002A*
X116500000Y-175000000D02*
G75*
G02*
X113500000Y-175000000I-1500000J0D01*
G01*
X113500000Y-175000000D02*
G75*
G02*
X116500000Y-175000000I1500000J0D01*
G01*
G04 #@! TO.C,R6*
X107900000Y-203466500D02*
X109500000Y-203466500D01*
X107900000Y-204291500D02*
X107900000Y-203466500D01*
X109500000Y-203466500D02*
X109500000Y-204291500D01*
X109500000Y-204291500D02*
X107900000Y-204291500D01*
G04 #@! TO.C,D1*
X220287500Y-193129000D02*
X220287500Y-193929000D01*
X220287500Y-193929000D02*
X221587500Y-193929000D01*
X221587500Y-193929000D02*
X221887500Y-193629000D01*
X221887500Y-193129000D02*
X220287500Y-193129000D01*
X221887500Y-193629000D02*
X221887500Y-193129000D01*
G04 #@! TO.C,D2*
X220287500Y-185629000D02*
X220287500Y-186429000D01*
X220287500Y-186429000D02*
X221587500Y-186429000D01*
X221587500Y-186429000D02*
X221887500Y-186129000D01*
X221887500Y-185629000D02*
X220287500Y-185629000D01*
X221887500Y-186129000D02*
X221887500Y-185629000D01*
G04 #@! TO.C,R8*
X215775000Y-193116500D02*
X217375000Y-193116500D01*
X215775000Y-193941500D02*
X215775000Y-193116500D01*
X217375000Y-193116500D02*
X217375000Y-193941500D01*
X217375000Y-193941500D02*
X215775000Y-193941500D01*
G04 #@! TO.C,J1*
X241000000Y-204950000D02*
X241000000Y-216000000D01*
X241000000Y-216000000D02*
X243000000Y-216000000D01*
X241000000Y-221750000D02*
X241000000Y-216000000D01*
X243000000Y-216000000D02*
X243000000Y-221750000D01*
X243000000Y-216000000D02*
X253500000Y-216000000D01*
X243000000Y-221750000D02*
X241000000Y-221750000D01*
X278000000Y-216000000D02*
X239500000Y-216000000D01*
X278000000Y-216000000D02*
X253500000Y-216000000D01*
X278000000Y-216000000D02*
X280000000Y-216000000D01*
X278000000Y-221750000D02*
X278000000Y-216000000D01*
X280000000Y-204950000D02*
X241000000Y-204950000D01*
X280000000Y-216000000D02*
X280000000Y-204950000D01*
X280000000Y-216000000D02*
X280000000Y-221750000D01*
X280000000Y-221750000D02*
X278000000Y-221750000D01*
X281500000Y-216000000D02*
X280000000Y-216000000D01*
D13*
X277530000Y-222210000D02*
G75*
G02*
X277330000Y-222210000I-100000J0D01*
G01*
X277330000Y-222210000D02*
G75*
G02*
X277530000Y-222210000I100000J0D01*
G01*
D12*
G04 #@! TO.C,R9*
X215912500Y-185616500D02*
X217512500Y-185616500D01*
X215912500Y-186441500D02*
X215912500Y-185616500D01*
X217512500Y-185616500D02*
X217512500Y-186441500D01*
X217512500Y-186441500D02*
X215912500Y-186441500D01*
G04 #@! TO.C,REF\u002A\u002A*
X271500000Y-230000000D02*
G75*
G02*
X268500000Y-230000000I-1500000J0D01*
G01*
X268500000Y-230000000D02*
G75*
G02*
X271500000Y-230000000I1500000J0D01*
G01*
G04 #@! TO.C,R10*
X107787500Y-208579000D02*
X108612500Y-208579000D01*
X107787500Y-210179000D02*
X107787500Y-208579000D01*
X108612500Y-208579000D02*
X108612500Y-210179000D01*
X108612500Y-210179000D02*
X107787500Y-210179000D01*
G04 #@! TO.C,R11*
X107787500Y-213904000D02*
X108612500Y-213904000D01*
X107787500Y-215504000D02*
X107787500Y-213904000D01*
X108612500Y-213904000D02*
X108612500Y-215504000D01*
X108612500Y-215504000D02*
X107787500Y-215504000D01*
G04 #@! TO.C,REF\u002A\u002A*
X221500000Y-175000000D02*
G75*
G02*
X218500000Y-175000000I-1500000J0D01*
G01*
X218500000Y-175000000D02*
G75*
G02*
X221500000Y-175000000I1500000J0D01*
G01*
G04 #@! TO.C,R5*
X107900000Y-205466500D02*
X109500000Y-205466500D01*
X107900000Y-206291500D02*
X107900000Y-205466500D01*
X109500000Y-205466500D02*
X109500000Y-206291500D01*
X109500000Y-206291500D02*
X107900000Y-206291500D01*
G04 #@! TD*
M02*
