G04 #@! TF.GenerationSoftware,KiCad,Pcbnew,9.0.6*
G04 #@! TF.CreationDate,2026-03-10T14:48:13-05:00*
G04 #@! TF.ProjectId,u2CEM,75324345-4d2e-46b6-9963-61645f706362,rev?*
G04 #@! TF.SameCoordinates,Original*
G04 #@! TF.FileFunction,Copper,L4,Inr*
G04 #@! TF.FilePolarity,Positive*
%FSLAX46Y46*%
G04 Gerber Fmt 4.6, Leading zero omitted, Abs format (unit mm)*
G04 Created by KiCad (PCBNEW 9.0.6) date 2026-03-10 14:48:13*
%MOMM*%
%LPD*%
G01*
G04 APERTURE LIST*
G04 #@! TA.AperFunction,ViaPad*
%ADD10C,0.508000*%
G04 #@! TD*
G04 #@! TA.AperFunction,Conductor*
%ADD11C,0.173000*%
G04 #@! TD*
G04 APERTURE END LIST*
D10*
G04 #@! TO.N,+3.3V*
X240300000Y-219429000D03*
X268000000Y-222529000D03*
X238800000Y-217929000D03*
X268000000Y-216729000D03*
X240300000Y-217929000D03*
X106700000Y-198429000D03*
X241800000Y-219429000D03*
X269000000Y-216729000D03*
X106700000Y-199129000D03*
X106700000Y-197729000D03*
X241800000Y-220929000D03*
X241800000Y-217929000D03*
X105900000Y-199129000D03*
X105900000Y-198429000D03*
X214400000Y-186029000D03*
X270000000Y-222529000D03*
X105900000Y-197729000D03*
G04 #@! TO.N,/PERST_L*
X199600000Y-221629000D03*
X105900000Y-200329000D03*
X267000000Y-222929002D03*
G04 #@! TO.N,GND*
X244000000Y-222229000D03*
X112100000Y-212329000D03*
X101100000Y-192429000D03*
X220200000Y-212329000D03*
X100600000Y-226629000D03*
X264000000Y-216729000D03*
X254000000Y-216729000D03*
X258000000Y-216729000D03*
X111500000Y-210129000D03*
X101100000Y-202829000D03*
X101100000Y-207629000D03*
X263000000Y-216729000D03*
X105900000Y-214729000D03*
X250000000Y-216729000D03*
X249500000Y-222229000D03*
X225300000Y-200829000D03*
X100600000Y-181029000D03*
X258000000Y-222029000D03*
X261000000Y-216729000D03*
X228000000Y-205329000D03*
X251500000Y-222229000D03*
X101100000Y-196429000D03*
X271000000Y-222529000D03*
X111500000Y-204929000D03*
X105900000Y-207729000D03*
X251000000Y-216729000D03*
X111500000Y-207929000D03*
X232699790Y-214916174D03*
X101100000Y-217300000D03*
X255000000Y-216729000D03*
X101100000Y-212429000D03*
X101100000Y-190029000D03*
X256000000Y-216729000D03*
X232700000Y-217129000D03*
X105800000Y-195029000D03*
X255500000Y-222229000D03*
X260500000Y-222229000D03*
X101100000Y-198829000D03*
X112100000Y-214529000D03*
X101100000Y-194829000D03*
X260000000Y-216729000D03*
X219600000Y-198929000D03*
X111500000Y-192429000D03*
X230100000Y-210129000D03*
X220200000Y-210129000D03*
X100600000Y-227629000D03*
X230100000Y-212329000D03*
X220200000Y-207929000D03*
X247000000Y-216729000D03*
X263485685Y-222231863D03*
X219600000Y-203029000D03*
X100600000Y-179029000D03*
X253000000Y-216729000D03*
X274000000Y-216729000D03*
X100600000Y-228629000D03*
X105800000Y-187429000D03*
X219600000Y-204629000D03*
X223500000Y-193529000D03*
X244000000Y-216729000D03*
X223500000Y-186029000D03*
X101100000Y-214829000D03*
X111500000Y-202729000D03*
X100600000Y-180029000D03*
X247500000Y-222229000D03*
X248000000Y-216729000D03*
X105300000Y-202029000D03*
X228003889Y-207544556D03*
X274000000Y-222529000D03*
X249000000Y-216729000D03*
X225300000Y-196829000D03*
X245000000Y-216729000D03*
X105800000Y-192329000D03*
X245000000Y-222229000D03*
X219600000Y-200529000D03*
X271000000Y-216779498D03*
X225300000Y-199029000D03*
X101100000Y-210029000D03*
X252000000Y-216729000D03*
X220200000Y-214529000D03*
X225300000Y-203000000D03*
X277000000Y-216779498D03*
X253500000Y-222229000D03*
X101100000Y-201229000D03*
X101100000Y-205229000D03*
X111500000Y-190229000D03*
G04 #@! TO.N,/REFCLK_P*
X225300000Y-197579000D03*
X101100000Y-188429000D03*
G04 #@! TO.N,/REFCLK_N*
X101100000Y-189229000D03*
X225300000Y-198279000D03*
G04 #@! TO.N,/PER0_P*
X101100000Y-194029000D03*
X225300000Y-202279000D03*
G04 #@! TO.N,/PER0_N*
X101100000Y-193229000D03*
X225300000Y-201579000D03*
G04 #@! TO.N,/PER1_P*
X101100000Y-206829000D03*
X228000000Y-206779000D03*
G04 #@! TO.N,/PER1_N*
X228000000Y-206079000D03*
X101100000Y-206029000D03*
G04 #@! TO.N,/PER2_P*
X101100000Y-211629000D03*
X230100000Y-211579000D03*
G04 #@! TO.N,/PER2_N*
X230100000Y-210879000D03*
X101100000Y-210829000D03*
G04 #@! TO.N,/PER3_P*
X232700000Y-216379000D03*
X101198689Y-216379000D03*
G04 #@! TO.N,/PER3_N*
X101198689Y-215679000D03*
X232712145Y-215615567D03*
G04 #@! TO.N,/PET0_P*
X101100000Y-190829000D03*
X220200000Y-199379000D03*
X111500000Y-190979000D03*
G04 #@! TO.N,/PET0_N*
X111500000Y-191679000D03*
X220200000Y-200079000D03*
X101100000Y-191629000D03*
G04 #@! TO.N,/PET1_P*
X111500000Y-203479000D03*
X220200000Y-203479000D03*
X101100000Y-203629000D03*
G04 #@! TO.N,/PET1_N*
X220200000Y-204179000D03*
X101100000Y-204429000D03*
X111500000Y-204179000D03*
G04 #@! TO.N,/PET2_P*
X220200000Y-208679000D03*
X111500000Y-208679000D03*
X101100000Y-208429000D03*
G04 #@! TO.N,/PET2_N*
X220200000Y-209379000D03*
X101100000Y-209229000D03*
X111500000Y-209379000D03*
G04 #@! TO.N,/PET3_P*
X112100000Y-213079000D03*
X101100000Y-213229000D03*
X220200000Y-213079000D03*
G04 #@! TO.N,/PET3_N*
X220200000Y-213779000D03*
X101100000Y-214029000D03*
X112100000Y-213779000D03*
G04 #@! TO.N,+12V*
X121600000Y-224929000D03*
X122400000Y-224929000D03*
X121600000Y-227329000D03*
X120800000Y-226529000D03*
X122400000Y-225729000D03*
X120800000Y-225729000D03*
X121600000Y-225729000D03*
X206400000Y-225229000D03*
X120800000Y-224929000D03*
X122400000Y-226529000D03*
X275000000Y-216729000D03*
X276000000Y-216729000D03*
X277000000Y-223229000D03*
X120800000Y-227329000D03*
X275000000Y-222529000D03*
X121600000Y-226529000D03*
X214400000Y-193529000D03*
X276000000Y-222529000D03*
X122400000Y-227329000D03*
G04 #@! TO.N,Net-(J1-~{PRSNT2}_B17)*
X258550000Y-222679000D03*
X113700000Y-205000000D03*
X200700000Y-221629000D03*
G04 #@! TO.N,/SMBCLK*
X273000000Y-216729000D03*
X197300000Y-221629000D03*
X101100000Y-218153500D03*
G04 #@! TO.N,/SMBDAT*
X101100000Y-218853003D03*
X196100000Y-221629000D03*
X272000000Y-222529000D03*
G04 #@! TD*
D11*
G04 #@! TO.N,/REFCLK_P*
X121203705Y-188645499D02*
X130358206Y-197800000D01*
X130358206Y-197800000D02*
X225079000Y-197800000D01*
X101100000Y-188429000D02*
X101316499Y-188645499D01*
X225079000Y-197800000D02*
X225300000Y-197579000D01*
X101316499Y-188645499D02*
X121203705Y-188645499D01*
G04 #@! TO.N,/REFCLK_N*
X121069499Y-188969499D02*
X130224000Y-198124000D01*
X130224000Y-198124000D02*
X225145000Y-198124000D01*
X101359501Y-188969499D02*
X121069499Y-188969499D01*
X225235000Y-198214000D02*
X225300000Y-198279000D01*
X225145000Y-198124000D02*
X225300000Y-198279000D01*
X101100000Y-189229000D02*
X101359501Y-188969499D01*
G04 #@! TO.N,/PER0_P*
X116871212Y-202069499D02*
X225090499Y-202069499D01*
X225090499Y-202069499D02*
X225300000Y-202279000D01*
X108621211Y-193819499D02*
X116871212Y-202069499D01*
X101309501Y-193819499D02*
X108621211Y-193819499D01*
X101100000Y-194029000D02*
X101309501Y-193819499D01*
G04 #@! TO.N,/PER0_N*
X117005417Y-201745499D02*
X225133501Y-201745499D01*
X101366499Y-193495499D02*
X108755417Y-193495499D01*
X101100000Y-193229000D02*
X101366499Y-193495499D01*
X225133501Y-201745499D02*
X225300000Y-201579000D01*
X108755417Y-193495499D02*
X117005417Y-201745499D01*
G04 #@! TO.N,/PER1_P*
X108860753Y-206554501D02*
X108864755Y-206550499D01*
X101359999Y-206554501D02*
X108860753Y-206554501D01*
X101100000Y-206814500D02*
X101359999Y-206554501D01*
X227771499Y-206550499D02*
X228000000Y-206779000D01*
X101100000Y-206829000D02*
X101100000Y-206814500D01*
X108864755Y-206550499D02*
X227771499Y-206550499D01*
G04 #@! TO.N,/PER1_N*
X227852501Y-206226499D02*
X228000000Y-206079000D01*
X101297499Y-206226499D02*
X227852501Y-206226499D01*
X101100000Y-206029000D02*
X101297499Y-206226499D01*
G04 #@! TO.N,/PER2_P*
X101329000Y-211400000D02*
X101100000Y-211629000D01*
X230100000Y-211579000D02*
X229921000Y-211400000D01*
X229921000Y-211400000D02*
X101329000Y-211400000D01*
G04 #@! TO.N,/PER2_N*
X230100000Y-210879000D02*
X229903000Y-211076000D01*
X101347000Y-211076000D02*
X101100000Y-210829000D01*
X229903000Y-211076000D02*
X101347000Y-211076000D01*
G04 #@! TO.N,/PER3_P*
X102607794Y-216215999D02*
X102611294Y-216219499D01*
X210778789Y-216219499D02*
X211028788Y-215969499D01*
X102611294Y-216219499D02*
X210778789Y-216219499D01*
X229821211Y-215969499D02*
X230075713Y-216224000D01*
X230075713Y-216224000D02*
X232545000Y-216224000D01*
X101361690Y-216215999D02*
X102607794Y-216215999D01*
X211028788Y-215969499D02*
X229821211Y-215969499D01*
X232545000Y-216224000D02*
X232700000Y-216379000D01*
X101198689Y-216379000D02*
X101361690Y-216215999D01*
G04 #@! TO.N,/PER3_N*
X210644583Y-215895499D02*
X210894583Y-215645499D01*
X210894583Y-215645499D02*
X229955417Y-215645499D01*
X102741999Y-215891999D02*
X102745499Y-215895499D01*
X102745499Y-215895499D02*
X210644583Y-215895499D01*
X101198689Y-215679000D02*
X101411688Y-215891999D01*
X232427712Y-215900000D02*
X232712145Y-215615567D01*
X101411688Y-215891999D02*
X102741999Y-215891999D01*
X230209918Y-215900000D02*
X232427712Y-215900000D01*
X229955417Y-215645499D02*
X230209918Y-215900000D01*
G04 #@! TD*
G04 #@! TA.AperFunction,Conductor*
G04 #@! TO.N,+3.3V*
G36*
X270442121Y-216349002D02*
G01*
X270488614Y-216402658D01*
X270500000Y-216455000D01*
X270500000Y-216680830D01*
X270491500Y-216712553D01*
X270491500Y-216846443D01*
X270500000Y-216878165D01*
X270500000Y-222413743D01*
X270495707Y-222446352D01*
X270491500Y-222462052D01*
X270491500Y-222595945D01*
X270495707Y-222611646D01*
X270500000Y-222644256D01*
X270500000Y-232803000D01*
X270479998Y-232871121D01*
X270426342Y-232917614D01*
X270374000Y-232929000D01*
X237926000Y-232929000D01*
X237857879Y-232908998D01*
X237811386Y-232855342D01*
X237800000Y-232803000D01*
X237800000Y-217055000D01*
X237820002Y-216986879D01*
X237873658Y-216940386D01*
X237926000Y-216929000D01*
X242674000Y-216929000D01*
X242742121Y-216949002D01*
X242788614Y-217002658D01*
X242800000Y-217055000D01*
X242800000Y-222329000D01*
X242799999Y-222329000D01*
X243399998Y-223228999D01*
X243400000Y-223229000D01*
X266528680Y-223229000D01*
X266596801Y-223249002D01*
X266617775Y-223265905D01*
X266687772Y-223335902D01*
X266687775Y-223335904D01*
X266779226Y-223388703D01*
X266803726Y-223402849D01*
X266933055Y-223437502D01*
X266933057Y-223437502D01*
X267066943Y-223437502D01*
X267066945Y-223437502D01*
X267196274Y-223402849D01*
X267312226Y-223335903D01*
X267406901Y-223241228D01*
X267473847Y-223125276D01*
X267508500Y-222995947D01*
X267508500Y-222862057D01*
X267473847Y-222732728D01*
X267422767Y-222644256D01*
X267406902Y-222616777D01*
X267406900Y-222616774D01*
X267336905Y-222546779D01*
X267302879Y-222484467D01*
X267300000Y-222457684D01*
X267300000Y-216455000D01*
X267320002Y-216386879D01*
X267373658Y-216340386D01*
X267426000Y-216329000D01*
X270374000Y-216329000D01*
X270442121Y-216349002D01*
G37*
G04 #@! TD.AperFunction*
G04 #@! TD*
G04 #@! TA.AperFunction,Conductor*
G04 #@! TO.N,GND*
G36*
X263808187Y-216330078D02*
G01*
X263836201Y-216333765D01*
X263912964Y-216343871D01*
X263944731Y-216352383D01*
X264034675Y-216389639D01*
X264063160Y-216406085D01*
X264140393Y-216465349D01*
X264163650Y-216488606D01*
X264222914Y-216565839D01*
X264239361Y-216594326D01*
X264276615Y-216684265D01*
X264285128Y-216716036D01*
X264298922Y-216820810D01*
X264300000Y-216837257D01*
X264300000Y-222220742D01*
X264298922Y-222237187D01*
X264298922Y-222237189D01*
X264285128Y-222341963D01*
X264276615Y-222373734D01*
X264239361Y-222463673D01*
X264222914Y-222492160D01*
X264163650Y-222569393D01*
X264140393Y-222592650D01*
X264063160Y-222651914D01*
X264034673Y-222668361D01*
X263944734Y-222705615D01*
X263912963Y-222714128D01*
X263842043Y-222723465D01*
X263808187Y-222727922D01*
X263791742Y-222729000D01*
X259184395Y-222729000D01*
X259116274Y-222708998D01*
X259069781Y-222655342D01*
X259059473Y-222619446D01*
X259058500Y-222612057D01*
X259058500Y-222612055D01*
X259023847Y-222482726D01*
X259009701Y-222458226D01*
X258956902Y-222366775D01*
X258956900Y-222366772D01*
X258862227Y-222272099D01*
X258862224Y-222272097D01*
X258746278Y-222205155D01*
X258746276Y-222205154D01*
X258746274Y-222205153D01*
X258616945Y-222170500D01*
X258483055Y-222170500D01*
X258353726Y-222205153D01*
X258353724Y-222205154D01*
X258353721Y-222205155D01*
X258237775Y-222272097D01*
X258237772Y-222272099D01*
X258143099Y-222366772D01*
X258143097Y-222366775D01*
X258076155Y-222482721D01*
X258076154Y-222482724D01*
X258076153Y-222482726D01*
X258057582Y-222552034D01*
X258041499Y-222612057D01*
X258040527Y-222619446D01*
X258011805Y-222684373D01*
X257952540Y-222723465D01*
X257915605Y-222729000D01*
X243908258Y-222729000D01*
X243891812Y-222727922D01*
X243787037Y-222714128D01*
X243755265Y-222705615D01*
X243665326Y-222668361D01*
X243636839Y-222651914D01*
X243559606Y-222592650D01*
X243536349Y-222569393D01*
X243477085Y-222492160D01*
X243460638Y-222463673D01*
X243423384Y-222373734D01*
X243414871Y-222341961D01*
X243401078Y-222237187D01*
X243400000Y-222220742D01*
X243400000Y-216837257D01*
X243401078Y-216820812D01*
X243401917Y-216814432D01*
X243414872Y-216716033D01*
X243423382Y-216684270D01*
X243460640Y-216594321D01*
X243477082Y-216565843D01*
X243536351Y-216488603D01*
X243559603Y-216465351D01*
X243636843Y-216406082D01*
X243665321Y-216389640D01*
X243755270Y-216352382D01*
X243787033Y-216343872D01*
X243868592Y-216333134D01*
X243891813Y-216330078D01*
X243908258Y-216329000D01*
X263791742Y-216329000D01*
X263808187Y-216330078D01*
G37*
G04 #@! TD.AperFunction*
G04 #@! TD*
M02*
