G04 #@! TF.GenerationSoftware,KiCad,Pcbnew,9.0.6*
G04 #@! TF.CreationDate,2026-03-10T14:48:13-05:00*
G04 #@! TF.ProjectId,u2CEM,75324345-4d2e-46b6-9963-61645f706362,rev?*
G04 #@! TF.SameCoordinates,Original*
G04 #@! TF.FileFunction,Paste,Bot*
G04 #@! TF.FilePolarity,Positive*
%FSLAX46Y46*%
G04 Gerber Fmt 4.6, Leading zero omitted, Abs format (unit mm)*
G04 Created by KiCad (PCBNEW 9.0.6) date 2026-03-10 14:48:13*
%MOMM*%
%LPD*%
G01*
G04 APERTURE LIST*
G04 Aperture macros list*
%AMRoundRect*
0 Rectangle with rounded corners*
0 $1 Rounding radius*
0 $2 $3 $4 $5 $6 $7 $8 $9 X,Y pos of 4 corners*
0 Add a 4 corners polygon primitive as box body*
4,1,4,$2,$3,$4,$5,$6,$7,$8,$9,$2,$3,0*
0 Add four circle primitives for the rounded corners*
1,1,$1+$1,$2,$3*
1,1,$1+$1,$4,$5*
1,1,$1+$1,$6,$7*
1,1,$1+$1,$8,$9*
0 Add four rect primitives between the rounded corners*
20,1,$1+$1,$2,$3,$4,$5,0*
20,1,$1+$1,$4,$5,$6,$7,0*
20,1,$1+$1,$6,$7,$8,$9,0*
20,1,$1+$1,$8,$9,$2,$3,0*%
G04 Aperture macros list end*
%ADD10R,0.700000X4.200000*%
%ADD11RoundRect,0.200000X0.275000X-0.200000X0.275000X0.200000X-0.275000X0.200000X-0.275000X-0.200000X0*%
%ADD12RoundRect,0.200000X-0.200000X-0.275000X0.200000X-0.275000X0.200000X0.275000X-0.200000X0.275000X0*%
G04 APERTURE END LIST*
D10*
G04 #@! TO.C,J1*
X277000000Y-219500000D03*
X276000000Y-219500000D03*
X275000000Y-219500000D03*
X274000000Y-219500000D03*
X273000000Y-219500000D03*
X272000000Y-219500000D03*
X271000000Y-219500000D03*
X270000000Y-219500000D03*
X269000000Y-219500000D03*
X268000000Y-219500000D03*
X267000000Y-219500000D03*
X264000000Y-219500000D03*
X263000000Y-219500000D03*
X262000000Y-219500000D03*
X261000000Y-219500000D03*
X260000000Y-219500000D03*
X259000000Y-219500000D03*
X258000000Y-219500000D03*
X257000000Y-219500000D03*
X256000000Y-219500000D03*
X255000000Y-219500000D03*
X254000000Y-219500000D03*
X253000000Y-219500000D03*
X252000000Y-219500000D03*
X251000000Y-219500000D03*
X250000000Y-219500000D03*
X249000000Y-219500000D03*
X248000000Y-219500000D03*
X247000000Y-219500000D03*
X246000000Y-219500000D03*
X245000000Y-219500000D03*
X244000000Y-219500000D03*
G04 #@! TD*
D11*
G04 #@! TO.C,R3*
X266700000Y-226204000D03*
X266700000Y-224554000D03*
G04 #@! TD*
G04 #@! TO.C,R1*
X269200000Y-226204000D03*
X269200000Y-224554000D03*
G04 #@! TD*
D12*
G04 #@! TO.C,R2*
X244200000Y-223229000D03*
X245850000Y-223229000D03*
G04 #@! TD*
D11*
G04 #@! TO.C,R4*
X264700000Y-226204000D03*
X264700000Y-224554000D03*
G04 #@! TD*
M02*
