G04 #@! TF.GenerationSoftware,KiCad,Pcbnew,9.0.6*
G04 #@! TF.CreationDate,2026-03-10T14:48:13-05:00*
G04 #@! TF.ProjectId,u2CEM,75324345-4d2e-46b6-9963-61645f706362,rev?*
G04 #@! TF.SameCoordinates,Original*
G04 #@! TF.FileFunction,AssemblyDrawing,Bot*
%FSLAX46Y46*%
G04 Gerber Fmt 4.6, Leading zero omitted, Abs format (unit mm)*
G04 Created by KiCad (PCBNEW 9.0.6) date 2026-03-10 14:48:13*
%MOMM*%
%LPD*%
G01*
G04 APERTURE LIST*
%ADD10C,0.150000*%
%ADD11C,0.060000*%
%ADD12C,0.100000*%
G04 APERTURE END LIST*
D10*
X265724819Y-224355191D02*
X264724819Y-224355191D01*
X264724819Y-224355191D02*
X264724819Y-224593286D01*
X264724819Y-224593286D02*
X264772438Y-224736143D01*
X264772438Y-224736143D02*
X264867676Y-224831381D01*
X264867676Y-224831381D02*
X264962914Y-224879000D01*
X264962914Y-224879000D02*
X265153390Y-224926619D01*
X265153390Y-224926619D02*
X265296247Y-224926619D01*
X265296247Y-224926619D02*
X265486723Y-224879000D01*
X265486723Y-224879000D02*
X265581961Y-224831381D01*
X265581961Y-224831381D02*
X265677200Y-224736143D01*
X265677200Y-224736143D02*
X265724819Y-224593286D01*
X265724819Y-224593286D02*
X265724819Y-224355191D01*
X265724819Y-225355191D02*
X264724819Y-225355191D01*
X264724819Y-225355191D02*
X265724819Y-225926619D01*
X265724819Y-225926619D02*
X264724819Y-225926619D01*
X265724819Y-226402810D02*
X264724819Y-226402810D01*
D11*
X266881927Y-225312333D02*
X266691451Y-225179000D01*
X266881927Y-225083762D02*
X266481927Y-225083762D01*
X266481927Y-225083762D02*
X266481927Y-225236143D01*
X266481927Y-225236143D02*
X266500975Y-225274238D01*
X266500975Y-225274238D02*
X266520022Y-225293285D01*
X266520022Y-225293285D02*
X266558118Y-225312333D01*
X266558118Y-225312333D02*
X266615260Y-225312333D01*
X266615260Y-225312333D02*
X266653356Y-225293285D01*
X266653356Y-225293285D02*
X266672403Y-225274238D01*
X266672403Y-225274238D02*
X266691451Y-225236143D01*
X266691451Y-225236143D02*
X266691451Y-225083762D01*
X266481927Y-225445666D02*
X266481927Y-225693285D01*
X266481927Y-225693285D02*
X266634308Y-225559952D01*
X266634308Y-225559952D02*
X266634308Y-225617095D01*
X266634308Y-225617095D02*
X266653356Y-225655190D01*
X266653356Y-225655190D02*
X266672403Y-225674238D01*
X266672403Y-225674238D02*
X266710499Y-225693285D01*
X266710499Y-225693285D02*
X266805737Y-225693285D01*
X266805737Y-225693285D02*
X266843832Y-225674238D01*
X266843832Y-225674238D02*
X266862880Y-225655190D01*
X266862880Y-225655190D02*
X266881927Y-225617095D01*
X266881927Y-225617095D02*
X266881927Y-225502809D01*
X266881927Y-225502809D02*
X266862880Y-225464714D01*
X266862880Y-225464714D02*
X266843832Y-225445666D01*
D10*
X268224819Y-224355191D02*
X267224819Y-224355191D01*
X267224819Y-224355191D02*
X267224819Y-224593286D01*
X267224819Y-224593286D02*
X267272438Y-224736143D01*
X267272438Y-224736143D02*
X267367676Y-224831381D01*
X267367676Y-224831381D02*
X267462914Y-224879000D01*
X267462914Y-224879000D02*
X267653390Y-224926619D01*
X267653390Y-224926619D02*
X267796247Y-224926619D01*
X267796247Y-224926619D02*
X267986723Y-224879000D01*
X267986723Y-224879000D02*
X268081961Y-224831381D01*
X268081961Y-224831381D02*
X268177200Y-224736143D01*
X268177200Y-224736143D02*
X268224819Y-224593286D01*
X268224819Y-224593286D02*
X268224819Y-224355191D01*
X268224819Y-225355191D02*
X267224819Y-225355191D01*
X267224819Y-225355191D02*
X268224819Y-225926619D01*
X268224819Y-225926619D02*
X267224819Y-225926619D01*
X268224819Y-226402810D02*
X267224819Y-226402810D01*
D11*
X269381927Y-225312333D02*
X269191451Y-225179000D01*
X269381927Y-225083762D02*
X268981927Y-225083762D01*
X268981927Y-225083762D02*
X268981927Y-225236143D01*
X268981927Y-225236143D02*
X269000975Y-225274238D01*
X269000975Y-225274238D02*
X269020022Y-225293285D01*
X269020022Y-225293285D02*
X269058118Y-225312333D01*
X269058118Y-225312333D02*
X269115260Y-225312333D01*
X269115260Y-225312333D02*
X269153356Y-225293285D01*
X269153356Y-225293285D02*
X269172403Y-225274238D01*
X269172403Y-225274238D02*
X269191451Y-225236143D01*
X269191451Y-225236143D02*
X269191451Y-225083762D01*
X269381927Y-225693285D02*
X269381927Y-225464714D01*
X269381927Y-225579000D02*
X268981927Y-225579000D01*
X268981927Y-225579000D02*
X269039070Y-225540904D01*
X269039070Y-225540904D02*
X269077165Y-225502809D01*
X269077165Y-225502809D02*
X269096213Y-225464714D01*
D10*
X246048808Y-222253819D02*
X246048808Y-221253819D01*
X246048808Y-221253819D02*
X245810713Y-221253819D01*
X245810713Y-221253819D02*
X245667856Y-221301438D01*
X245667856Y-221301438D02*
X245572618Y-221396676D01*
X245572618Y-221396676D02*
X245524999Y-221491914D01*
X245524999Y-221491914D02*
X245477380Y-221682390D01*
X245477380Y-221682390D02*
X245477380Y-221825247D01*
X245477380Y-221825247D02*
X245524999Y-222015723D01*
X245524999Y-222015723D02*
X245572618Y-222110961D01*
X245572618Y-222110961D02*
X245667856Y-222206200D01*
X245667856Y-222206200D02*
X245810713Y-222253819D01*
X245810713Y-222253819D02*
X246048808Y-222253819D01*
X245048808Y-222253819D02*
X245048808Y-221253819D01*
X245048808Y-221253819D02*
X244477380Y-222253819D01*
X244477380Y-222253819D02*
X244477380Y-221253819D01*
X244001189Y-222253819D02*
X244001189Y-221253819D01*
D11*
X245091666Y-223410927D02*
X245224999Y-223220451D01*
X245320237Y-223410927D02*
X245320237Y-223010927D01*
X245320237Y-223010927D02*
X245167856Y-223010927D01*
X245167856Y-223010927D02*
X245129761Y-223029975D01*
X245129761Y-223029975D02*
X245110714Y-223049022D01*
X245110714Y-223049022D02*
X245091666Y-223087118D01*
X245091666Y-223087118D02*
X245091666Y-223144260D01*
X245091666Y-223144260D02*
X245110714Y-223182356D01*
X245110714Y-223182356D02*
X245129761Y-223201403D01*
X245129761Y-223201403D02*
X245167856Y-223220451D01*
X245167856Y-223220451D02*
X245320237Y-223220451D01*
X244939285Y-223049022D02*
X244920237Y-223029975D01*
X244920237Y-223029975D02*
X244882142Y-223010927D01*
X244882142Y-223010927D02*
X244786904Y-223010927D01*
X244786904Y-223010927D02*
X244748809Y-223029975D01*
X244748809Y-223029975D02*
X244729761Y-223049022D01*
X244729761Y-223049022D02*
X244710714Y-223087118D01*
X244710714Y-223087118D02*
X244710714Y-223125213D01*
X244710714Y-223125213D02*
X244729761Y-223182356D01*
X244729761Y-223182356D02*
X244958333Y-223410927D01*
X244958333Y-223410927D02*
X244710714Y-223410927D01*
D10*
X263724819Y-224355191D02*
X262724819Y-224355191D01*
X262724819Y-224355191D02*
X262724819Y-224593286D01*
X262724819Y-224593286D02*
X262772438Y-224736143D01*
X262772438Y-224736143D02*
X262867676Y-224831381D01*
X262867676Y-224831381D02*
X262962914Y-224879000D01*
X262962914Y-224879000D02*
X263153390Y-224926619D01*
X263153390Y-224926619D02*
X263296247Y-224926619D01*
X263296247Y-224926619D02*
X263486723Y-224879000D01*
X263486723Y-224879000D02*
X263581961Y-224831381D01*
X263581961Y-224831381D02*
X263677200Y-224736143D01*
X263677200Y-224736143D02*
X263724819Y-224593286D01*
X263724819Y-224593286D02*
X263724819Y-224355191D01*
X263724819Y-225355191D02*
X262724819Y-225355191D01*
X262724819Y-225355191D02*
X263724819Y-225926619D01*
X263724819Y-225926619D02*
X262724819Y-225926619D01*
X263724819Y-226402810D02*
X262724819Y-226402810D01*
D11*
X264881927Y-225312333D02*
X264691451Y-225179000D01*
X264881927Y-225083762D02*
X264481927Y-225083762D01*
X264481927Y-225083762D02*
X264481927Y-225236143D01*
X264481927Y-225236143D02*
X264500975Y-225274238D01*
X264500975Y-225274238D02*
X264520022Y-225293285D01*
X264520022Y-225293285D02*
X264558118Y-225312333D01*
X264558118Y-225312333D02*
X264615260Y-225312333D01*
X264615260Y-225312333D02*
X264653356Y-225293285D01*
X264653356Y-225293285D02*
X264672403Y-225274238D01*
X264672403Y-225274238D02*
X264691451Y-225236143D01*
X264691451Y-225236143D02*
X264691451Y-225083762D01*
X264615260Y-225655190D02*
X264881927Y-225655190D01*
X264462880Y-225559952D02*
X264748594Y-225464714D01*
X264748594Y-225464714D02*
X264748594Y-225712333D01*
D12*
G04 #@! TO.C,R3*
X266287500Y-224579000D02*
X266287500Y-226179000D01*
X266287500Y-226179000D02*
X267112500Y-226179000D01*
X267112500Y-224579000D02*
X266287500Y-224579000D01*
X267112500Y-226179000D02*
X267112500Y-224579000D01*
G04 #@! TO.C,R1*
X268787500Y-224579000D02*
X268787500Y-226179000D01*
X268787500Y-226179000D02*
X269612500Y-226179000D01*
X269612500Y-224579000D02*
X268787500Y-224579000D01*
X269612500Y-226179000D02*
X269612500Y-224579000D01*
G04 #@! TO.C,R2*
X244225000Y-222816500D02*
X244225000Y-223641500D01*
X244225000Y-223641500D02*
X245825000Y-223641500D01*
X245825000Y-222816500D02*
X244225000Y-222816500D01*
X245825000Y-223641500D02*
X245825000Y-222816500D01*
G04 #@! TO.C,R4*
X264287500Y-224579000D02*
X264287500Y-226179000D01*
X264287500Y-226179000D02*
X265112500Y-226179000D01*
X265112500Y-224579000D02*
X264287500Y-224579000D01*
X265112500Y-226179000D02*
X265112500Y-224579000D01*
G04 #@! TD*
M02*
