%TF.GenerationSoftware,KiCad,Pcbnew,9.0.6*%
%TF.CreationDate,2026-03-10T14:28:35-05:00*%
%TF.ProjectId,u2CEM,75324345-4d2e-46b6-9963-61645f706362,rev?*%
%TF.SameCoordinates,Original*%
%TF.FileFunction,Drillmap*%
%TF.FilePolarity,Positive*%
%FSLAX45Y45*%
G04 Gerber Fmt 4.5, Leading zero omitted, Abs format (unit mm)*
G04 Created by KiCad (PCBNEW 9.0.6) date 2026-03-10 14:28:35*
%MOMM*%
%LPD*%
G01*
G04 APERTURE LIST*
%ADD10C,0.001000*%
%ADD11C,0.010000*%
%ADD12C,0.200000*%
%ADD13C,0.125000*%
%ADD14C,0.165000*%
%ADD15C,0.320000*%
G04 APERTURE END LIST*
D10*
X10130000Y-18647900D02*
X10130000Y-18252900D01*
X10090000Y-18212900D02*
X9440000Y-18212900D01*
X10130000Y-22522900D02*
G75*
G02*
X10090000Y-22562900I-40000J0D01*
G01*
X10070000Y-18687900D02*
X10090000Y-18687900D01*
X28000000Y-21600000D02*
X28160000Y-21600000D01*
X9840000Y-16720000D02*
X23660000Y-16720000D01*
X9400000Y-22602900D02*
G75*
G02*
X9440000Y-22562900I40000J0D01*
G01*
X21400000Y-23360000D02*
X21400000Y-23300000D01*
X9440000Y-18212900D02*
G75*
G02*
X9400000Y-18172900I0J40000D01*
G01*
X10090000Y-22087900D02*
G75*
G02*
X10130000Y-22127900I0J-40000D01*
G01*
X23660000Y-16720000D02*
G75*
G02*
X23700000Y-16760000I0J-40000D01*
G01*
X10070000Y-22087900D02*
G75*
G02*
X10030000Y-22047900I0J40000D01*
G01*
X28160000Y-23400000D02*
X21440000Y-23400000D01*
X10130000Y-18647900D02*
G75*
G02*
X10090000Y-18687900I-40000J0D01*
G01*
X10090000Y-22087900D02*
X10070000Y-22087900D01*
X9800000Y-16760000D02*
X9800000Y-17672900D01*
X10090000Y-18212900D02*
G75*
G02*
X10130000Y-18252900I0J-40000D01*
G01*
X9400000Y-17752900D02*
G75*
G02*
X9440000Y-17712900I40000J0D01*
G01*
X21200000Y-23100000D02*
X9440000Y-23100000D01*
X28200000Y-23360000D02*
G75*
G02*
X28160000Y-23400000I-40000J0D01*
G01*
X9440000Y-23100000D02*
G75*
G02*
X9400000Y-23060000I0J40000D01*
G01*
X9760000Y-17712900D02*
X9440000Y-17712900D01*
X21200000Y-23100000D02*
G75*
G02*
X21400000Y-23300000I0J-200000D01*
G01*
X9400000Y-18172900D02*
X9400000Y-17752900D01*
X21440000Y-23400000D02*
G75*
G02*
X21400000Y-23360000I0J40000D01*
G01*
X9800000Y-16760000D02*
G75*
G02*
X9840000Y-16720000I40000J0D01*
G01*
X23700000Y-16760000D02*
X23700000Y-21300000D01*
X24000000Y-21600000D02*
G75*
G02*
X23700000Y-21300000I0J300000D01*
G01*
X28200000Y-21640000D02*
X28200000Y-23360000D01*
X9800000Y-17672900D02*
G75*
G02*
X9760000Y-17712900I-40000J0D01*
G01*
X28160000Y-21600000D02*
G75*
G02*
X28200000Y-21640000I0J-40000D01*
G01*
X10130000Y-22522900D02*
X10130000Y-22127900D01*
X10030000Y-18727900D02*
G75*
G02*
X10070000Y-18687900I40000J0D01*
G01*
X9400000Y-23060000D02*
X9400000Y-22602900D01*
X9440000Y-22562900D02*
X10090000Y-22562900D01*
X10030000Y-22047900D02*
X10030000Y-18727900D01*
X24099000Y-21600000D02*
X24000000Y-21600000D01*
D11*
X26470000Y-21600000D02*
X24099000Y-21600000D01*
X26470000Y-22100000D02*
X26470000Y-21600000D01*
X26630000Y-21600000D02*
X26630000Y-22100000D01*
X26630000Y-21600000D02*
X28000000Y-21600000D01*
X26550000Y-22180000D02*
G75*
G02*
X26470000Y-22100000I0J80000D01*
G01*
X26630000Y-22100000D02*
G75*
G02*
X26550000Y-22180000I-80000J0D01*
G01*
D12*
D13*
X10347500Y-18378400D02*
X10472500Y-18503400D01*
X10472500Y-18378400D02*
X10347500Y-18503400D01*
D14*
X10492500Y-22334900D02*
G75*
G02*
X10327500Y-22334900I-82500J0D01*
G01*
X10327500Y-22334900D02*
G75*
G02*
X10492500Y-22334900I82500J0D01*
G01*
D15*
X10400000Y-17160000D02*
X10400000Y-17480000D01*
X10240000Y-17320000D02*
X10560000Y-17320000D01*
X11400000Y-22340000D02*
X11400000Y-22660000D01*
X11240000Y-22500000D02*
X11560000Y-22500000D01*
X23100000Y-17160000D02*
X23100000Y-17480000D01*
X22940000Y-17320000D02*
X23260000Y-17320000D01*
X23100000Y-18560000D02*
X23100000Y-18880000D01*
X22940000Y-18720000D02*
X23260000Y-18720000D01*
X27600000Y-22640000D02*
X27600000Y-22960000D01*
X27440000Y-22800000D02*
X27760000Y-22800000D01*
D12*
X9660727Y-23711534D02*
X9660727Y-23511534D01*
X9660727Y-23511534D02*
X9708346Y-23511534D01*
X9708346Y-23511534D02*
X9736917Y-23521058D01*
X9736917Y-23521058D02*
X9755965Y-23540105D01*
X9755965Y-23540105D02*
X9765489Y-23559153D01*
X9765489Y-23559153D02*
X9775013Y-23597248D01*
X9775013Y-23597248D02*
X9775013Y-23625819D01*
X9775013Y-23625819D02*
X9765489Y-23663915D01*
X9765489Y-23663915D02*
X9755965Y-23682962D01*
X9755965Y-23682962D02*
X9736917Y-23702010D01*
X9736917Y-23702010D02*
X9708346Y-23711534D01*
X9708346Y-23711534D02*
X9660727Y-23711534D01*
X9860727Y-23711534D02*
X9860727Y-23578200D01*
X9860727Y-23616296D02*
X9870251Y-23597248D01*
X9870251Y-23597248D02*
X9879774Y-23587724D01*
X9879774Y-23587724D02*
X9898822Y-23578200D01*
X9898822Y-23578200D02*
X9917870Y-23578200D01*
X9984536Y-23711534D02*
X9984536Y-23578200D01*
X9984536Y-23511534D02*
X9975013Y-23521058D01*
X9975013Y-23521058D02*
X9984536Y-23530581D01*
X9984536Y-23530581D02*
X9994060Y-23521058D01*
X9994060Y-23521058D02*
X9984536Y-23511534D01*
X9984536Y-23511534D02*
X9984536Y-23530581D01*
X10108346Y-23711534D02*
X10089298Y-23702010D01*
X10089298Y-23702010D02*
X10079774Y-23682962D01*
X10079774Y-23682962D02*
X10079774Y-23511534D01*
X10213108Y-23711534D02*
X10194060Y-23702010D01*
X10194060Y-23702010D02*
X10184536Y-23682962D01*
X10184536Y-23682962D02*
X10184536Y-23511534D01*
X10441679Y-23711534D02*
X10441679Y-23511534D01*
X10441679Y-23511534D02*
X10508346Y-23654391D01*
X10508346Y-23654391D02*
X10575013Y-23511534D01*
X10575013Y-23511534D02*
X10575013Y-23711534D01*
X10755965Y-23711534D02*
X10755965Y-23606772D01*
X10755965Y-23606772D02*
X10746441Y-23587724D01*
X10746441Y-23587724D02*
X10727394Y-23578200D01*
X10727394Y-23578200D02*
X10689298Y-23578200D01*
X10689298Y-23578200D02*
X10670251Y-23587724D01*
X10755965Y-23702010D02*
X10736917Y-23711534D01*
X10736917Y-23711534D02*
X10689298Y-23711534D01*
X10689298Y-23711534D02*
X10670251Y-23702010D01*
X10670251Y-23702010D02*
X10660727Y-23682962D01*
X10660727Y-23682962D02*
X10660727Y-23663915D01*
X10660727Y-23663915D02*
X10670251Y-23644867D01*
X10670251Y-23644867D02*
X10689298Y-23635343D01*
X10689298Y-23635343D02*
X10736917Y-23635343D01*
X10736917Y-23635343D02*
X10755965Y-23625819D01*
X10851203Y-23578200D02*
X10851203Y-23778200D01*
X10851203Y-23587724D02*
X10870251Y-23578200D01*
X10870251Y-23578200D02*
X10908346Y-23578200D01*
X10908346Y-23578200D02*
X10927394Y-23587724D01*
X10927394Y-23587724D02*
X10936917Y-23597248D01*
X10936917Y-23597248D02*
X10946441Y-23616296D01*
X10946441Y-23616296D02*
X10946441Y-23673438D01*
X10946441Y-23673438D02*
X10936917Y-23692486D01*
X10936917Y-23692486D02*
X10927394Y-23702010D01*
X10927394Y-23702010D02*
X10908346Y-23711534D01*
X10908346Y-23711534D02*
X10870251Y-23711534D01*
X10870251Y-23711534D02*
X10851203Y-23702010D01*
X11032155Y-23692486D02*
X11041679Y-23702010D01*
X11041679Y-23702010D02*
X11032155Y-23711534D01*
X11032155Y-23711534D02*
X11022632Y-23702010D01*
X11022632Y-23702010D02*
X11032155Y-23692486D01*
X11032155Y-23692486D02*
X11032155Y-23711534D01*
X11032155Y-23587724D02*
X11041679Y-23597248D01*
X11041679Y-23597248D02*
X11032155Y-23606772D01*
X11032155Y-23606772D02*
X11022632Y-23597248D01*
X11022632Y-23597248D02*
X11032155Y-23587724D01*
X11032155Y-23587724D02*
X11032155Y-23606772D01*
D13*
X9274950Y-23977550D02*
X9399950Y-24102550D01*
X9399950Y-23977550D02*
X9274950Y-24102550D01*
D12*
X9765489Y-24131534D02*
X9651203Y-24131534D01*
X9708346Y-24131534D02*
X9708346Y-23931534D01*
X9708346Y-23931534D02*
X9689298Y-23960105D01*
X9689298Y-23960105D02*
X9670251Y-23979153D01*
X9670251Y-23979153D02*
X9651203Y-23988677D01*
X9851203Y-24112486D02*
X9860727Y-24122010D01*
X9860727Y-24122010D02*
X9851203Y-24131534D01*
X9851203Y-24131534D02*
X9841679Y-24122010D01*
X9841679Y-24122010D02*
X9851203Y-24112486D01*
X9851203Y-24112486D02*
X9851203Y-24131534D01*
X9936917Y-23950581D02*
X9946441Y-23941058D01*
X9946441Y-23941058D02*
X9965489Y-23931534D01*
X9965489Y-23931534D02*
X10013108Y-23931534D01*
X10013108Y-23931534D02*
X10032155Y-23941058D01*
X10032155Y-23941058D02*
X10041679Y-23950581D01*
X10041679Y-23950581D02*
X10051203Y-23969629D01*
X10051203Y-23969629D02*
X10051203Y-23988677D01*
X10051203Y-23988677D02*
X10041679Y-24017248D01*
X10041679Y-24017248D02*
X9927394Y-24131534D01*
X9927394Y-24131534D02*
X10051203Y-24131534D01*
X10232155Y-23931534D02*
X10136917Y-23931534D01*
X10136917Y-23931534D02*
X10127394Y-24026772D01*
X10127394Y-24026772D02*
X10136917Y-24017248D01*
X10136917Y-24017248D02*
X10155965Y-24007724D01*
X10155965Y-24007724D02*
X10203584Y-24007724D01*
X10203584Y-24007724D02*
X10222632Y-24017248D01*
X10222632Y-24017248D02*
X10232155Y-24026772D01*
X10232155Y-24026772D02*
X10241679Y-24045819D01*
X10241679Y-24045819D02*
X10241679Y-24093438D01*
X10241679Y-24093438D02*
X10232155Y-24112486D01*
X10232155Y-24112486D02*
X10222632Y-24122010D01*
X10222632Y-24122010D02*
X10203584Y-24131534D01*
X10203584Y-24131534D02*
X10155965Y-24131534D01*
X10155965Y-24131534D02*
X10136917Y-24122010D01*
X10136917Y-24122010D02*
X10127394Y-24112486D01*
X10365489Y-23931534D02*
X10384536Y-23931534D01*
X10384536Y-23931534D02*
X10403584Y-23941058D01*
X10403584Y-23941058D02*
X10413108Y-23950581D01*
X10413108Y-23950581D02*
X10422632Y-23969629D01*
X10422632Y-23969629D02*
X10432155Y-24007724D01*
X10432155Y-24007724D02*
X10432155Y-24055343D01*
X10432155Y-24055343D02*
X10422632Y-24093438D01*
X10422632Y-24093438D02*
X10413108Y-24112486D01*
X10413108Y-24112486D02*
X10403584Y-24122010D01*
X10403584Y-24122010D02*
X10384536Y-24131534D01*
X10384536Y-24131534D02*
X10365489Y-24131534D01*
X10365489Y-24131534D02*
X10346441Y-24122010D01*
X10346441Y-24122010D02*
X10336917Y-24112486D01*
X10336917Y-24112486D02*
X10327394Y-24093438D01*
X10327394Y-24093438D02*
X10317870Y-24055343D01*
X10317870Y-24055343D02*
X10317870Y-24007724D01*
X10317870Y-24007724D02*
X10327394Y-23969629D01*
X10327394Y-23969629D02*
X10336917Y-23950581D01*
X10336917Y-23950581D02*
X10346441Y-23941058D01*
X10346441Y-23941058D02*
X10365489Y-23931534D01*
X10517870Y-24131534D02*
X10517870Y-23998200D01*
X10517870Y-24017248D02*
X10527394Y-24007724D01*
X10527394Y-24007724D02*
X10546441Y-23998200D01*
X10546441Y-23998200D02*
X10575013Y-23998200D01*
X10575013Y-23998200D02*
X10594060Y-24007724D01*
X10594060Y-24007724D02*
X10603584Y-24026772D01*
X10603584Y-24026772D02*
X10603584Y-24131534D01*
X10603584Y-24026772D02*
X10613108Y-24007724D01*
X10613108Y-24007724D02*
X10632155Y-23998200D01*
X10632155Y-23998200D02*
X10660727Y-23998200D01*
X10660727Y-23998200D02*
X10679775Y-24007724D01*
X10679775Y-24007724D02*
X10689298Y-24026772D01*
X10689298Y-24026772D02*
X10689298Y-24131534D01*
X10784536Y-24131534D02*
X10784536Y-23998200D01*
X10784536Y-24017248D02*
X10794060Y-24007724D01*
X10794060Y-24007724D02*
X10813108Y-23998200D01*
X10813108Y-23998200D02*
X10841679Y-23998200D01*
X10841679Y-23998200D02*
X10860727Y-24007724D01*
X10860727Y-24007724D02*
X10870251Y-24026772D01*
X10870251Y-24026772D02*
X10870251Y-24131534D01*
X10870251Y-24026772D02*
X10879775Y-24007724D01*
X10879775Y-24007724D02*
X10898822Y-23998200D01*
X10898822Y-23998200D02*
X10927394Y-23998200D01*
X10927394Y-23998200D02*
X10946441Y-24007724D01*
X10946441Y-24007724D02*
X10955965Y-24026772D01*
X10955965Y-24026772D02*
X10955965Y-24131534D01*
X11346441Y-23922010D02*
X11175013Y-24179153D01*
X11603584Y-23931534D02*
X11622632Y-23931534D01*
X11622632Y-23931534D02*
X11641679Y-23941058D01*
X11641679Y-23941058D02*
X11651203Y-23950581D01*
X11651203Y-23950581D02*
X11660727Y-23969629D01*
X11660727Y-23969629D02*
X11670251Y-24007724D01*
X11670251Y-24007724D02*
X11670251Y-24055343D01*
X11670251Y-24055343D02*
X11660727Y-24093438D01*
X11660727Y-24093438D02*
X11651203Y-24112486D01*
X11651203Y-24112486D02*
X11641679Y-24122010D01*
X11641679Y-24122010D02*
X11622632Y-24131534D01*
X11622632Y-24131534D02*
X11603584Y-24131534D01*
X11603584Y-24131534D02*
X11584536Y-24122010D01*
X11584536Y-24122010D02*
X11575013Y-24112486D01*
X11575013Y-24112486D02*
X11565489Y-24093438D01*
X11565489Y-24093438D02*
X11555965Y-24055343D01*
X11555965Y-24055343D02*
X11555965Y-24007724D01*
X11555965Y-24007724D02*
X11565489Y-23969629D01*
X11565489Y-23969629D02*
X11575013Y-23950581D01*
X11575013Y-23950581D02*
X11584536Y-23941058D01*
X11584536Y-23941058D02*
X11603584Y-23931534D01*
X11755965Y-24112486D02*
X11765489Y-24122010D01*
X11765489Y-24122010D02*
X11755965Y-24131534D01*
X11755965Y-24131534D02*
X11746441Y-24122010D01*
X11746441Y-24122010D02*
X11755965Y-24112486D01*
X11755965Y-24112486D02*
X11755965Y-24131534D01*
X11889298Y-23931534D02*
X11908346Y-23931534D01*
X11908346Y-23931534D02*
X11927394Y-23941058D01*
X11927394Y-23941058D02*
X11936917Y-23950581D01*
X11936917Y-23950581D02*
X11946441Y-23969629D01*
X11946441Y-23969629D02*
X11955965Y-24007724D01*
X11955965Y-24007724D02*
X11955965Y-24055343D01*
X11955965Y-24055343D02*
X11946441Y-24093438D01*
X11946441Y-24093438D02*
X11936917Y-24112486D01*
X11936917Y-24112486D02*
X11927394Y-24122010D01*
X11927394Y-24122010D02*
X11908346Y-24131534D01*
X11908346Y-24131534D02*
X11889298Y-24131534D01*
X11889298Y-24131534D02*
X11870251Y-24122010D01*
X11870251Y-24122010D02*
X11860727Y-24112486D01*
X11860727Y-24112486D02*
X11851203Y-24093438D01*
X11851203Y-24093438D02*
X11841679Y-24055343D01*
X11841679Y-24055343D02*
X11841679Y-24007724D01*
X11841679Y-24007724D02*
X11851203Y-23969629D01*
X11851203Y-23969629D02*
X11860727Y-23950581D01*
X11860727Y-23950581D02*
X11870251Y-23941058D01*
X11870251Y-23941058D02*
X11889298Y-23931534D01*
X12127394Y-23998200D02*
X12127394Y-24131534D01*
X12079775Y-23922010D02*
X12032156Y-24064867D01*
X12032156Y-24064867D02*
X12155965Y-24064867D01*
X12241679Y-24131534D02*
X12279775Y-24131534D01*
X12279775Y-24131534D02*
X12298822Y-24122010D01*
X12298822Y-24122010D02*
X12308346Y-24112486D01*
X12308346Y-24112486D02*
X12327394Y-24083915D01*
X12327394Y-24083915D02*
X12336917Y-24045819D01*
X12336917Y-24045819D02*
X12336917Y-23969629D01*
X12336917Y-23969629D02*
X12327394Y-23950581D01*
X12327394Y-23950581D02*
X12317870Y-23941058D01*
X12317870Y-23941058D02*
X12298822Y-23931534D01*
X12298822Y-23931534D02*
X12260727Y-23931534D01*
X12260727Y-23931534D02*
X12241679Y-23941058D01*
X12241679Y-23941058D02*
X12232156Y-23950581D01*
X12232156Y-23950581D02*
X12222632Y-23969629D01*
X12222632Y-23969629D02*
X12222632Y-24017248D01*
X12222632Y-24017248D02*
X12232156Y-24036296D01*
X12232156Y-24036296D02*
X12241679Y-24045819D01*
X12241679Y-24045819D02*
X12260727Y-24055343D01*
X12260727Y-24055343D02*
X12298822Y-24055343D01*
X12298822Y-24055343D02*
X12317870Y-24045819D01*
X12317870Y-24045819D02*
X12327394Y-24036296D01*
X12327394Y-24036296D02*
X12336917Y-24017248D01*
X12413108Y-23950581D02*
X12422632Y-23941058D01*
X12422632Y-23941058D02*
X12441679Y-23931534D01*
X12441679Y-23931534D02*
X12489298Y-23931534D01*
X12489298Y-23931534D02*
X12508346Y-23941058D01*
X12508346Y-23941058D02*
X12517870Y-23950581D01*
X12517870Y-23950581D02*
X12527394Y-23969629D01*
X12527394Y-23969629D02*
X12527394Y-23988677D01*
X12527394Y-23988677D02*
X12517870Y-24017248D01*
X12517870Y-24017248D02*
X12403584Y-24131534D01*
X12403584Y-24131534D02*
X12527394Y-24131534D01*
X12603584Y-23931534D02*
X12603584Y-23969629D01*
X12679775Y-23931534D02*
X12679775Y-23969629D01*
X12975013Y-24207724D02*
X12965489Y-24198200D01*
X12965489Y-24198200D02*
X12946441Y-24169629D01*
X12946441Y-24169629D02*
X12936918Y-24150581D01*
X12936918Y-24150581D02*
X12927394Y-24122010D01*
X12927394Y-24122010D02*
X12917870Y-24074391D01*
X12917870Y-24074391D02*
X12917870Y-24036296D01*
X12917870Y-24036296D02*
X12927394Y-23988677D01*
X12927394Y-23988677D02*
X12936918Y-23960105D01*
X12936918Y-23960105D02*
X12946441Y-23941058D01*
X12946441Y-23941058D02*
X12965489Y-23912486D01*
X12965489Y-23912486D02*
X12975013Y-23902962D01*
X13155965Y-24131534D02*
X13041679Y-24131534D01*
X13098822Y-24131534D02*
X13098822Y-23931534D01*
X13098822Y-23931534D02*
X13079775Y-23960105D01*
X13079775Y-23960105D02*
X13060727Y-23979153D01*
X13060727Y-23979153D02*
X13041679Y-23988677D01*
X13394060Y-24131534D02*
X13394060Y-23931534D01*
X13479775Y-24131534D02*
X13479775Y-24026772D01*
X13479775Y-24026772D02*
X13470251Y-24007724D01*
X13470251Y-24007724D02*
X13451203Y-23998200D01*
X13451203Y-23998200D02*
X13422632Y-23998200D01*
X13422632Y-23998200D02*
X13403584Y-24007724D01*
X13403584Y-24007724D02*
X13394060Y-24017248D01*
X13603584Y-24131534D02*
X13584537Y-24122010D01*
X13584537Y-24122010D02*
X13575013Y-24112486D01*
X13575013Y-24112486D02*
X13565489Y-24093438D01*
X13565489Y-24093438D02*
X13565489Y-24036296D01*
X13565489Y-24036296D02*
X13575013Y-24017248D01*
X13575013Y-24017248D02*
X13584537Y-24007724D01*
X13584537Y-24007724D02*
X13603584Y-23998200D01*
X13603584Y-23998200D02*
X13632156Y-23998200D01*
X13632156Y-23998200D02*
X13651203Y-24007724D01*
X13651203Y-24007724D02*
X13660727Y-24017248D01*
X13660727Y-24017248D02*
X13670251Y-24036296D01*
X13670251Y-24036296D02*
X13670251Y-24093438D01*
X13670251Y-24093438D02*
X13660727Y-24112486D01*
X13660727Y-24112486D02*
X13651203Y-24122010D01*
X13651203Y-24122010D02*
X13632156Y-24131534D01*
X13632156Y-24131534D02*
X13603584Y-24131534D01*
X13784537Y-24131534D02*
X13765489Y-24122010D01*
X13765489Y-24122010D02*
X13755965Y-24102962D01*
X13755965Y-24102962D02*
X13755965Y-23931534D01*
X13936918Y-24122010D02*
X13917870Y-24131534D01*
X13917870Y-24131534D02*
X13879775Y-24131534D01*
X13879775Y-24131534D02*
X13860727Y-24122010D01*
X13860727Y-24122010D02*
X13851203Y-24102962D01*
X13851203Y-24102962D02*
X13851203Y-24026772D01*
X13851203Y-24026772D02*
X13860727Y-24007724D01*
X13860727Y-24007724D02*
X13879775Y-23998200D01*
X13879775Y-23998200D02*
X13917870Y-23998200D01*
X13917870Y-23998200D02*
X13936918Y-24007724D01*
X13936918Y-24007724D02*
X13946441Y-24026772D01*
X13946441Y-24026772D02*
X13946441Y-24045819D01*
X13946441Y-24045819D02*
X13851203Y-24064867D01*
X14013108Y-24207724D02*
X14022632Y-24198200D01*
X14022632Y-24198200D02*
X14041680Y-24169629D01*
X14041680Y-24169629D02*
X14051203Y-24150581D01*
X14051203Y-24150581D02*
X14060727Y-24122010D01*
X14060727Y-24122010D02*
X14070251Y-24074391D01*
X14070251Y-24074391D02*
X14070251Y-24036296D01*
X14070251Y-24036296D02*
X14060727Y-23988677D01*
X14060727Y-23988677D02*
X14051203Y-23960105D01*
X14051203Y-23960105D02*
X14041680Y-23941058D01*
X14041680Y-23941058D02*
X14022632Y-23912486D01*
X14022632Y-23912486D02*
X14013108Y-23902962D01*
X14375013Y-24207724D02*
X14365489Y-24198200D01*
X14365489Y-24198200D02*
X14346441Y-24169629D01*
X14346441Y-24169629D02*
X14336918Y-24150581D01*
X14336918Y-24150581D02*
X14327394Y-24122010D01*
X14327394Y-24122010D02*
X14317870Y-24074391D01*
X14317870Y-24074391D02*
X14317870Y-24036296D01*
X14317870Y-24036296D02*
X14327394Y-23988677D01*
X14327394Y-23988677D02*
X14336918Y-23960105D01*
X14336918Y-23960105D02*
X14346441Y-23941058D01*
X14346441Y-23941058D02*
X14365489Y-23912486D01*
X14365489Y-23912486D02*
X14375013Y-23902962D01*
X14451203Y-23998200D02*
X14451203Y-24131534D01*
X14451203Y-24017248D02*
X14460727Y-24007724D01*
X14460727Y-24007724D02*
X14479775Y-23998200D01*
X14479775Y-23998200D02*
X14508346Y-23998200D01*
X14508346Y-23998200D02*
X14527394Y-24007724D01*
X14527394Y-24007724D02*
X14536918Y-24026772D01*
X14536918Y-24026772D02*
X14536918Y-24131534D01*
X14660727Y-24131534D02*
X14641680Y-24122010D01*
X14641680Y-24122010D02*
X14632156Y-24112486D01*
X14632156Y-24112486D02*
X14622632Y-24093438D01*
X14622632Y-24093438D02*
X14622632Y-24036296D01*
X14622632Y-24036296D02*
X14632156Y-24017248D01*
X14632156Y-24017248D02*
X14641680Y-24007724D01*
X14641680Y-24007724D02*
X14660727Y-23998200D01*
X14660727Y-23998200D02*
X14689299Y-23998200D01*
X14689299Y-23998200D02*
X14708346Y-24007724D01*
X14708346Y-24007724D02*
X14717870Y-24017248D01*
X14717870Y-24017248D02*
X14727394Y-24036296D01*
X14727394Y-24036296D02*
X14727394Y-24093438D01*
X14727394Y-24093438D02*
X14717870Y-24112486D01*
X14717870Y-24112486D02*
X14708346Y-24122010D01*
X14708346Y-24122010D02*
X14689299Y-24131534D01*
X14689299Y-24131534D02*
X14660727Y-24131534D01*
X14784537Y-23998200D02*
X14860727Y-23998200D01*
X14813108Y-23931534D02*
X14813108Y-24102962D01*
X14813108Y-24102962D02*
X14822632Y-24122010D01*
X14822632Y-24122010D02*
X14841680Y-24131534D01*
X14841680Y-24131534D02*
X14860727Y-24131534D01*
X15079775Y-23998200D02*
X15079775Y-24198200D01*
X15079775Y-24007724D02*
X15098822Y-23998200D01*
X15098822Y-23998200D02*
X15136918Y-23998200D01*
X15136918Y-23998200D02*
X15155965Y-24007724D01*
X15155965Y-24007724D02*
X15165489Y-24017248D01*
X15165489Y-24017248D02*
X15175013Y-24036296D01*
X15175013Y-24036296D02*
X15175013Y-24093438D01*
X15175013Y-24093438D02*
X15165489Y-24112486D01*
X15165489Y-24112486D02*
X15155965Y-24122010D01*
X15155965Y-24122010D02*
X15136918Y-24131534D01*
X15136918Y-24131534D02*
X15098822Y-24131534D01*
X15098822Y-24131534D02*
X15079775Y-24122010D01*
X15289299Y-24131534D02*
X15270251Y-24122010D01*
X15270251Y-24122010D02*
X15260727Y-24102962D01*
X15260727Y-24102962D02*
X15260727Y-23931534D01*
X15451203Y-24131534D02*
X15451203Y-24026772D01*
X15451203Y-24026772D02*
X15441680Y-24007724D01*
X15441680Y-24007724D02*
X15422632Y-23998200D01*
X15422632Y-23998200D02*
X15384537Y-23998200D01*
X15384537Y-23998200D02*
X15365489Y-24007724D01*
X15451203Y-24122010D02*
X15432156Y-24131534D01*
X15432156Y-24131534D02*
X15384537Y-24131534D01*
X15384537Y-24131534D02*
X15365489Y-24122010D01*
X15365489Y-24122010D02*
X15355965Y-24102962D01*
X15355965Y-24102962D02*
X15355965Y-24083915D01*
X15355965Y-24083915D02*
X15365489Y-24064867D01*
X15365489Y-24064867D02*
X15384537Y-24055343D01*
X15384537Y-24055343D02*
X15432156Y-24055343D01*
X15432156Y-24055343D02*
X15451203Y-24045819D01*
X15517870Y-23998200D02*
X15594061Y-23998200D01*
X15546442Y-23931534D02*
X15546442Y-24102962D01*
X15546442Y-24102962D02*
X15555965Y-24122010D01*
X15555965Y-24122010D02*
X15575013Y-24131534D01*
X15575013Y-24131534D02*
X15594061Y-24131534D01*
X15736918Y-24122010D02*
X15717870Y-24131534D01*
X15717870Y-24131534D02*
X15679775Y-24131534D01*
X15679775Y-24131534D02*
X15660727Y-24122010D01*
X15660727Y-24122010D02*
X15651203Y-24102962D01*
X15651203Y-24102962D02*
X15651203Y-24026772D01*
X15651203Y-24026772D02*
X15660727Y-24007724D01*
X15660727Y-24007724D02*
X15679775Y-23998200D01*
X15679775Y-23998200D02*
X15717870Y-23998200D01*
X15717870Y-23998200D02*
X15736918Y-24007724D01*
X15736918Y-24007724D02*
X15746442Y-24026772D01*
X15746442Y-24026772D02*
X15746442Y-24045819D01*
X15746442Y-24045819D02*
X15651203Y-24064867D01*
X15917870Y-24131534D02*
X15917870Y-23931534D01*
X15917870Y-24122010D02*
X15898823Y-24131534D01*
X15898823Y-24131534D02*
X15860727Y-24131534D01*
X15860727Y-24131534D02*
X15841680Y-24122010D01*
X15841680Y-24122010D02*
X15832156Y-24112486D01*
X15832156Y-24112486D02*
X15822632Y-24093438D01*
X15822632Y-24093438D02*
X15822632Y-24036296D01*
X15822632Y-24036296D02*
X15832156Y-24017248D01*
X15832156Y-24017248D02*
X15841680Y-24007724D01*
X15841680Y-24007724D02*
X15860727Y-23998200D01*
X15860727Y-23998200D02*
X15898823Y-23998200D01*
X15898823Y-23998200D02*
X15917870Y-24007724D01*
X15994061Y-24207724D02*
X16003584Y-24198200D01*
X16003584Y-24198200D02*
X16022632Y-24169629D01*
X16022632Y-24169629D02*
X16032156Y-24150581D01*
X16032156Y-24150581D02*
X16041680Y-24122010D01*
X16041680Y-24122010D02*
X16051203Y-24074391D01*
X16051203Y-24074391D02*
X16051203Y-24036296D01*
X16051203Y-24036296D02*
X16041680Y-23988677D01*
X16041680Y-23988677D02*
X16032156Y-23960105D01*
X16032156Y-23960105D02*
X16022632Y-23941058D01*
X16022632Y-23941058D02*
X16003584Y-23912486D01*
X16003584Y-23912486D02*
X15994061Y-23902962D01*
D14*
X9399950Y-24304050D02*
G75*
G02*
X9234950Y-24304050I-82500J0D01*
G01*
X9234950Y-24304050D02*
G75*
G02*
X9399950Y-24304050I82500J0D01*
G01*
D12*
X9765489Y-24395534D02*
X9651203Y-24395534D01*
X9708346Y-24395534D02*
X9708346Y-24195534D01*
X9708346Y-24195534D02*
X9689298Y-24224105D01*
X9689298Y-24224105D02*
X9670251Y-24243153D01*
X9670251Y-24243153D02*
X9651203Y-24252677D01*
X9851203Y-24376486D02*
X9860727Y-24386010D01*
X9860727Y-24386010D02*
X9851203Y-24395534D01*
X9851203Y-24395534D02*
X9841679Y-24386010D01*
X9841679Y-24386010D02*
X9851203Y-24376486D01*
X9851203Y-24376486D02*
X9851203Y-24395534D01*
X10032155Y-24195534D02*
X9994060Y-24195534D01*
X9994060Y-24195534D02*
X9975013Y-24205058D01*
X9975013Y-24205058D02*
X9965489Y-24214581D01*
X9965489Y-24214581D02*
X9946441Y-24243153D01*
X9946441Y-24243153D02*
X9936917Y-24281248D01*
X9936917Y-24281248D02*
X9936917Y-24357438D01*
X9936917Y-24357438D02*
X9946441Y-24376486D01*
X9946441Y-24376486D02*
X9955965Y-24386010D01*
X9955965Y-24386010D02*
X9975013Y-24395534D01*
X9975013Y-24395534D02*
X10013108Y-24395534D01*
X10013108Y-24395534D02*
X10032155Y-24386010D01*
X10032155Y-24386010D02*
X10041679Y-24376486D01*
X10041679Y-24376486D02*
X10051203Y-24357438D01*
X10051203Y-24357438D02*
X10051203Y-24309819D01*
X10051203Y-24309819D02*
X10041679Y-24290772D01*
X10041679Y-24290772D02*
X10032155Y-24281248D01*
X10032155Y-24281248D02*
X10013108Y-24271724D01*
X10013108Y-24271724D02*
X9975013Y-24271724D01*
X9975013Y-24271724D02*
X9955965Y-24281248D01*
X9955965Y-24281248D02*
X9946441Y-24290772D01*
X9946441Y-24290772D02*
X9936917Y-24309819D01*
X10232155Y-24195534D02*
X10136917Y-24195534D01*
X10136917Y-24195534D02*
X10127394Y-24290772D01*
X10127394Y-24290772D02*
X10136917Y-24281248D01*
X10136917Y-24281248D02*
X10155965Y-24271724D01*
X10155965Y-24271724D02*
X10203584Y-24271724D01*
X10203584Y-24271724D02*
X10222632Y-24281248D01*
X10222632Y-24281248D02*
X10232155Y-24290772D01*
X10232155Y-24290772D02*
X10241679Y-24309819D01*
X10241679Y-24309819D02*
X10241679Y-24357438D01*
X10241679Y-24357438D02*
X10232155Y-24376486D01*
X10232155Y-24376486D02*
X10222632Y-24386010D01*
X10222632Y-24386010D02*
X10203584Y-24395534D01*
X10203584Y-24395534D02*
X10155965Y-24395534D01*
X10155965Y-24395534D02*
X10136917Y-24386010D01*
X10136917Y-24386010D02*
X10127394Y-24376486D01*
X10365489Y-24195534D02*
X10384536Y-24195534D01*
X10384536Y-24195534D02*
X10403584Y-24205058D01*
X10403584Y-24205058D02*
X10413108Y-24214581D01*
X10413108Y-24214581D02*
X10422632Y-24233629D01*
X10422632Y-24233629D02*
X10432155Y-24271724D01*
X10432155Y-24271724D02*
X10432155Y-24319343D01*
X10432155Y-24319343D02*
X10422632Y-24357438D01*
X10422632Y-24357438D02*
X10413108Y-24376486D01*
X10413108Y-24376486D02*
X10403584Y-24386010D01*
X10403584Y-24386010D02*
X10384536Y-24395534D01*
X10384536Y-24395534D02*
X10365489Y-24395534D01*
X10365489Y-24395534D02*
X10346441Y-24386010D01*
X10346441Y-24386010D02*
X10336917Y-24376486D01*
X10336917Y-24376486D02*
X10327394Y-24357438D01*
X10327394Y-24357438D02*
X10317870Y-24319343D01*
X10317870Y-24319343D02*
X10317870Y-24271724D01*
X10317870Y-24271724D02*
X10327394Y-24233629D01*
X10327394Y-24233629D02*
X10336917Y-24214581D01*
X10336917Y-24214581D02*
X10346441Y-24205058D01*
X10346441Y-24205058D02*
X10365489Y-24195534D01*
X10517870Y-24395534D02*
X10517870Y-24262200D01*
X10517870Y-24281248D02*
X10527394Y-24271724D01*
X10527394Y-24271724D02*
X10546441Y-24262200D01*
X10546441Y-24262200D02*
X10575013Y-24262200D01*
X10575013Y-24262200D02*
X10594060Y-24271724D01*
X10594060Y-24271724D02*
X10603584Y-24290772D01*
X10603584Y-24290772D02*
X10603584Y-24395534D01*
X10603584Y-24290772D02*
X10613108Y-24271724D01*
X10613108Y-24271724D02*
X10632155Y-24262200D01*
X10632155Y-24262200D02*
X10660727Y-24262200D01*
X10660727Y-24262200D02*
X10679775Y-24271724D01*
X10679775Y-24271724D02*
X10689298Y-24290772D01*
X10689298Y-24290772D02*
X10689298Y-24395534D01*
X10784536Y-24395534D02*
X10784536Y-24262200D01*
X10784536Y-24281248D02*
X10794060Y-24271724D01*
X10794060Y-24271724D02*
X10813108Y-24262200D01*
X10813108Y-24262200D02*
X10841679Y-24262200D01*
X10841679Y-24262200D02*
X10860727Y-24271724D01*
X10860727Y-24271724D02*
X10870251Y-24290772D01*
X10870251Y-24290772D02*
X10870251Y-24395534D01*
X10870251Y-24290772D02*
X10879775Y-24271724D01*
X10879775Y-24271724D02*
X10898822Y-24262200D01*
X10898822Y-24262200D02*
X10927394Y-24262200D01*
X10927394Y-24262200D02*
X10946441Y-24271724D01*
X10946441Y-24271724D02*
X10955965Y-24290772D01*
X10955965Y-24290772D02*
X10955965Y-24395534D01*
X11346441Y-24186010D02*
X11175013Y-24443153D01*
X11603584Y-24195534D02*
X11622632Y-24195534D01*
X11622632Y-24195534D02*
X11641679Y-24205058D01*
X11641679Y-24205058D02*
X11651203Y-24214581D01*
X11651203Y-24214581D02*
X11660727Y-24233629D01*
X11660727Y-24233629D02*
X11670251Y-24271724D01*
X11670251Y-24271724D02*
X11670251Y-24319343D01*
X11670251Y-24319343D02*
X11660727Y-24357438D01*
X11660727Y-24357438D02*
X11651203Y-24376486D01*
X11651203Y-24376486D02*
X11641679Y-24386010D01*
X11641679Y-24386010D02*
X11622632Y-24395534D01*
X11622632Y-24395534D02*
X11603584Y-24395534D01*
X11603584Y-24395534D02*
X11584536Y-24386010D01*
X11584536Y-24386010D02*
X11575013Y-24376486D01*
X11575013Y-24376486D02*
X11565489Y-24357438D01*
X11565489Y-24357438D02*
X11555965Y-24319343D01*
X11555965Y-24319343D02*
X11555965Y-24271724D01*
X11555965Y-24271724D02*
X11565489Y-24233629D01*
X11565489Y-24233629D02*
X11575013Y-24214581D01*
X11575013Y-24214581D02*
X11584536Y-24205058D01*
X11584536Y-24205058D02*
X11603584Y-24195534D01*
X11755965Y-24376486D02*
X11765489Y-24386010D01*
X11765489Y-24386010D02*
X11755965Y-24395534D01*
X11755965Y-24395534D02*
X11746441Y-24386010D01*
X11746441Y-24386010D02*
X11755965Y-24376486D01*
X11755965Y-24376486D02*
X11755965Y-24395534D01*
X11889298Y-24195534D02*
X11908346Y-24195534D01*
X11908346Y-24195534D02*
X11927394Y-24205058D01*
X11927394Y-24205058D02*
X11936917Y-24214581D01*
X11936917Y-24214581D02*
X11946441Y-24233629D01*
X11946441Y-24233629D02*
X11955965Y-24271724D01*
X11955965Y-24271724D02*
X11955965Y-24319343D01*
X11955965Y-24319343D02*
X11946441Y-24357438D01*
X11946441Y-24357438D02*
X11936917Y-24376486D01*
X11936917Y-24376486D02*
X11927394Y-24386010D01*
X11927394Y-24386010D02*
X11908346Y-24395534D01*
X11908346Y-24395534D02*
X11889298Y-24395534D01*
X11889298Y-24395534D02*
X11870251Y-24386010D01*
X11870251Y-24386010D02*
X11860727Y-24376486D01*
X11860727Y-24376486D02*
X11851203Y-24357438D01*
X11851203Y-24357438D02*
X11841679Y-24319343D01*
X11841679Y-24319343D02*
X11841679Y-24271724D01*
X11841679Y-24271724D02*
X11851203Y-24233629D01*
X11851203Y-24233629D02*
X11860727Y-24214581D01*
X11860727Y-24214581D02*
X11870251Y-24205058D01*
X11870251Y-24205058D02*
X11889298Y-24195534D01*
X12127394Y-24195534D02*
X12089298Y-24195534D01*
X12089298Y-24195534D02*
X12070251Y-24205058D01*
X12070251Y-24205058D02*
X12060727Y-24214581D01*
X12060727Y-24214581D02*
X12041679Y-24243153D01*
X12041679Y-24243153D02*
X12032156Y-24281248D01*
X12032156Y-24281248D02*
X12032156Y-24357438D01*
X12032156Y-24357438D02*
X12041679Y-24376486D01*
X12041679Y-24376486D02*
X12051203Y-24386010D01*
X12051203Y-24386010D02*
X12070251Y-24395534D01*
X12070251Y-24395534D02*
X12108346Y-24395534D01*
X12108346Y-24395534D02*
X12127394Y-24386010D01*
X12127394Y-24386010D02*
X12136917Y-24376486D01*
X12136917Y-24376486D02*
X12146441Y-24357438D01*
X12146441Y-24357438D02*
X12146441Y-24309819D01*
X12146441Y-24309819D02*
X12136917Y-24290772D01*
X12136917Y-24290772D02*
X12127394Y-24281248D01*
X12127394Y-24281248D02*
X12108346Y-24271724D01*
X12108346Y-24271724D02*
X12070251Y-24271724D01*
X12070251Y-24271724D02*
X12051203Y-24281248D01*
X12051203Y-24281248D02*
X12041679Y-24290772D01*
X12041679Y-24290772D02*
X12032156Y-24309819D01*
X12327394Y-24195534D02*
X12232156Y-24195534D01*
X12232156Y-24195534D02*
X12222632Y-24290772D01*
X12222632Y-24290772D02*
X12232156Y-24281248D01*
X12232156Y-24281248D02*
X12251203Y-24271724D01*
X12251203Y-24271724D02*
X12298822Y-24271724D01*
X12298822Y-24271724D02*
X12317870Y-24281248D01*
X12317870Y-24281248D02*
X12327394Y-24290772D01*
X12327394Y-24290772D02*
X12336917Y-24309819D01*
X12336917Y-24309819D02*
X12336917Y-24357438D01*
X12336917Y-24357438D02*
X12327394Y-24376486D01*
X12327394Y-24376486D02*
X12317870Y-24386010D01*
X12317870Y-24386010D02*
X12298822Y-24395534D01*
X12298822Y-24395534D02*
X12251203Y-24395534D01*
X12251203Y-24395534D02*
X12232156Y-24386010D01*
X12232156Y-24386010D02*
X12222632Y-24376486D01*
X12460727Y-24195534D02*
X12479775Y-24195534D01*
X12479775Y-24195534D02*
X12498822Y-24205058D01*
X12498822Y-24205058D02*
X12508346Y-24214581D01*
X12508346Y-24214581D02*
X12517870Y-24233629D01*
X12517870Y-24233629D02*
X12527394Y-24271724D01*
X12527394Y-24271724D02*
X12527394Y-24319343D01*
X12527394Y-24319343D02*
X12517870Y-24357438D01*
X12517870Y-24357438D02*
X12508346Y-24376486D01*
X12508346Y-24376486D02*
X12498822Y-24386010D01*
X12498822Y-24386010D02*
X12479775Y-24395534D01*
X12479775Y-24395534D02*
X12460727Y-24395534D01*
X12460727Y-24395534D02*
X12441679Y-24386010D01*
X12441679Y-24386010D02*
X12432156Y-24376486D01*
X12432156Y-24376486D02*
X12422632Y-24357438D01*
X12422632Y-24357438D02*
X12413108Y-24319343D01*
X12413108Y-24319343D02*
X12413108Y-24271724D01*
X12413108Y-24271724D02*
X12422632Y-24233629D01*
X12422632Y-24233629D02*
X12432156Y-24214581D01*
X12432156Y-24214581D02*
X12441679Y-24205058D01*
X12441679Y-24205058D02*
X12460727Y-24195534D01*
X12603584Y-24195534D02*
X12603584Y-24233629D01*
X12679775Y-24195534D02*
X12679775Y-24233629D01*
X12975013Y-24471724D02*
X12965489Y-24462200D01*
X12965489Y-24462200D02*
X12946441Y-24433629D01*
X12946441Y-24433629D02*
X12936918Y-24414581D01*
X12936918Y-24414581D02*
X12927394Y-24386010D01*
X12927394Y-24386010D02*
X12917870Y-24338391D01*
X12917870Y-24338391D02*
X12917870Y-24300296D01*
X12917870Y-24300296D02*
X12927394Y-24252677D01*
X12927394Y-24252677D02*
X12936918Y-24224105D01*
X12936918Y-24224105D02*
X12946441Y-24205058D01*
X12946441Y-24205058D02*
X12965489Y-24176486D01*
X12965489Y-24176486D02*
X12975013Y-24166962D01*
X13155965Y-24395534D02*
X13041679Y-24395534D01*
X13098822Y-24395534D02*
X13098822Y-24195534D01*
X13098822Y-24195534D02*
X13079775Y-24224105D01*
X13079775Y-24224105D02*
X13060727Y-24243153D01*
X13060727Y-24243153D02*
X13041679Y-24252677D01*
X13394060Y-24395534D02*
X13394060Y-24195534D01*
X13479775Y-24395534D02*
X13479775Y-24290772D01*
X13479775Y-24290772D02*
X13470251Y-24271724D01*
X13470251Y-24271724D02*
X13451203Y-24262200D01*
X13451203Y-24262200D02*
X13422632Y-24262200D01*
X13422632Y-24262200D02*
X13403584Y-24271724D01*
X13403584Y-24271724D02*
X13394060Y-24281248D01*
X13603584Y-24395534D02*
X13584537Y-24386010D01*
X13584537Y-24386010D02*
X13575013Y-24376486D01*
X13575013Y-24376486D02*
X13565489Y-24357438D01*
X13565489Y-24357438D02*
X13565489Y-24300296D01*
X13565489Y-24300296D02*
X13575013Y-24281248D01*
X13575013Y-24281248D02*
X13584537Y-24271724D01*
X13584537Y-24271724D02*
X13603584Y-24262200D01*
X13603584Y-24262200D02*
X13632156Y-24262200D01*
X13632156Y-24262200D02*
X13651203Y-24271724D01*
X13651203Y-24271724D02*
X13660727Y-24281248D01*
X13660727Y-24281248D02*
X13670251Y-24300296D01*
X13670251Y-24300296D02*
X13670251Y-24357438D01*
X13670251Y-24357438D02*
X13660727Y-24376486D01*
X13660727Y-24376486D02*
X13651203Y-24386010D01*
X13651203Y-24386010D02*
X13632156Y-24395534D01*
X13632156Y-24395534D02*
X13603584Y-24395534D01*
X13784537Y-24395534D02*
X13765489Y-24386010D01*
X13765489Y-24386010D02*
X13755965Y-24366962D01*
X13755965Y-24366962D02*
X13755965Y-24195534D01*
X13936918Y-24386010D02*
X13917870Y-24395534D01*
X13917870Y-24395534D02*
X13879775Y-24395534D01*
X13879775Y-24395534D02*
X13860727Y-24386010D01*
X13860727Y-24386010D02*
X13851203Y-24366962D01*
X13851203Y-24366962D02*
X13851203Y-24290772D01*
X13851203Y-24290772D02*
X13860727Y-24271724D01*
X13860727Y-24271724D02*
X13879775Y-24262200D01*
X13879775Y-24262200D02*
X13917870Y-24262200D01*
X13917870Y-24262200D02*
X13936918Y-24271724D01*
X13936918Y-24271724D02*
X13946441Y-24290772D01*
X13946441Y-24290772D02*
X13946441Y-24309819D01*
X13946441Y-24309819D02*
X13851203Y-24328867D01*
X14013108Y-24471724D02*
X14022632Y-24462200D01*
X14022632Y-24462200D02*
X14041680Y-24433629D01*
X14041680Y-24433629D02*
X14051203Y-24414581D01*
X14051203Y-24414581D02*
X14060727Y-24386010D01*
X14060727Y-24386010D02*
X14070251Y-24338391D01*
X14070251Y-24338391D02*
X14070251Y-24300296D01*
X14070251Y-24300296D02*
X14060727Y-24252677D01*
X14060727Y-24252677D02*
X14051203Y-24224105D01*
X14051203Y-24224105D02*
X14041680Y-24205058D01*
X14041680Y-24205058D02*
X14022632Y-24176486D01*
X14022632Y-24176486D02*
X14013108Y-24166962D01*
X14375013Y-24471724D02*
X14365489Y-24462200D01*
X14365489Y-24462200D02*
X14346441Y-24433629D01*
X14346441Y-24433629D02*
X14336918Y-24414581D01*
X14336918Y-24414581D02*
X14327394Y-24386010D01*
X14327394Y-24386010D02*
X14317870Y-24338391D01*
X14317870Y-24338391D02*
X14317870Y-24300296D01*
X14317870Y-24300296D02*
X14327394Y-24252677D01*
X14327394Y-24252677D02*
X14336918Y-24224105D01*
X14336918Y-24224105D02*
X14346441Y-24205058D01*
X14346441Y-24205058D02*
X14365489Y-24176486D01*
X14365489Y-24176486D02*
X14375013Y-24166962D01*
X14451203Y-24262200D02*
X14451203Y-24395534D01*
X14451203Y-24281248D02*
X14460727Y-24271724D01*
X14460727Y-24271724D02*
X14479775Y-24262200D01*
X14479775Y-24262200D02*
X14508346Y-24262200D01*
X14508346Y-24262200D02*
X14527394Y-24271724D01*
X14527394Y-24271724D02*
X14536918Y-24290772D01*
X14536918Y-24290772D02*
X14536918Y-24395534D01*
X14660727Y-24395534D02*
X14641680Y-24386010D01*
X14641680Y-24386010D02*
X14632156Y-24376486D01*
X14632156Y-24376486D02*
X14622632Y-24357438D01*
X14622632Y-24357438D02*
X14622632Y-24300296D01*
X14622632Y-24300296D02*
X14632156Y-24281248D01*
X14632156Y-24281248D02*
X14641680Y-24271724D01*
X14641680Y-24271724D02*
X14660727Y-24262200D01*
X14660727Y-24262200D02*
X14689299Y-24262200D01*
X14689299Y-24262200D02*
X14708346Y-24271724D01*
X14708346Y-24271724D02*
X14717870Y-24281248D01*
X14717870Y-24281248D02*
X14727394Y-24300296D01*
X14727394Y-24300296D02*
X14727394Y-24357438D01*
X14727394Y-24357438D02*
X14717870Y-24376486D01*
X14717870Y-24376486D02*
X14708346Y-24386010D01*
X14708346Y-24386010D02*
X14689299Y-24395534D01*
X14689299Y-24395534D02*
X14660727Y-24395534D01*
X14784537Y-24262200D02*
X14860727Y-24262200D01*
X14813108Y-24195534D02*
X14813108Y-24366962D01*
X14813108Y-24366962D02*
X14822632Y-24386010D01*
X14822632Y-24386010D02*
X14841680Y-24395534D01*
X14841680Y-24395534D02*
X14860727Y-24395534D01*
X15079775Y-24262200D02*
X15079775Y-24462200D01*
X15079775Y-24271724D02*
X15098822Y-24262200D01*
X15098822Y-24262200D02*
X15136918Y-24262200D01*
X15136918Y-24262200D02*
X15155965Y-24271724D01*
X15155965Y-24271724D02*
X15165489Y-24281248D01*
X15165489Y-24281248D02*
X15175013Y-24300296D01*
X15175013Y-24300296D02*
X15175013Y-24357438D01*
X15175013Y-24357438D02*
X15165489Y-24376486D01*
X15165489Y-24376486D02*
X15155965Y-24386010D01*
X15155965Y-24386010D02*
X15136918Y-24395534D01*
X15136918Y-24395534D02*
X15098822Y-24395534D01*
X15098822Y-24395534D02*
X15079775Y-24386010D01*
X15289299Y-24395534D02*
X15270251Y-24386010D01*
X15270251Y-24386010D02*
X15260727Y-24366962D01*
X15260727Y-24366962D02*
X15260727Y-24195534D01*
X15451203Y-24395534D02*
X15451203Y-24290772D01*
X15451203Y-24290772D02*
X15441680Y-24271724D01*
X15441680Y-24271724D02*
X15422632Y-24262200D01*
X15422632Y-24262200D02*
X15384537Y-24262200D01*
X15384537Y-24262200D02*
X15365489Y-24271724D01*
X15451203Y-24386010D02*
X15432156Y-24395534D01*
X15432156Y-24395534D02*
X15384537Y-24395534D01*
X15384537Y-24395534D02*
X15365489Y-24386010D01*
X15365489Y-24386010D02*
X15355965Y-24366962D01*
X15355965Y-24366962D02*
X15355965Y-24347915D01*
X15355965Y-24347915D02*
X15365489Y-24328867D01*
X15365489Y-24328867D02*
X15384537Y-24319343D01*
X15384537Y-24319343D02*
X15432156Y-24319343D01*
X15432156Y-24319343D02*
X15451203Y-24309819D01*
X15517870Y-24262200D02*
X15594061Y-24262200D01*
X15546442Y-24195534D02*
X15546442Y-24366962D01*
X15546442Y-24366962D02*
X15555965Y-24386010D01*
X15555965Y-24386010D02*
X15575013Y-24395534D01*
X15575013Y-24395534D02*
X15594061Y-24395534D01*
X15736918Y-24386010D02*
X15717870Y-24395534D01*
X15717870Y-24395534D02*
X15679775Y-24395534D01*
X15679775Y-24395534D02*
X15660727Y-24386010D01*
X15660727Y-24386010D02*
X15651203Y-24366962D01*
X15651203Y-24366962D02*
X15651203Y-24290772D01*
X15651203Y-24290772D02*
X15660727Y-24271724D01*
X15660727Y-24271724D02*
X15679775Y-24262200D01*
X15679775Y-24262200D02*
X15717870Y-24262200D01*
X15717870Y-24262200D02*
X15736918Y-24271724D01*
X15736918Y-24271724D02*
X15746442Y-24290772D01*
X15746442Y-24290772D02*
X15746442Y-24309819D01*
X15746442Y-24309819D02*
X15651203Y-24328867D01*
X15917870Y-24395534D02*
X15917870Y-24195534D01*
X15917870Y-24386010D02*
X15898823Y-24395534D01*
X15898823Y-24395534D02*
X15860727Y-24395534D01*
X15860727Y-24395534D02*
X15841680Y-24386010D01*
X15841680Y-24386010D02*
X15832156Y-24376486D01*
X15832156Y-24376486D02*
X15822632Y-24357438D01*
X15822632Y-24357438D02*
X15822632Y-24300296D01*
X15822632Y-24300296D02*
X15832156Y-24281248D01*
X15832156Y-24281248D02*
X15841680Y-24271724D01*
X15841680Y-24271724D02*
X15860727Y-24262200D01*
X15860727Y-24262200D02*
X15898823Y-24262200D01*
X15898823Y-24262200D02*
X15917870Y-24271724D01*
X15994061Y-24471724D02*
X16003584Y-24462200D01*
X16003584Y-24462200D02*
X16022632Y-24433629D01*
X16022632Y-24433629D02*
X16032156Y-24414581D01*
X16032156Y-24414581D02*
X16041680Y-24386010D01*
X16041680Y-24386010D02*
X16051203Y-24338391D01*
X16051203Y-24338391D02*
X16051203Y-24300296D01*
X16051203Y-24300296D02*
X16041680Y-24252677D01*
X16041680Y-24252677D02*
X16032156Y-24224105D01*
X16032156Y-24224105D02*
X16022632Y-24205058D01*
X16022632Y-24205058D02*
X16003584Y-24176486D01*
X16003584Y-24176486D02*
X15994061Y-24166962D01*
X9299950Y-24489050D02*
X9299950Y-24689050D01*
X9199950Y-24589050D02*
X9399950Y-24589050D01*
X9641679Y-24480534D02*
X9765489Y-24480534D01*
X9765489Y-24480534D02*
X9698822Y-24556724D01*
X9698822Y-24556724D02*
X9727394Y-24556724D01*
X9727394Y-24556724D02*
X9746441Y-24566248D01*
X9746441Y-24566248D02*
X9755965Y-24575772D01*
X9755965Y-24575772D02*
X9765489Y-24594819D01*
X9765489Y-24594819D02*
X9765489Y-24642438D01*
X9765489Y-24642438D02*
X9755965Y-24661486D01*
X9755965Y-24661486D02*
X9746441Y-24671010D01*
X9746441Y-24671010D02*
X9727394Y-24680534D01*
X9727394Y-24680534D02*
X9670251Y-24680534D01*
X9670251Y-24680534D02*
X9651203Y-24671010D01*
X9651203Y-24671010D02*
X9641679Y-24661486D01*
X9851203Y-24661486D02*
X9860727Y-24671010D01*
X9860727Y-24671010D02*
X9851203Y-24680534D01*
X9851203Y-24680534D02*
X9841679Y-24671010D01*
X9841679Y-24671010D02*
X9851203Y-24661486D01*
X9851203Y-24661486D02*
X9851203Y-24680534D01*
X9936917Y-24499581D02*
X9946441Y-24490058D01*
X9946441Y-24490058D02*
X9965489Y-24480534D01*
X9965489Y-24480534D02*
X10013108Y-24480534D01*
X10013108Y-24480534D02*
X10032155Y-24490058D01*
X10032155Y-24490058D02*
X10041679Y-24499581D01*
X10041679Y-24499581D02*
X10051203Y-24518629D01*
X10051203Y-24518629D02*
X10051203Y-24537677D01*
X10051203Y-24537677D02*
X10041679Y-24566248D01*
X10041679Y-24566248D02*
X9927394Y-24680534D01*
X9927394Y-24680534D02*
X10051203Y-24680534D01*
X10175013Y-24480534D02*
X10194060Y-24480534D01*
X10194060Y-24480534D02*
X10213108Y-24490058D01*
X10213108Y-24490058D02*
X10222632Y-24499581D01*
X10222632Y-24499581D02*
X10232155Y-24518629D01*
X10232155Y-24518629D02*
X10241679Y-24556724D01*
X10241679Y-24556724D02*
X10241679Y-24604343D01*
X10241679Y-24604343D02*
X10232155Y-24642438D01*
X10232155Y-24642438D02*
X10222632Y-24661486D01*
X10222632Y-24661486D02*
X10213108Y-24671010D01*
X10213108Y-24671010D02*
X10194060Y-24680534D01*
X10194060Y-24680534D02*
X10175013Y-24680534D01*
X10175013Y-24680534D02*
X10155965Y-24671010D01*
X10155965Y-24671010D02*
X10146441Y-24661486D01*
X10146441Y-24661486D02*
X10136917Y-24642438D01*
X10136917Y-24642438D02*
X10127394Y-24604343D01*
X10127394Y-24604343D02*
X10127394Y-24556724D01*
X10127394Y-24556724D02*
X10136917Y-24518629D01*
X10136917Y-24518629D02*
X10146441Y-24499581D01*
X10146441Y-24499581D02*
X10155965Y-24490058D01*
X10155965Y-24490058D02*
X10175013Y-24480534D01*
X10365489Y-24480534D02*
X10384536Y-24480534D01*
X10384536Y-24480534D02*
X10403584Y-24490058D01*
X10403584Y-24490058D02*
X10413108Y-24499581D01*
X10413108Y-24499581D02*
X10422632Y-24518629D01*
X10422632Y-24518629D02*
X10432155Y-24556724D01*
X10432155Y-24556724D02*
X10432155Y-24604343D01*
X10432155Y-24604343D02*
X10422632Y-24642438D01*
X10422632Y-24642438D02*
X10413108Y-24661486D01*
X10413108Y-24661486D02*
X10403584Y-24671010D01*
X10403584Y-24671010D02*
X10384536Y-24680534D01*
X10384536Y-24680534D02*
X10365489Y-24680534D01*
X10365489Y-24680534D02*
X10346441Y-24671010D01*
X10346441Y-24671010D02*
X10336917Y-24661486D01*
X10336917Y-24661486D02*
X10327394Y-24642438D01*
X10327394Y-24642438D02*
X10317870Y-24604343D01*
X10317870Y-24604343D02*
X10317870Y-24556724D01*
X10317870Y-24556724D02*
X10327394Y-24518629D01*
X10327394Y-24518629D02*
X10336917Y-24499581D01*
X10336917Y-24499581D02*
X10346441Y-24490058D01*
X10346441Y-24490058D02*
X10365489Y-24480534D01*
X10517870Y-24680534D02*
X10517870Y-24547200D01*
X10517870Y-24566248D02*
X10527394Y-24556724D01*
X10527394Y-24556724D02*
X10546441Y-24547200D01*
X10546441Y-24547200D02*
X10575013Y-24547200D01*
X10575013Y-24547200D02*
X10594060Y-24556724D01*
X10594060Y-24556724D02*
X10603584Y-24575772D01*
X10603584Y-24575772D02*
X10603584Y-24680534D01*
X10603584Y-24575772D02*
X10613108Y-24556724D01*
X10613108Y-24556724D02*
X10632155Y-24547200D01*
X10632155Y-24547200D02*
X10660727Y-24547200D01*
X10660727Y-24547200D02*
X10679775Y-24556724D01*
X10679775Y-24556724D02*
X10689298Y-24575772D01*
X10689298Y-24575772D02*
X10689298Y-24680534D01*
X10784536Y-24680534D02*
X10784536Y-24547200D01*
X10784536Y-24566248D02*
X10794060Y-24556724D01*
X10794060Y-24556724D02*
X10813108Y-24547200D01*
X10813108Y-24547200D02*
X10841679Y-24547200D01*
X10841679Y-24547200D02*
X10860727Y-24556724D01*
X10860727Y-24556724D02*
X10870251Y-24575772D01*
X10870251Y-24575772D02*
X10870251Y-24680534D01*
X10870251Y-24575772D02*
X10879775Y-24556724D01*
X10879775Y-24556724D02*
X10898822Y-24547200D01*
X10898822Y-24547200D02*
X10927394Y-24547200D01*
X10927394Y-24547200D02*
X10946441Y-24556724D01*
X10946441Y-24556724D02*
X10955965Y-24575772D01*
X10955965Y-24575772D02*
X10955965Y-24680534D01*
X11346441Y-24471010D02*
X11175013Y-24728153D01*
X11603584Y-24480534D02*
X11622632Y-24480534D01*
X11622632Y-24480534D02*
X11641679Y-24490058D01*
X11641679Y-24490058D02*
X11651203Y-24499581D01*
X11651203Y-24499581D02*
X11660727Y-24518629D01*
X11660727Y-24518629D02*
X11670251Y-24556724D01*
X11670251Y-24556724D02*
X11670251Y-24604343D01*
X11670251Y-24604343D02*
X11660727Y-24642438D01*
X11660727Y-24642438D02*
X11651203Y-24661486D01*
X11651203Y-24661486D02*
X11641679Y-24671010D01*
X11641679Y-24671010D02*
X11622632Y-24680534D01*
X11622632Y-24680534D02*
X11603584Y-24680534D01*
X11603584Y-24680534D02*
X11584536Y-24671010D01*
X11584536Y-24671010D02*
X11575013Y-24661486D01*
X11575013Y-24661486D02*
X11565489Y-24642438D01*
X11565489Y-24642438D02*
X11555965Y-24604343D01*
X11555965Y-24604343D02*
X11555965Y-24556724D01*
X11555965Y-24556724D02*
X11565489Y-24518629D01*
X11565489Y-24518629D02*
X11575013Y-24499581D01*
X11575013Y-24499581D02*
X11584536Y-24490058D01*
X11584536Y-24490058D02*
X11603584Y-24480534D01*
X11755965Y-24661486D02*
X11765489Y-24671010D01*
X11765489Y-24671010D02*
X11755965Y-24680534D01*
X11755965Y-24680534D02*
X11746441Y-24671010D01*
X11746441Y-24671010D02*
X11755965Y-24661486D01*
X11755965Y-24661486D02*
X11755965Y-24680534D01*
X11955965Y-24680534D02*
X11841679Y-24680534D01*
X11898822Y-24680534D02*
X11898822Y-24480534D01*
X11898822Y-24480534D02*
X11879775Y-24509105D01*
X11879775Y-24509105D02*
X11860727Y-24528153D01*
X11860727Y-24528153D02*
X11841679Y-24537677D01*
X12032156Y-24499581D02*
X12041679Y-24490058D01*
X12041679Y-24490058D02*
X12060727Y-24480534D01*
X12060727Y-24480534D02*
X12108346Y-24480534D01*
X12108346Y-24480534D02*
X12127394Y-24490058D01*
X12127394Y-24490058D02*
X12136917Y-24499581D01*
X12136917Y-24499581D02*
X12146441Y-24518629D01*
X12146441Y-24518629D02*
X12146441Y-24537677D01*
X12146441Y-24537677D02*
X12136917Y-24566248D01*
X12136917Y-24566248D02*
X12022632Y-24680534D01*
X12022632Y-24680534D02*
X12146441Y-24680534D01*
X12317870Y-24480534D02*
X12279775Y-24480534D01*
X12279775Y-24480534D02*
X12260727Y-24490058D01*
X12260727Y-24490058D02*
X12251203Y-24499581D01*
X12251203Y-24499581D02*
X12232156Y-24528153D01*
X12232156Y-24528153D02*
X12222632Y-24566248D01*
X12222632Y-24566248D02*
X12222632Y-24642438D01*
X12222632Y-24642438D02*
X12232156Y-24661486D01*
X12232156Y-24661486D02*
X12241679Y-24671010D01*
X12241679Y-24671010D02*
X12260727Y-24680534D01*
X12260727Y-24680534D02*
X12298822Y-24680534D01*
X12298822Y-24680534D02*
X12317870Y-24671010D01*
X12317870Y-24671010D02*
X12327394Y-24661486D01*
X12327394Y-24661486D02*
X12336917Y-24642438D01*
X12336917Y-24642438D02*
X12336917Y-24594819D01*
X12336917Y-24594819D02*
X12327394Y-24575772D01*
X12327394Y-24575772D02*
X12317870Y-24566248D01*
X12317870Y-24566248D02*
X12298822Y-24556724D01*
X12298822Y-24556724D02*
X12260727Y-24556724D01*
X12260727Y-24556724D02*
X12241679Y-24566248D01*
X12241679Y-24566248D02*
X12232156Y-24575772D01*
X12232156Y-24575772D02*
X12222632Y-24594819D01*
X12460727Y-24480534D02*
X12479775Y-24480534D01*
X12479775Y-24480534D02*
X12498822Y-24490058D01*
X12498822Y-24490058D02*
X12508346Y-24499581D01*
X12508346Y-24499581D02*
X12517870Y-24518629D01*
X12517870Y-24518629D02*
X12527394Y-24556724D01*
X12527394Y-24556724D02*
X12527394Y-24604343D01*
X12527394Y-24604343D02*
X12517870Y-24642438D01*
X12517870Y-24642438D02*
X12508346Y-24661486D01*
X12508346Y-24661486D02*
X12498822Y-24671010D01*
X12498822Y-24671010D02*
X12479775Y-24680534D01*
X12479775Y-24680534D02*
X12460727Y-24680534D01*
X12460727Y-24680534D02*
X12441679Y-24671010D01*
X12441679Y-24671010D02*
X12432156Y-24661486D01*
X12432156Y-24661486D02*
X12422632Y-24642438D01*
X12422632Y-24642438D02*
X12413108Y-24604343D01*
X12413108Y-24604343D02*
X12413108Y-24556724D01*
X12413108Y-24556724D02*
X12422632Y-24518629D01*
X12422632Y-24518629D02*
X12432156Y-24499581D01*
X12432156Y-24499581D02*
X12441679Y-24490058D01*
X12441679Y-24490058D02*
X12460727Y-24480534D01*
X12603584Y-24480534D02*
X12603584Y-24518629D01*
X12679775Y-24480534D02*
X12679775Y-24518629D01*
X12975013Y-24756724D02*
X12965489Y-24747200D01*
X12965489Y-24747200D02*
X12946441Y-24718629D01*
X12946441Y-24718629D02*
X12936918Y-24699581D01*
X12936918Y-24699581D02*
X12927394Y-24671010D01*
X12927394Y-24671010D02*
X12917870Y-24623391D01*
X12917870Y-24623391D02*
X12917870Y-24585296D01*
X12917870Y-24585296D02*
X12927394Y-24537677D01*
X12927394Y-24537677D02*
X12936918Y-24509105D01*
X12936918Y-24509105D02*
X12946441Y-24490058D01*
X12946441Y-24490058D02*
X12965489Y-24461486D01*
X12965489Y-24461486D02*
X12975013Y-24451962D01*
X13146441Y-24480534D02*
X13051203Y-24480534D01*
X13051203Y-24480534D02*
X13041679Y-24575772D01*
X13041679Y-24575772D02*
X13051203Y-24566248D01*
X13051203Y-24566248D02*
X13070251Y-24556724D01*
X13070251Y-24556724D02*
X13117870Y-24556724D01*
X13117870Y-24556724D02*
X13136918Y-24566248D01*
X13136918Y-24566248D02*
X13146441Y-24575772D01*
X13146441Y-24575772D02*
X13155965Y-24594819D01*
X13155965Y-24594819D02*
X13155965Y-24642438D01*
X13155965Y-24642438D02*
X13146441Y-24661486D01*
X13146441Y-24661486D02*
X13136918Y-24671010D01*
X13136918Y-24671010D02*
X13117870Y-24680534D01*
X13117870Y-24680534D02*
X13070251Y-24680534D01*
X13070251Y-24680534D02*
X13051203Y-24671010D01*
X13051203Y-24671010D02*
X13041679Y-24661486D01*
X13394060Y-24680534D02*
X13394060Y-24480534D01*
X13479775Y-24680534D02*
X13479775Y-24575772D01*
X13479775Y-24575772D02*
X13470251Y-24556724D01*
X13470251Y-24556724D02*
X13451203Y-24547200D01*
X13451203Y-24547200D02*
X13422632Y-24547200D01*
X13422632Y-24547200D02*
X13403584Y-24556724D01*
X13403584Y-24556724D02*
X13394060Y-24566248D01*
X13603584Y-24680534D02*
X13584537Y-24671010D01*
X13584537Y-24671010D02*
X13575013Y-24661486D01*
X13575013Y-24661486D02*
X13565489Y-24642438D01*
X13565489Y-24642438D02*
X13565489Y-24585296D01*
X13565489Y-24585296D02*
X13575013Y-24566248D01*
X13575013Y-24566248D02*
X13584537Y-24556724D01*
X13584537Y-24556724D02*
X13603584Y-24547200D01*
X13603584Y-24547200D02*
X13632156Y-24547200D01*
X13632156Y-24547200D02*
X13651203Y-24556724D01*
X13651203Y-24556724D02*
X13660727Y-24566248D01*
X13660727Y-24566248D02*
X13670251Y-24585296D01*
X13670251Y-24585296D02*
X13670251Y-24642438D01*
X13670251Y-24642438D02*
X13660727Y-24661486D01*
X13660727Y-24661486D02*
X13651203Y-24671010D01*
X13651203Y-24671010D02*
X13632156Y-24680534D01*
X13632156Y-24680534D02*
X13603584Y-24680534D01*
X13784537Y-24680534D02*
X13765489Y-24671010D01*
X13765489Y-24671010D02*
X13755965Y-24651962D01*
X13755965Y-24651962D02*
X13755965Y-24480534D01*
X13936918Y-24671010D02*
X13917870Y-24680534D01*
X13917870Y-24680534D02*
X13879775Y-24680534D01*
X13879775Y-24680534D02*
X13860727Y-24671010D01*
X13860727Y-24671010D02*
X13851203Y-24651962D01*
X13851203Y-24651962D02*
X13851203Y-24575772D01*
X13851203Y-24575772D02*
X13860727Y-24556724D01*
X13860727Y-24556724D02*
X13879775Y-24547200D01*
X13879775Y-24547200D02*
X13917870Y-24547200D01*
X13917870Y-24547200D02*
X13936918Y-24556724D01*
X13936918Y-24556724D02*
X13946441Y-24575772D01*
X13946441Y-24575772D02*
X13946441Y-24594819D01*
X13946441Y-24594819D02*
X13851203Y-24613867D01*
X14022632Y-24671010D02*
X14041680Y-24680534D01*
X14041680Y-24680534D02*
X14079775Y-24680534D01*
X14079775Y-24680534D02*
X14098822Y-24671010D01*
X14098822Y-24671010D02*
X14108346Y-24651962D01*
X14108346Y-24651962D02*
X14108346Y-24642438D01*
X14108346Y-24642438D02*
X14098822Y-24623391D01*
X14098822Y-24623391D02*
X14079775Y-24613867D01*
X14079775Y-24613867D02*
X14051203Y-24613867D01*
X14051203Y-24613867D02*
X14032156Y-24604343D01*
X14032156Y-24604343D02*
X14022632Y-24585296D01*
X14022632Y-24585296D02*
X14022632Y-24575772D01*
X14022632Y-24575772D02*
X14032156Y-24556724D01*
X14032156Y-24556724D02*
X14051203Y-24547200D01*
X14051203Y-24547200D02*
X14079775Y-24547200D01*
X14079775Y-24547200D02*
X14098822Y-24556724D01*
X14175013Y-24756724D02*
X14184537Y-24747200D01*
X14184537Y-24747200D02*
X14203584Y-24718629D01*
X14203584Y-24718629D02*
X14213108Y-24699581D01*
X14213108Y-24699581D02*
X14222632Y-24671010D01*
X14222632Y-24671010D02*
X14232156Y-24623391D01*
X14232156Y-24623391D02*
X14232156Y-24585296D01*
X14232156Y-24585296D02*
X14222632Y-24537677D01*
X14222632Y-24537677D02*
X14213108Y-24509105D01*
X14213108Y-24509105D02*
X14203584Y-24490058D01*
X14203584Y-24490058D02*
X14184537Y-24461486D01*
X14184537Y-24461486D02*
X14175013Y-24451962D01*
X14536918Y-24756724D02*
X14527394Y-24747200D01*
X14527394Y-24747200D02*
X14508346Y-24718629D01*
X14508346Y-24718629D02*
X14498822Y-24699581D01*
X14498822Y-24699581D02*
X14489299Y-24671010D01*
X14489299Y-24671010D02*
X14479775Y-24623391D01*
X14479775Y-24623391D02*
X14479775Y-24585296D01*
X14479775Y-24585296D02*
X14489299Y-24537677D01*
X14489299Y-24537677D02*
X14498822Y-24509105D01*
X14498822Y-24509105D02*
X14508346Y-24490058D01*
X14508346Y-24490058D02*
X14527394Y-24461486D01*
X14527394Y-24461486D02*
X14536918Y-24451962D01*
X14613108Y-24547200D02*
X14613108Y-24680534D01*
X14613108Y-24566248D02*
X14622632Y-24556724D01*
X14622632Y-24556724D02*
X14641680Y-24547200D01*
X14641680Y-24547200D02*
X14670251Y-24547200D01*
X14670251Y-24547200D02*
X14689299Y-24556724D01*
X14689299Y-24556724D02*
X14698822Y-24575772D01*
X14698822Y-24575772D02*
X14698822Y-24680534D01*
X14822632Y-24680534D02*
X14803584Y-24671010D01*
X14803584Y-24671010D02*
X14794061Y-24661486D01*
X14794061Y-24661486D02*
X14784537Y-24642438D01*
X14784537Y-24642438D02*
X14784537Y-24585296D01*
X14784537Y-24585296D02*
X14794061Y-24566248D01*
X14794061Y-24566248D02*
X14803584Y-24556724D01*
X14803584Y-24556724D02*
X14822632Y-24547200D01*
X14822632Y-24547200D02*
X14851203Y-24547200D01*
X14851203Y-24547200D02*
X14870251Y-24556724D01*
X14870251Y-24556724D02*
X14879775Y-24566248D01*
X14879775Y-24566248D02*
X14889299Y-24585296D01*
X14889299Y-24585296D02*
X14889299Y-24642438D01*
X14889299Y-24642438D02*
X14879775Y-24661486D01*
X14879775Y-24661486D02*
X14870251Y-24671010D01*
X14870251Y-24671010D02*
X14851203Y-24680534D01*
X14851203Y-24680534D02*
X14822632Y-24680534D01*
X14946442Y-24547200D02*
X15022632Y-24547200D01*
X14975013Y-24480534D02*
X14975013Y-24651962D01*
X14975013Y-24651962D02*
X14984537Y-24671010D01*
X14984537Y-24671010D02*
X15003584Y-24680534D01*
X15003584Y-24680534D02*
X15022632Y-24680534D01*
X15241680Y-24547200D02*
X15241680Y-24747200D01*
X15241680Y-24556724D02*
X15260727Y-24547200D01*
X15260727Y-24547200D02*
X15298823Y-24547200D01*
X15298823Y-24547200D02*
X15317870Y-24556724D01*
X15317870Y-24556724D02*
X15327394Y-24566248D01*
X15327394Y-24566248D02*
X15336918Y-24585296D01*
X15336918Y-24585296D02*
X15336918Y-24642438D01*
X15336918Y-24642438D02*
X15327394Y-24661486D01*
X15327394Y-24661486D02*
X15317870Y-24671010D01*
X15317870Y-24671010D02*
X15298823Y-24680534D01*
X15298823Y-24680534D02*
X15260727Y-24680534D01*
X15260727Y-24680534D02*
X15241680Y-24671010D01*
X15451203Y-24680534D02*
X15432156Y-24671010D01*
X15432156Y-24671010D02*
X15422632Y-24651962D01*
X15422632Y-24651962D02*
X15422632Y-24480534D01*
X15613108Y-24680534D02*
X15613108Y-24575772D01*
X15613108Y-24575772D02*
X15603584Y-24556724D01*
X15603584Y-24556724D02*
X15584537Y-24547200D01*
X15584537Y-24547200D02*
X15546442Y-24547200D01*
X15546442Y-24547200D02*
X15527394Y-24556724D01*
X15613108Y-24671010D02*
X15594061Y-24680534D01*
X15594061Y-24680534D02*
X15546442Y-24680534D01*
X15546442Y-24680534D02*
X15527394Y-24671010D01*
X15527394Y-24671010D02*
X15517870Y-24651962D01*
X15517870Y-24651962D02*
X15517870Y-24632915D01*
X15517870Y-24632915D02*
X15527394Y-24613867D01*
X15527394Y-24613867D02*
X15546442Y-24604343D01*
X15546442Y-24604343D02*
X15594061Y-24604343D01*
X15594061Y-24604343D02*
X15613108Y-24594819D01*
X15679775Y-24547200D02*
X15755965Y-24547200D01*
X15708346Y-24480534D02*
X15708346Y-24651962D01*
X15708346Y-24651962D02*
X15717870Y-24671010D01*
X15717870Y-24671010D02*
X15736918Y-24680534D01*
X15736918Y-24680534D02*
X15755965Y-24680534D01*
X15898823Y-24671010D02*
X15879775Y-24680534D01*
X15879775Y-24680534D02*
X15841680Y-24680534D01*
X15841680Y-24680534D02*
X15822632Y-24671010D01*
X15822632Y-24671010D02*
X15813108Y-24651962D01*
X15813108Y-24651962D02*
X15813108Y-24575772D01*
X15813108Y-24575772D02*
X15822632Y-24556724D01*
X15822632Y-24556724D02*
X15841680Y-24547200D01*
X15841680Y-24547200D02*
X15879775Y-24547200D01*
X15879775Y-24547200D02*
X15898823Y-24556724D01*
X15898823Y-24556724D02*
X15908346Y-24575772D01*
X15908346Y-24575772D02*
X15908346Y-24594819D01*
X15908346Y-24594819D02*
X15813108Y-24613867D01*
X16079775Y-24680534D02*
X16079775Y-24480534D01*
X16079775Y-24671010D02*
X16060727Y-24680534D01*
X16060727Y-24680534D02*
X16022632Y-24680534D01*
X16022632Y-24680534D02*
X16003584Y-24671010D01*
X16003584Y-24671010D02*
X15994061Y-24661486D01*
X15994061Y-24661486D02*
X15984537Y-24642438D01*
X15984537Y-24642438D02*
X15984537Y-24585296D01*
X15984537Y-24585296D02*
X15994061Y-24566248D01*
X15994061Y-24566248D02*
X16003584Y-24556724D01*
X16003584Y-24556724D02*
X16022632Y-24547200D01*
X16022632Y-24547200D02*
X16060727Y-24547200D01*
X16060727Y-24547200D02*
X16079775Y-24556724D01*
X16155965Y-24756724D02*
X16165489Y-24747200D01*
X16165489Y-24747200D02*
X16184537Y-24718629D01*
X16184537Y-24718629D02*
X16194061Y-24699581D01*
X16194061Y-24699581D02*
X16203584Y-24671010D01*
X16203584Y-24671010D02*
X16213108Y-24623391D01*
X16213108Y-24623391D02*
X16213108Y-24585296D01*
X16213108Y-24585296D02*
X16203584Y-24537677D01*
X16203584Y-24537677D02*
X16194061Y-24509105D01*
X16194061Y-24509105D02*
X16184537Y-24490058D01*
X16184537Y-24490058D02*
X16165489Y-24461486D01*
X16165489Y-24461486D02*
X16155965Y-24451962D01*
M02*
