G04 #@! TF.GenerationSoftware,KiCad,Pcbnew,9.0.6*
G04 #@! TF.CreationDate,2026-03-10T14:48:13-05:00*
G04 #@! TF.ProjectId,u2CEM,75324345-4d2e-46b6-9963-61645f706362,rev?*
G04 #@! TF.SameCoordinates,Original*
G04 #@! TF.FileFunction,Legend,Top*
G04 #@! TF.FilePolarity,Positive*
%FSLAX46Y46*%
G04 Gerber Fmt 4.6, Leading zero omitted, Abs format (unit mm)*
G04 Created by KiCad (PCBNEW 9.0.6) date 2026-03-10 14:48:13*
%MOMM*%
%LPD*%
G01*
G04 APERTURE LIST*
G04 Aperture macros list*
%AMRoundRect*
0 Rectangle with rounded corners*
0 $1 Rounding radius*
0 $2 $3 $4 $5 $6 $7 $8 $9 X,Y pos of 4 corners*
0 Add a 4 corners polygon primitive as box body*
4,1,4,$2,$3,$4,$5,$6,$7,$8,$9,$2,$3,0*
0 Add four circle primitives for the rounded corners*
1,1,$1+$1,$2,$3*
1,1,$1+$1,$4,$5*
1,1,$1+$1,$6,$7*
1,1,$1+$1,$8,$9*
0 Add four rect primitives between the rounded corners*
20,1,$1+$1,$2,$3,$4,$5,0*
20,1,$1+$1,$4,$5,$6,$7,0*
20,1,$1+$1,$6,$7,$8,$9,0*
20,1,$1+$1,$8,$9,$2,$3,0*%
G04 Aperture macros list end*
%ADD10C,0.254000*%
%ADD11C,0.300000*%
%ADD12C,0.600000*%
%ADD13C,0.150000*%
%ADD14C,0.120000*%
%ADD15C,0.000000*%
%ADD16C,0.200000*%
%ADD17RoundRect,0.200000X0.200000X0.275000X-0.200000X0.275000X-0.200000X-0.275000X0.200000X-0.275000X0*%
%ADD18C,3.000000*%
%ADD19RoundRect,0.218750X0.218750X0.256250X-0.218750X0.256250X-0.218750X-0.256250X0.218750X-0.256250X0*%
%ADD20C,3.200000*%
%ADD21RoundRect,0.200000X-0.200000X-0.275000X0.200000X-0.275000X0.200000X0.275000X-0.200000X0.275000X0*%
%ADD22R,0.700000X4.200000*%
%ADD23RoundRect,0.200000X-0.275000X0.200000X-0.275000X-0.200000X0.275000X-0.200000X0.275000X0.200000X0*%
%ADD24C,2.400000*%
%ADD25C,2.000000*%
%ADD26R,1.500000X0.500000*%
%ADD27R,1.200000X0.500000*%
%ADD28R,2.600000X2.600000*%
%ADD29R,1.500000X0.600000*%
%ADD30C,0.508000*%
G04 APERTURE END LIST*
D10*
X206800000Y-182100000D02*
X206081580Y-181381580D01*
X124200000Y-182000000D02*
X124918420Y-182718420D01*
X129200000Y-182000000D02*
X124200000Y-182000000D01*
X206800000Y-182100000D02*
X206081580Y-182818420D01*
X201800000Y-182100000D02*
X206800000Y-182100000D01*
X124200000Y-182000000D02*
X124918420Y-181281580D01*
D11*
X174214285Y-188278328D02*
X174214285Y-189492614D01*
X174214285Y-189492614D02*
X174285714Y-189635471D01*
X174285714Y-189635471D02*
X174357143Y-189706900D01*
X174357143Y-189706900D02*
X174500000Y-189778328D01*
X174500000Y-189778328D02*
X174785714Y-189778328D01*
X174785714Y-189778328D02*
X174928571Y-189706900D01*
X174928571Y-189706900D02*
X175000000Y-189635471D01*
X175000000Y-189635471D02*
X175071428Y-189492614D01*
X175071428Y-189492614D02*
X175071428Y-188278328D01*
X175785714Y-188778328D02*
X175785714Y-189778328D01*
X175785714Y-188921185D02*
X175857143Y-188849757D01*
X175857143Y-188849757D02*
X176000000Y-188778328D01*
X176000000Y-188778328D02*
X176214286Y-188778328D01*
X176214286Y-188778328D02*
X176357143Y-188849757D01*
X176357143Y-188849757D02*
X176428572Y-188992614D01*
X176428572Y-188992614D02*
X176428572Y-189778328D01*
X176928572Y-188778328D02*
X177500000Y-188778328D01*
X177142857Y-189778328D02*
X177142857Y-188492614D01*
X177142857Y-188492614D02*
X177214286Y-188349757D01*
X177214286Y-188349757D02*
X177357143Y-188278328D01*
X177357143Y-188278328D02*
X177500000Y-188278328D01*
X178214286Y-189778328D02*
X178071429Y-189706900D01*
X178071429Y-189706900D02*
X178000000Y-189635471D01*
X178000000Y-189635471D02*
X177928572Y-189492614D01*
X177928572Y-189492614D02*
X177928572Y-189064042D01*
X177928572Y-189064042D02*
X178000000Y-188921185D01*
X178000000Y-188921185D02*
X178071429Y-188849757D01*
X178071429Y-188849757D02*
X178214286Y-188778328D01*
X178214286Y-188778328D02*
X178428572Y-188778328D01*
X178428572Y-188778328D02*
X178571429Y-188849757D01*
X178571429Y-188849757D02*
X178642858Y-188921185D01*
X178642858Y-188921185D02*
X178714286Y-189064042D01*
X178714286Y-189064042D02*
X178714286Y-189492614D01*
X178714286Y-189492614D02*
X178642858Y-189635471D01*
X178642858Y-189635471D02*
X178571429Y-189706900D01*
X178571429Y-189706900D02*
X178428572Y-189778328D01*
X178428572Y-189778328D02*
X178214286Y-189778328D01*
X179357143Y-189778328D02*
X179357143Y-188778328D01*
X179357143Y-189064042D02*
X179428572Y-188921185D01*
X179428572Y-188921185D02*
X179500001Y-188849757D01*
X179500001Y-188849757D02*
X179642858Y-188778328D01*
X179642858Y-188778328D02*
X179785715Y-188778328D01*
X180071429Y-188778328D02*
X180642857Y-188778328D01*
X180285714Y-188278328D02*
X180285714Y-189564042D01*
X180285714Y-189564042D02*
X180357143Y-189706900D01*
X180357143Y-189706900D02*
X180500000Y-189778328D01*
X180500000Y-189778328D02*
X180642857Y-189778328D01*
X181785715Y-188778328D02*
X181785715Y-189778328D01*
X181142857Y-188778328D02*
X181142857Y-189564042D01*
X181142857Y-189564042D02*
X181214286Y-189706900D01*
X181214286Y-189706900D02*
X181357143Y-189778328D01*
X181357143Y-189778328D02*
X181571429Y-189778328D01*
X181571429Y-189778328D02*
X181714286Y-189706900D01*
X181714286Y-189706900D02*
X181785715Y-189635471D01*
X182500000Y-188778328D02*
X182500000Y-189778328D01*
X182500000Y-188921185D02*
X182571429Y-188849757D01*
X182571429Y-188849757D02*
X182714286Y-188778328D01*
X182714286Y-188778328D02*
X182928572Y-188778328D01*
X182928572Y-188778328D02*
X183071429Y-188849757D01*
X183071429Y-188849757D02*
X183142858Y-188992614D01*
X183142858Y-188992614D02*
X183142858Y-189778328D01*
X184500001Y-189778328D02*
X184500001Y-188992614D01*
X184500001Y-188992614D02*
X184428572Y-188849757D01*
X184428572Y-188849757D02*
X184285715Y-188778328D01*
X184285715Y-188778328D02*
X184000001Y-188778328D01*
X184000001Y-188778328D02*
X183857143Y-188849757D01*
X184500001Y-189706900D02*
X184357143Y-189778328D01*
X184357143Y-189778328D02*
X184000001Y-189778328D01*
X184000001Y-189778328D02*
X183857143Y-189706900D01*
X183857143Y-189706900D02*
X183785715Y-189564042D01*
X183785715Y-189564042D02*
X183785715Y-189421185D01*
X183785715Y-189421185D02*
X183857143Y-189278328D01*
X183857143Y-189278328D02*
X184000001Y-189206900D01*
X184000001Y-189206900D02*
X184357143Y-189206900D01*
X184357143Y-189206900D02*
X184500001Y-189135471D01*
X185000001Y-188778328D02*
X185571429Y-188778328D01*
X185214286Y-188278328D02*
X185214286Y-189564042D01*
X185214286Y-189564042D02*
X185285715Y-189706900D01*
X185285715Y-189706900D02*
X185428572Y-189778328D01*
X185428572Y-189778328D02*
X185571429Y-189778328D01*
X186642858Y-189706900D02*
X186500001Y-189778328D01*
X186500001Y-189778328D02*
X186214287Y-189778328D01*
X186214287Y-189778328D02*
X186071429Y-189706900D01*
X186071429Y-189706900D02*
X186000001Y-189564042D01*
X186000001Y-189564042D02*
X186000001Y-188992614D01*
X186000001Y-188992614D02*
X186071429Y-188849757D01*
X186071429Y-188849757D02*
X186214287Y-188778328D01*
X186214287Y-188778328D02*
X186500001Y-188778328D01*
X186500001Y-188778328D02*
X186642858Y-188849757D01*
X186642858Y-188849757D02*
X186714287Y-188992614D01*
X186714287Y-188992614D02*
X186714287Y-189135471D01*
X186714287Y-189135471D02*
X186000001Y-189278328D01*
X188500000Y-189778328D02*
X188500000Y-188278328D01*
X188500000Y-188849757D02*
X188642858Y-188778328D01*
X188642858Y-188778328D02*
X188928572Y-188778328D01*
X188928572Y-188778328D02*
X189071429Y-188849757D01*
X189071429Y-188849757D02*
X189142858Y-188921185D01*
X189142858Y-188921185D02*
X189214286Y-189064042D01*
X189214286Y-189064042D02*
X189214286Y-189492614D01*
X189214286Y-189492614D02*
X189142858Y-189635471D01*
X189142858Y-189635471D02*
X189071429Y-189706900D01*
X189071429Y-189706900D02*
X188928572Y-189778328D01*
X188928572Y-189778328D02*
X188642858Y-189778328D01*
X188642858Y-189778328D02*
X188500000Y-189706900D01*
X190500001Y-188778328D02*
X190500001Y-189778328D01*
X189857143Y-188778328D02*
X189857143Y-189564042D01*
X189857143Y-189564042D02*
X189928572Y-189706900D01*
X189928572Y-189706900D02*
X190071429Y-189778328D01*
X190071429Y-189778328D02*
X190285715Y-189778328D01*
X190285715Y-189778328D02*
X190428572Y-189706900D01*
X190428572Y-189706900D02*
X190500001Y-189635471D01*
X191000001Y-188778328D02*
X191571429Y-188778328D01*
X191214286Y-188278328D02*
X191214286Y-189564042D01*
X191214286Y-189564042D02*
X191285715Y-189706900D01*
X191285715Y-189706900D02*
X191428572Y-189778328D01*
X191428572Y-189778328D02*
X191571429Y-189778328D01*
X193214286Y-189778328D02*
X193214286Y-188778328D01*
X193214286Y-189064042D02*
X193285715Y-188921185D01*
X193285715Y-188921185D02*
X193357144Y-188849757D01*
X193357144Y-188849757D02*
X193500001Y-188778328D01*
X193500001Y-188778328D02*
X193642858Y-188778328D01*
X194714286Y-189706900D02*
X194571429Y-189778328D01*
X194571429Y-189778328D02*
X194285715Y-189778328D01*
X194285715Y-189778328D02*
X194142857Y-189706900D01*
X194142857Y-189706900D02*
X194071429Y-189564042D01*
X194071429Y-189564042D02*
X194071429Y-188992614D01*
X194071429Y-188992614D02*
X194142857Y-188849757D01*
X194142857Y-188849757D02*
X194285715Y-188778328D01*
X194285715Y-188778328D02*
X194571429Y-188778328D01*
X194571429Y-188778328D02*
X194714286Y-188849757D01*
X194714286Y-188849757D02*
X194785715Y-188992614D01*
X194785715Y-188992614D02*
X194785715Y-189135471D01*
X194785715Y-189135471D02*
X194071429Y-189278328D01*
X196071429Y-189778328D02*
X196071429Y-188992614D01*
X196071429Y-188992614D02*
X196000000Y-188849757D01*
X196000000Y-188849757D02*
X195857143Y-188778328D01*
X195857143Y-188778328D02*
X195571429Y-188778328D01*
X195571429Y-188778328D02*
X195428571Y-188849757D01*
X196071429Y-189706900D02*
X195928571Y-189778328D01*
X195928571Y-189778328D02*
X195571429Y-189778328D01*
X195571429Y-189778328D02*
X195428571Y-189706900D01*
X195428571Y-189706900D02*
X195357143Y-189564042D01*
X195357143Y-189564042D02*
X195357143Y-189421185D01*
X195357143Y-189421185D02*
X195428571Y-189278328D01*
X195428571Y-189278328D02*
X195571429Y-189206900D01*
X195571429Y-189206900D02*
X195928571Y-189206900D01*
X195928571Y-189206900D02*
X196071429Y-189135471D01*
X196714286Y-189706900D02*
X196857143Y-189778328D01*
X196857143Y-189778328D02*
X197142857Y-189778328D01*
X197142857Y-189778328D02*
X197285714Y-189706900D01*
X197285714Y-189706900D02*
X197357143Y-189564042D01*
X197357143Y-189564042D02*
X197357143Y-189492614D01*
X197357143Y-189492614D02*
X197285714Y-189349757D01*
X197285714Y-189349757D02*
X197142857Y-189278328D01*
X197142857Y-189278328D02*
X196928572Y-189278328D01*
X196928572Y-189278328D02*
X196785714Y-189206900D01*
X196785714Y-189206900D02*
X196714286Y-189064042D01*
X196714286Y-189064042D02*
X196714286Y-188992614D01*
X196714286Y-188992614D02*
X196785714Y-188849757D01*
X196785714Y-188849757D02*
X196928572Y-188778328D01*
X196928572Y-188778328D02*
X197142857Y-188778328D01*
X197142857Y-188778328D02*
X197285714Y-188849757D01*
X198214286Y-189778328D02*
X198071429Y-189706900D01*
X198071429Y-189706900D02*
X198000000Y-189635471D01*
X198000000Y-189635471D02*
X197928572Y-189492614D01*
X197928572Y-189492614D02*
X197928572Y-189064042D01*
X197928572Y-189064042D02*
X198000000Y-188921185D01*
X198000000Y-188921185D02*
X198071429Y-188849757D01*
X198071429Y-188849757D02*
X198214286Y-188778328D01*
X198214286Y-188778328D02*
X198428572Y-188778328D01*
X198428572Y-188778328D02*
X198571429Y-188849757D01*
X198571429Y-188849757D02*
X198642858Y-188921185D01*
X198642858Y-188921185D02*
X198714286Y-189064042D01*
X198714286Y-189064042D02*
X198714286Y-189492614D01*
X198714286Y-189492614D02*
X198642858Y-189635471D01*
X198642858Y-189635471D02*
X198571429Y-189706900D01*
X198571429Y-189706900D02*
X198428572Y-189778328D01*
X198428572Y-189778328D02*
X198214286Y-189778328D01*
X199357143Y-188778328D02*
X199357143Y-189778328D01*
X199357143Y-188921185D02*
X199428572Y-188849757D01*
X199428572Y-188849757D02*
X199571429Y-188778328D01*
X199571429Y-188778328D02*
X199785715Y-188778328D01*
X199785715Y-188778328D02*
X199928572Y-188849757D01*
X199928572Y-188849757D02*
X200000001Y-188992614D01*
X200000001Y-188992614D02*
X200000001Y-189778328D01*
X201357144Y-189778328D02*
X201357144Y-188992614D01*
X201357144Y-188992614D02*
X201285715Y-188849757D01*
X201285715Y-188849757D02*
X201142858Y-188778328D01*
X201142858Y-188778328D02*
X200857144Y-188778328D01*
X200857144Y-188778328D02*
X200714286Y-188849757D01*
X201357144Y-189706900D02*
X201214286Y-189778328D01*
X201214286Y-189778328D02*
X200857144Y-189778328D01*
X200857144Y-189778328D02*
X200714286Y-189706900D01*
X200714286Y-189706900D02*
X200642858Y-189564042D01*
X200642858Y-189564042D02*
X200642858Y-189421185D01*
X200642858Y-189421185D02*
X200714286Y-189278328D01*
X200714286Y-189278328D02*
X200857144Y-189206900D01*
X200857144Y-189206900D02*
X201214286Y-189206900D01*
X201214286Y-189206900D02*
X201357144Y-189135471D01*
X202071429Y-189778328D02*
X202071429Y-188278328D01*
X202071429Y-188849757D02*
X202214287Y-188778328D01*
X202214287Y-188778328D02*
X202500001Y-188778328D01*
X202500001Y-188778328D02*
X202642858Y-188849757D01*
X202642858Y-188849757D02*
X202714287Y-188921185D01*
X202714287Y-188921185D02*
X202785715Y-189064042D01*
X202785715Y-189064042D02*
X202785715Y-189492614D01*
X202785715Y-189492614D02*
X202714287Y-189635471D01*
X202714287Y-189635471D02*
X202642858Y-189706900D01*
X202642858Y-189706900D02*
X202500001Y-189778328D01*
X202500001Y-189778328D02*
X202214287Y-189778328D01*
X202214287Y-189778328D02*
X202071429Y-189706900D01*
X203642858Y-189778328D02*
X203500001Y-189706900D01*
X203500001Y-189706900D02*
X203428572Y-189564042D01*
X203428572Y-189564042D02*
X203428572Y-188278328D01*
X204785715Y-189706900D02*
X204642858Y-189778328D01*
X204642858Y-189778328D02*
X204357144Y-189778328D01*
X204357144Y-189778328D02*
X204214286Y-189706900D01*
X204214286Y-189706900D02*
X204142858Y-189564042D01*
X204142858Y-189564042D02*
X204142858Y-188992614D01*
X204142858Y-188992614D02*
X204214286Y-188849757D01*
X204214286Y-188849757D02*
X204357144Y-188778328D01*
X204357144Y-188778328D02*
X204642858Y-188778328D01*
X204642858Y-188778328D02*
X204785715Y-188849757D01*
X204785715Y-188849757D02*
X204857144Y-188992614D01*
X204857144Y-188992614D02*
X204857144Y-189135471D01*
X204857144Y-189135471D02*
X204142858Y-189278328D01*
D12*
X200500000Y-176956657D02*
X200500000Y-179099514D01*
X200500000Y-179099514D02*
X200357143Y-179528085D01*
X200357143Y-179528085D02*
X200071429Y-179813800D01*
X200071429Y-179813800D02*
X199642857Y-179956657D01*
X199642857Y-179956657D02*
X199357143Y-179956657D01*
X203214286Y-179956657D02*
X203214286Y-178385228D01*
X203214286Y-178385228D02*
X203071428Y-178099514D01*
X203071428Y-178099514D02*
X202785714Y-177956657D01*
X202785714Y-177956657D02*
X202214286Y-177956657D01*
X202214286Y-177956657D02*
X201928571Y-178099514D01*
X203214286Y-179813800D02*
X202928571Y-179956657D01*
X202928571Y-179956657D02*
X202214286Y-179956657D01*
X202214286Y-179956657D02*
X201928571Y-179813800D01*
X201928571Y-179813800D02*
X201785714Y-179528085D01*
X201785714Y-179528085D02*
X201785714Y-179242371D01*
X201785714Y-179242371D02*
X201928571Y-178956657D01*
X201928571Y-178956657D02*
X202214286Y-178813800D01*
X202214286Y-178813800D02*
X202928571Y-178813800D01*
X202928571Y-178813800D02*
X203214286Y-178670942D01*
X204642857Y-177956657D02*
X204642857Y-179956657D01*
X204642857Y-178242371D02*
X204785714Y-178099514D01*
X204785714Y-178099514D02*
X205071429Y-177956657D01*
X205071429Y-177956657D02*
X205500000Y-177956657D01*
X205500000Y-177956657D02*
X205785714Y-178099514D01*
X205785714Y-178099514D02*
X205928572Y-178385228D01*
X205928572Y-178385228D02*
X205928572Y-179956657D01*
X207357143Y-179956657D02*
X207357143Y-176956657D01*
X207642858Y-178813800D02*
X208500000Y-179956657D01*
X208500000Y-177956657D02*
X207357143Y-179099514D01*
D11*
X197257142Y-184438638D02*
X198495237Y-184438638D01*
X198495237Y-184438638D02*
X197828570Y-185200542D01*
X197828570Y-185200542D02*
X198114285Y-185200542D01*
X198114285Y-185200542D02*
X198304761Y-185295780D01*
X198304761Y-185295780D02*
X198399999Y-185391019D01*
X198399999Y-185391019D02*
X198495237Y-185581495D01*
X198495237Y-185581495D02*
X198495237Y-186057685D01*
X198495237Y-186057685D02*
X198399999Y-186248161D01*
X198399999Y-186248161D02*
X198304761Y-186343400D01*
X198304761Y-186343400D02*
X198114285Y-186438638D01*
X198114285Y-186438638D02*
X197542856Y-186438638D01*
X197542856Y-186438638D02*
X197352380Y-186343400D01*
X197352380Y-186343400D02*
X197257142Y-186248161D01*
X199352380Y-186248161D02*
X199447618Y-186343400D01*
X199447618Y-186343400D02*
X199352380Y-186438638D01*
X199352380Y-186438638D02*
X199257142Y-186343400D01*
X199257142Y-186343400D02*
X199352380Y-186248161D01*
X199352380Y-186248161D02*
X199352380Y-186438638D01*
X200114285Y-184438638D02*
X201352380Y-184438638D01*
X201352380Y-184438638D02*
X200685713Y-185200542D01*
X200685713Y-185200542D02*
X200971428Y-185200542D01*
X200971428Y-185200542D02*
X201161904Y-185295780D01*
X201161904Y-185295780D02*
X201257142Y-185391019D01*
X201257142Y-185391019D02*
X201352380Y-185581495D01*
X201352380Y-185581495D02*
X201352380Y-186057685D01*
X201352380Y-186057685D02*
X201257142Y-186248161D01*
X201257142Y-186248161D02*
X201161904Y-186343400D01*
X201161904Y-186343400D02*
X200971428Y-186438638D01*
X200971428Y-186438638D02*
X200399999Y-186438638D01*
X200399999Y-186438638D02*
X200209523Y-186343400D01*
X200209523Y-186343400D02*
X200114285Y-186248161D01*
X201923809Y-184438638D02*
X202590475Y-186438638D01*
X202590475Y-186438638D02*
X203257142Y-184438638D01*
X205447619Y-186438638D02*
X205447619Y-184438638D01*
X205447619Y-184438638D02*
X206209524Y-184438638D01*
X206209524Y-184438638D02*
X206400000Y-184533876D01*
X206400000Y-184533876D02*
X206495238Y-184629114D01*
X206495238Y-184629114D02*
X206590476Y-184819590D01*
X206590476Y-184819590D02*
X206590476Y-185105304D01*
X206590476Y-185105304D02*
X206495238Y-185295780D01*
X206495238Y-185295780D02*
X206400000Y-185391019D01*
X206400000Y-185391019D02*
X206209524Y-185486257D01*
X206209524Y-185486257D02*
X205447619Y-185486257D01*
X207733333Y-186438638D02*
X207542857Y-186343400D01*
X207542857Y-186343400D02*
X207447619Y-186248161D01*
X207447619Y-186248161D02*
X207352381Y-186057685D01*
X207352381Y-186057685D02*
X207352381Y-185486257D01*
X207352381Y-185486257D02*
X207447619Y-185295780D01*
X207447619Y-185295780D02*
X207542857Y-185200542D01*
X207542857Y-185200542D02*
X207733333Y-185105304D01*
X207733333Y-185105304D02*
X208019048Y-185105304D01*
X208019048Y-185105304D02*
X208209524Y-185200542D01*
X208209524Y-185200542D02*
X208304762Y-185295780D01*
X208304762Y-185295780D02*
X208400000Y-185486257D01*
X208400000Y-185486257D02*
X208400000Y-186057685D01*
X208400000Y-186057685D02*
X208304762Y-186248161D01*
X208304762Y-186248161D02*
X208209524Y-186343400D01*
X208209524Y-186343400D02*
X208019048Y-186438638D01*
X208019048Y-186438638D02*
X207733333Y-186438638D01*
X209066667Y-185105304D02*
X209447619Y-186438638D01*
X209447619Y-186438638D02*
X209828572Y-185486257D01*
X209828572Y-185486257D02*
X210209524Y-186438638D01*
X210209524Y-186438638D02*
X210590476Y-185105304D01*
X212114286Y-186343400D02*
X211923810Y-186438638D01*
X211923810Y-186438638D02*
X211542857Y-186438638D01*
X211542857Y-186438638D02*
X211352381Y-186343400D01*
X211352381Y-186343400D02*
X211257143Y-186152923D01*
X211257143Y-186152923D02*
X211257143Y-185391019D01*
X211257143Y-185391019D02*
X211352381Y-185200542D01*
X211352381Y-185200542D02*
X211542857Y-185105304D01*
X211542857Y-185105304D02*
X211923810Y-185105304D01*
X211923810Y-185105304D02*
X212114286Y-185200542D01*
X212114286Y-185200542D02*
X212209524Y-185391019D01*
X212209524Y-185391019D02*
X212209524Y-185581495D01*
X212209524Y-185581495D02*
X211257143Y-185771971D01*
X213066667Y-186438638D02*
X213066667Y-185105304D01*
X213066667Y-185486257D02*
X213161905Y-185295780D01*
X213161905Y-185295780D02*
X213257143Y-185200542D01*
X213257143Y-185200542D02*
X213447619Y-185105304D01*
X213447619Y-185105304D02*
X213638096Y-185105304D01*
D12*
X120785713Y-179170942D02*
X120642856Y-179313800D01*
X120642856Y-179313800D02*
X120214284Y-179456657D01*
X120214284Y-179456657D02*
X119928570Y-179456657D01*
X119928570Y-179456657D02*
X119499999Y-179313800D01*
X119499999Y-179313800D02*
X119214284Y-179028085D01*
X119214284Y-179028085D02*
X119071427Y-178742371D01*
X119071427Y-178742371D02*
X118928570Y-178170942D01*
X118928570Y-178170942D02*
X118928570Y-177742371D01*
X118928570Y-177742371D02*
X119071427Y-177170942D01*
X119071427Y-177170942D02*
X119214284Y-176885228D01*
X119214284Y-176885228D02*
X119499999Y-176599514D01*
X119499999Y-176599514D02*
X119928570Y-176456657D01*
X119928570Y-176456657D02*
X120214284Y-176456657D01*
X120214284Y-176456657D02*
X120642856Y-176599514D01*
X120642856Y-176599514D02*
X120785713Y-176742371D01*
X122499999Y-179456657D02*
X122214284Y-179313800D01*
X122214284Y-179313800D02*
X122071427Y-179170942D01*
X122071427Y-179170942D02*
X121928570Y-178885228D01*
X121928570Y-178885228D02*
X121928570Y-178028085D01*
X121928570Y-178028085D02*
X122071427Y-177742371D01*
X122071427Y-177742371D02*
X122214284Y-177599514D01*
X122214284Y-177599514D02*
X122499999Y-177456657D01*
X122499999Y-177456657D02*
X122928570Y-177456657D01*
X122928570Y-177456657D02*
X123214284Y-177599514D01*
X123214284Y-177599514D02*
X123357142Y-177742371D01*
X123357142Y-177742371D02*
X123499999Y-178028085D01*
X123499999Y-178028085D02*
X123499999Y-178885228D01*
X123499999Y-178885228D02*
X123357142Y-179170942D01*
X123357142Y-179170942D02*
X123214284Y-179313800D01*
X123214284Y-179313800D02*
X122928570Y-179456657D01*
X122928570Y-179456657D02*
X122499999Y-179456657D01*
X124785713Y-179456657D02*
X124785713Y-177456657D01*
X124785713Y-177742371D02*
X124928570Y-177599514D01*
X124928570Y-177599514D02*
X125214285Y-177456657D01*
X125214285Y-177456657D02*
X125642856Y-177456657D01*
X125642856Y-177456657D02*
X125928570Y-177599514D01*
X125928570Y-177599514D02*
X126071428Y-177885228D01*
X126071428Y-177885228D02*
X126071428Y-179456657D01*
X126071428Y-177885228D02*
X126214285Y-177599514D01*
X126214285Y-177599514D02*
X126499999Y-177456657D01*
X126499999Y-177456657D02*
X126928570Y-177456657D01*
X126928570Y-177456657D02*
X127214285Y-177599514D01*
X127214285Y-177599514D02*
X127357142Y-177885228D01*
X127357142Y-177885228D02*
X127357142Y-179456657D01*
X128785713Y-177456657D02*
X128785713Y-180456657D01*
X128785713Y-177599514D02*
X129071428Y-177456657D01*
X129071428Y-177456657D02*
X129642856Y-177456657D01*
X129642856Y-177456657D02*
X129928570Y-177599514D01*
X129928570Y-177599514D02*
X130071428Y-177742371D01*
X130071428Y-177742371D02*
X130214285Y-178028085D01*
X130214285Y-178028085D02*
X130214285Y-178885228D01*
X130214285Y-178885228D02*
X130071428Y-179170942D01*
X130071428Y-179170942D02*
X129928570Y-179313800D01*
X129928570Y-179313800D02*
X129642856Y-179456657D01*
X129642856Y-179456657D02*
X129071428Y-179456657D01*
X129071428Y-179456657D02*
X128785713Y-179313800D01*
X132785714Y-177456657D02*
X132785714Y-179456657D01*
X131499999Y-177456657D02*
X131499999Y-179028085D01*
X131499999Y-179028085D02*
X131642856Y-179313800D01*
X131642856Y-179313800D02*
X131928571Y-179456657D01*
X131928571Y-179456657D02*
X132357142Y-179456657D01*
X132357142Y-179456657D02*
X132642856Y-179313800D01*
X132642856Y-179313800D02*
X132785714Y-179170942D01*
X133785714Y-177456657D02*
X134928571Y-177456657D01*
X134214285Y-176456657D02*
X134214285Y-179028085D01*
X134214285Y-179028085D02*
X134357142Y-179313800D01*
X134357142Y-179313800D02*
X134642857Y-179456657D01*
X134642857Y-179456657D02*
X134928571Y-179456657D01*
X137071428Y-179313800D02*
X136785714Y-179456657D01*
X136785714Y-179456657D02*
X136214286Y-179456657D01*
X136214286Y-179456657D02*
X135928571Y-179313800D01*
X135928571Y-179313800D02*
X135785714Y-179028085D01*
X135785714Y-179028085D02*
X135785714Y-177885228D01*
X135785714Y-177885228D02*
X135928571Y-177599514D01*
X135928571Y-177599514D02*
X136214286Y-177456657D01*
X136214286Y-177456657D02*
X136785714Y-177456657D01*
X136785714Y-177456657D02*
X137071428Y-177599514D01*
X137071428Y-177599514D02*
X137214286Y-177885228D01*
X137214286Y-177885228D02*
X137214286Y-178170942D01*
X137214286Y-178170942D02*
X135785714Y-178456657D01*
X138500000Y-179456657D02*
X138500000Y-177456657D01*
X138500000Y-178028085D02*
X138642857Y-177742371D01*
X138642857Y-177742371D02*
X138785715Y-177599514D01*
X138785715Y-177599514D02*
X139071429Y-177456657D01*
X139071429Y-177456657D02*
X139357143Y-177456657D01*
X145071427Y-189456657D02*
X145071427Y-186456657D01*
X146785713Y-189456657D02*
X145499999Y-187742371D01*
X146785713Y-186456657D02*
X145071427Y-188170942D01*
X148499999Y-189456657D02*
X148214284Y-189313800D01*
X148214284Y-189313800D02*
X148071427Y-189028085D01*
X148071427Y-189028085D02*
X148071427Y-186456657D01*
X150928571Y-187456657D02*
X150928571Y-189456657D01*
X149642856Y-187456657D02*
X149642856Y-189028085D01*
X149642856Y-189028085D02*
X149785713Y-189313800D01*
X149785713Y-189313800D02*
X150071428Y-189456657D01*
X150071428Y-189456657D02*
X150499999Y-189456657D01*
X150499999Y-189456657D02*
X150785713Y-189313800D01*
X150785713Y-189313800D02*
X150928571Y-189170942D01*
X153642857Y-189456657D02*
X153642857Y-186456657D01*
X153642857Y-189313800D02*
X153357142Y-189456657D01*
X153357142Y-189456657D02*
X152785714Y-189456657D01*
X152785714Y-189456657D02*
X152499999Y-189313800D01*
X152499999Y-189313800D02*
X152357142Y-189170942D01*
X152357142Y-189170942D02*
X152214285Y-188885228D01*
X152214285Y-188885228D02*
X152214285Y-188028085D01*
X152214285Y-188028085D02*
X152357142Y-187742371D01*
X152357142Y-187742371D02*
X152499999Y-187599514D01*
X152499999Y-187599514D02*
X152785714Y-187456657D01*
X152785714Y-187456657D02*
X153357142Y-187456657D01*
X153357142Y-187456657D02*
X153642857Y-187599514D01*
X156357143Y-187456657D02*
X156357143Y-189885228D01*
X156357143Y-189885228D02*
X156214285Y-190170942D01*
X156214285Y-190170942D02*
X156071428Y-190313800D01*
X156071428Y-190313800D02*
X155785714Y-190456657D01*
X155785714Y-190456657D02*
X155357143Y-190456657D01*
X155357143Y-190456657D02*
X155071428Y-190313800D01*
X156357143Y-189313800D02*
X156071428Y-189456657D01*
X156071428Y-189456657D02*
X155500000Y-189456657D01*
X155500000Y-189456657D02*
X155214285Y-189313800D01*
X155214285Y-189313800D02*
X155071428Y-189170942D01*
X155071428Y-189170942D02*
X154928571Y-188885228D01*
X154928571Y-188885228D02*
X154928571Y-188028085D01*
X154928571Y-188028085D02*
X155071428Y-187742371D01*
X155071428Y-187742371D02*
X155214285Y-187599514D01*
X155214285Y-187599514D02*
X155500000Y-187456657D01*
X155500000Y-187456657D02*
X156071428Y-187456657D01*
X156071428Y-187456657D02*
X156357143Y-187599514D01*
X158928571Y-189313800D02*
X158642857Y-189456657D01*
X158642857Y-189456657D02*
X158071429Y-189456657D01*
X158071429Y-189456657D02*
X157785714Y-189313800D01*
X157785714Y-189313800D02*
X157642857Y-189028085D01*
X157642857Y-189028085D02*
X157642857Y-187885228D01*
X157642857Y-187885228D02*
X157785714Y-187599514D01*
X157785714Y-187599514D02*
X158071429Y-187456657D01*
X158071429Y-187456657D02*
X158642857Y-187456657D01*
X158642857Y-187456657D02*
X158928571Y-187599514D01*
X158928571Y-187599514D02*
X159071429Y-187885228D01*
X159071429Y-187885228D02*
X159071429Y-188170942D01*
X159071429Y-188170942D02*
X157642857Y-188456657D01*
X160357143Y-189170942D02*
X160500000Y-189313800D01*
X160500000Y-189313800D02*
X160357143Y-189456657D01*
X160357143Y-189456657D02*
X160214286Y-189313800D01*
X160214286Y-189313800D02*
X160357143Y-189170942D01*
X160357143Y-189170942D02*
X160357143Y-189456657D01*
X161642857Y-186742371D02*
X161785714Y-186599514D01*
X161785714Y-186599514D02*
X162071429Y-186456657D01*
X162071429Y-186456657D02*
X162785714Y-186456657D01*
X162785714Y-186456657D02*
X163071429Y-186599514D01*
X163071429Y-186599514D02*
X163214286Y-186742371D01*
X163214286Y-186742371D02*
X163357143Y-187028085D01*
X163357143Y-187028085D02*
X163357143Y-187313800D01*
X163357143Y-187313800D02*
X163214286Y-187742371D01*
X163214286Y-187742371D02*
X161500000Y-189456657D01*
X161500000Y-189456657D02*
X163357143Y-189456657D01*
X164642857Y-189456657D02*
X164642857Y-187456657D01*
X164642857Y-188028085D02*
X164785714Y-187742371D01*
X164785714Y-187742371D02*
X164928572Y-187599514D01*
X164928572Y-187599514D02*
X165214286Y-187456657D01*
X165214286Y-187456657D02*
X165500000Y-187456657D01*
X166357143Y-186742371D02*
X166500000Y-186599514D01*
X166500000Y-186599514D02*
X166785715Y-186456657D01*
X166785715Y-186456657D02*
X167500000Y-186456657D01*
X167500000Y-186456657D02*
X167785715Y-186599514D01*
X167785715Y-186599514D02*
X167928572Y-186742371D01*
X167928572Y-186742371D02*
X168071429Y-187028085D01*
X168071429Y-187028085D02*
X168071429Y-187313800D01*
X168071429Y-187313800D02*
X167928572Y-187742371D01*
X167928572Y-187742371D02*
X166214286Y-189456657D01*
X166214286Y-189456657D02*
X168071429Y-189456657D01*
D11*
X199471428Y-193938638D02*
X198328571Y-193938638D01*
X198899999Y-193938638D02*
X198899999Y-191938638D01*
X198899999Y-191938638D02*
X198709523Y-192224352D01*
X198709523Y-192224352D02*
X198519047Y-192414828D01*
X198519047Y-192414828D02*
X198328571Y-192510066D01*
X200233333Y-192129114D02*
X200328571Y-192033876D01*
X200328571Y-192033876D02*
X200519047Y-191938638D01*
X200519047Y-191938638D02*
X200995238Y-191938638D01*
X200995238Y-191938638D02*
X201185714Y-192033876D01*
X201185714Y-192033876D02*
X201280952Y-192129114D01*
X201280952Y-192129114D02*
X201376190Y-192319590D01*
X201376190Y-192319590D02*
X201376190Y-192510066D01*
X201376190Y-192510066D02*
X201280952Y-192795780D01*
X201280952Y-192795780D02*
X200138095Y-193938638D01*
X200138095Y-193938638D02*
X201376190Y-193938638D01*
X201947619Y-191938638D02*
X202614285Y-193938638D01*
X202614285Y-193938638D02*
X203280952Y-191938638D01*
X205471429Y-193938638D02*
X205471429Y-191938638D01*
X205471429Y-191938638D02*
X206233334Y-191938638D01*
X206233334Y-191938638D02*
X206423810Y-192033876D01*
X206423810Y-192033876D02*
X206519048Y-192129114D01*
X206519048Y-192129114D02*
X206614286Y-192319590D01*
X206614286Y-192319590D02*
X206614286Y-192605304D01*
X206614286Y-192605304D02*
X206519048Y-192795780D01*
X206519048Y-192795780D02*
X206423810Y-192891019D01*
X206423810Y-192891019D02*
X206233334Y-192986257D01*
X206233334Y-192986257D02*
X205471429Y-192986257D01*
X207757143Y-193938638D02*
X207566667Y-193843400D01*
X207566667Y-193843400D02*
X207471429Y-193748161D01*
X207471429Y-193748161D02*
X207376191Y-193557685D01*
X207376191Y-193557685D02*
X207376191Y-192986257D01*
X207376191Y-192986257D02*
X207471429Y-192795780D01*
X207471429Y-192795780D02*
X207566667Y-192700542D01*
X207566667Y-192700542D02*
X207757143Y-192605304D01*
X207757143Y-192605304D02*
X208042858Y-192605304D01*
X208042858Y-192605304D02*
X208233334Y-192700542D01*
X208233334Y-192700542D02*
X208328572Y-192795780D01*
X208328572Y-192795780D02*
X208423810Y-192986257D01*
X208423810Y-192986257D02*
X208423810Y-193557685D01*
X208423810Y-193557685D02*
X208328572Y-193748161D01*
X208328572Y-193748161D02*
X208233334Y-193843400D01*
X208233334Y-193843400D02*
X208042858Y-193938638D01*
X208042858Y-193938638D02*
X207757143Y-193938638D01*
X209090477Y-192605304D02*
X209471429Y-193938638D01*
X209471429Y-193938638D02*
X209852382Y-192986257D01*
X209852382Y-192986257D02*
X210233334Y-193938638D01*
X210233334Y-193938638D02*
X210614286Y-192605304D01*
X212138096Y-193843400D02*
X211947620Y-193938638D01*
X211947620Y-193938638D02*
X211566667Y-193938638D01*
X211566667Y-193938638D02*
X211376191Y-193843400D01*
X211376191Y-193843400D02*
X211280953Y-193652923D01*
X211280953Y-193652923D02*
X211280953Y-192891019D01*
X211280953Y-192891019D02*
X211376191Y-192700542D01*
X211376191Y-192700542D02*
X211566667Y-192605304D01*
X211566667Y-192605304D02*
X211947620Y-192605304D01*
X211947620Y-192605304D02*
X212138096Y-192700542D01*
X212138096Y-192700542D02*
X212233334Y-192891019D01*
X212233334Y-192891019D02*
X212233334Y-193081495D01*
X212233334Y-193081495D02*
X211280953Y-193271971D01*
X213090477Y-193938638D02*
X213090477Y-192605304D01*
X213090477Y-192986257D02*
X213185715Y-192795780D01*
X213185715Y-192795780D02*
X213280953Y-192700542D01*
X213280953Y-192700542D02*
X213471429Y-192605304D01*
X213471429Y-192605304D02*
X213661906Y-192605304D01*
X162435717Y-226878328D02*
X162721431Y-226878328D01*
X162721431Y-226878328D02*
X162864288Y-226806900D01*
X162864288Y-226806900D02*
X162935717Y-226735471D01*
X162935717Y-226735471D02*
X163078574Y-226521185D01*
X163078574Y-226521185D02*
X163150003Y-226235471D01*
X163150003Y-226235471D02*
X163150003Y-225664042D01*
X163150003Y-225664042D02*
X163078574Y-225521185D01*
X163078574Y-225521185D02*
X163007146Y-225449757D01*
X163007146Y-225449757D02*
X162864288Y-225378328D01*
X162864288Y-225378328D02*
X162578574Y-225378328D01*
X162578574Y-225378328D02*
X162435717Y-225449757D01*
X162435717Y-225449757D02*
X162364288Y-225521185D01*
X162364288Y-225521185D02*
X162292860Y-225664042D01*
X162292860Y-225664042D02*
X162292860Y-226021185D01*
X162292860Y-226021185D02*
X162364288Y-226164042D01*
X162364288Y-226164042D02*
X162435717Y-226235471D01*
X162435717Y-226235471D02*
X162578574Y-226306900D01*
X162578574Y-226306900D02*
X162864288Y-226306900D01*
X162864288Y-226306900D02*
X163007146Y-226235471D01*
X163007146Y-226235471D02*
X163078574Y-226164042D01*
X163078574Y-226164042D02*
X163150003Y-226021185D01*
X164578574Y-226878328D02*
X163721431Y-226878328D01*
X164150002Y-226878328D02*
X164150002Y-225378328D01*
X164150002Y-225378328D02*
X164007145Y-225592614D01*
X164007145Y-225592614D02*
X163864288Y-225735471D01*
X163864288Y-225735471D02*
X163721431Y-225806900D01*
X165078573Y-225378328D02*
X166007145Y-225378328D01*
X166007145Y-225378328D02*
X165507145Y-225949757D01*
X165507145Y-225949757D02*
X165721430Y-225949757D01*
X165721430Y-225949757D02*
X165864288Y-226021185D01*
X165864288Y-226021185D02*
X165935716Y-226092614D01*
X165935716Y-226092614D02*
X166007145Y-226235471D01*
X166007145Y-226235471D02*
X166007145Y-226592614D01*
X166007145Y-226592614D02*
X165935716Y-226735471D01*
X165935716Y-226735471D02*
X165864288Y-226806900D01*
X165864288Y-226806900D02*
X165721430Y-226878328D01*
X165721430Y-226878328D02*
X165292859Y-226878328D01*
X165292859Y-226878328D02*
X165150002Y-226806900D01*
X165150002Y-226806900D02*
X165078573Y-226735471D01*
X166650001Y-226306900D02*
X167792859Y-226306900D01*
X168792859Y-225378328D02*
X168935716Y-225378328D01*
X168935716Y-225378328D02*
X169078573Y-225449757D01*
X169078573Y-225449757D02*
X169150002Y-225521185D01*
X169150002Y-225521185D02*
X169221430Y-225664042D01*
X169221430Y-225664042D02*
X169292859Y-225949757D01*
X169292859Y-225949757D02*
X169292859Y-226306900D01*
X169292859Y-226306900D02*
X169221430Y-226592614D01*
X169221430Y-226592614D02*
X169150002Y-226735471D01*
X169150002Y-226735471D02*
X169078573Y-226806900D01*
X169078573Y-226806900D02*
X168935716Y-226878328D01*
X168935716Y-226878328D02*
X168792859Y-226878328D01*
X168792859Y-226878328D02*
X168650002Y-226806900D01*
X168650002Y-226806900D02*
X168578573Y-226735471D01*
X168578573Y-226735471D02*
X168507144Y-226592614D01*
X168507144Y-226592614D02*
X168435716Y-226306900D01*
X168435716Y-226306900D02*
X168435716Y-225949757D01*
X168435716Y-225949757D02*
X168507144Y-225664042D01*
X168507144Y-225664042D02*
X168578573Y-225521185D01*
X168578573Y-225521185D02*
X168650002Y-225449757D01*
X168650002Y-225449757D02*
X168792859Y-225378328D01*
X170221430Y-225378328D02*
X170364287Y-225378328D01*
X170364287Y-225378328D02*
X170507144Y-225449757D01*
X170507144Y-225449757D02*
X170578573Y-225521185D01*
X170578573Y-225521185D02*
X170650001Y-225664042D01*
X170650001Y-225664042D02*
X170721430Y-225949757D01*
X170721430Y-225949757D02*
X170721430Y-226306900D01*
X170721430Y-226306900D02*
X170650001Y-226592614D01*
X170650001Y-226592614D02*
X170578573Y-226735471D01*
X170578573Y-226735471D02*
X170507144Y-226806900D01*
X170507144Y-226806900D02*
X170364287Y-226878328D01*
X170364287Y-226878328D02*
X170221430Y-226878328D01*
X170221430Y-226878328D02*
X170078573Y-226806900D01*
X170078573Y-226806900D02*
X170007144Y-226735471D01*
X170007144Y-226735471D02*
X169935715Y-226592614D01*
X169935715Y-226592614D02*
X169864287Y-226306900D01*
X169864287Y-226306900D02*
X169864287Y-225949757D01*
X169864287Y-225949757D02*
X169935715Y-225664042D01*
X169935715Y-225664042D02*
X170007144Y-225521185D01*
X170007144Y-225521185D02*
X170078573Y-225449757D01*
X170078573Y-225449757D02*
X170221430Y-225378328D01*
X171650001Y-225378328D02*
X171792858Y-225378328D01*
X171792858Y-225378328D02*
X171935715Y-225449757D01*
X171935715Y-225449757D02*
X172007144Y-225521185D01*
X172007144Y-225521185D02*
X172078572Y-225664042D01*
X172078572Y-225664042D02*
X172150001Y-225949757D01*
X172150001Y-225949757D02*
X172150001Y-226306900D01*
X172150001Y-226306900D02*
X172078572Y-226592614D01*
X172078572Y-226592614D02*
X172007144Y-226735471D01*
X172007144Y-226735471D02*
X171935715Y-226806900D01*
X171935715Y-226806900D02*
X171792858Y-226878328D01*
X171792858Y-226878328D02*
X171650001Y-226878328D01*
X171650001Y-226878328D02*
X171507144Y-226806900D01*
X171507144Y-226806900D02*
X171435715Y-226735471D01*
X171435715Y-226735471D02*
X171364286Y-226592614D01*
X171364286Y-226592614D02*
X171292858Y-226306900D01*
X171292858Y-226306900D02*
X171292858Y-225949757D01*
X171292858Y-225949757D02*
X171364286Y-225664042D01*
X171364286Y-225664042D02*
X171435715Y-225521185D01*
X171435715Y-225521185D02*
X171507144Y-225449757D01*
X171507144Y-225449757D02*
X171650001Y-225378328D01*
X173078572Y-225378328D02*
X173221429Y-225378328D01*
X173221429Y-225378328D02*
X173364286Y-225449757D01*
X173364286Y-225449757D02*
X173435715Y-225521185D01*
X173435715Y-225521185D02*
X173507143Y-225664042D01*
X173507143Y-225664042D02*
X173578572Y-225949757D01*
X173578572Y-225949757D02*
X173578572Y-226306900D01*
X173578572Y-226306900D02*
X173507143Y-226592614D01*
X173507143Y-226592614D02*
X173435715Y-226735471D01*
X173435715Y-226735471D02*
X173364286Y-226806900D01*
X173364286Y-226806900D02*
X173221429Y-226878328D01*
X173221429Y-226878328D02*
X173078572Y-226878328D01*
X173078572Y-226878328D02*
X172935715Y-226806900D01*
X172935715Y-226806900D02*
X172864286Y-226735471D01*
X172864286Y-226735471D02*
X172792857Y-226592614D01*
X172792857Y-226592614D02*
X172721429Y-226306900D01*
X172721429Y-226306900D02*
X172721429Y-225949757D01*
X172721429Y-225949757D02*
X172792857Y-225664042D01*
X172792857Y-225664042D02*
X172864286Y-225521185D01*
X172864286Y-225521185D02*
X172935715Y-225449757D01*
X172935715Y-225449757D02*
X173078572Y-225378328D01*
X175007143Y-226878328D02*
X174150000Y-226878328D01*
X174578571Y-226878328D02*
X174578571Y-225378328D01*
X174578571Y-225378328D02*
X174435714Y-225592614D01*
X174435714Y-225592614D02*
X174292857Y-225735471D01*
X174292857Y-225735471D02*
X174150000Y-225806900D01*
X176435714Y-226878328D02*
X175578571Y-226878328D01*
X176007142Y-226878328D02*
X176007142Y-225378328D01*
X176007142Y-225378328D02*
X175864285Y-225592614D01*
X175864285Y-225592614D02*
X175721428Y-225735471D01*
X175721428Y-225735471D02*
X175578571Y-225806900D01*
X177721428Y-225878328D02*
X177721428Y-226878328D01*
X177364285Y-225306900D02*
X177007142Y-226378328D01*
X177007142Y-226378328D02*
X177935713Y-226378328D01*
X180507141Y-226878328D02*
X180007141Y-226164042D01*
X179649998Y-226878328D02*
X179649998Y-225378328D01*
X179649998Y-225378328D02*
X180221427Y-225378328D01*
X180221427Y-225378328D02*
X180364284Y-225449757D01*
X180364284Y-225449757D02*
X180435713Y-225521185D01*
X180435713Y-225521185D02*
X180507141Y-225664042D01*
X180507141Y-225664042D02*
X180507141Y-225878328D01*
X180507141Y-225878328D02*
X180435713Y-226021185D01*
X180435713Y-226021185D02*
X180364284Y-226092614D01*
X180364284Y-226092614D02*
X180221427Y-226164042D01*
X180221427Y-226164042D02*
X179649998Y-226164042D01*
X181721427Y-226806900D02*
X181578570Y-226878328D01*
X181578570Y-226878328D02*
X181292856Y-226878328D01*
X181292856Y-226878328D02*
X181149998Y-226806900D01*
X181149998Y-226806900D02*
X181078570Y-226664042D01*
X181078570Y-226664042D02*
X181078570Y-226092614D01*
X181078570Y-226092614D02*
X181149998Y-225949757D01*
X181149998Y-225949757D02*
X181292856Y-225878328D01*
X181292856Y-225878328D02*
X181578570Y-225878328D01*
X181578570Y-225878328D02*
X181721427Y-225949757D01*
X181721427Y-225949757D02*
X181792856Y-226092614D01*
X181792856Y-226092614D02*
X181792856Y-226235471D01*
X181792856Y-226235471D02*
X181078570Y-226378328D01*
X182292855Y-225878328D02*
X182649998Y-226878328D01*
X182649998Y-226878328D02*
X183007141Y-225878328D01*
X185507141Y-226878328D02*
X184649998Y-226878328D01*
X185078569Y-226878328D02*
X185078569Y-225378328D01*
X185078569Y-225378328D02*
X184935712Y-225592614D01*
X184935712Y-225592614D02*
X184792855Y-225735471D01*
X184792855Y-225735471D02*
X184649998Y-225806900D01*
D13*
X107313333Y-200983819D02*
X106980000Y-200507628D01*
X106741905Y-200983819D02*
X106741905Y-199983819D01*
X106741905Y-199983819D02*
X107122857Y-199983819D01*
X107122857Y-199983819D02*
X107218095Y-200031438D01*
X107218095Y-200031438D02*
X107265714Y-200079057D01*
X107265714Y-200079057D02*
X107313333Y-200174295D01*
X107313333Y-200174295D02*
X107313333Y-200317152D01*
X107313333Y-200317152D02*
X107265714Y-200412390D01*
X107265714Y-200412390D02*
X107218095Y-200460009D01*
X107218095Y-200460009D02*
X107122857Y-200507628D01*
X107122857Y-200507628D02*
X106741905Y-200507628D01*
X107646667Y-199983819D02*
X108313333Y-199983819D01*
X108313333Y-199983819D02*
X107884762Y-200983819D01*
X105993333Y-204453819D02*
X105660000Y-203977628D01*
X105421905Y-204453819D02*
X105421905Y-203453819D01*
X105421905Y-203453819D02*
X105802857Y-203453819D01*
X105802857Y-203453819D02*
X105898095Y-203501438D01*
X105898095Y-203501438D02*
X105945714Y-203549057D01*
X105945714Y-203549057D02*
X105993333Y-203644295D01*
X105993333Y-203644295D02*
X105993333Y-203787152D01*
X105993333Y-203787152D02*
X105945714Y-203882390D01*
X105945714Y-203882390D02*
X105898095Y-203930009D01*
X105898095Y-203930009D02*
X105802857Y-203977628D01*
X105802857Y-203977628D02*
X105421905Y-203977628D01*
X106850476Y-203453819D02*
X106660000Y-203453819D01*
X106660000Y-203453819D02*
X106564762Y-203501438D01*
X106564762Y-203501438D02*
X106517143Y-203549057D01*
X106517143Y-203549057D02*
X106421905Y-203691914D01*
X106421905Y-203691914D02*
X106374286Y-203882390D01*
X106374286Y-203882390D02*
X106374286Y-204263342D01*
X106374286Y-204263342D02*
X106421905Y-204358580D01*
X106421905Y-204358580D02*
X106469524Y-204406200D01*
X106469524Y-204406200D02*
X106564762Y-204453819D01*
X106564762Y-204453819D02*
X106755238Y-204453819D01*
X106755238Y-204453819D02*
X106850476Y-204406200D01*
X106850476Y-204406200D02*
X106898095Y-204358580D01*
X106898095Y-204358580D02*
X106945714Y-204263342D01*
X106945714Y-204263342D02*
X106945714Y-204025247D01*
X106945714Y-204025247D02*
X106898095Y-203930009D01*
X106898095Y-203930009D02*
X106850476Y-203882390D01*
X106850476Y-203882390D02*
X106755238Y-203834771D01*
X106755238Y-203834771D02*
X106564762Y-203834771D01*
X106564762Y-203834771D02*
X106469524Y-203882390D01*
X106469524Y-203882390D02*
X106421905Y-203930009D01*
X106421905Y-203930009D02*
X106374286Y-204025247D01*
X220661905Y-195983819D02*
X220661905Y-194983819D01*
X220661905Y-194983819D02*
X220900000Y-194983819D01*
X220900000Y-194983819D02*
X221042857Y-195031438D01*
X221042857Y-195031438D02*
X221138095Y-195126676D01*
X221138095Y-195126676D02*
X221185714Y-195221914D01*
X221185714Y-195221914D02*
X221233333Y-195412390D01*
X221233333Y-195412390D02*
X221233333Y-195555247D01*
X221233333Y-195555247D02*
X221185714Y-195745723D01*
X221185714Y-195745723D02*
X221138095Y-195840961D01*
X221138095Y-195840961D02*
X221042857Y-195936200D01*
X221042857Y-195936200D02*
X220900000Y-195983819D01*
X220900000Y-195983819D02*
X220661905Y-195983819D01*
X222185714Y-195983819D02*
X221614286Y-195983819D01*
X221900000Y-195983819D02*
X221900000Y-194983819D01*
X221900000Y-194983819D02*
X221804762Y-195126676D01*
X221804762Y-195126676D02*
X221709524Y-195221914D01*
X221709524Y-195221914D02*
X221614286Y-195269533D01*
X220661905Y-188483819D02*
X220661905Y-187483819D01*
X220661905Y-187483819D02*
X220900000Y-187483819D01*
X220900000Y-187483819D02*
X221042857Y-187531438D01*
X221042857Y-187531438D02*
X221138095Y-187626676D01*
X221138095Y-187626676D02*
X221185714Y-187721914D01*
X221185714Y-187721914D02*
X221233333Y-187912390D01*
X221233333Y-187912390D02*
X221233333Y-188055247D01*
X221233333Y-188055247D02*
X221185714Y-188245723D01*
X221185714Y-188245723D02*
X221138095Y-188340961D01*
X221138095Y-188340961D02*
X221042857Y-188436200D01*
X221042857Y-188436200D02*
X220900000Y-188483819D01*
X220900000Y-188483819D02*
X220661905Y-188483819D01*
X221614286Y-187579057D02*
X221661905Y-187531438D01*
X221661905Y-187531438D02*
X221757143Y-187483819D01*
X221757143Y-187483819D02*
X221995238Y-187483819D01*
X221995238Y-187483819D02*
X222090476Y-187531438D01*
X222090476Y-187531438D02*
X222138095Y-187579057D01*
X222138095Y-187579057D02*
X222185714Y-187674295D01*
X222185714Y-187674295D02*
X222185714Y-187769533D01*
X222185714Y-187769533D02*
X222138095Y-187912390D01*
X222138095Y-187912390D02*
X221566667Y-188483819D01*
X221566667Y-188483819D02*
X222185714Y-188483819D01*
X216733333Y-195983819D02*
X216400000Y-195507628D01*
X216161905Y-195983819D02*
X216161905Y-194983819D01*
X216161905Y-194983819D02*
X216542857Y-194983819D01*
X216542857Y-194983819D02*
X216638095Y-195031438D01*
X216638095Y-195031438D02*
X216685714Y-195079057D01*
X216685714Y-195079057D02*
X216733333Y-195174295D01*
X216733333Y-195174295D02*
X216733333Y-195317152D01*
X216733333Y-195317152D02*
X216685714Y-195412390D01*
X216685714Y-195412390D02*
X216638095Y-195460009D01*
X216638095Y-195460009D02*
X216542857Y-195507628D01*
X216542857Y-195507628D02*
X216161905Y-195507628D01*
X217304762Y-195412390D02*
X217209524Y-195364771D01*
X217209524Y-195364771D02*
X217161905Y-195317152D01*
X217161905Y-195317152D02*
X217114286Y-195221914D01*
X217114286Y-195221914D02*
X217114286Y-195174295D01*
X217114286Y-195174295D02*
X217161905Y-195079057D01*
X217161905Y-195079057D02*
X217209524Y-195031438D01*
X217209524Y-195031438D02*
X217304762Y-194983819D01*
X217304762Y-194983819D02*
X217495238Y-194983819D01*
X217495238Y-194983819D02*
X217590476Y-195031438D01*
X217590476Y-195031438D02*
X217638095Y-195079057D01*
X217638095Y-195079057D02*
X217685714Y-195174295D01*
X217685714Y-195174295D02*
X217685714Y-195221914D01*
X217685714Y-195221914D02*
X217638095Y-195317152D01*
X217638095Y-195317152D02*
X217590476Y-195364771D01*
X217590476Y-195364771D02*
X217495238Y-195412390D01*
X217495238Y-195412390D02*
X217304762Y-195412390D01*
X217304762Y-195412390D02*
X217209524Y-195460009D01*
X217209524Y-195460009D02*
X217161905Y-195507628D01*
X217161905Y-195507628D02*
X217114286Y-195602866D01*
X217114286Y-195602866D02*
X217114286Y-195793342D01*
X217114286Y-195793342D02*
X217161905Y-195888580D01*
X217161905Y-195888580D02*
X217209524Y-195936200D01*
X217209524Y-195936200D02*
X217304762Y-195983819D01*
X217304762Y-195983819D02*
X217495238Y-195983819D01*
X217495238Y-195983819D02*
X217590476Y-195936200D01*
X217590476Y-195936200D02*
X217638095Y-195888580D01*
X217638095Y-195888580D02*
X217685714Y-195793342D01*
X217685714Y-195793342D02*
X217685714Y-195602866D01*
X217685714Y-195602866D02*
X217638095Y-195507628D01*
X217638095Y-195507628D02*
X217590476Y-195460009D01*
X217590476Y-195460009D02*
X217495238Y-195412390D01*
X279306666Y-223014819D02*
X279306666Y-223729104D01*
X279306666Y-223729104D02*
X279259047Y-223871961D01*
X279259047Y-223871961D02*
X279163809Y-223967200D01*
X279163809Y-223967200D02*
X279020952Y-224014819D01*
X279020952Y-224014819D02*
X278925714Y-224014819D01*
X280306666Y-224014819D02*
X279735238Y-224014819D01*
X280020952Y-224014819D02*
X280020952Y-223014819D01*
X280020952Y-223014819D02*
X279925714Y-223157676D01*
X279925714Y-223157676D02*
X279830476Y-223252914D01*
X279830476Y-223252914D02*
X279735238Y-223300533D01*
X216733333Y-188483819D02*
X216400000Y-188007628D01*
X216161905Y-188483819D02*
X216161905Y-187483819D01*
X216161905Y-187483819D02*
X216542857Y-187483819D01*
X216542857Y-187483819D02*
X216638095Y-187531438D01*
X216638095Y-187531438D02*
X216685714Y-187579057D01*
X216685714Y-187579057D02*
X216733333Y-187674295D01*
X216733333Y-187674295D02*
X216733333Y-187817152D01*
X216733333Y-187817152D02*
X216685714Y-187912390D01*
X216685714Y-187912390D02*
X216638095Y-187960009D01*
X216638095Y-187960009D02*
X216542857Y-188007628D01*
X216542857Y-188007628D02*
X216161905Y-188007628D01*
X217209524Y-188483819D02*
X217400000Y-188483819D01*
X217400000Y-188483819D02*
X217495238Y-188436200D01*
X217495238Y-188436200D02*
X217542857Y-188388580D01*
X217542857Y-188388580D02*
X217638095Y-188245723D01*
X217638095Y-188245723D02*
X217685714Y-188055247D01*
X217685714Y-188055247D02*
X217685714Y-187674295D01*
X217685714Y-187674295D02*
X217638095Y-187579057D01*
X217638095Y-187579057D02*
X217590476Y-187531438D01*
X217590476Y-187531438D02*
X217495238Y-187483819D01*
X217495238Y-187483819D02*
X217304762Y-187483819D01*
X217304762Y-187483819D02*
X217209524Y-187531438D01*
X217209524Y-187531438D02*
X217161905Y-187579057D01*
X217161905Y-187579057D02*
X217114286Y-187674295D01*
X217114286Y-187674295D02*
X217114286Y-187912390D01*
X217114286Y-187912390D02*
X217161905Y-188007628D01*
X217161905Y-188007628D02*
X217209524Y-188055247D01*
X217209524Y-188055247D02*
X217304762Y-188102866D01*
X217304762Y-188102866D02*
X217495238Y-188102866D01*
X217495238Y-188102866D02*
X217590476Y-188055247D01*
X217590476Y-188055247D02*
X217638095Y-188007628D01*
X217638095Y-188007628D02*
X217685714Y-187912390D01*
X107687142Y-212083819D02*
X107353809Y-211607628D01*
X107115714Y-212083819D02*
X107115714Y-211083819D01*
X107115714Y-211083819D02*
X107496666Y-211083819D01*
X107496666Y-211083819D02*
X107591904Y-211131438D01*
X107591904Y-211131438D02*
X107639523Y-211179057D01*
X107639523Y-211179057D02*
X107687142Y-211274295D01*
X107687142Y-211274295D02*
X107687142Y-211417152D01*
X107687142Y-211417152D02*
X107639523Y-211512390D01*
X107639523Y-211512390D02*
X107591904Y-211560009D01*
X107591904Y-211560009D02*
X107496666Y-211607628D01*
X107496666Y-211607628D02*
X107115714Y-211607628D01*
X108639523Y-212083819D02*
X108068095Y-212083819D01*
X108353809Y-212083819D02*
X108353809Y-211083819D01*
X108353809Y-211083819D02*
X108258571Y-211226676D01*
X108258571Y-211226676D02*
X108163333Y-211321914D01*
X108163333Y-211321914D02*
X108068095Y-211369533D01*
X109258571Y-211083819D02*
X109353809Y-211083819D01*
X109353809Y-211083819D02*
X109449047Y-211131438D01*
X109449047Y-211131438D02*
X109496666Y-211179057D01*
X109496666Y-211179057D02*
X109544285Y-211274295D01*
X109544285Y-211274295D02*
X109591904Y-211464771D01*
X109591904Y-211464771D02*
X109591904Y-211702866D01*
X109591904Y-211702866D02*
X109544285Y-211893342D01*
X109544285Y-211893342D02*
X109496666Y-211988580D01*
X109496666Y-211988580D02*
X109449047Y-212036200D01*
X109449047Y-212036200D02*
X109353809Y-212083819D01*
X109353809Y-212083819D02*
X109258571Y-212083819D01*
X109258571Y-212083819D02*
X109163333Y-212036200D01*
X109163333Y-212036200D02*
X109115714Y-211988580D01*
X109115714Y-211988580D02*
X109068095Y-211893342D01*
X109068095Y-211893342D02*
X109020476Y-211702866D01*
X109020476Y-211702866D02*
X109020476Y-211464771D01*
X109020476Y-211464771D02*
X109068095Y-211274295D01*
X109068095Y-211274295D02*
X109115714Y-211179057D01*
X109115714Y-211179057D02*
X109163333Y-211131438D01*
X109163333Y-211131438D02*
X109258571Y-211083819D01*
X107577142Y-217573819D02*
X107243809Y-217097628D01*
X107005714Y-217573819D02*
X107005714Y-216573819D01*
X107005714Y-216573819D02*
X107386666Y-216573819D01*
X107386666Y-216573819D02*
X107481904Y-216621438D01*
X107481904Y-216621438D02*
X107529523Y-216669057D01*
X107529523Y-216669057D02*
X107577142Y-216764295D01*
X107577142Y-216764295D02*
X107577142Y-216907152D01*
X107577142Y-216907152D02*
X107529523Y-217002390D01*
X107529523Y-217002390D02*
X107481904Y-217050009D01*
X107481904Y-217050009D02*
X107386666Y-217097628D01*
X107386666Y-217097628D02*
X107005714Y-217097628D01*
X108529523Y-217573819D02*
X107958095Y-217573819D01*
X108243809Y-217573819D02*
X108243809Y-216573819D01*
X108243809Y-216573819D02*
X108148571Y-216716676D01*
X108148571Y-216716676D02*
X108053333Y-216811914D01*
X108053333Y-216811914D02*
X107958095Y-216859533D01*
X109481904Y-217573819D02*
X108910476Y-217573819D01*
X109196190Y-217573819D02*
X109196190Y-216573819D01*
X109196190Y-216573819D02*
X109100952Y-216716676D01*
X109100952Y-216716676D02*
X109005714Y-216811914D01*
X109005714Y-216811914D02*
X108910476Y-216859533D01*
X106023333Y-206303819D02*
X105690000Y-205827628D01*
X105451905Y-206303819D02*
X105451905Y-205303819D01*
X105451905Y-205303819D02*
X105832857Y-205303819D01*
X105832857Y-205303819D02*
X105928095Y-205351438D01*
X105928095Y-205351438D02*
X105975714Y-205399057D01*
X105975714Y-205399057D02*
X106023333Y-205494295D01*
X106023333Y-205494295D02*
X106023333Y-205637152D01*
X106023333Y-205637152D02*
X105975714Y-205732390D01*
X105975714Y-205732390D02*
X105928095Y-205780009D01*
X105928095Y-205780009D02*
X105832857Y-205827628D01*
X105832857Y-205827628D02*
X105451905Y-205827628D01*
X106928095Y-205303819D02*
X106451905Y-205303819D01*
X106451905Y-205303819D02*
X106404286Y-205780009D01*
X106404286Y-205780009D02*
X106451905Y-205732390D01*
X106451905Y-205732390D02*
X106547143Y-205684771D01*
X106547143Y-205684771D02*
X106785238Y-205684771D01*
X106785238Y-205684771D02*
X106880476Y-205732390D01*
X106880476Y-205732390D02*
X106928095Y-205780009D01*
X106928095Y-205780009D02*
X106975714Y-205875247D01*
X106975714Y-205875247D02*
X106975714Y-206113342D01*
X106975714Y-206113342D02*
X106928095Y-206208580D01*
X106928095Y-206208580D02*
X106880476Y-206256200D01*
X106880476Y-206256200D02*
X106785238Y-206303819D01*
X106785238Y-206303819D02*
X106547143Y-206303819D01*
X106547143Y-206303819D02*
X106451905Y-206256200D01*
X106451905Y-206256200D02*
X106404286Y-206208580D01*
X103346666Y-225743819D02*
X103346666Y-226458104D01*
X103346666Y-226458104D02*
X103299047Y-226600961D01*
X103299047Y-226600961D02*
X103203809Y-226696200D01*
X103203809Y-226696200D02*
X103060952Y-226743819D01*
X103060952Y-226743819D02*
X102965714Y-226743819D01*
X103775238Y-225839057D02*
X103822857Y-225791438D01*
X103822857Y-225791438D02*
X103918095Y-225743819D01*
X103918095Y-225743819D02*
X104156190Y-225743819D01*
X104156190Y-225743819D02*
X104251428Y-225791438D01*
X104251428Y-225791438D02*
X104299047Y-225839057D01*
X104299047Y-225839057D02*
X104346666Y-225934295D01*
X104346666Y-225934295D02*
X104346666Y-226029533D01*
X104346666Y-226029533D02*
X104299047Y-226172390D01*
X104299047Y-226172390D02*
X103727619Y-226743819D01*
X103727619Y-226743819D02*
X104346666Y-226743819D01*
D14*
G04 #@! TO.C,R7*
X107312258Y-201506500D02*
X106837742Y-201506500D01*
X107312258Y-202551500D02*
X106837742Y-202551500D01*
D15*
G04 #@! TO.C,G\u002A\u002A\u002A*
G36*
X170691502Y-170268054D02*
G01*
X170762115Y-170268057D01*
X170929012Y-170268054D01*
X171076024Y-170268091D01*
X171204449Y-170268235D01*
X171315588Y-170268552D01*
X171410739Y-170269109D01*
X171491201Y-170269973D01*
X171558272Y-170271212D01*
X171613254Y-170272891D01*
X171657443Y-170275078D01*
X171692140Y-170277840D01*
X171718644Y-170281244D01*
X171738252Y-170285356D01*
X171752266Y-170290244D01*
X171761983Y-170295973D01*
X171768704Y-170302613D01*
X171773726Y-170310228D01*
X171778349Y-170318886D01*
X171779169Y-170320431D01*
X171781347Y-170335310D01*
X171783283Y-170371335D01*
X171784978Y-170428465D01*
X171786431Y-170506665D01*
X171787641Y-170605895D01*
X171788609Y-170726118D01*
X171789333Y-170867295D01*
X171789813Y-171029388D01*
X171790049Y-171212360D01*
X171790075Y-171304580D01*
X171790075Y-172268350D01*
X171762654Y-172300939D01*
X171735232Y-172333528D01*
X169789339Y-172333528D01*
X169759619Y-172307967D01*
X169729900Y-172282406D01*
X169727076Y-171320248D01*
X169726631Y-171137842D01*
X169726433Y-170975935D01*
X169726488Y-170833845D01*
X169726803Y-170710890D01*
X169727383Y-170606385D01*
X169728235Y-170519649D01*
X169729364Y-170449998D01*
X169730777Y-170396748D01*
X169732481Y-170359218D01*
X169734480Y-170336724D01*
X169735997Y-170329705D01*
X169740151Y-170319357D01*
X169744377Y-170310235D01*
X169749962Y-170302263D01*
X169758193Y-170295363D01*
X169770356Y-170289458D01*
X169787739Y-170284471D01*
X169811629Y-170280323D01*
X169843312Y-170276939D01*
X169884076Y-170274240D01*
X169935207Y-170272150D01*
X169997992Y-170270590D01*
X170073717Y-170269485D01*
X170163671Y-170268755D01*
X170269139Y-170268325D01*
X170391409Y-170268116D01*
X170531768Y-170268052D01*
X170691502Y-170268054D01*
G37*
G36*
X169898364Y-174388438D02*
G01*
X170132390Y-174388535D01*
X170346623Y-174388700D01*
X170541759Y-174388940D01*
X170718493Y-174389257D01*
X170877520Y-174389658D01*
X171019537Y-174390145D01*
X171145239Y-174390723D01*
X171255321Y-174391398D01*
X171350480Y-174392172D01*
X171431410Y-174393051D01*
X171498808Y-174394038D01*
X171553369Y-174395139D01*
X171595789Y-174396357D01*
X171626763Y-174397697D01*
X171646986Y-174399164D01*
X171657155Y-174400761D01*
X171657969Y-174401062D01*
X171662992Y-174402750D01*
X171667716Y-174403522D01*
X171672153Y-174404003D01*
X171676310Y-174404823D01*
X171680197Y-174406609D01*
X171683823Y-174409991D01*
X171687197Y-174415595D01*
X171690328Y-174424051D01*
X171693224Y-174435986D01*
X171695896Y-174452029D01*
X171698351Y-174472809D01*
X171700599Y-174498952D01*
X171702650Y-174531087D01*
X171704511Y-174569843D01*
X171706193Y-174615848D01*
X171707703Y-174669730D01*
X171709052Y-174732117D01*
X171710248Y-174803637D01*
X171711300Y-174884919D01*
X171712217Y-174976591D01*
X171713009Y-175079281D01*
X171713684Y-175193617D01*
X171714251Y-175320227D01*
X171714719Y-175459740D01*
X171715098Y-175612784D01*
X171715396Y-175779987D01*
X171715623Y-175961977D01*
X171715787Y-176159383D01*
X171715898Y-176372832D01*
X171715964Y-176602953D01*
X171715994Y-176850374D01*
X171715998Y-177115724D01*
X171715985Y-177399630D01*
X171715963Y-177702720D01*
X171715942Y-178025624D01*
X171715931Y-178368968D01*
X171715930Y-178434086D01*
X171715930Y-182396080D01*
X173113597Y-182396080D01*
X173326396Y-182396126D01*
X173518829Y-182396270D01*
X173691716Y-182396518D01*
X173845875Y-182396877D01*
X173982125Y-182397356D01*
X174101285Y-182397961D01*
X174204174Y-182398700D01*
X174291610Y-182399579D01*
X174364412Y-182400606D01*
X174423399Y-182401789D01*
X174469390Y-182403135D01*
X174503203Y-182404650D01*
X174525658Y-182406342D01*
X174537573Y-182408219D01*
X174539037Y-182408735D01*
X174550944Y-182414313D01*
X174561097Y-182420440D01*
X174569637Y-182428742D01*
X174576702Y-182440844D01*
X174582433Y-182458373D01*
X174586968Y-182482954D01*
X174590449Y-182516212D01*
X174593014Y-182559774D01*
X174594803Y-182615265D01*
X174595956Y-182684312D01*
X174596613Y-182768539D01*
X174596912Y-182869573D01*
X174596995Y-182989039D01*
X174596998Y-183083454D01*
X174596998Y-183687143D01*
X174545872Y-183746581D01*
X170917358Y-183749274D01*
X167288844Y-183751968D01*
X167219558Y-183690072D01*
X167216350Y-183098685D01*
X167215737Y-182950215D01*
X167215625Y-182822461D01*
X167216022Y-182714956D01*
X167216933Y-182627238D01*
X167218365Y-182558843D01*
X167220323Y-182509307D01*
X167222814Y-182478165D01*
X167224701Y-182467639D01*
X167227131Y-182457578D01*
X167228958Y-182448503D01*
X167231229Y-182440362D01*
X167234993Y-182433106D01*
X167241298Y-182426684D01*
X167251190Y-182421045D01*
X167265719Y-182416139D01*
X167285931Y-182411915D01*
X167312876Y-182408323D01*
X167347600Y-182405311D01*
X167391151Y-182402830D01*
X167444578Y-182400829D01*
X167508928Y-182399257D01*
X167585249Y-182398064D01*
X167674589Y-182397198D01*
X167777996Y-182396611D01*
X167896518Y-182396250D01*
X168031202Y-182396065D01*
X168183096Y-182396006D01*
X168353249Y-182396023D01*
X168542707Y-182396064D01*
X168707231Y-182396080D01*
X170116514Y-182396080D01*
X170116514Y-175744204D01*
X167667607Y-175744204D01*
X167595580Y-175672177D01*
X167595580Y-174450331D01*
X167626542Y-174419369D01*
X167657503Y-174388407D01*
X169643850Y-174388407D01*
X169898364Y-174388438D01*
G37*
G36*
X191106315Y-174170948D02*
G01*
X191220017Y-174173200D01*
X191325574Y-174176711D01*
X191419324Y-174181481D01*
X191497607Y-174187509D01*
X191528566Y-174190842D01*
X191822195Y-174234869D01*
X192101261Y-174293905D01*
X192366327Y-174368131D01*
X192617957Y-174457724D01*
X192856716Y-174562864D01*
X193083166Y-174683731D01*
X193087188Y-174686084D01*
X193313948Y-174831111D01*
X193527601Y-174992584D01*
X193727905Y-175170118D01*
X193914619Y-175363330D01*
X194087501Y-175571835D01*
X194246311Y-175795251D01*
X194390808Y-176033192D01*
X194520749Y-176285275D01*
X194635895Y-176551116D01*
X194736004Y-176830331D01*
X194820835Y-177122536D01*
X194890146Y-177427347D01*
X194922920Y-177608424D01*
X194940882Y-177723875D01*
X194956343Y-177837921D01*
X194969452Y-177953040D01*
X194980358Y-178071704D01*
X194989211Y-178196391D01*
X194996158Y-178329574D01*
X195001351Y-178473729D01*
X195004936Y-178631332D01*
X195007064Y-178804857D01*
X195007883Y-178996779D01*
X195007900Y-179019829D01*
X195008090Y-179483236D01*
X188207673Y-179483236D01*
X188212689Y-179522957D01*
X188215208Y-179549415D01*
X188218236Y-179591061D01*
X188221371Y-179641917D01*
X188223911Y-179689783D01*
X188243691Y-179921692D01*
X188280185Y-180159822D01*
X188332381Y-180398796D01*
X188399267Y-180633237D01*
X188404809Y-180650370D01*
X188492093Y-180887705D01*
X188594458Y-181111445D01*
X188711440Y-181321105D01*
X188842574Y-181516201D01*
X188987394Y-181696249D01*
X189145436Y-181860763D01*
X189316234Y-182009260D01*
X189499325Y-182141254D01*
X189694242Y-182256262D01*
X189900521Y-182353798D01*
X190114924Y-182432499D01*
X190206448Y-182458831D01*
X190311926Y-182484609D01*
X190424148Y-182508332D01*
X190535905Y-182528498D01*
X190639988Y-182543607D01*
X190660009Y-182545976D01*
X190726884Y-182551616D01*
X190809494Y-182555612D01*
X190902469Y-182557963D01*
X191000441Y-182558669D01*
X191098038Y-182557732D01*
X191189893Y-182555151D01*
X191270635Y-182550926D01*
X191327315Y-182545953D01*
X191569655Y-182508332D01*
X191803652Y-182451239D01*
X192029361Y-182374652D01*
X192246834Y-182278550D01*
X192456126Y-182162908D01*
X192657290Y-182027706D01*
X192751960Y-181955069D01*
X192869478Y-181853751D01*
X192990240Y-181735934D01*
X193111108Y-181605320D01*
X193228945Y-181465611D01*
X193340612Y-181320510D01*
X193442972Y-181173717D01*
X193523764Y-181044544D01*
X193548224Y-181005516D01*
X193572577Y-180970766D01*
X193592188Y-180946837D01*
X193594884Y-180944159D01*
X193606084Y-180933986D01*
X193617076Y-180926004D01*
X193629268Y-180920834D01*
X193644066Y-180919099D01*
X193662878Y-180921420D01*
X193687113Y-180928418D01*
X193718176Y-180940717D01*
X193757476Y-180958937D01*
X193806421Y-180983700D01*
X193866418Y-181015629D01*
X193938874Y-181055345D01*
X194025196Y-181103470D01*
X194126794Y-181160626D01*
X194245073Y-181227434D01*
X194277231Y-181245614D01*
X194397440Y-181313840D01*
X194507165Y-181376656D01*
X194605314Y-181433416D01*
X194690798Y-181483474D01*
X194762527Y-181526184D01*
X194819409Y-181560900D01*
X194860354Y-181586977D01*
X194884272Y-181603770D01*
X194888929Y-181607847D01*
X194911646Y-181636324D01*
X194922306Y-181664640D01*
X194920487Y-181696569D01*
X194905769Y-181735886D01*
X194877732Y-181786365D01*
X194867144Y-181803480D01*
X194723299Y-182023640D01*
X194578984Y-182226290D01*
X194431374Y-182414975D01*
X194277644Y-182593240D01*
X194114967Y-182764629D01*
X194048502Y-182830359D01*
X193833442Y-183026004D01*
X193609969Y-183202748D01*
X193377563Y-183360831D01*
X193135703Y-183500494D01*
X192883867Y-183621977D01*
X192621533Y-183725522D01*
X192348181Y-183811370D01*
X192063289Y-183879760D01*
X191766336Y-183930935D01*
X191628023Y-183948480D01*
X191583759Y-183952373D01*
X191522903Y-183956104D01*
X191448784Y-183959603D01*
X191364729Y-183962796D01*
X191274068Y-183965614D01*
X191180130Y-183967983D01*
X191086243Y-183969833D01*
X190995736Y-183971092D01*
X190911937Y-183971688D01*
X190838176Y-183971550D01*
X190777781Y-183970605D01*
X190734080Y-183968783D01*
X190723562Y-183967945D01*
X190696689Y-183965531D01*
X190654392Y-183961923D01*
X190602362Y-183957600D01*
X190546293Y-183953041D01*
X190543495Y-183952816D01*
X190403866Y-183938978D01*
X190253898Y-183919458D01*
X190103225Y-183895631D01*
X189977723Y-183872195D01*
X189682063Y-183802429D01*
X189398477Y-183715339D01*
X189127152Y-183611066D01*
X188868277Y-183489755D01*
X188622041Y-183351549D01*
X188388633Y-183196591D01*
X188168241Y-183025024D01*
X187961054Y-182836993D01*
X187767260Y-182632640D01*
X187587050Y-182412110D01*
X187420610Y-182175544D01*
X187268130Y-181923087D01*
X187170990Y-181739366D01*
X187054447Y-181489595D01*
X186951403Y-181232870D01*
X186861398Y-180967451D01*
X186783972Y-180691599D01*
X186718664Y-180403573D01*
X186665016Y-180101633D01*
X186622567Y-179784041D01*
X186602639Y-179589158D01*
X186596495Y-179508207D01*
X186591153Y-179410776D01*
X186586672Y-179300823D01*
X186583109Y-179182311D01*
X186580522Y-179059201D01*
X186578970Y-178935452D01*
X186578511Y-178815026D01*
X186579202Y-178701884D01*
X186581102Y-178599986D01*
X186584269Y-178513294D01*
X186586339Y-178476981D01*
X186614594Y-178169808D01*
X188209933Y-178169808D01*
X193387490Y-178169808D01*
X193387490Y-178135203D01*
X193386299Y-178088670D01*
X193383009Y-178026245D01*
X193378040Y-177953069D01*
X193371815Y-177874283D01*
X193364754Y-177795028D01*
X193357280Y-177720446D01*
X193349813Y-177655679D01*
X193345586Y-177624179D01*
X193303576Y-177392755D01*
X193245652Y-177167543D01*
X193172662Y-176950601D01*
X193085455Y-176743987D01*
X192984879Y-176549759D01*
X192871780Y-176369973D01*
X192776178Y-176242035D01*
X192730364Y-176188865D01*
X192673251Y-176128118D01*
X192609096Y-176063860D01*
X192542156Y-176000158D01*
X192476687Y-175941077D01*
X192416947Y-175890683D01*
X192373669Y-175857585D01*
X192196570Y-175742167D01*
X192013975Y-175644711D01*
X191824247Y-175564686D01*
X191625747Y-175501561D01*
X191416839Y-175454804D01*
X191195883Y-175423885D01*
X190991776Y-175409421D01*
X190750036Y-175409375D01*
X190514509Y-175429342D01*
X190285951Y-175468876D01*
X190065117Y-175527531D01*
X189852759Y-175604860D01*
X189649635Y-175700419D01*
X189456497Y-175813761D01*
X189274100Y-175944439D01*
X189103200Y-176092009D01*
X188944550Y-176256025D01*
X188798905Y-176436039D01*
X188667020Y-176631607D01*
X188549650Y-176842283D01*
X188542326Y-176856921D01*
X188457184Y-177040852D01*
X188386165Y-177222722D01*
X188328228Y-177406493D01*
X188282333Y-177596126D01*
X188247438Y-177795583D01*
X188222503Y-178008824D01*
X188214738Y-178103607D01*
X188209933Y-178169808D01*
X186614594Y-178169808D01*
X186617700Y-178136039D01*
X186665776Y-177806442D01*
X186730439Y-177488503D01*
X186811559Y-177182538D01*
X186909006Y-176888862D01*
X187022652Y-176607790D01*
X187152366Y-176339637D01*
X187298020Y-176084717D01*
X187459484Y-175843346D01*
X187636629Y-175615839D01*
X187829325Y-175402510D01*
X187863623Y-175367675D01*
X188047136Y-175193436D01*
X188233067Y-175037229D01*
X188425669Y-174895982D01*
X188629193Y-174766620D01*
X188847890Y-174646072D01*
X188895313Y-174622004D01*
X189116187Y-174519247D01*
X189341488Y-174430304D01*
X189574009Y-174354370D01*
X189816544Y-174290637D01*
X190071885Y-174238300D01*
X190342825Y-174196552D01*
X190389909Y-174190540D01*
X190458105Y-174183947D01*
X190543785Y-174178620D01*
X190643290Y-174174559D01*
X190752956Y-174171762D01*
X190869124Y-174170228D01*
X190988131Y-174169958D01*
X191106315Y-174170948D01*
G37*
G36*
X183733802Y-170174244D02*
G01*
X183809247Y-170175020D01*
X183871089Y-170176437D01*
X183920846Y-170178614D01*
X183960034Y-170181671D01*
X183990170Y-170185727D01*
X184012770Y-170190903D01*
X184029350Y-170197318D01*
X184041427Y-170205091D01*
X184050518Y-170214341D01*
X184058139Y-170225190D01*
X184065806Y-170237756D01*
X184066132Y-170238291D01*
X184087523Y-170273353D01*
X184084900Y-176976356D01*
X184082277Y-183679360D01*
X184042712Y-183715618D01*
X184003147Y-183751877D01*
X183340456Y-183751877D01*
X183202883Y-183751819D01*
X183084943Y-183751623D01*
X182985086Y-183751252D01*
X182901760Y-183750672D01*
X182833413Y-183749847D01*
X182778496Y-183748741D01*
X182735458Y-183747320D01*
X182702746Y-183745548D01*
X182678811Y-183743388D01*
X182662101Y-183740807D01*
X182651065Y-183737768D01*
X182647157Y-183736049D01*
X182635276Y-183730210D01*
X182624969Y-183724862D01*
X182616125Y-183718549D01*
X182608629Y-183709815D01*
X182602372Y-183697203D01*
X182597239Y-183679256D01*
X182593120Y-183654518D01*
X182589902Y-183621533D01*
X182587473Y-183578845D01*
X182585721Y-183524997D01*
X182584534Y-183458532D01*
X182583799Y-183377995D01*
X182583404Y-183281929D01*
X182583238Y-183168877D01*
X182583187Y-183037383D01*
X182583150Y-182904795D01*
X182583016Y-182753791D01*
X182582743Y-182622812D01*
X182582311Y-182510698D01*
X182581698Y-182416290D01*
X182580885Y-182338429D01*
X182579851Y-182275956D01*
X182578575Y-182227711D01*
X182577038Y-182192536D01*
X182575218Y-182169270D01*
X182573095Y-182156754D01*
X182570648Y-182153830D01*
X182569910Y-182154562D01*
X182559505Y-182170367D01*
X182540783Y-182200004D01*
X182516418Y-182239200D01*
X182489721Y-182282642D01*
X182372530Y-182462156D01*
X182243085Y-182638231D01*
X182104460Y-182807296D01*
X181959730Y-182965783D01*
X181811969Y-183110121D01*
X181676459Y-183226974D01*
X181473046Y-183378423D01*
X181260596Y-183512174D01*
X181038294Y-183628552D01*
X180805327Y-183727884D01*
X180560880Y-183810496D01*
X180304140Y-183876713D01*
X180034293Y-183926863D01*
X179877190Y-183948046D01*
X179817862Y-183953584D01*
X179742117Y-183958443D01*
X179653884Y-183962558D01*
X179557088Y-183965861D01*
X179455657Y-183968290D01*
X179353518Y-183969778D01*
X179254599Y-183970261D01*
X179162825Y-183969673D01*
X179082125Y-183967948D01*
X179016426Y-183965022D01*
X178987448Y-183962816D01*
X178720431Y-183927653D01*
X178456980Y-183872877D01*
X178198940Y-183799135D01*
X177948158Y-183707073D01*
X177706480Y-183597338D01*
X177475751Y-183470575D01*
X177345663Y-183388165D01*
X177118790Y-183224146D01*
X176904162Y-183043130D01*
X176702115Y-182845638D01*
X176512982Y-182632191D01*
X176337097Y-182403311D01*
X176174794Y-182159517D01*
X176026408Y-181901333D01*
X175892273Y-181629277D01*
X175772722Y-181343873D01*
X175668089Y-181045640D01*
X175578710Y-180735100D01*
X175538506Y-180569519D01*
X175481220Y-180283116D01*
X175436396Y-179983476D01*
X175404182Y-179674600D01*
X175384727Y-179360491D01*
X175378413Y-179056322D01*
X177073531Y-179056322D01*
X177075041Y-179216638D01*
X177079478Y-179371600D01*
X177086842Y-179515963D01*
X177096899Y-179642119D01*
X177134589Y-179942914D01*
X177187275Y-180229958D01*
X177254864Y-180502986D01*
X177337261Y-180761733D01*
X177434373Y-181005935D01*
X177546106Y-181235326D01*
X177672367Y-181449641D01*
X177803299Y-181635919D01*
X177864767Y-181711410D01*
X177937651Y-181792965D01*
X178016560Y-181875034D01*
X178096104Y-181952064D01*
X178170894Y-182018503D01*
X178190197Y-182034410D01*
X178366286Y-182163103D01*
X178553906Y-182274456D01*
X178751981Y-182368155D01*
X178959435Y-182443884D01*
X179175191Y-182501329D01*
X179398174Y-182540172D01*
X179627306Y-182560101D01*
X179861512Y-182560799D01*
X179967223Y-182554834D01*
X180207821Y-182527603D01*
X180437262Y-182482533D01*
X180656149Y-182419407D01*
X180865082Y-182338006D01*
X181064665Y-182238113D01*
X181255498Y-182119511D01*
X181341653Y-182057756D01*
X181515139Y-181914782D01*
X181676123Y-181755098D01*
X181824239Y-181579354D01*
X181959124Y-181388202D01*
X182080413Y-181182293D01*
X182187740Y-180962280D01*
X182280742Y-180728813D01*
X182359054Y-180482544D01*
X182422310Y-180224124D01*
X182450666Y-180076397D01*
X182464569Y-179994537D01*
X182476256Y-179920478D01*
X182485944Y-179851217D01*
X182493851Y-179783751D01*
X182500194Y-179715077D01*
X182505191Y-179642193D01*
X182509061Y-179562096D01*
X182512020Y-179471782D01*
X182514286Y-179368249D01*
X182516078Y-179248495D01*
X182517094Y-179160175D01*
X182518240Y-178977052D01*
X182517427Y-178812340D01*
X182514425Y-178663340D01*
X182509002Y-178527348D01*
X182500927Y-178401665D01*
X182489969Y-178283587D01*
X182475896Y-178170415D01*
X182458478Y-178059446D01*
X182437483Y-177947978D01*
X182412679Y-177833311D01*
X182398231Y-177771654D01*
X182328006Y-177516372D01*
X182243238Y-177274989D01*
X182144272Y-177047887D01*
X182031451Y-176835448D01*
X181905118Y-176638055D01*
X181765617Y-176456090D01*
X181613291Y-176289935D01*
X181448484Y-176139972D01*
X181271539Y-176006585D01*
X181082800Y-175890154D01*
X180882610Y-175791063D01*
X180671313Y-175709694D01*
X180499975Y-175659024D01*
X180394619Y-175633694D01*
X180294511Y-175614078D01*
X180194673Y-175599618D01*
X180090130Y-175589757D01*
X179975905Y-175583935D01*
X179847023Y-175581597D01*
X179808341Y-175581490D01*
X179679691Y-175582789D01*
X179566749Y-175587097D01*
X179464172Y-175595031D01*
X179366619Y-175607207D01*
X179268748Y-175624240D01*
X179165219Y-175646748D01*
X179096049Y-175663671D01*
X178878868Y-175729212D01*
X178671878Y-175813268D01*
X178475484Y-175915564D01*
X178290089Y-176035828D01*
X178116097Y-176173786D01*
X177953913Y-176329165D01*
X177803939Y-176501691D01*
X177745823Y-176577659D01*
X177620414Y-176764409D01*
X177506853Y-176967856D01*
X177405523Y-177186883D01*
X177316810Y-177420370D01*
X177241096Y-177667201D01*
X177178766Y-177926258D01*
X177130204Y-178196423D01*
X177096778Y-178466389D01*
X177086572Y-178595685D01*
X177079296Y-178740602D01*
X177074949Y-178895895D01*
X177073531Y-179056322D01*
X175378413Y-179056322D01*
X175378181Y-179045149D01*
X175384691Y-178732578D01*
X175404408Y-178426778D01*
X175437479Y-178131750D01*
X175445695Y-178074479D01*
X175505228Y-177737695D01*
X175581685Y-177412672D01*
X175674950Y-177099686D01*
X175784910Y-176799011D01*
X175911451Y-176510924D01*
X176054457Y-176235701D01*
X176213815Y-175973617D01*
X176389410Y-175724948D01*
X176456962Y-175638282D01*
X176518088Y-175565276D01*
X176591202Y-175483496D01*
X176672551Y-175396739D01*
X176758377Y-175308803D01*
X176844926Y-175223485D01*
X176928441Y-175144584D01*
X177005168Y-175075895D01*
X177052076Y-175036531D01*
X177281937Y-174863506D01*
X177520756Y-174709524D01*
X177768781Y-174574480D01*
X178026260Y-174458268D01*
X178293442Y-174360782D01*
X178570572Y-174281916D01*
X178857901Y-174221566D01*
X179026084Y-174195445D01*
X179077634Y-174188756D01*
X179125610Y-174183432D01*
X179173414Y-174179319D01*
X179224449Y-174176265D01*
X179282117Y-174174118D01*
X179349821Y-174172725D01*
X179430963Y-174171934D01*
X179528946Y-174171593D01*
X179559425Y-174171557D01*
X179706751Y-174172400D01*
X179836909Y-174175471D01*
X179953840Y-174181204D01*
X180061486Y-174190034D01*
X180163787Y-174202397D01*
X180264684Y-174218726D01*
X180368117Y-174239456D01*
X180478028Y-174265023D01*
X180533904Y-174279054D01*
X180786956Y-174354311D01*
X181030280Y-174447777D01*
X181263088Y-174558901D01*
X181484594Y-174687134D01*
X181694010Y-174831923D01*
X181890547Y-174992718D01*
X182073420Y-175168968D01*
X182241840Y-175360122D01*
X182395020Y-175565630D01*
X182414693Y-175594750D01*
X182488157Y-175704803D01*
X182488157Y-170257154D01*
X182560667Y-170178024D01*
X183265676Y-170175155D01*
X183410693Y-170174564D01*
X183536042Y-170174136D01*
X183643239Y-170173989D01*
X183733802Y-170174244D01*
G37*
G36*
X157482699Y-174349126D02*
G01*
X157496339Y-174353154D01*
X157507252Y-174358025D01*
X157517146Y-174367025D01*
X157540804Y-174390863D01*
X157577579Y-174428851D01*
X157626823Y-174480301D01*
X157687891Y-174544522D01*
X157760135Y-174620827D01*
X157842908Y-174708527D01*
X157935563Y-174806933D01*
X158037454Y-174915355D01*
X158147933Y-175033106D01*
X158266353Y-175159495D01*
X158392068Y-175293836D01*
X158524430Y-175435438D01*
X158662793Y-175583613D01*
X158806509Y-175737671D01*
X158954933Y-175896926D01*
X159107416Y-176060686D01*
X159217015Y-176178482D01*
X159371732Y-176344772D01*
X159522701Y-176506931D01*
X159669284Y-176664278D01*
X159810844Y-176816132D01*
X159946741Y-176961811D01*
X160076339Y-177100636D01*
X160198999Y-177231923D01*
X160314084Y-177354993D01*
X160420955Y-177469164D01*
X160518975Y-177573755D01*
X160607506Y-177668084D01*
X160685910Y-177751471D01*
X160753550Y-177823234D01*
X160809786Y-177882692D01*
X160853981Y-177929164D01*
X160885498Y-177961968D01*
X160903698Y-177980424D01*
X160908203Y-177984446D01*
X160916358Y-177976786D01*
X160938264Y-177954262D01*
X160973283Y-177917559D01*
X161020776Y-177867360D01*
X161080106Y-177804349D01*
X161150635Y-177729209D01*
X161231723Y-177642625D01*
X161322734Y-177545280D01*
X161423028Y-177437858D01*
X161531967Y-177321043D01*
X161648915Y-177195519D01*
X161773231Y-177061970D01*
X161904278Y-176921079D01*
X162041418Y-176773530D01*
X162184013Y-176620008D01*
X162331424Y-176461195D01*
X162483013Y-176297776D01*
X162588702Y-176183778D01*
X162764853Y-175993826D01*
X162933815Y-175811800D01*
X163095130Y-175638189D01*
X163248340Y-175473482D01*
X163392988Y-175318167D01*
X163528616Y-175172733D01*
X163654766Y-175037666D01*
X163770980Y-174913457D01*
X163876801Y-174800594D01*
X163971772Y-174699563D01*
X164055433Y-174610855D01*
X164127329Y-174534958D01*
X164187001Y-174472358D01*
X164233990Y-174423546D01*
X164267841Y-174389010D01*
X164288095Y-174369237D01*
X164293805Y-174364504D01*
X164308229Y-174357293D01*
X164321664Y-174352153D01*
X164335392Y-174350048D01*
X164350694Y-174351944D01*
X164368850Y-174358807D01*
X164391143Y-174371602D01*
X164418851Y-174391295D01*
X164453258Y-174418851D01*
X164495644Y-174455237D01*
X164547290Y-174501417D01*
X164609477Y-174558357D01*
X164683487Y-174627022D01*
X164770600Y-174708379D01*
X164855514Y-174787867D01*
X164939127Y-174866219D01*
X165018786Y-174940991D01*
X165093026Y-175010800D01*
X165160384Y-175074261D01*
X165219394Y-175129994D01*
X165268593Y-175176614D01*
X165306515Y-175212738D01*
X165331697Y-175236985D01*
X165342098Y-175247338D01*
X165362617Y-175275706D01*
X165370597Y-175308086D01*
X165371226Y-175325630D01*
X165369966Y-175349503D01*
X165364315Y-175369692D01*
X165351467Y-175391287D01*
X165328619Y-175419383D01*
X165305025Y-175445805D01*
X165291651Y-175460284D01*
X165264448Y-175489484D01*
X165224093Y-175532684D01*
X165171261Y-175589163D01*
X165106628Y-175658202D01*
X165030869Y-175739079D01*
X164944661Y-175831074D01*
X164848678Y-175933467D01*
X164743597Y-176045537D01*
X164630092Y-176166564D01*
X164508839Y-176295827D01*
X164380515Y-176432606D01*
X164245794Y-176576180D01*
X164105353Y-176725829D01*
X163959866Y-176880832D01*
X163810009Y-177040470D01*
X163656459Y-177204020D01*
X163575855Y-177289864D01*
X163421596Y-177454183D01*
X163271203Y-177614453D01*
X163125317Y-177769989D01*
X162984580Y-177920104D01*
X162849633Y-178064113D01*
X162721118Y-178201328D01*
X162599675Y-178331063D01*
X162485948Y-178452631D01*
X162380576Y-178565348D01*
X162284202Y-178668525D01*
X162197467Y-178761478D01*
X162121013Y-178843518D01*
X162055481Y-178913961D01*
X162001512Y-178972119D01*
X161959749Y-179017307D01*
X161930832Y-179048838D01*
X161915403Y-179066025D01*
X161912886Y-179069161D01*
X161920035Y-179077535D01*
X161941056Y-179100663D01*
X161975311Y-179137862D01*
X162022164Y-179188450D01*
X162080976Y-179251745D01*
X162151111Y-179327066D01*
X162231931Y-179413730D01*
X162322797Y-179511055D01*
X162423074Y-179618360D01*
X162532123Y-179734962D01*
X162649307Y-179860180D01*
X162773988Y-179993331D01*
X162905529Y-180133734D01*
X163043292Y-180280706D01*
X163186640Y-180433566D01*
X163334936Y-180591631D01*
X163487542Y-180754220D01*
X163597040Y-180870839D01*
X163752922Y-181036853D01*
X163905292Y-181199161D01*
X164053489Y-181357058D01*
X164196853Y-181509840D01*
X164334724Y-181656803D01*
X164466441Y-181797241D01*
X164591345Y-181930451D01*
X164708775Y-182055727D01*
X164818071Y-182172365D01*
X164918573Y-182279661D01*
X165009621Y-182376910D01*
X165090555Y-182463407D01*
X165160714Y-182538448D01*
X165219439Y-182601328D01*
X165266070Y-182651343D01*
X165299945Y-182687788D01*
X165320406Y-182709959D01*
X165326210Y-182716394D01*
X165352080Y-182748819D01*
X165365764Y-182774323D01*
X165370699Y-182800293D01*
X165370991Y-182812687D01*
X165365905Y-182849936D01*
X165353150Y-182878223D01*
X165352455Y-182879094D01*
X165341726Y-182890019D01*
X165317188Y-182913803D01*
X165280529Y-182948864D01*
X165233437Y-182993617D01*
X165177597Y-183046479D01*
X165114700Y-183105864D01*
X165046431Y-183170190D01*
X164974478Y-183237872D01*
X164900529Y-183307326D01*
X164826271Y-183376968D01*
X164753393Y-183445214D01*
X164683581Y-183510480D01*
X164618523Y-183571182D01*
X164559906Y-183625736D01*
X164509419Y-183672559D01*
X164468748Y-183710065D01*
X164439582Y-183736672D01*
X164425451Y-183749229D01*
X164394690Y-183771812D01*
X164365439Y-183781808D01*
X164336214Y-183783653D01*
X164307798Y-183782206D01*
X164286631Y-183775382D01*
X164265601Y-183759461D01*
X164240035Y-183733341D01*
X164228512Y-183720947D01*
X164203246Y-183693737D01*
X164164901Y-183652423D01*
X164114140Y-183597720D01*
X164051626Y-183530345D01*
X163978022Y-183451010D01*
X163893991Y-183360432D01*
X163800195Y-183259324D01*
X163697299Y-183148402D01*
X163585965Y-183028380D01*
X163466856Y-182899973D01*
X163340635Y-182763896D01*
X163207965Y-182620864D01*
X163069510Y-182471591D01*
X162925932Y-182316792D01*
X162777894Y-182157182D01*
X162626059Y-181993476D01*
X162550117Y-181911595D01*
X162360088Y-181706753D01*
X162183978Y-181517022D01*
X162021352Y-181341938D01*
X161871770Y-181181035D01*
X161734796Y-181033849D01*
X161609991Y-180899915D01*
X161496918Y-180778768D01*
X161395140Y-180669943D01*
X161304219Y-180572974D01*
X161223716Y-180487397D01*
X161153195Y-180412748D01*
X161092218Y-180348560D01*
X161040348Y-180294370D01*
X160997145Y-180249712D01*
X160962174Y-180214121D01*
X160934996Y-180187132D01*
X160915174Y-180168280D01*
X160902270Y-180157101D01*
X160895846Y-180153130D01*
X160895095Y-180153296D01*
X160864233Y-180186763D01*
X160820940Y-180233578D01*
X160766001Y-180292896D01*
X160700206Y-180363870D01*
X160624340Y-180445654D01*
X160539191Y-180537401D01*
X160445546Y-180638265D01*
X160344193Y-180747400D01*
X160235919Y-180863959D01*
X160121511Y-180987096D01*
X160001756Y-181115964D01*
X159877442Y-181249718D01*
X159749356Y-181387510D01*
X159618285Y-181528494D01*
X159485017Y-181671824D01*
X159350338Y-181816654D01*
X159215036Y-181962136D01*
X159079898Y-182107426D01*
X158945712Y-182251675D01*
X158813264Y-182394039D01*
X158683343Y-182533670D01*
X158556735Y-182669721D01*
X158434227Y-182801348D01*
X158316607Y-182927703D01*
X158204662Y-183047940D01*
X158099179Y-183161212D01*
X158000946Y-183266673D01*
X157910750Y-183363477D01*
X157829378Y-183450778D01*
X157757617Y-183527728D01*
X157696255Y-183593482D01*
X157646079Y-183647193D01*
X157607876Y-183688014D01*
X157582433Y-183715100D01*
X157570538Y-183727604D01*
X157570099Y-183728044D01*
X157539573Y-183756987D01*
X157517163Y-183773689D01*
X157496598Y-183781459D01*
X157471606Y-183783607D01*
X157464691Y-183783653D01*
X157440954Y-183782650D01*
X157421421Y-183777815D01*
X157401275Y-183766409D01*
X157375693Y-183745695D01*
X157339858Y-183712934D01*
X157339302Y-183712415D01*
X157219210Y-183600266D01*
X157104232Y-183492631D01*
X156995292Y-183390388D01*
X156893312Y-183294413D01*
X156799216Y-183205584D01*
X156713927Y-183124778D01*
X156638370Y-183052873D01*
X156573467Y-182990746D01*
X156520142Y-182939274D01*
X156479318Y-182899334D01*
X156451919Y-182871805D01*
X156438869Y-182857562D01*
X156437913Y-182856079D01*
X156431973Y-182818436D01*
X156437650Y-182777922D01*
X156445059Y-182760006D01*
X156453396Y-182750304D01*
X156475603Y-182725849D01*
X156511043Y-182687323D01*
X156559077Y-182635409D01*
X156619069Y-182570789D01*
X156690380Y-182494146D01*
X156772372Y-182406163D01*
X156864407Y-182307523D01*
X156965848Y-182198908D01*
X157076056Y-182081001D01*
X157194394Y-181954484D01*
X157320224Y-181820041D01*
X157452909Y-181678354D01*
X157591809Y-181530106D01*
X157736288Y-181375979D01*
X157885708Y-181216657D01*
X158039430Y-181052822D01*
X158173549Y-180909939D01*
X158330290Y-180742962D01*
X158483201Y-180580012D01*
X158631649Y-180421767D01*
X158775001Y-180268902D01*
X158912624Y-180122096D01*
X159043885Y-179982023D01*
X159168152Y-179849361D01*
X159284790Y-179724785D01*
X159393168Y-179608974D01*
X159492652Y-179502603D01*
X159582609Y-179406349D01*
X159662406Y-179320888D01*
X159731410Y-179246897D01*
X159788989Y-179185053D01*
X159834509Y-179136032D01*
X159867337Y-179100511D01*
X159886841Y-179079165D01*
X159892476Y-179072657D01*
X159885629Y-179064140D01*
X159864899Y-179040865D01*
X159830914Y-179003505D01*
X159784303Y-178952734D01*
X159725693Y-178889227D01*
X159655715Y-178813658D01*
X159574994Y-178726701D01*
X159484162Y-178629031D01*
X159383844Y-178521321D01*
X159274671Y-178404247D01*
X159157270Y-178278483D01*
X159032270Y-178144702D01*
X158900299Y-178003579D01*
X158761985Y-177855788D01*
X158617958Y-177702004D01*
X158468844Y-177542902D01*
X158315274Y-177379154D01*
X158170678Y-177225075D01*
X158013429Y-177057519D01*
X157859981Y-176893924D01*
X157710968Y-176734970D01*
X157567022Y-176581334D01*
X157428777Y-176433695D01*
X157296866Y-176292732D01*
X157171922Y-176159123D01*
X157054579Y-176033547D01*
X156945470Y-175916682D01*
X156845229Y-175809208D01*
X156754488Y-175711802D01*
X156673881Y-175625144D01*
X156604040Y-175549912D01*
X156545601Y-175486784D01*
X156499195Y-175436439D01*
X156465456Y-175399555D01*
X156445017Y-175376813D01*
X156438511Y-175368979D01*
X156433307Y-175344960D01*
X156431443Y-175318397D01*
X156432035Y-175309573D01*
X156434511Y-175300107D01*
X156439923Y-175288932D01*
X156449321Y-175274982D01*
X156463756Y-175257190D01*
X156484280Y-175234489D01*
X156511944Y-175205812D01*
X156547798Y-175170094D01*
X156592894Y-175126266D01*
X156648283Y-175073263D01*
X156715015Y-175010018D01*
X156794142Y-174935463D01*
X156886714Y-174848533D01*
X156987532Y-174754019D01*
X157083003Y-174664657D01*
X157164405Y-174588837D01*
X157233064Y-174525548D01*
X157290305Y-174473780D01*
X157337456Y-174432522D01*
X157375841Y-174400766D01*
X157406787Y-174377499D01*
X157431620Y-174361712D01*
X157451665Y-174352394D01*
X157468250Y-174348535D01*
X157482699Y-174349126D01*
G37*
G36*
X149859008Y-170461994D02*
G01*
X150078686Y-170469665D01*
X150283027Y-170483849D01*
X150477044Y-170505170D01*
X150665749Y-170534251D01*
X150854154Y-170571714D01*
X150981777Y-170601583D01*
X151271705Y-170683450D01*
X151549610Y-170782758D01*
X151815494Y-170899509D01*
X152069354Y-171033702D01*
X152311190Y-171185337D01*
X152541003Y-171354412D01*
X152758791Y-171540929D01*
X152964554Y-171744886D01*
X153158291Y-171966283D01*
X153340002Y-172205120D01*
X153417417Y-172317640D01*
X153581598Y-172580686D01*
X153731320Y-172856058D01*
X153867043Y-173144788D01*
X153989225Y-173447911D01*
X154098321Y-173766461D01*
X154175168Y-174028274D01*
X154228183Y-174232260D01*
X154275678Y-174437026D01*
X154318114Y-174645426D01*
X154355953Y-174860316D01*
X154389655Y-175084551D01*
X154419683Y-175320987D01*
X154446496Y-175572477D01*
X154470558Y-175841878D01*
X154472942Y-175871310D01*
X154475287Y-175911558D01*
X154477503Y-175971138D01*
X154479584Y-176048197D01*
X154481522Y-176140881D01*
X154483310Y-176247338D01*
X154484939Y-176365715D01*
X154486403Y-176494160D01*
X154487694Y-176630819D01*
X154488805Y-176773841D01*
X154489728Y-176921371D01*
X154490455Y-177071558D01*
X154490980Y-177222549D01*
X154491294Y-177372491D01*
X154491390Y-177519531D01*
X154491260Y-177661816D01*
X154490898Y-177797494D01*
X154490295Y-177924712D01*
X154489444Y-178041617D01*
X154488338Y-178146356D01*
X154486969Y-178237077D01*
X154485329Y-178311927D01*
X154483411Y-178369053D01*
X154483082Y-178376356D01*
X154459144Y-178761896D01*
X154424443Y-179130588D01*
X154378712Y-179483982D01*
X154321684Y-179823631D01*
X154253091Y-180151087D01*
X154172667Y-180467902D01*
X154080144Y-180775628D01*
X154059222Y-180839033D01*
X153942435Y-181159979D01*
X153812715Y-181464528D01*
X153670160Y-181752583D01*
X153514866Y-182024048D01*
X153346931Y-182278828D01*
X153166451Y-182516827D01*
X152973524Y-182737948D01*
X152768247Y-182942097D01*
X152550716Y-183129176D01*
X152321029Y-183299091D01*
X152079282Y-183451745D01*
X151825573Y-183587042D01*
X151559998Y-183704887D01*
X151282655Y-183805184D01*
X150993641Y-183887836D01*
X150968088Y-183894156D01*
X150785168Y-183934226D01*
X150591215Y-183968304D01*
X150394127Y-183995271D01*
X150201799Y-184014010D01*
X150065555Y-184021985D01*
X149966334Y-184025802D01*
X149884285Y-184028659D01*
X149815420Y-184030589D01*
X149755751Y-184031627D01*
X149701288Y-184031808D01*
X149648044Y-184031166D01*
X149592030Y-184029735D01*
X149529258Y-184027551D01*
X149509467Y-184026791D01*
X149188704Y-184004941D01*
X148878336Y-183964834D01*
X148578521Y-183906558D01*
X148289422Y-183830199D01*
X148011198Y-183735845D01*
X147744011Y-183623583D01*
X147488022Y-183493500D01*
X147243391Y-183345684D01*
X147010279Y-183180221D01*
X146788847Y-182997199D01*
X146579256Y-182796706D01*
X146381667Y-182578828D01*
X146196240Y-182343652D01*
X146068055Y-182160204D01*
X145902298Y-181892484D01*
X145750560Y-181609775D01*
X145612809Y-181311956D01*
X145489010Y-180998907D01*
X145462129Y-180918569D01*
X147207732Y-180918569D01*
X147211095Y-180934192D01*
X147223367Y-180964921D01*
X147242925Y-181007479D01*
X147268148Y-181058592D01*
X147297412Y-181114983D01*
X147329095Y-181173378D01*
X147361575Y-181230499D01*
X147365861Y-181237813D01*
X147499843Y-181448272D01*
X147643390Y-181640103D01*
X147797081Y-181813865D01*
X147961496Y-181970113D01*
X148137213Y-182109405D01*
X148324811Y-182232298D01*
X148496947Y-182325719D01*
X148667942Y-182401477D01*
X148852598Y-182466976D01*
X149045273Y-182520686D01*
X149240328Y-182561078D01*
X149432122Y-182586625D01*
X149472394Y-182590032D01*
X149532641Y-182593178D01*
X149608179Y-182594983D01*
X149693767Y-182595518D01*
X149784162Y-182594854D01*
X149874119Y-182593059D01*
X149958397Y-182590204D01*
X150031753Y-182586360D01*
X150086739Y-182581833D01*
X150325203Y-182547379D01*
X150551138Y-182496099D01*
X150765364Y-182427618D01*
X150968699Y-182341562D01*
X151161961Y-182237557D01*
X151345967Y-182115227D01*
X151521535Y-181974200D01*
X151626527Y-181877191D01*
X151778869Y-181717437D01*
X151919450Y-181545453D01*
X152048979Y-181360017D01*
X152168168Y-181159911D01*
X152277727Y-180943915D01*
X152378366Y-180710809D01*
X152470797Y-180459374D01*
X152495023Y-180386383D01*
X152568772Y-180139306D01*
X152633540Y-179879627D01*
X152689546Y-179606074D01*
X152737010Y-179317379D01*
X152776149Y-179012270D01*
X152807183Y-178689477D01*
X152821953Y-178487573D01*
X152824484Y-178436555D01*
X152826765Y-178366398D01*
X152828795Y-178279075D01*
X152830576Y-178176556D01*
X152832106Y-178060813D01*
X152833387Y-177933817D01*
X152834419Y-177797538D01*
X152835201Y-177653948D01*
X152835735Y-177505018D01*
X152836020Y-177352719D01*
X152836057Y-177199023D01*
X152835845Y-177045899D01*
X152835386Y-176895320D01*
X152834679Y-176749257D01*
X152833725Y-176609680D01*
X152832524Y-176478560D01*
X152831077Y-176357870D01*
X152829382Y-176249580D01*
X152827442Y-176155660D01*
X152825255Y-176078083D01*
X152822822Y-176018819D01*
X152821632Y-175998416D01*
X152814585Y-175900338D01*
X152806253Y-175797140D01*
X152796911Y-175691293D01*
X152786832Y-175585267D01*
X152776289Y-175481535D01*
X152765557Y-175382565D01*
X152754908Y-175290831D01*
X152744616Y-175208802D01*
X152734955Y-175138949D01*
X152726198Y-175083743D01*
X152718618Y-175045656D01*
X152714628Y-175031717D01*
X152711999Y-175031987D01*
X152705244Y-175036832D01*
X152693970Y-175046664D01*
X152677789Y-175061900D01*
X152656308Y-175082953D01*
X152629139Y-175110239D01*
X152595889Y-175144171D01*
X152556170Y-175185165D01*
X152509590Y-175233635D01*
X152455760Y-175289996D01*
X152394287Y-175354662D01*
X152324783Y-175428048D01*
X152246857Y-175510569D01*
X152160118Y-175602639D01*
X152064175Y-175704672D01*
X151958639Y-175817084D01*
X151843118Y-175940289D01*
X151717223Y-176074702D01*
X151580563Y-176220737D01*
X151432747Y-176378808D01*
X151273385Y-176549332D01*
X151102087Y-176732721D01*
X150918462Y-176929391D01*
X150722119Y-177139757D01*
X150512669Y-177364232D01*
X150289720Y-177603232D01*
X150052883Y-177857171D01*
X149958970Y-177957877D01*
X149760499Y-178170736D01*
X149565722Y-178379688D01*
X149375134Y-178584198D01*
X149189233Y-178783731D01*
X149008515Y-178977753D01*
X148833478Y-179165727D01*
X148664618Y-179347121D01*
X148502433Y-179521399D01*
X148347419Y-179688026D01*
X148200074Y-179846467D01*
X148060894Y-179996188D01*
X147930376Y-180136654D01*
X147809017Y-180267330D01*
X147697315Y-180387681D01*
X147595766Y-180497172D01*
X147504867Y-180595269D01*
X147425114Y-180681437D01*
X147357006Y-180755142D01*
X147301039Y-180815847D01*
X147257710Y-180863019D01*
X147227516Y-180896123D01*
X147210953Y-180914623D01*
X147207732Y-180918569D01*
X145462129Y-180918569D01*
X145379129Y-180670510D01*
X145283132Y-180326644D01*
X145200986Y-179967188D01*
X145132656Y-179592024D01*
X145078108Y-179201032D01*
X145037309Y-178794091D01*
X145013365Y-178434612D01*
X145011478Y-178386222D01*
X145009780Y-178318668D01*
X145008269Y-178233954D01*
X145006946Y-178134082D01*
X145005811Y-178021054D01*
X145004863Y-177896872D01*
X145004103Y-177763539D01*
X145003531Y-177623057D01*
X145003146Y-177477429D01*
X145002949Y-177328656D01*
X145002945Y-177265177D01*
X146648870Y-177265177D01*
X146649029Y-177417653D01*
X146649430Y-177567894D01*
X146650075Y-177713950D01*
X146650963Y-177853869D01*
X146652094Y-177985701D01*
X146653468Y-178107494D01*
X146655085Y-178217299D01*
X146656944Y-178313163D01*
X146659047Y-178393136D01*
X146661393Y-178455267D01*
X146663213Y-178487573D01*
X146682073Y-178732315D01*
X146703402Y-178958602D01*
X146727498Y-179169054D01*
X146754658Y-179366290D01*
X146782835Y-179539631D01*
X146806641Y-179675468D01*
X146856417Y-179624369D01*
X146867211Y-179612953D01*
X146891934Y-179586585D01*
X146930072Y-179545814D01*
X146981115Y-179491189D01*
X147044550Y-179423258D01*
X147119866Y-179342572D01*
X147206551Y-179249678D01*
X147304094Y-179145125D01*
X147411981Y-179029463D01*
X147529702Y-178903239D01*
X147656745Y-178767004D01*
X147792598Y-178621305D01*
X147936749Y-178466693D01*
X148088686Y-178303714D01*
X148247898Y-178132920D01*
X148413873Y-177954857D01*
X148586099Y-177770076D01*
X148764064Y-177579124D01*
X148947256Y-177382552D01*
X149135165Y-177180907D01*
X149327277Y-176974739D01*
X149523081Y-176764597D01*
X149610271Y-176671018D01*
X149807246Y-176459605D01*
X150000616Y-176252057D01*
X150189875Y-176048917D01*
X150374519Y-175850726D01*
X150554043Y-175658026D01*
X150727942Y-175471360D01*
X150895711Y-175291269D01*
X151056846Y-175118295D01*
X151210841Y-174952980D01*
X151357192Y-174795867D01*
X151495395Y-174647496D01*
X151624943Y-174508411D01*
X151745333Y-174379153D01*
X151856059Y-174260264D01*
X151956617Y-174152286D01*
X152046502Y-174055762D01*
X152125209Y-173971232D01*
X152192234Y-173899240D01*
X152247070Y-173840326D01*
X152289214Y-173795034D01*
X152318161Y-173763905D01*
X152333406Y-173747480D01*
X152335686Y-173745004D01*
X152357023Y-173721241D01*
X152306355Y-173607305D01*
X152193395Y-173375530D01*
X152067205Y-173158053D01*
X151928412Y-172955653D01*
X151777643Y-172769108D01*
X151615525Y-172599195D01*
X151442685Y-172446695D01*
X151266365Y-172316801D01*
X151189048Y-172268577D01*
X151097610Y-172217372D01*
X150998230Y-172166262D01*
X150897087Y-172118326D01*
X150800360Y-172076640D01*
X150730491Y-172049923D01*
X150521423Y-171986046D01*
X150301711Y-171938329D01*
X150074497Y-171906846D01*
X149842918Y-171891671D01*
X149610115Y-171892876D01*
X149379227Y-171910534D01*
X149153394Y-171944719D01*
X148935756Y-171995504D01*
X148895222Y-172007144D01*
X148676593Y-172082663D01*
X148468629Y-172176443D01*
X148271415Y-172288391D01*
X148085031Y-172418418D01*
X147909560Y-172566431D01*
X147745086Y-172732340D01*
X147591690Y-172916054D01*
X147449456Y-173117482D01*
X147318466Y-173336532D01*
X147198802Y-173573113D01*
X147090548Y-173827134D01*
X146993785Y-174098505D01*
X146990802Y-174107715D01*
X146927839Y-174315505D01*
X146871899Y-174527910D01*
X146822575Y-174747271D01*
X146779461Y-174975930D01*
X146742152Y-175216231D01*
X146710242Y-175470515D01*
X146683325Y-175741124D01*
X146663183Y-175998416D01*
X146660665Y-176046712D01*
X146658390Y-176114234D01*
X146656359Y-176199031D01*
X146654572Y-176299151D01*
X146653027Y-176412644D01*
X146651726Y-176537559D01*
X146650669Y-176671944D01*
X146649854Y-176813850D01*
X146649283Y-176961324D01*
X146648955Y-177112417D01*
X146648870Y-177265177D01*
X145002945Y-177265177D01*
X145002939Y-177178741D01*
X145003116Y-177029686D01*
X145003481Y-176883495D01*
X145004033Y-176742168D01*
X145004772Y-176607708D01*
X145005699Y-176482119D01*
X145006812Y-176367401D01*
X145008113Y-176265557D01*
X145009600Y-176178591D01*
X145011275Y-176108503D01*
X145013136Y-176057296D01*
X145013431Y-176051376D01*
X145042784Y-175630050D01*
X145086004Y-175224617D01*
X145143126Y-174834929D01*
X145214185Y-174460833D01*
X145299216Y-174102180D01*
X145398253Y-173758819D01*
X145511332Y-173430600D01*
X145638486Y-173117371D01*
X145744379Y-172889617D01*
X145893085Y-172609027D01*
X146054960Y-172344801D01*
X146229764Y-172097113D01*
X146417254Y-171866140D01*
X146617190Y-171652056D01*
X146829331Y-171455037D01*
X147053435Y-171275258D01*
X147289261Y-171112896D01*
X147536568Y-170968124D01*
X147795114Y-170841120D01*
X148064659Y-170732057D01*
X148344961Y-170641112D01*
X148635779Y-170568461D01*
X148936871Y-170514277D01*
X149027523Y-170501859D01*
X149191519Y-170483385D01*
X149352304Y-170470491D01*
X149515996Y-170462886D01*
X149688715Y-170460274D01*
X149859008Y-170461994D01*
G37*
D14*
G04 #@! TO.C,R6*
X108937258Y-203356500D02*
X108462742Y-203356500D01*
X108937258Y-204401500D02*
X108462742Y-204401500D01*
G04 #@! TO.C,D1*
X220287500Y-194264000D02*
X222572500Y-194264000D01*
X222572500Y-192794000D02*
X220287500Y-192794000D01*
X222572500Y-194264000D02*
X222572500Y-192794000D01*
G04 #@! TO.C,D2*
X220287500Y-186764000D02*
X222572500Y-186764000D01*
X222572500Y-185294000D02*
X220287500Y-185294000D01*
X222572500Y-186764000D02*
X222572500Y-185294000D01*
G04 #@! TO.C,R8*
X216337742Y-193006500D02*
X216812258Y-193006500D01*
X216337742Y-194051500D02*
X216812258Y-194051500D01*
D16*
G04 #@! TO.C,J1*
X241000000Y-221750000D02*
X241000000Y-216300000D01*
X243000000Y-216300000D02*
X243000000Y-221750000D01*
X243000000Y-221750000D02*
X241000000Y-221750000D01*
X278000000Y-221750000D02*
X278000000Y-216300000D01*
X280000000Y-216300000D02*
X280000000Y-221750000D01*
X280000000Y-221750000D02*
X278000000Y-221750000D01*
X277530000Y-222210000D02*
G75*
G02*
X277330000Y-222210000I-100000J0D01*
G01*
X277330000Y-222210000D02*
G75*
G02*
X277530000Y-222210000I100000J0D01*
G01*
D14*
G04 #@! TO.C,R9*
X216475242Y-185506500D02*
X216949758Y-185506500D01*
X216475242Y-186551500D02*
X216949758Y-186551500D01*
G04 #@! TO.C,R10*
X107677500Y-209141742D02*
X107677500Y-209616258D01*
X108722500Y-209141742D02*
X108722500Y-209616258D01*
G04 #@! TO.C,R11*
X107677500Y-214466742D02*
X107677500Y-214941258D01*
X108722500Y-214466742D02*
X108722500Y-214941258D01*
G04 #@! TO.C,R5*
X108937258Y-205356500D02*
X108462742Y-205356500D01*
X108937258Y-206401500D02*
X108462742Y-206401500D01*
G04 #@! TO.C,J2*
X99700000Y-179879000D02*
X101700000Y-179879000D01*
X99700000Y-227879000D02*
X101700000Y-227879000D01*
X101700000Y-179879000D02*
X101700000Y-182879000D01*
X101700000Y-182879000D02*
X105700000Y-182879000D01*
X101700000Y-224879000D02*
X105700000Y-224879000D01*
X101700000Y-227879000D02*
X101700000Y-224879000D01*
X102700000Y-185879000D02*
X102700000Y-187879000D01*
X102700000Y-221879000D02*
X102700000Y-220879000D01*
X105700000Y-182879000D02*
X105700000Y-185879000D01*
X105700000Y-185879000D02*
X102700000Y-185879000D01*
X105700000Y-221879000D02*
X102700000Y-221879000D01*
X105700000Y-224879000D02*
X105700000Y-221879000D01*
G04 #@! TD*
%LPC*%
D17*
G04 #@! TO.C,R7*
X107900000Y-202029000D03*
X106250000Y-202029000D03*
G04 #@! TD*
D18*
G04 #@! TO.C,REF\u002A\u002A*
X115000000Y-175000000D03*
G04 #@! TD*
D17*
G04 #@! TO.C,R6*
X109525000Y-203879000D03*
X107875000Y-203879000D03*
G04 #@! TD*
D19*
G04 #@! TO.C,D1*
X221875000Y-193529000D03*
X220300000Y-193529000D03*
G04 #@! TD*
D20*
G04 #@! TO.C,REF\u002A\u002A*
X276000000Y-228000000D03*
G04 #@! TD*
G04 #@! TO.C,REF\u002A\u002A*
X114000000Y-225000000D03*
G04 #@! TD*
D19*
G04 #@! TO.C,D2*
X221875000Y-186029000D03*
X220300000Y-186029000D03*
G04 #@! TD*
D21*
G04 #@! TO.C,R8*
X215750000Y-193529000D03*
X217400000Y-193529000D03*
G04 #@! TD*
D22*
G04 #@! TO.C,J1*
X277000000Y-219500000D03*
X276000000Y-219500000D03*
X275000000Y-219500000D03*
X274000000Y-219500000D03*
X273000000Y-219500000D03*
X272000000Y-219500000D03*
X271000000Y-219500000D03*
X270000000Y-219500000D03*
X269000000Y-219500000D03*
X268000000Y-219500000D03*
X267000000Y-219500000D03*
X264000000Y-219500000D03*
X263000000Y-219500000D03*
X262000000Y-219500000D03*
X261000000Y-219500000D03*
X260000000Y-219500000D03*
X259000000Y-219500000D03*
X258000000Y-219500000D03*
X257000000Y-219500000D03*
X256000000Y-219500000D03*
X255000000Y-219500000D03*
X254000000Y-219500000D03*
X253000000Y-219500000D03*
X252000000Y-219500000D03*
X251000000Y-219500000D03*
X250000000Y-219500000D03*
X249000000Y-219500000D03*
X248000000Y-219500000D03*
X247000000Y-219500000D03*
X246000000Y-219500000D03*
X245000000Y-219500000D03*
X244000000Y-219500000D03*
G04 #@! TD*
D21*
G04 #@! TO.C,R9*
X215887500Y-186029000D03*
X217537500Y-186029000D03*
G04 #@! TD*
D18*
G04 #@! TO.C,REF\u002A\u002A*
X270000000Y-230000000D03*
G04 #@! TD*
D23*
G04 #@! TO.C,R10*
X108200000Y-208554000D03*
X108200000Y-210204000D03*
G04 #@! TD*
D20*
G04 #@! TO.C,REF\u002A\u002A*
X104000000Y-173200000D03*
G04 #@! TD*
G04 #@! TO.C,REF\u002A\u002A*
X231000000Y-173200000D03*
G04 #@! TD*
D23*
G04 #@! TO.C,R11*
X108200000Y-213879000D03*
X108200000Y-215529000D03*
G04 #@! TD*
D18*
G04 #@! TO.C,REF\u002A\u002A*
X220000000Y-175000000D03*
G04 #@! TD*
D20*
G04 #@! TO.C,REF\u002A\u002A*
X231000000Y-187200000D03*
G04 #@! TD*
D17*
G04 #@! TO.C,R5*
X109525000Y-205879000D03*
X107875000Y-205879000D03*
G04 #@! TD*
D24*
G04 #@! TO.C,J2*
X104100000Y-223349000D03*
D25*
X104100000Y-184409000D03*
D26*
X104000000Y-196799000D03*
X104000000Y-197599000D03*
X104000000Y-198399000D03*
X104000000Y-199199000D03*
X104000000Y-199999000D03*
X104000000Y-200799000D03*
D27*
X102300000Y-188429000D03*
X102300000Y-189229000D03*
X102300000Y-190029000D03*
X102300000Y-190829000D03*
X102300000Y-191629000D03*
X102300000Y-192429000D03*
X102300000Y-193229000D03*
X102300000Y-194029000D03*
X102300000Y-194829000D03*
X102300000Y-195629000D03*
X102300000Y-213229000D03*
X102300000Y-214029000D03*
X102300000Y-214829000D03*
X102300000Y-215629000D03*
X102300000Y-216429000D03*
X102300000Y-217229000D03*
X102300000Y-218029000D03*
X102300000Y-218829000D03*
X102300000Y-219629000D03*
D28*
X97570000Y-180054000D03*
X97570000Y-227704000D03*
D29*
X104000000Y-201974000D03*
X104000000Y-203244000D03*
X104000000Y-204514000D03*
X104000000Y-205784000D03*
X104000000Y-207054000D03*
X104000000Y-208324000D03*
X104000000Y-209594000D03*
X104000000Y-210864000D03*
X104000000Y-212134000D03*
X104000000Y-213404000D03*
X104000000Y-214674000D03*
X104000000Y-215944000D03*
X104000000Y-217214000D03*
X104000000Y-218484000D03*
X104000000Y-219754000D03*
X104000000Y-188004000D03*
X104000000Y-189274000D03*
X104000000Y-190544000D03*
X104000000Y-191814000D03*
X104000000Y-193084000D03*
X104000000Y-194354000D03*
X104000000Y-195624000D03*
D27*
X102300000Y-196429000D03*
X102300000Y-197229000D03*
X102300000Y-198029000D03*
X102300000Y-198829000D03*
X102300000Y-199629000D03*
X102300000Y-200429000D03*
X102300000Y-201229000D03*
X102300000Y-202029000D03*
X102300000Y-202829000D03*
X102300000Y-203629000D03*
X102300000Y-204429000D03*
X102300000Y-205229000D03*
X102300000Y-206029000D03*
X102300000Y-206829000D03*
X102300000Y-207629000D03*
X102300000Y-208429000D03*
X102300000Y-209229000D03*
X102300000Y-210029000D03*
X102300000Y-210829000D03*
X102300000Y-211629000D03*
X102300000Y-212429000D03*
G04 #@! TD*
D30*
X240300000Y-219429000D03*
X268000000Y-222529000D03*
X238800000Y-217929000D03*
X268000000Y-216729000D03*
X240300000Y-217929000D03*
X106700000Y-198429000D03*
X241800000Y-219429000D03*
X269000000Y-216729000D03*
X106700000Y-199129000D03*
X106700000Y-197729000D03*
X241800000Y-220929000D03*
X241800000Y-217929000D03*
X105900000Y-199129000D03*
X105900000Y-198429000D03*
X214400000Y-186029000D03*
X270000000Y-222529000D03*
X105900000Y-197729000D03*
X199600000Y-221629000D03*
X105900000Y-200329000D03*
X267000000Y-222929002D03*
X244000000Y-222229000D03*
X112100000Y-212329000D03*
X101100000Y-192429000D03*
X220200000Y-212329000D03*
X100600000Y-226629000D03*
X264000000Y-216729000D03*
X254000000Y-216729000D03*
X258000000Y-216729000D03*
X111500000Y-210129000D03*
X101100000Y-202829000D03*
X101100000Y-207629000D03*
X263000000Y-216729000D03*
X105900000Y-214729000D03*
X250000000Y-216729000D03*
X249500000Y-222229000D03*
X225300000Y-200829000D03*
X100600000Y-181029000D03*
X258000000Y-222029000D03*
X261000000Y-216729000D03*
X228000000Y-205329000D03*
X251500000Y-222229000D03*
X101100000Y-196429000D03*
X271000000Y-222529000D03*
X111500000Y-204929000D03*
X105900000Y-207729000D03*
X251000000Y-216729000D03*
X111500000Y-207929000D03*
X232699790Y-214916174D03*
X101100000Y-217300000D03*
X255000000Y-216729000D03*
X101100000Y-212429000D03*
X101100000Y-190029000D03*
X256000000Y-216729000D03*
X232700000Y-217129000D03*
X105800000Y-195029000D03*
X255500000Y-222229000D03*
X260500000Y-222229000D03*
X101100000Y-198829000D03*
X112100000Y-214529000D03*
X101100000Y-194829000D03*
X260000000Y-216729000D03*
X219600000Y-198929000D03*
X111500000Y-192429000D03*
X230100000Y-210129000D03*
X220200000Y-210129000D03*
X100600000Y-227629000D03*
X230100000Y-212329000D03*
X220200000Y-207929000D03*
X247000000Y-216729000D03*
X263485685Y-222231863D03*
X219600000Y-203029000D03*
X100600000Y-179029000D03*
X253000000Y-216729000D03*
X274000000Y-216729000D03*
X100600000Y-228629000D03*
X105800000Y-187429000D03*
X219600000Y-204629000D03*
X223500000Y-193529000D03*
X244000000Y-216729000D03*
X223500000Y-186029000D03*
X101100000Y-214829000D03*
X111500000Y-202729000D03*
X100600000Y-180029000D03*
X247500000Y-222229000D03*
X248000000Y-216729000D03*
X105300000Y-202029000D03*
X228003889Y-207544556D03*
X274000000Y-222529000D03*
X249000000Y-216729000D03*
X225300000Y-196829000D03*
X245000000Y-216729000D03*
X105800000Y-192329000D03*
X245000000Y-222229000D03*
X219600000Y-200529000D03*
X271000000Y-216779498D03*
X225300000Y-199029000D03*
X101100000Y-210029000D03*
X252000000Y-216729000D03*
X220200000Y-214529000D03*
X225300000Y-203000000D03*
X277000000Y-216779498D03*
X253500000Y-222229000D03*
X101100000Y-201229000D03*
X101100000Y-205229000D03*
X111500000Y-190229000D03*
X225300000Y-197579000D03*
X101100000Y-188429000D03*
X101100000Y-189229000D03*
X225300000Y-198279000D03*
X101100000Y-194029000D03*
X225300000Y-202279000D03*
X101100000Y-193229000D03*
X225300000Y-201579000D03*
X101100000Y-206829000D03*
X228000000Y-206779000D03*
X228000000Y-206079000D03*
X101100000Y-206029000D03*
X101100000Y-211629000D03*
X230100000Y-211579000D03*
X230100000Y-210879000D03*
X101100000Y-210829000D03*
X232700000Y-216379000D03*
X101198689Y-216379000D03*
X101198689Y-215679000D03*
X232712145Y-215615567D03*
X101100000Y-190829000D03*
X220200000Y-199379000D03*
X111500000Y-190979000D03*
X111500000Y-191679000D03*
X220200000Y-200079000D03*
X101100000Y-191629000D03*
X111500000Y-203479000D03*
X220200000Y-203479000D03*
X101100000Y-203629000D03*
X220200000Y-204179000D03*
X101100000Y-204429000D03*
X111500000Y-204179000D03*
X220200000Y-208679000D03*
X111500000Y-208679000D03*
X101100000Y-208429000D03*
X220200000Y-209379000D03*
X101100000Y-209229000D03*
X111500000Y-209379000D03*
X112100000Y-213079000D03*
X101100000Y-213229000D03*
X220200000Y-213079000D03*
X220200000Y-213779000D03*
X101100000Y-214029000D03*
X112100000Y-213779000D03*
X121600000Y-224929000D03*
X122400000Y-224929000D03*
X121600000Y-227329000D03*
X120800000Y-226529000D03*
X122400000Y-225729000D03*
X120800000Y-225729000D03*
X121600000Y-225729000D03*
X206400000Y-225229000D03*
X120800000Y-224929000D03*
X122400000Y-226529000D03*
X275000000Y-216729000D03*
X276000000Y-216729000D03*
X277000000Y-223229000D03*
X120800000Y-227329000D03*
X275000000Y-222529000D03*
X121600000Y-226529000D03*
X214400000Y-193529000D03*
X276000000Y-222529000D03*
X122400000Y-227329000D03*
X258550000Y-222679000D03*
X113700000Y-205000000D03*
X200700000Y-221629000D03*
X273000000Y-216729000D03*
X197300000Y-221629000D03*
X101100000Y-218153500D03*
X101100000Y-218853003D03*
X196100000Y-221629000D03*
X272000000Y-222529000D03*
%LPD*%
M02*
