G04 #@! TF.GenerationSoftware,KiCad,Pcbnew,9.0.6*
G04 #@! TF.CreationDate,2026-03-10T14:48:13-05:00*
G04 #@! TF.ProjectId,u2CEM,75324345-4d2e-46b6-9963-61645f706362,rev?*
G04 #@! TF.SameCoordinates,Original*
G04 #@! TF.FileFunction,Copper,L3,Inr*
G04 #@! TF.FilePolarity,Positive*
%FSLAX46Y46*%
G04 Gerber Fmt 4.6, Leading zero omitted, Abs format (unit mm)*
G04 Created by KiCad (PCBNEW 9.0.6) date 2026-03-10 14:48:13*
%MOMM*%
%LPD*%
G01*
G04 APERTURE LIST*
G04 #@! TA.AperFunction,ViaPad*
%ADD10C,0.508000*%
G04 #@! TD*
G04 #@! TA.AperFunction,Conductor*
%ADD11C,0.150000*%
G04 #@! TD*
G04 APERTURE END LIST*
D10*
G04 #@! TO.N,+3.3V*
X240300000Y-219429000D03*
X268000000Y-222529000D03*
X238800000Y-217929000D03*
X268000000Y-216729000D03*
X240300000Y-217929000D03*
X106700000Y-198429000D03*
X241800000Y-219429000D03*
X269000000Y-216729000D03*
X106700000Y-199129000D03*
X106700000Y-197729000D03*
X241800000Y-220929000D03*
X241800000Y-217929000D03*
X105900000Y-199129000D03*
X105900000Y-198429000D03*
X214400000Y-186029000D03*
X270000000Y-222529000D03*
X105900000Y-197729000D03*
G04 #@! TO.N,/PERST_L*
X199600000Y-221629000D03*
X105900000Y-200329000D03*
X267000000Y-222929002D03*
G04 #@! TO.N,GND*
X244000000Y-222229000D03*
X112100000Y-212329000D03*
X101100000Y-192429000D03*
X220200000Y-212329000D03*
X100600000Y-226629000D03*
X264000000Y-216729000D03*
X254000000Y-216729000D03*
X258000000Y-216729000D03*
X111500000Y-210129000D03*
X101100000Y-202829000D03*
X101100000Y-207629000D03*
X263000000Y-216729000D03*
X105900000Y-214729000D03*
X250000000Y-216729000D03*
X249500000Y-222229000D03*
X225300000Y-200829000D03*
X100600000Y-181029000D03*
X258000000Y-222029000D03*
X261000000Y-216729000D03*
X228000000Y-205329000D03*
X251500000Y-222229000D03*
X101100000Y-196429000D03*
X271000000Y-222529000D03*
X111500000Y-204929000D03*
X105900000Y-207729000D03*
X251000000Y-216729000D03*
X111500000Y-207929000D03*
X232699790Y-214916174D03*
X101100000Y-217300000D03*
X255000000Y-216729000D03*
X101100000Y-212429000D03*
X101100000Y-190029000D03*
X256000000Y-216729000D03*
X232700000Y-217129000D03*
X105800000Y-195029000D03*
X255500000Y-222229000D03*
X260500000Y-222229000D03*
X101100000Y-198829000D03*
X112100000Y-214529000D03*
X101100000Y-194829000D03*
X260000000Y-216729000D03*
X219600000Y-198929000D03*
X111500000Y-192429000D03*
X230100000Y-210129000D03*
X220200000Y-210129000D03*
X100600000Y-227629000D03*
X230100000Y-212329000D03*
X220200000Y-207929000D03*
X247000000Y-216729000D03*
X263485685Y-222231863D03*
X219600000Y-203029000D03*
X100600000Y-179029000D03*
X253000000Y-216729000D03*
X274000000Y-216729000D03*
X100600000Y-228629000D03*
X105800000Y-187429000D03*
X219600000Y-204629000D03*
X223500000Y-193529000D03*
X244000000Y-216729000D03*
X223500000Y-186029000D03*
X101100000Y-214829000D03*
X111500000Y-202729000D03*
X100600000Y-180029000D03*
X247500000Y-222229000D03*
X248000000Y-216729000D03*
X105300000Y-202029000D03*
X228003889Y-207544556D03*
X274000000Y-222529000D03*
X249000000Y-216729000D03*
X225300000Y-196829000D03*
X245000000Y-216729000D03*
X105800000Y-192329000D03*
X245000000Y-222229000D03*
X219600000Y-200529000D03*
X271000000Y-216779498D03*
X225300000Y-199029000D03*
X101100000Y-210029000D03*
X252000000Y-216729000D03*
X220200000Y-214529000D03*
X225300000Y-203000000D03*
X277000000Y-216779498D03*
X253500000Y-222229000D03*
X101100000Y-201229000D03*
X101100000Y-205229000D03*
X111500000Y-190229000D03*
G04 #@! TO.N,/REFCLK_P*
X225300000Y-197579000D03*
X101100000Y-188429000D03*
G04 #@! TO.N,/REFCLK_N*
X101100000Y-189229000D03*
X225300000Y-198279000D03*
G04 #@! TO.N,/PER0_P*
X101100000Y-194029000D03*
X225300000Y-202279000D03*
G04 #@! TO.N,/PER0_N*
X101100000Y-193229000D03*
X225300000Y-201579000D03*
G04 #@! TO.N,/PER1_P*
X101100000Y-206829000D03*
X228000000Y-206779000D03*
G04 #@! TO.N,/PER1_N*
X228000000Y-206079000D03*
X101100000Y-206029000D03*
G04 #@! TO.N,/PER2_P*
X101100000Y-211629000D03*
X230100000Y-211579000D03*
G04 #@! TO.N,/PER2_N*
X230100000Y-210879000D03*
X101100000Y-210829000D03*
G04 #@! TO.N,/PER3_P*
X232700000Y-216379000D03*
X101198689Y-216379000D03*
G04 #@! TO.N,/PER3_N*
X101198689Y-215679000D03*
X232712145Y-215615567D03*
G04 #@! TO.N,/PET0_P*
X101100000Y-190829000D03*
X220200000Y-199379000D03*
X111500000Y-190979000D03*
G04 #@! TO.N,/PET0_N*
X111500000Y-191679000D03*
X220200000Y-200079000D03*
X101100000Y-191629000D03*
G04 #@! TO.N,/PET1_P*
X111500000Y-203479000D03*
X220200000Y-203479000D03*
X101100000Y-203629000D03*
G04 #@! TO.N,/PET1_N*
X220200000Y-204179000D03*
X101100000Y-204429000D03*
X111500000Y-204179000D03*
G04 #@! TO.N,/PET2_P*
X220200000Y-208679000D03*
X111500000Y-208679000D03*
X101100000Y-208429000D03*
G04 #@! TO.N,/PET2_N*
X220200000Y-209379000D03*
X101100000Y-209229000D03*
X111500000Y-209379000D03*
G04 #@! TO.N,/PET3_P*
X112100000Y-213079000D03*
X101100000Y-213229000D03*
X220200000Y-213079000D03*
G04 #@! TO.N,/PET3_N*
X220200000Y-213779000D03*
X101100000Y-214029000D03*
X112100000Y-213779000D03*
G04 #@! TO.N,+12V*
X121600000Y-224929000D03*
X122400000Y-224929000D03*
X121600000Y-227329000D03*
X120800000Y-226529000D03*
X122400000Y-225729000D03*
X120800000Y-225729000D03*
X121600000Y-225729000D03*
X206400000Y-225229000D03*
X120800000Y-224929000D03*
X122400000Y-226529000D03*
X275000000Y-216729000D03*
X276000000Y-216729000D03*
X277000000Y-223229000D03*
X120800000Y-227329000D03*
X275000000Y-222529000D03*
X121600000Y-226529000D03*
X214400000Y-193529000D03*
X276000000Y-222529000D03*
X122400000Y-227329000D03*
G04 #@! TO.N,Net-(J1-~{PRSNT2}_B17)*
X258550000Y-222679000D03*
X113700000Y-205000000D03*
X200700000Y-221629000D03*
G04 #@! TO.N,/SMBCLK*
X273000000Y-216729000D03*
X197300000Y-221629000D03*
X101100000Y-218153500D03*
G04 #@! TO.N,/SMBDAT*
X101100000Y-218853003D03*
X196100000Y-221629000D03*
X272000000Y-222529000D03*
G04 #@! TD*
D11*
G04 #@! TO.N,/PERST_L*
X266600000Y-223329000D02*
X201300000Y-223329000D01*
X201300000Y-223329000D02*
X199600000Y-221629000D01*
X267000000Y-222929002D02*
X266600000Y-223329000D01*
G04 #@! TO.N,Net-(J1-~{PRSNT2}_B17)*
X258300000Y-222929000D02*
X258550000Y-222679000D01*
X202000000Y-222929000D02*
X258300000Y-222929000D01*
X200700000Y-221629000D02*
X202000000Y-222929000D01*
G04 #@! TO.N,/SMBCLK*
X269000000Y-220729000D02*
X273000000Y-216729000D01*
X199400000Y-223729000D02*
X268200000Y-223729000D01*
X268200000Y-223729000D02*
X269000000Y-222929000D01*
X197300000Y-221629000D02*
X199400000Y-223729000D01*
X269000000Y-222929000D02*
X269000000Y-220729000D01*
G04 #@! TO.N,/SMBDAT*
X272000000Y-222529000D02*
X270450499Y-224078501D01*
X270450499Y-224078501D02*
X198549501Y-224078501D01*
X198549501Y-224078501D02*
X196100000Y-221629000D01*
G04 #@! TD*
G04 #@! TA.AperFunction,Conductor*
G04 #@! TO.N,GND*
G36*
X235306162Y-167929606D02*
G01*
X235482740Y-167946998D01*
X235506959Y-167951815D01*
X235670815Y-168001520D01*
X235693622Y-168010967D01*
X235819153Y-168078064D01*
X235844627Y-168091681D01*
X235865165Y-168105404D01*
X235997514Y-168214020D01*
X236014979Y-168231485D01*
X236123595Y-168363834D01*
X236137318Y-168384372D01*
X236218029Y-168535370D01*
X236227482Y-168558191D01*
X236277183Y-168722037D01*
X236282001Y-168746261D01*
X236299393Y-168922836D01*
X236300000Y-168935187D01*
X236300000Y-214225244D01*
X236322596Y-214436614D01*
X236322597Y-214436617D01*
X236389365Y-214638445D01*
X236389367Y-214638448D01*
X236497292Y-214821605D01*
X236641495Y-214977808D01*
X238017231Y-216181577D01*
X238017237Y-216181582D01*
X238144362Y-216274071D01*
X238162352Y-216287160D01*
X238213987Y-216312056D01*
X238324002Y-216365101D01*
X238324006Y-216365102D01*
X238324008Y-216365103D01*
X238496993Y-216412896D01*
X238675735Y-216429000D01*
X263253413Y-216429000D01*
X263265687Y-216429599D01*
X263296673Y-216432631D01*
X263441214Y-216446780D01*
X263465284Y-216451538D01*
X263628223Y-216500644D01*
X263650923Y-216509983D01*
X263801242Y-216589751D01*
X263821703Y-216603316D01*
X263953703Y-216710720D01*
X263971145Y-216727995D01*
X264079810Y-216858952D01*
X264093569Y-216879279D01*
X264174779Y-217028826D01*
X264184337Y-217051438D01*
X264235005Y-217213888D01*
X264239997Y-217237925D01*
X264258865Y-217413284D01*
X264259582Y-217425540D01*
X264296426Y-221257352D01*
X264296428Y-221257383D01*
X264314238Y-221433759D01*
X264314239Y-221433764D01*
X264363694Y-221604023D01*
X264443154Y-221762508D01*
X264443161Y-221762520D01*
X264549998Y-221903998D01*
X264680269Y-222020313D01*
X264824046Y-222102751D01*
X264831771Y-222107180D01*
X264997959Y-222160849D01*
X265171652Y-222179000D01*
X265928346Y-222179000D01*
X265928348Y-222179000D01*
X266102041Y-222160849D01*
X266268229Y-222107180D01*
X266419731Y-222020313D01*
X266550000Y-221904000D01*
X266656536Y-221762568D01*
X266735324Y-221603996D01*
X266783693Y-221433663D01*
X266800000Y-221257348D01*
X266800000Y-217435187D01*
X266800607Y-217422837D01*
X266817998Y-217246262D01*
X266822814Y-217222042D01*
X266872521Y-217058181D01*
X266881965Y-217035380D01*
X266962682Y-216884369D01*
X266976398Y-216863842D01*
X267085025Y-216731479D01*
X267102479Y-216714025D01*
X267234842Y-216605398D01*
X267255369Y-216591682D01*
X267306105Y-216564563D01*
X267375610Y-216550092D01*
X267441906Y-216575496D01*
X267483944Y-216632709D01*
X267491500Y-216675686D01*
X267491500Y-216795945D01*
X267526153Y-216925274D01*
X267526154Y-216925276D01*
X267526155Y-216925278D01*
X267593097Y-217041224D01*
X267593099Y-217041227D01*
X267687772Y-217135900D01*
X267687775Y-217135902D01*
X267779226Y-217188701D01*
X267803726Y-217202847D01*
X267933055Y-217237500D01*
X267933057Y-217237500D01*
X268066943Y-217237500D01*
X268066945Y-217237500D01*
X268196274Y-217202847D01*
X268312226Y-217135901D01*
X268352487Y-217095640D01*
X268410905Y-217037223D01*
X268473217Y-217003197D01*
X268544032Y-217008262D01*
X268589095Y-217037223D01*
X268687772Y-217135900D01*
X268687775Y-217135902D01*
X268779226Y-217188701D01*
X268803726Y-217202847D01*
X268933055Y-217237500D01*
X268933057Y-217237500D01*
X269066943Y-217237500D01*
X269066945Y-217237500D01*
X269196274Y-217202847D01*
X269312226Y-217135901D01*
X269406901Y-217041226D01*
X269473847Y-216925274D01*
X269508500Y-216795945D01*
X269508500Y-216662055D01*
X269488553Y-216587610D01*
X269490243Y-216516634D01*
X269530038Y-216457838D01*
X269595302Y-216429891D01*
X269610260Y-216429000D01*
X272389740Y-216429000D01*
X272407337Y-216434167D01*
X272425680Y-216434234D01*
X272440695Y-216443961D01*
X272457861Y-216449002D01*
X272469872Y-216462863D01*
X272485265Y-216472836D01*
X272492637Y-216489135D01*
X272504354Y-216502658D01*
X272506964Y-216520814D01*
X272514522Y-216537524D01*
X272512979Y-216562648D01*
X272514458Y-216572932D01*
X272514391Y-216573387D01*
X272513328Y-216580586D01*
X272491500Y-216662055D01*
X272491500Y-216728568D01*
X272490151Y-216737714D01*
X272479001Y-216761894D01*
X272471498Y-216787448D01*
X272461494Y-216799860D01*
X272460422Y-216802187D01*
X272458772Y-216803238D01*
X272454595Y-216808422D01*
X268797682Y-220465335D01*
X268767009Y-220496008D01*
X268736336Y-220526680D01*
X268736332Y-220526685D01*
X268692957Y-220601813D01*
X268692954Y-220601820D01*
X268670500Y-220685622D01*
X268670500Y-222203101D01*
X268650498Y-222271222D01*
X268596842Y-222317715D01*
X268526568Y-222327819D01*
X268461988Y-222298325D01*
X268435381Y-222266101D01*
X268406902Y-222216775D01*
X268406900Y-222216772D01*
X268312227Y-222122099D01*
X268312224Y-222122097D01*
X268196278Y-222055155D01*
X268196276Y-222055154D01*
X268196274Y-222055153D01*
X268066945Y-222020500D01*
X267933055Y-222020500D01*
X267803726Y-222055153D01*
X267803724Y-222055154D01*
X267803721Y-222055155D01*
X267687775Y-222122097D01*
X267687772Y-222122099D01*
X267593099Y-222216772D01*
X267593097Y-222216775D01*
X267526155Y-222332721D01*
X267526152Y-222332728D01*
X267496048Y-222445081D01*
X267459096Y-222505704D01*
X267395235Y-222536725D01*
X267324741Y-222528297D01*
X267311341Y-222521589D01*
X267196278Y-222455157D01*
X267196276Y-222455156D01*
X267196274Y-222455155D01*
X267066945Y-222420502D01*
X266933055Y-222420502D01*
X266803726Y-222455155D01*
X266803724Y-222455156D01*
X266803721Y-222455157D01*
X266687775Y-222522099D01*
X266687772Y-222522101D01*
X266593099Y-222616774D01*
X266593097Y-222616777D01*
X266526155Y-222732723D01*
X266526154Y-222732726D01*
X266526153Y-222732728D01*
X266494506Y-222850838D01*
X266491500Y-222862058D01*
X266491500Y-222873500D01*
X266471498Y-222941621D01*
X266417842Y-222988114D01*
X266365500Y-222999500D01*
X259154767Y-222999500D01*
X259086646Y-222979498D01*
X259040153Y-222925842D01*
X259030049Y-222855568D01*
X259033060Y-222840889D01*
X259058500Y-222745945D01*
X259058500Y-222612055D01*
X259023847Y-222482726D01*
X258996806Y-222435891D01*
X258956902Y-222366775D01*
X258956900Y-222366772D01*
X258862227Y-222272099D01*
X258862224Y-222272097D01*
X258746278Y-222205155D01*
X258746276Y-222205154D01*
X258746274Y-222205153D01*
X258616945Y-222170500D01*
X258483055Y-222170500D01*
X258353726Y-222205153D01*
X258353724Y-222205154D01*
X258353721Y-222205155D01*
X258237775Y-222272097D01*
X258237772Y-222272099D01*
X258143099Y-222366772D01*
X258143097Y-222366775D01*
X258076155Y-222482721D01*
X258076153Y-222482725D01*
X258076153Y-222482726D01*
X258069886Y-222506111D01*
X258032937Y-222566733D01*
X257969077Y-222597755D01*
X257948181Y-222599500D01*
X202188674Y-222599500D01*
X202120553Y-222579498D01*
X202099579Y-222562595D01*
X201245405Y-221708421D01*
X201211379Y-221646109D01*
X201208500Y-221619326D01*
X201208500Y-221562056D01*
X201201444Y-221535723D01*
X201173847Y-221432726D01*
X201156596Y-221402847D01*
X201106902Y-221316775D01*
X201106900Y-221316772D01*
X201012227Y-221222099D01*
X201012224Y-221222097D01*
X200896278Y-221155155D01*
X200896276Y-221155154D01*
X200896274Y-221155153D01*
X200766945Y-221120500D01*
X200633055Y-221120500D01*
X200503726Y-221155153D01*
X200503724Y-221155154D01*
X200503721Y-221155155D01*
X200387775Y-221222097D01*
X200387772Y-221222099D01*
X200293099Y-221316772D01*
X200259119Y-221375628D01*
X200207736Y-221424621D01*
X200138022Y-221438056D01*
X200072111Y-221411669D01*
X200040881Y-221375628D01*
X200006900Y-221316772D01*
X199912227Y-221222099D01*
X199912224Y-221222097D01*
X199796278Y-221155155D01*
X199796276Y-221155154D01*
X199796274Y-221155153D01*
X199666945Y-221120500D01*
X199533055Y-221120500D01*
X199403726Y-221155153D01*
X199403724Y-221155154D01*
X199403721Y-221155155D01*
X199287775Y-221222097D01*
X199287772Y-221222099D01*
X199193099Y-221316772D01*
X199193097Y-221316775D01*
X199126155Y-221432721D01*
X199126154Y-221432724D01*
X199126153Y-221432726D01*
X199091500Y-221562055D01*
X199091500Y-221695945D01*
X199126153Y-221825274D01*
X199126154Y-221825276D01*
X199126155Y-221825278D01*
X199197228Y-221948379D01*
X199195403Y-221949432D01*
X199216949Y-222005171D01*
X199202682Y-222074719D01*
X199153079Y-222125513D01*
X199091280Y-222141650D01*
X198842388Y-222141440D01*
X198833026Y-222141602D01*
X198823947Y-222141923D01*
X198742434Y-222158124D01*
X198675924Y-222182932D01*
X198675907Y-222182939D01*
X198634191Y-222202897D01*
X198567994Y-222262359D01*
X198503949Y-222293000D01*
X198433506Y-222284151D01*
X198394700Y-222257717D01*
X197845405Y-221708422D01*
X197811379Y-221646110D01*
X197808500Y-221619327D01*
X197808500Y-221562056D01*
X197801444Y-221535723D01*
X197773847Y-221432726D01*
X197756596Y-221402847D01*
X197706902Y-221316775D01*
X197706900Y-221316772D01*
X197612227Y-221222099D01*
X197612224Y-221222097D01*
X197496278Y-221155155D01*
X197496276Y-221155154D01*
X197496274Y-221155153D01*
X197366945Y-221120500D01*
X197233055Y-221120500D01*
X197103726Y-221155153D01*
X197103724Y-221155154D01*
X197103721Y-221155155D01*
X196987775Y-221222097D01*
X196987772Y-221222099D01*
X196893099Y-221316772D01*
X196893097Y-221316775D01*
X196826155Y-221432721D01*
X196826152Y-221432728D01*
X196824874Y-221437500D01*
X196821706Y-221449322D01*
X196784755Y-221509944D01*
X196720895Y-221540965D01*
X196650400Y-221532537D01*
X196595653Y-221487334D01*
X196578294Y-221449323D01*
X196573847Y-221432726D01*
X196556596Y-221402847D01*
X196506902Y-221316775D01*
X196506900Y-221316772D01*
X196412227Y-221222099D01*
X196412224Y-221222097D01*
X196296278Y-221155155D01*
X196296276Y-221155154D01*
X196296274Y-221155153D01*
X196166945Y-221120500D01*
X196033055Y-221120500D01*
X195903726Y-221155153D01*
X195903724Y-221155154D01*
X195903721Y-221155155D01*
X195787775Y-221222097D01*
X195787772Y-221222099D01*
X195693099Y-221316772D01*
X195693097Y-221316775D01*
X195626155Y-221432721D01*
X195626154Y-221432724D01*
X195626153Y-221432726D01*
X195591500Y-221562055D01*
X195591500Y-221695945D01*
X195626153Y-221825274D01*
X195626154Y-221825276D01*
X195626155Y-221825278D01*
X195697228Y-221948379D01*
X195694478Y-221949966D01*
X195714681Y-222002174D01*
X195700438Y-222071727D01*
X195650853Y-222122539D01*
X195589015Y-222138697D01*
X120205484Y-222075137D01*
X120205483Y-222075137D01*
X120205472Y-222075137D01*
X120192743Y-222075439D01*
X120186568Y-222075737D01*
X120180392Y-222076035D01*
X120167659Y-222076963D01*
X119990928Y-222094232D01*
X119965737Y-222097950D01*
X119965735Y-222097950D01*
X119941507Y-222102751D01*
X119916778Y-222108928D01*
X119916770Y-222108930D01*
X119752777Y-222158563D01*
X119746376Y-222160849D01*
X119728795Y-222167127D01*
X119728749Y-222167145D01*
X119705951Y-222176573D01*
X119705949Y-222176574D01*
X119682892Y-222187463D01*
X119531742Y-222268158D01*
X119509901Y-222281235D01*
X119489336Y-222294963D01*
X119468866Y-222310131D01*
X119336367Y-222418788D01*
X119317496Y-222435879D01*
X119317483Y-222435891D01*
X119300006Y-222453359D01*
X119300000Y-222453365D01*
X119282888Y-222472234D01*
X119282865Y-222472261D01*
X119174188Y-222604624D01*
X119174171Y-222604645D01*
X119174162Y-222604657D01*
X119174151Y-222604672D01*
X119158985Y-222625111D01*
X119158271Y-222626180D01*
X119145242Y-222645673D01*
X119143632Y-222648359D01*
X119132131Y-222667540D01*
X119051365Y-222818609D01*
X119051357Y-222818625D01*
X119040463Y-222841655D01*
X119030999Y-222864500D01*
X119030995Y-222864510D01*
X119022428Y-222888453D01*
X119022413Y-222888497D01*
X118972687Y-223052447D01*
X118966492Y-223077184D01*
X118966490Y-223077195D01*
X118961686Y-223101358D01*
X118961677Y-223101410D01*
X118957946Y-223126589D01*
X118957938Y-223126651D01*
X118940567Y-223303350D01*
X118939633Y-223316046D01*
X118939030Y-223328389D01*
X118938721Y-223341124D01*
X118939827Y-227812298D01*
X118939830Y-227823571D01*
X118939830Y-227823574D01*
X118940249Y-229522056D01*
X118940564Y-229534761D01*
X118941173Y-229547117D01*
X118942113Y-229559813D01*
X118942116Y-229559843D01*
X118959571Y-229736525D01*
X118959572Y-229736537D01*
X118959574Y-229736549D01*
X118963314Y-229761708D01*
X118963319Y-229761732D01*
X118968139Y-229785929D01*
X118974343Y-229810659D01*
X119024138Y-229974574D01*
X119032742Y-229998588D01*
X119042213Y-230021420D01*
X119053106Y-230044422D01*
X119053108Y-230044427D01*
X119097038Y-230126514D01*
X119133938Y-230195465D01*
X119147045Y-230217306D01*
X119157505Y-230232942D01*
X119178756Y-230300684D01*
X119160009Y-230369161D01*
X119107217Y-230416632D01*
X119052777Y-230429000D01*
X95556187Y-230429000D01*
X95543838Y-230428393D01*
X95511095Y-230425168D01*
X95367261Y-230411001D01*
X95343037Y-230406183D01*
X95179191Y-230356482D01*
X95156372Y-230347030D01*
X95108011Y-230321180D01*
X95005372Y-230266318D01*
X94984834Y-230252595D01*
X94852485Y-230143979D01*
X94835020Y-230126514D01*
X94726404Y-229994165D01*
X94712681Y-229973627D01*
X94699064Y-229948153D01*
X94631967Y-229822622D01*
X94622520Y-229799815D01*
X94572815Y-229635959D01*
X94567998Y-229611737D01*
X94550607Y-229435162D01*
X94550000Y-229422812D01*
X94550000Y-227185187D01*
X94550607Y-227172837D01*
X94567998Y-226996262D01*
X94572814Y-226972042D01*
X94622521Y-226808181D01*
X94631965Y-226785380D01*
X94712682Y-226634369D01*
X94726398Y-226613842D01*
X94835025Y-226481479D01*
X94852479Y-226464025D01*
X94984842Y-226355398D01*
X95005369Y-226341682D01*
X95156380Y-226260965D01*
X95179181Y-226251521D01*
X95343042Y-226201814D01*
X95367257Y-226196998D01*
X95543837Y-226179606D01*
X95556187Y-226179000D01*
X100946438Y-226179000D01*
X100946447Y-226179000D01*
X101056110Y-226168198D01*
X101112959Y-226162600D01*
X101112961Y-226162600D01*
X101112962Y-226162599D01*
X101112967Y-226162599D01*
X101273087Y-226114027D01*
X101420655Y-226035150D01*
X101550000Y-225929000D01*
X101656150Y-225799655D01*
X101735027Y-225652087D01*
X101783599Y-225491967D01*
X101800000Y-225325447D01*
X101800000Y-224812236D01*
X109699500Y-224812236D01*
X109699500Y-224818474D01*
X109699500Y-225187764D01*
X109732229Y-225561863D01*
X109797439Y-225931685D01*
X109846298Y-226114027D01*
X109894635Y-226294425D01*
X110023070Y-226647296D01*
X110181772Y-226987635D01*
X110181782Y-226987653D01*
X110288242Y-227172046D01*
X110309331Y-227208574D01*
X110369542Y-227312861D01*
X110584929Y-227620467D01*
X110584933Y-227620472D01*
X110584934Y-227620473D01*
X110826318Y-227908144D01*
X110826322Y-227908148D01*
X110826328Y-227908155D01*
X111091844Y-228173671D01*
X111091850Y-228173676D01*
X111091856Y-228173682D01*
X111291722Y-228341389D01*
X111379532Y-228415070D01*
X111479460Y-228485040D01*
X111687142Y-228630460D01*
X112012358Y-228818224D01*
X112352702Y-228976929D01*
X112553476Y-229050004D01*
X112705574Y-229105364D01*
X112705576Y-229105364D01*
X112705583Y-229105367D01*
X113068315Y-229202561D01*
X113438137Y-229267771D01*
X113812236Y-229300500D01*
X113812242Y-229300500D01*
X114187758Y-229300500D01*
X114187764Y-229300500D01*
X114561863Y-229267771D01*
X114931685Y-229202561D01*
X115294417Y-229105367D01*
X115647298Y-228976929D01*
X115987642Y-228818224D01*
X116312858Y-228630460D01*
X116620473Y-228415066D01*
X116908144Y-228173682D01*
X117173682Y-227908144D01*
X117415066Y-227620473D01*
X117630460Y-227312858D01*
X117818224Y-226987642D01*
X117976929Y-226647298D01*
X118105367Y-226294417D01*
X118202561Y-225931685D01*
X118267771Y-225561863D01*
X118300500Y-225187764D01*
X118300500Y-224812236D01*
X118267771Y-224438137D01*
X118202561Y-224068315D01*
X118105367Y-223705583D01*
X117976929Y-223352702D01*
X117818224Y-223012358D01*
X117630460Y-222687142D01*
X117542681Y-222561780D01*
X117415070Y-222379532D01*
X117398263Y-222359502D01*
X117173682Y-222091856D01*
X117173676Y-222091850D01*
X117173671Y-222091844D01*
X116908155Y-221826328D01*
X116908148Y-221826322D01*
X116908144Y-221826318D01*
X116620473Y-221584934D01*
X116620472Y-221584933D01*
X116620467Y-221584929D01*
X116312861Y-221369542D01*
X116266210Y-221342608D01*
X116162192Y-221282553D01*
X115987653Y-221181782D01*
X115987635Y-221181772D01*
X115647296Y-221023070D01*
X115507526Y-220972198D01*
X115294425Y-220894635D01*
X115172838Y-220862056D01*
X115172834Y-220862055D01*
X241291500Y-220862055D01*
X241291500Y-220995945D01*
X241326153Y-221125274D01*
X241326154Y-221125276D01*
X241326155Y-221125278D01*
X241393097Y-221241224D01*
X241393099Y-221241227D01*
X241487772Y-221335900D01*
X241487775Y-221335902D01*
X241546041Y-221369542D01*
X241603726Y-221402847D01*
X241733055Y-221437500D01*
X241733057Y-221437500D01*
X241866943Y-221437500D01*
X241866945Y-221437500D01*
X241996274Y-221402847D01*
X242112226Y-221335901D01*
X242206901Y-221241226D01*
X242273847Y-221125274D01*
X242308500Y-220995945D01*
X242308500Y-220862055D01*
X242273847Y-220732726D01*
X242254664Y-220699500D01*
X242206902Y-220616775D01*
X242206900Y-220616772D01*
X242112227Y-220522099D01*
X242112224Y-220522097D01*
X241996278Y-220455155D01*
X241996276Y-220455154D01*
X241996274Y-220455153D01*
X241866945Y-220420500D01*
X241733055Y-220420500D01*
X241603726Y-220455153D01*
X241603724Y-220455154D01*
X241603721Y-220455155D01*
X241487775Y-220522097D01*
X241487772Y-220522099D01*
X241393099Y-220616772D01*
X241393097Y-220616775D01*
X241326155Y-220732721D01*
X241326154Y-220732724D01*
X241326153Y-220732726D01*
X241291500Y-220862055D01*
X115172834Y-220862055D01*
X114931685Y-220797439D01*
X114561863Y-220732229D01*
X114187764Y-220699500D01*
X113812236Y-220699500D01*
X113438137Y-220732229D01*
X113068315Y-220797439D01*
X113068311Y-220797440D01*
X112705574Y-220894635D01*
X112352703Y-221023070D01*
X112012364Y-221181772D01*
X112012346Y-221181782D01*
X111687138Y-221369542D01*
X111379532Y-221584929D01*
X111091844Y-221826328D01*
X110826328Y-222091844D01*
X110584929Y-222379532D01*
X110369542Y-222687138D01*
X110181782Y-223012346D01*
X110181772Y-223012364D01*
X110023070Y-223352703D01*
X109894635Y-223705574D01*
X109839140Y-223912685D01*
X109797439Y-224068315D01*
X109732229Y-224438137D01*
X109699500Y-224812236D01*
X101800000Y-224812236D01*
X101800000Y-223264356D01*
X103024500Y-223264356D01*
X103024500Y-223433644D01*
X103028368Y-223458064D01*
X103050983Y-223600852D01*
X103103293Y-223761845D01*
X103103294Y-223761848D01*
X103103295Y-223761849D01*
X103180150Y-223912685D01*
X103279654Y-224049641D01*
X103279656Y-224049643D01*
X103279658Y-224049646D01*
X103399353Y-224169341D01*
X103399356Y-224169343D01*
X103399359Y-224169346D01*
X103536315Y-224268850D01*
X103687151Y-224345705D01*
X103848153Y-224398018D01*
X104015356Y-224424500D01*
X104015359Y-224424500D01*
X104184641Y-224424500D01*
X104184644Y-224424500D01*
X104351847Y-224398018D01*
X104512849Y-224345705D01*
X104663685Y-224268850D01*
X104800641Y-224169346D01*
X104920346Y-224049641D01*
X105019850Y-223912685D01*
X105096705Y-223761849D01*
X105149018Y-223600847D01*
X105175500Y-223433644D01*
X105175500Y-223264356D01*
X105149018Y-223097153D01*
X105096705Y-222936151D01*
X105019850Y-222785315D01*
X104920346Y-222648359D01*
X104920343Y-222648356D01*
X104920341Y-222648353D01*
X104800646Y-222528658D01*
X104800643Y-222528656D01*
X104800641Y-222528654D01*
X104663685Y-222429150D01*
X104512849Y-222352295D01*
X104512848Y-222352294D01*
X104512845Y-222352293D01*
X104351852Y-222299983D01*
X104351848Y-222299982D01*
X104351847Y-222299982D01*
X104184644Y-222273500D01*
X104015356Y-222273500D01*
X103848153Y-222299982D01*
X103848147Y-222299983D01*
X103687154Y-222352293D01*
X103536311Y-222429152D01*
X103399356Y-222528656D01*
X103399353Y-222528658D01*
X103279658Y-222648353D01*
X103279656Y-222648356D01*
X103180152Y-222785311D01*
X103103293Y-222936154D01*
X103050983Y-223097147D01*
X103050982Y-223097152D01*
X103050982Y-223097153D01*
X103024500Y-223264356D01*
X101800000Y-223264356D01*
X101800000Y-221282553D01*
X101783600Y-221116040D01*
X101783600Y-221116038D01*
X101783599Y-221116035D01*
X101783599Y-221116033D01*
X101735027Y-220955913D01*
X101656150Y-220808345D01*
X101550000Y-220679000D01*
X101549998Y-220678998D01*
X101549983Y-220678982D01*
X101476792Y-220605791D01*
X101476771Y-220605772D01*
X101351775Y-220509859D01*
X101206211Y-220449566D01*
X101054088Y-220429538D01*
X101045953Y-220428195D01*
X100978909Y-220414859D01*
X100933491Y-220396046D01*
X100894063Y-220369702D01*
X100859298Y-220334937D01*
X100832953Y-220295508D01*
X100814140Y-220250088D01*
X100802421Y-220191170D01*
X100800000Y-220166590D01*
X100800000Y-219463262D01*
X100820002Y-219395141D01*
X100858185Y-219362055D01*
X239791500Y-219362055D01*
X239791500Y-219495945D01*
X239826153Y-219625274D01*
X239826154Y-219625276D01*
X239826155Y-219625278D01*
X239893097Y-219741224D01*
X239893099Y-219741227D01*
X239987772Y-219835900D01*
X239987775Y-219835902D01*
X240079226Y-219888701D01*
X240103726Y-219902847D01*
X240233055Y-219937500D01*
X240233057Y-219937500D01*
X240366943Y-219937500D01*
X240366945Y-219937500D01*
X240496274Y-219902847D01*
X240612226Y-219835901D01*
X240706901Y-219741226D01*
X240773847Y-219625274D01*
X240808500Y-219495945D01*
X240808500Y-219362055D01*
X241291500Y-219362055D01*
X241291500Y-219495945D01*
X241326153Y-219625274D01*
X241326154Y-219625276D01*
X241326155Y-219625278D01*
X241393097Y-219741224D01*
X241393099Y-219741227D01*
X241487772Y-219835900D01*
X241487775Y-219835902D01*
X241579226Y-219888701D01*
X241603726Y-219902847D01*
X241733055Y-219937500D01*
X241733057Y-219937500D01*
X241866943Y-219937500D01*
X241866945Y-219937500D01*
X241996274Y-219902847D01*
X242112226Y-219835901D01*
X242206901Y-219741226D01*
X242273847Y-219625274D01*
X242308500Y-219495945D01*
X242308500Y-219362055D01*
X242273847Y-219232726D01*
X242206901Y-219116774D01*
X242206900Y-219116772D01*
X242112227Y-219022099D01*
X242112224Y-219022097D01*
X241996278Y-218955155D01*
X241996276Y-218955154D01*
X241996274Y-218955153D01*
X241866945Y-218920500D01*
X241733055Y-218920500D01*
X241603726Y-218955153D01*
X241603724Y-218955154D01*
X241603721Y-218955155D01*
X241487775Y-219022097D01*
X241487772Y-219022099D01*
X241393099Y-219116772D01*
X241393097Y-219116775D01*
X241326155Y-219232721D01*
X241326154Y-219232724D01*
X241326153Y-219232726D01*
X241291500Y-219362055D01*
X240808500Y-219362055D01*
X240773847Y-219232726D01*
X240706901Y-219116774D01*
X240706900Y-219116772D01*
X240612227Y-219022099D01*
X240612224Y-219022097D01*
X240496278Y-218955155D01*
X240496276Y-218955154D01*
X240496274Y-218955153D01*
X240366945Y-218920500D01*
X240233055Y-218920500D01*
X240103726Y-218955153D01*
X240103724Y-218955154D01*
X240103721Y-218955155D01*
X239987775Y-219022097D01*
X239987772Y-219022099D01*
X239893099Y-219116772D01*
X239893097Y-219116775D01*
X239826155Y-219232721D01*
X239826154Y-219232724D01*
X239826153Y-219232726D01*
X239791500Y-219362055D01*
X100858185Y-219362055D01*
X100873658Y-219348648D01*
X100943932Y-219338544D01*
X100958589Y-219341550D01*
X101033055Y-219361503D01*
X101033058Y-219361503D01*
X101166943Y-219361503D01*
X101166945Y-219361503D01*
X101296274Y-219326850D01*
X101412226Y-219259904D01*
X101506901Y-219165229D01*
X101573847Y-219049277D01*
X101608500Y-218919948D01*
X101608500Y-218786058D01*
X101573847Y-218656729D01*
X101568115Y-218646801D01*
X101521609Y-218566250D01*
X101504871Y-218497254D01*
X101521607Y-218440253D01*
X101573847Y-218349774D01*
X101608500Y-218220445D01*
X101608500Y-218086555D01*
X101573847Y-217957226D01*
X101518899Y-217862055D01*
X238291500Y-217862055D01*
X238291500Y-217995945D01*
X238326153Y-218125274D01*
X238326154Y-218125276D01*
X238326155Y-218125278D01*
X238393097Y-218241224D01*
X238393099Y-218241227D01*
X238487772Y-218335900D01*
X238487775Y-218335902D01*
X238511797Y-218349771D01*
X238603726Y-218402847D01*
X238733055Y-218437500D01*
X238733057Y-218437500D01*
X238866943Y-218437500D01*
X238866945Y-218437500D01*
X238996274Y-218402847D01*
X239112226Y-218335901D01*
X239206901Y-218241226D01*
X239273847Y-218125274D01*
X239308500Y-217995945D01*
X239308500Y-217862055D01*
X239791500Y-217862055D01*
X239791500Y-217995945D01*
X239826153Y-218125274D01*
X239826154Y-218125276D01*
X239826155Y-218125278D01*
X239893097Y-218241224D01*
X239893099Y-218241227D01*
X239987772Y-218335900D01*
X239987775Y-218335902D01*
X240011797Y-218349771D01*
X240103726Y-218402847D01*
X240233055Y-218437500D01*
X240233057Y-218437500D01*
X240366943Y-218437500D01*
X240366945Y-218437500D01*
X240496274Y-218402847D01*
X240612226Y-218335901D01*
X240706901Y-218241226D01*
X240773847Y-218125274D01*
X240808500Y-217995945D01*
X240808500Y-217862055D01*
X241291500Y-217862055D01*
X241291500Y-217995945D01*
X241326153Y-218125274D01*
X241326154Y-218125276D01*
X241326155Y-218125278D01*
X241393097Y-218241224D01*
X241393099Y-218241227D01*
X241487772Y-218335900D01*
X241487775Y-218335902D01*
X241511797Y-218349771D01*
X241603726Y-218402847D01*
X241733055Y-218437500D01*
X241733057Y-218437500D01*
X241866943Y-218437500D01*
X241866945Y-218437500D01*
X241996274Y-218402847D01*
X242112226Y-218335901D01*
X242206901Y-218241226D01*
X242273847Y-218125274D01*
X242308500Y-217995945D01*
X242308500Y-217862055D01*
X242273847Y-217732726D01*
X242234714Y-217664947D01*
X242206902Y-217616775D01*
X242206900Y-217616772D01*
X242112227Y-217522099D01*
X242112224Y-217522097D01*
X241996278Y-217455155D01*
X241996276Y-217455154D01*
X241996274Y-217455153D01*
X241866945Y-217420500D01*
X241733055Y-217420500D01*
X241603726Y-217455153D01*
X241603724Y-217455154D01*
X241603721Y-217455155D01*
X241487775Y-217522097D01*
X241487772Y-217522099D01*
X241393099Y-217616772D01*
X241393097Y-217616775D01*
X241326155Y-217732721D01*
X241326154Y-217732724D01*
X241326153Y-217732726D01*
X241291500Y-217862055D01*
X240808500Y-217862055D01*
X240773847Y-217732726D01*
X240734714Y-217664947D01*
X240706902Y-217616775D01*
X240706900Y-217616772D01*
X240612227Y-217522099D01*
X240612224Y-217522097D01*
X240496278Y-217455155D01*
X240496276Y-217455154D01*
X240496274Y-217455153D01*
X240366945Y-217420500D01*
X240233055Y-217420500D01*
X240103726Y-217455153D01*
X240103724Y-217455154D01*
X240103721Y-217455155D01*
X239987775Y-217522097D01*
X239987772Y-217522099D01*
X239893099Y-217616772D01*
X239893097Y-217616775D01*
X239826155Y-217732721D01*
X239826154Y-217732724D01*
X239826153Y-217732726D01*
X239791500Y-217862055D01*
X239308500Y-217862055D01*
X239273847Y-217732726D01*
X239234714Y-217664947D01*
X239206902Y-217616775D01*
X239206900Y-217616772D01*
X239112227Y-217522099D01*
X239112224Y-217522097D01*
X238996278Y-217455155D01*
X238996276Y-217455154D01*
X238996274Y-217455153D01*
X238866945Y-217420500D01*
X238733055Y-217420500D01*
X238603726Y-217455153D01*
X238603724Y-217455154D01*
X238603721Y-217455155D01*
X238487775Y-217522097D01*
X238487772Y-217522099D01*
X238393099Y-217616772D01*
X238393097Y-217616775D01*
X238326155Y-217732721D01*
X238326154Y-217732724D01*
X238326153Y-217732726D01*
X238291500Y-217862055D01*
X101518899Y-217862055D01*
X101506901Y-217841274D01*
X101506900Y-217841272D01*
X101412227Y-217746599D01*
X101412224Y-217746597D01*
X101296278Y-217679655D01*
X101296276Y-217679654D01*
X101296274Y-217679653D01*
X101166945Y-217645000D01*
X101033055Y-217645000D01*
X101033054Y-217645000D01*
X100958610Y-217664947D01*
X100887634Y-217663257D01*
X100828838Y-217623462D01*
X100800891Y-217558198D01*
X100800000Y-217543240D01*
X100800000Y-216954220D01*
X100820002Y-216886099D01*
X100873658Y-216839606D01*
X100943932Y-216829502D01*
X100988996Y-216845099D01*
X101002415Y-216852847D01*
X101131744Y-216887500D01*
X101131746Y-216887500D01*
X101265632Y-216887500D01*
X101265634Y-216887500D01*
X101394963Y-216852847D01*
X101510915Y-216785901D01*
X101605590Y-216691226D01*
X101672536Y-216575274D01*
X101707189Y-216445945D01*
X101707189Y-216312055D01*
X232191500Y-216312055D01*
X232191500Y-216445945D01*
X232226153Y-216575274D01*
X232226154Y-216575276D01*
X232226155Y-216575278D01*
X232293097Y-216691224D01*
X232293099Y-216691227D01*
X232387772Y-216785900D01*
X232387775Y-216785902D01*
X232460114Y-216827667D01*
X232503726Y-216852847D01*
X232633055Y-216887500D01*
X232633057Y-216887500D01*
X232766943Y-216887500D01*
X232766945Y-216887500D01*
X232896274Y-216852847D01*
X233012226Y-216785901D01*
X233106901Y-216691226D01*
X233173847Y-216575274D01*
X233208500Y-216445945D01*
X233208500Y-216312055D01*
X233173847Y-216182726D01*
X233151518Y-216144051D01*
X233108422Y-216069408D01*
X233091684Y-216000413D01*
X233114904Y-215933321D01*
X233117589Y-215929690D01*
X233119038Y-215927800D01*
X233119046Y-215927793D01*
X233120568Y-215925158D01*
X233166431Y-215845721D01*
X233185992Y-215811841D01*
X233220645Y-215682512D01*
X233220645Y-215548622D01*
X233185992Y-215419293D01*
X233155670Y-215366774D01*
X233119047Y-215303342D01*
X233119045Y-215303339D01*
X233024372Y-215208666D01*
X233024369Y-215208664D01*
X232908423Y-215141722D01*
X232908421Y-215141721D01*
X232908419Y-215141720D01*
X232779090Y-215107067D01*
X232645200Y-215107067D01*
X232515871Y-215141720D01*
X232515869Y-215141721D01*
X232515866Y-215141722D01*
X232399920Y-215208664D01*
X232399917Y-215208666D01*
X232305244Y-215303339D01*
X232305242Y-215303342D01*
X232238300Y-215419288D01*
X232238299Y-215419291D01*
X232238298Y-215419293D01*
X232203645Y-215548622D01*
X232203645Y-215682512D01*
X232238298Y-215811841D01*
X232238299Y-215811843D01*
X232238300Y-215811845D01*
X232303722Y-215925158D01*
X232320460Y-215994153D01*
X232297240Y-216061245D01*
X232294565Y-216064863D01*
X232293096Y-216066776D01*
X232226155Y-216182721D01*
X232226154Y-216182724D01*
X232226153Y-216182726D01*
X232191500Y-216312055D01*
X101707189Y-216312055D01*
X101672536Y-216182726D01*
X101650207Y-216144051D01*
X101620155Y-216092000D01*
X101603417Y-216023005D01*
X101620155Y-215966000D01*
X101658150Y-215900191D01*
X101672536Y-215875274D01*
X101707189Y-215745945D01*
X101707189Y-215612055D01*
X101672536Y-215482726D01*
X101635914Y-215419295D01*
X101605591Y-215366775D01*
X101605589Y-215366772D01*
X101510916Y-215272099D01*
X101510913Y-215272097D01*
X101394967Y-215205155D01*
X101394965Y-215205154D01*
X101394963Y-215205153D01*
X101265634Y-215170500D01*
X101131744Y-215170500D01*
X101002415Y-215205153D01*
X101002413Y-215205153D01*
X101002412Y-215205154D01*
X100988999Y-215212899D01*
X100920003Y-215229636D01*
X100852911Y-215206415D01*
X100809025Y-215150607D01*
X100800000Y-215103779D01*
X100800000Y-214639259D01*
X100820002Y-214571138D01*
X100873658Y-214524645D01*
X100943932Y-214514541D01*
X100958589Y-214517547D01*
X101033055Y-214537500D01*
X101033058Y-214537500D01*
X101166943Y-214537500D01*
X101166945Y-214537500D01*
X101296274Y-214502847D01*
X101412226Y-214435901D01*
X101506901Y-214341226D01*
X101573847Y-214225274D01*
X101608500Y-214095945D01*
X101608500Y-213962055D01*
X101573847Y-213832726D01*
X101506901Y-213716774D01*
X101501876Y-213710225D01*
X101503321Y-213709115D01*
X101474199Y-213655797D01*
X101479256Y-213584981D01*
X101502740Y-213548438D01*
X101501876Y-213547775D01*
X101506898Y-213541228D01*
X101506901Y-213541226D01*
X101573847Y-213425274D01*
X101608500Y-213295945D01*
X101608500Y-213162055D01*
X101573847Y-213032726D01*
X101561912Y-213012055D01*
X111591500Y-213012055D01*
X111591500Y-213145945D01*
X111626153Y-213275274D01*
X111626153Y-213275275D01*
X111626154Y-213275276D01*
X111678534Y-213366001D01*
X111695271Y-213434996D01*
X111678534Y-213491999D01*
X111626154Y-213582723D01*
X111626153Y-213582724D01*
X111626153Y-213582726D01*
X111591500Y-213712055D01*
X111591500Y-213845945D01*
X111626153Y-213975274D01*
X111626154Y-213975276D01*
X111626155Y-213975278D01*
X111693097Y-214091224D01*
X111693099Y-214091227D01*
X111787772Y-214185900D01*
X111787775Y-214185902D01*
X111855917Y-214225244D01*
X111903726Y-214252847D01*
X112033055Y-214287500D01*
X112033057Y-214287500D01*
X112166943Y-214287500D01*
X112166945Y-214287500D01*
X112296274Y-214252847D01*
X112412226Y-214185901D01*
X112506901Y-214091226D01*
X112573847Y-213975274D01*
X112608500Y-213845945D01*
X112608500Y-213712055D01*
X112573847Y-213582726D01*
X112564579Y-213566674D01*
X112521466Y-213492000D01*
X112504728Y-213423005D01*
X112521466Y-213366000D01*
X112561912Y-213295945D01*
X112573847Y-213275274D01*
X112608500Y-213145945D01*
X112608500Y-213012055D01*
X219691500Y-213012055D01*
X219691500Y-213145945D01*
X219726153Y-213275274D01*
X219726153Y-213275275D01*
X219726154Y-213275276D01*
X219778534Y-213366001D01*
X219795271Y-213434996D01*
X219778534Y-213491999D01*
X219726154Y-213582723D01*
X219726153Y-213582724D01*
X219726153Y-213582726D01*
X219691500Y-213712055D01*
X219691500Y-213845945D01*
X219726153Y-213975274D01*
X219726154Y-213975276D01*
X219726155Y-213975278D01*
X219793097Y-214091224D01*
X219793099Y-214091227D01*
X219887772Y-214185900D01*
X219887775Y-214185902D01*
X219955917Y-214225244D01*
X220003726Y-214252847D01*
X220133055Y-214287500D01*
X220133057Y-214287500D01*
X220266943Y-214287500D01*
X220266945Y-214287500D01*
X220396274Y-214252847D01*
X220512226Y-214185901D01*
X220606901Y-214091226D01*
X220673847Y-213975274D01*
X220708500Y-213845945D01*
X220708500Y-213712055D01*
X220673847Y-213582726D01*
X220664579Y-213566674D01*
X220621466Y-213492000D01*
X220604728Y-213423005D01*
X220621466Y-213366000D01*
X220661912Y-213295945D01*
X220673847Y-213275274D01*
X220708500Y-213145945D01*
X220708500Y-213012055D01*
X220673847Y-212882726D01*
X220659701Y-212858226D01*
X220606902Y-212766775D01*
X220606900Y-212766772D01*
X220512227Y-212672099D01*
X220512224Y-212672097D01*
X220396278Y-212605155D01*
X220396276Y-212605154D01*
X220396274Y-212605153D01*
X220266945Y-212570500D01*
X220133055Y-212570500D01*
X220003726Y-212605153D01*
X220003724Y-212605154D01*
X220003721Y-212605155D01*
X219887775Y-212672097D01*
X219887772Y-212672099D01*
X219793099Y-212766772D01*
X219793097Y-212766775D01*
X219726155Y-212882721D01*
X219726154Y-212882724D01*
X219726153Y-212882726D01*
X219691500Y-213012055D01*
X112608500Y-213012055D01*
X112573847Y-212882726D01*
X112559701Y-212858226D01*
X112506902Y-212766775D01*
X112506900Y-212766772D01*
X112412227Y-212672099D01*
X112412224Y-212672097D01*
X112296278Y-212605155D01*
X112296276Y-212605154D01*
X112296274Y-212605153D01*
X112166945Y-212570500D01*
X112033055Y-212570500D01*
X111903726Y-212605153D01*
X111903724Y-212605154D01*
X111903721Y-212605155D01*
X111787775Y-212672097D01*
X111787772Y-212672099D01*
X111693099Y-212766772D01*
X111693097Y-212766775D01*
X111626155Y-212882721D01*
X111626154Y-212882724D01*
X111626153Y-212882726D01*
X111591500Y-213012055D01*
X101561912Y-213012055D01*
X101554952Y-213000000D01*
X101506902Y-212916775D01*
X101506900Y-212916772D01*
X101412227Y-212822099D01*
X101412224Y-212822097D01*
X101296278Y-212755155D01*
X101296276Y-212755154D01*
X101296274Y-212755153D01*
X101166945Y-212720500D01*
X101033055Y-212720500D01*
X101033054Y-212720500D01*
X100958610Y-212740447D01*
X100887634Y-212738757D01*
X100828838Y-212698962D01*
X100800891Y-212633698D01*
X100800000Y-212618740D01*
X100800000Y-212239259D01*
X100820002Y-212171138D01*
X100873658Y-212124645D01*
X100943932Y-212114541D01*
X100958589Y-212117547D01*
X101033055Y-212137500D01*
X101033058Y-212137500D01*
X101166943Y-212137500D01*
X101166945Y-212137500D01*
X101296274Y-212102847D01*
X101412226Y-212035901D01*
X101506901Y-211941226D01*
X101573847Y-211825274D01*
X101608500Y-211695945D01*
X101608500Y-211562055D01*
X101573847Y-211432726D01*
X101506901Y-211316774D01*
X101501876Y-211310225D01*
X101503321Y-211309115D01*
X101474199Y-211255797D01*
X101479256Y-211184981D01*
X101502740Y-211148438D01*
X101501876Y-211147775D01*
X101506898Y-211141228D01*
X101506901Y-211141226D01*
X101573847Y-211025274D01*
X101608500Y-210895945D01*
X101608500Y-210812055D01*
X229591500Y-210812055D01*
X229591500Y-210945945D01*
X229626153Y-211075274D01*
X229626153Y-211075275D01*
X229626154Y-211075276D01*
X229678534Y-211166001D01*
X229695271Y-211234996D01*
X229678534Y-211291999D01*
X229626154Y-211382723D01*
X229626153Y-211382724D01*
X229626153Y-211382726D01*
X229591500Y-211512055D01*
X229591500Y-211645945D01*
X229626153Y-211775274D01*
X229626154Y-211775276D01*
X229626155Y-211775278D01*
X229693097Y-211891224D01*
X229693099Y-211891227D01*
X229787772Y-211985900D01*
X229787775Y-211985902D01*
X229874373Y-212035900D01*
X229903726Y-212052847D01*
X230033055Y-212087500D01*
X230033057Y-212087500D01*
X230166943Y-212087500D01*
X230166945Y-212087500D01*
X230296274Y-212052847D01*
X230412226Y-211985901D01*
X230506901Y-211891226D01*
X230573847Y-211775274D01*
X230608500Y-211645945D01*
X230608500Y-211512055D01*
X230573847Y-211382726D01*
X230531347Y-211309115D01*
X230521466Y-211292000D01*
X230504728Y-211223005D01*
X230521466Y-211166000D01*
X230544132Y-211126740D01*
X230573847Y-211075274D01*
X230608500Y-210945945D01*
X230608500Y-210812055D01*
X230573847Y-210682726D01*
X230506901Y-210566774D01*
X230506900Y-210566772D01*
X230412227Y-210472099D01*
X230412224Y-210472097D01*
X230296278Y-210405155D01*
X230296276Y-210405154D01*
X230296274Y-210405153D01*
X230166945Y-210370500D01*
X230033055Y-210370500D01*
X229903726Y-210405153D01*
X229903724Y-210405154D01*
X229903721Y-210405155D01*
X229787775Y-210472097D01*
X229787772Y-210472099D01*
X229693099Y-210566772D01*
X229693097Y-210566775D01*
X229626155Y-210682721D01*
X229626154Y-210682724D01*
X229626153Y-210682726D01*
X229591500Y-210812055D01*
X101608500Y-210812055D01*
X101608500Y-210762055D01*
X101573847Y-210632726D01*
X101506901Y-210516774D01*
X101506900Y-210516772D01*
X101412227Y-210422099D01*
X101412224Y-210422097D01*
X101296278Y-210355155D01*
X101296276Y-210355154D01*
X101296274Y-210355153D01*
X101166945Y-210320500D01*
X101033055Y-210320500D01*
X101033054Y-210320500D01*
X100958610Y-210340447D01*
X100887634Y-210338757D01*
X100828838Y-210298962D01*
X100800891Y-210233698D01*
X100800000Y-210218740D01*
X100800000Y-209839259D01*
X100820002Y-209771138D01*
X100873658Y-209724645D01*
X100943932Y-209714541D01*
X100958589Y-209717547D01*
X101033055Y-209737500D01*
X101033058Y-209737500D01*
X101166943Y-209737500D01*
X101166945Y-209737500D01*
X101296274Y-209702847D01*
X101412226Y-209635901D01*
X101506901Y-209541226D01*
X101573847Y-209425274D01*
X101608500Y-209295945D01*
X101608500Y-209162055D01*
X101573847Y-209032726D01*
X101506901Y-208916774D01*
X101501876Y-208910225D01*
X101503321Y-208909115D01*
X101474199Y-208855797D01*
X101479256Y-208784981D01*
X101484645Y-208772600D01*
X101493783Y-208754343D01*
X101506901Y-208741226D01*
X101573847Y-208625274D01*
X101577389Y-208612055D01*
X110991500Y-208612055D01*
X110991500Y-208745945D01*
X111026153Y-208875274D01*
X111026153Y-208875275D01*
X111026154Y-208875276D01*
X111078534Y-208966001D01*
X111095271Y-209034996D01*
X111078534Y-209091999D01*
X111026154Y-209182723D01*
X111026153Y-209182724D01*
X111026153Y-209182726D01*
X110991500Y-209312055D01*
X110991500Y-209445945D01*
X111026153Y-209575274D01*
X111026154Y-209575276D01*
X111026155Y-209575278D01*
X111093097Y-209691224D01*
X111093099Y-209691227D01*
X111187772Y-209785900D01*
X111187775Y-209785902D01*
X111279226Y-209838701D01*
X111303726Y-209852847D01*
X111433055Y-209887500D01*
X111433057Y-209887500D01*
X111566943Y-209887500D01*
X111566945Y-209887500D01*
X111696274Y-209852847D01*
X111812226Y-209785901D01*
X111906901Y-209691226D01*
X111973847Y-209575274D01*
X112008500Y-209445945D01*
X112008500Y-209312055D01*
X111973847Y-209182726D01*
X111961912Y-209162055D01*
X111921466Y-209092000D01*
X111904728Y-209023005D01*
X111921466Y-208966000D01*
X111949886Y-208916775D01*
X111973847Y-208875274D01*
X112008500Y-208745945D01*
X112008500Y-208612055D01*
X219691500Y-208612055D01*
X219691500Y-208745945D01*
X219726153Y-208875274D01*
X219726153Y-208875275D01*
X219726154Y-208875276D01*
X219778534Y-208966001D01*
X219795271Y-209034996D01*
X219778534Y-209091999D01*
X219726154Y-209182723D01*
X219726153Y-209182724D01*
X219726153Y-209182726D01*
X219691500Y-209312055D01*
X219691500Y-209445945D01*
X219726153Y-209575274D01*
X219726154Y-209575276D01*
X219726155Y-209575278D01*
X219793097Y-209691224D01*
X219793099Y-209691227D01*
X219887772Y-209785900D01*
X219887775Y-209785902D01*
X219979226Y-209838701D01*
X220003726Y-209852847D01*
X220133055Y-209887500D01*
X220133057Y-209887500D01*
X220266943Y-209887500D01*
X220266945Y-209887500D01*
X220396274Y-209852847D01*
X220512226Y-209785901D01*
X220606901Y-209691226D01*
X220673847Y-209575274D01*
X220708500Y-209445945D01*
X220708500Y-209312055D01*
X220673847Y-209182726D01*
X220661912Y-209162055D01*
X220621466Y-209092000D01*
X220604728Y-209023005D01*
X220621466Y-208966000D01*
X220649886Y-208916775D01*
X220673847Y-208875274D01*
X220708500Y-208745945D01*
X220708500Y-208612055D01*
X220673847Y-208482726D01*
X220606901Y-208366774D01*
X220606900Y-208366772D01*
X220512227Y-208272099D01*
X220512224Y-208272097D01*
X220396278Y-208205155D01*
X220396276Y-208205154D01*
X220396274Y-208205153D01*
X220266945Y-208170500D01*
X220133055Y-208170500D01*
X220003726Y-208205153D01*
X220003724Y-208205154D01*
X220003721Y-208205155D01*
X219887775Y-208272097D01*
X219887772Y-208272099D01*
X219793099Y-208366772D01*
X219793097Y-208366775D01*
X219726155Y-208482721D01*
X219726154Y-208482724D01*
X219726153Y-208482726D01*
X219691500Y-208612055D01*
X112008500Y-208612055D01*
X111973847Y-208482726D01*
X111906901Y-208366774D01*
X111906900Y-208366772D01*
X111812227Y-208272099D01*
X111812224Y-208272097D01*
X111696278Y-208205155D01*
X111696276Y-208205154D01*
X111696274Y-208205153D01*
X111566945Y-208170500D01*
X111433055Y-208170500D01*
X111303726Y-208205153D01*
X111303724Y-208205154D01*
X111303721Y-208205155D01*
X111187775Y-208272097D01*
X111187772Y-208272099D01*
X111093099Y-208366772D01*
X111093097Y-208366775D01*
X111026155Y-208482721D01*
X111026154Y-208482724D01*
X111026153Y-208482726D01*
X110991500Y-208612055D01*
X101577389Y-208612055D01*
X101608500Y-208495945D01*
X101608500Y-208362055D01*
X101573847Y-208232726D01*
X101506901Y-208116774D01*
X101506900Y-208116772D01*
X101412227Y-208022099D01*
X101412224Y-208022097D01*
X101296278Y-207955155D01*
X101296276Y-207955154D01*
X101296274Y-207955153D01*
X101166945Y-207920500D01*
X101033055Y-207920500D01*
X101033054Y-207920500D01*
X100958610Y-207940447D01*
X100887634Y-207938757D01*
X100828838Y-207898962D01*
X100800891Y-207833698D01*
X100800000Y-207818740D01*
X100800000Y-207439259D01*
X100820002Y-207371138D01*
X100873658Y-207324645D01*
X100943932Y-207314541D01*
X100958589Y-207317547D01*
X101033055Y-207337500D01*
X101033058Y-207337500D01*
X101166943Y-207337500D01*
X101166945Y-207337500D01*
X101296274Y-207302847D01*
X101412226Y-207235901D01*
X101506901Y-207141226D01*
X101573847Y-207025274D01*
X101608500Y-206895945D01*
X101608500Y-206762055D01*
X101573847Y-206632726D01*
X101506901Y-206516774D01*
X101501876Y-206510225D01*
X101503321Y-206509115D01*
X101474199Y-206455797D01*
X101479256Y-206384981D01*
X101502740Y-206348438D01*
X101501876Y-206347775D01*
X101506898Y-206341228D01*
X101506901Y-206341226D01*
X101573847Y-206225274D01*
X101608500Y-206095945D01*
X101608500Y-206012055D01*
X227491500Y-206012055D01*
X227491500Y-206145945D01*
X227526153Y-206275274D01*
X227526153Y-206275275D01*
X227526154Y-206275276D01*
X227578534Y-206366001D01*
X227595271Y-206434996D01*
X227578534Y-206491999D01*
X227526154Y-206582723D01*
X227526153Y-206582724D01*
X227526153Y-206582726D01*
X227491500Y-206712055D01*
X227491500Y-206845945D01*
X227526153Y-206975274D01*
X227526154Y-206975276D01*
X227526155Y-206975278D01*
X227593097Y-207091224D01*
X227593099Y-207091227D01*
X227687772Y-207185900D01*
X227687775Y-207185902D01*
X227774373Y-207235900D01*
X227803726Y-207252847D01*
X227933055Y-207287500D01*
X227933057Y-207287500D01*
X228066943Y-207287500D01*
X228066945Y-207287500D01*
X228196274Y-207252847D01*
X228312226Y-207185901D01*
X228406901Y-207091226D01*
X228473847Y-206975274D01*
X228508500Y-206845945D01*
X228508500Y-206712055D01*
X228473847Y-206582726D01*
X228431347Y-206509115D01*
X228421466Y-206492000D01*
X228404728Y-206423005D01*
X228421466Y-206366000D01*
X228444132Y-206326740D01*
X228473847Y-206275274D01*
X228508500Y-206145945D01*
X228508500Y-206012055D01*
X228473847Y-205882726D01*
X228406901Y-205766774D01*
X228406900Y-205766772D01*
X228312227Y-205672099D01*
X228312224Y-205672097D01*
X228196278Y-205605155D01*
X228196276Y-205605154D01*
X228196274Y-205605153D01*
X228066945Y-205570500D01*
X227933055Y-205570500D01*
X227803726Y-205605153D01*
X227803724Y-205605154D01*
X227803721Y-205605155D01*
X227687775Y-205672097D01*
X227687772Y-205672099D01*
X227593099Y-205766772D01*
X227593097Y-205766775D01*
X227526155Y-205882721D01*
X227526154Y-205882724D01*
X227526153Y-205882726D01*
X227491500Y-206012055D01*
X101608500Y-206012055D01*
X101608500Y-205962055D01*
X101573847Y-205832726D01*
X101506901Y-205716774D01*
X101506900Y-205716772D01*
X101412227Y-205622099D01*
X101412224Y-205622097D01*
X101296278Y-205555155D01*
X101296276Y-205555154D01*
X101296274Y-205555153D01*
X101166945Y-205520500D01*
X101033055Y-205520500D01*
X101033054Y-205520500D01*
X100958610Y-205540447D01*
X100887634Y-205538757D01*
X100828838Y-205498962D01*
X100800891Y-205433698D01*
X100800000Y-205418740D01*
X100800000Y-205039259D01*
X100820002Y-204971138D01*
X100873658Y-204924645D01*
X100943932Y-204914541D01*
X100958589Y-204917547D01*
X101033055Y-204937500D01*
X101033058Y-204937500D01*
X101166943Y-204937500D01*
X101166945Y-204937500D01*
X101183534Y-204933055D01*
X113191500Y-204933055D01*
X113191500Y-205066945D01*
X113226153Y-205196274D01*
X113226154Y-205196276D01*
X113226155Y-205196278D01*
X113293097Y-205312224D01*
X113293099Y-205312227D01*
X113387772Y-205406900D01*
X113387775Y-205406902D01*
X113408279Y-205418740D01*
X113503726Y-205473847D01*
X113633055Y-205508500D01*
X113633057Y-205508500D01*
X113766943Y-205508500D01*
X113766945Y-205508500D01*
X113896274Y-205473847D01*
X114012226Y-205406901D01*
X114106901Y-205312226D01*
X114173847Y-205196274D01*
X114208500Y-205066945D01*
X114208500Y-204933055D01*
X114173847Y-204803726D01*
X114106901Y-204687774D01*
X114106900Y-204687772D01*
X114012227Y-204593099D01*
X114012224Y-204593097D01*
X113896278Y-204526155D01*
X113896276Y-204526154D01*
X113896274Y-204526153D01*
X113766945Y-204491500D01*
X113633055Y-204491500D01*
X113503726Y-204526153D01*
X113503724Y-204526154D01*
X113503721Y-204526155D01*
X113387775Y-204593097D01*
X113387772Y-204593099D01*
X113293099Y-204687772D01*
X113293097Y-204687775D01*
X113226155Y-204803721D01*
X113226154Y-204803724D01*
X113226153Y-204803726D01*
X113191500Y-204933055D01*
X101183534Y-204933055D01*
X101296274Y-204902847D01*
X101412226Y-204835901D01*
X101412227Y-204835900D01*
X101412426Y-204835702D01*
X101506900Y-204741227D01*
X101506902Y-204741224D01*
X101557927Y-204652847D01*
X101573847Y-204625274D01*
X101608500Y-204495945D01*
X101608500Y-204362055D01*
X101573847Y-204232726D01*
X101506901Y-204116774D01*
X101501876Y-204110225D01*
X101503321Y-204109115D01*
X101474199Y-204055797D01*
X101479256Y-203984981D01*
X101502740Y-203948438D01*
X101501876Y-203947775D01*
X101506898Y-203941228D01*
X101506901Y-203941226D01*
X101573847Y-203825274D01*
X101608500Y-203695945D01*
X101608500Y-203562055D01*
X101573847Y-203432726D01*
X101561912Y-203412055D01*
X110991500Y-203412055D01*
X110991500Y-203545945D01*
X111026153Y-203675274D01*
X111026153Y-203675275D01*
X111026154Y-203675276D01*
X111078534Y-203766001D01*
X111095271Y-203834996D01*
X111078534Y-203891999D01*
X111026154Y-203982723D01*
X111026153Y-203982724D01*
X111026153Y-203982726D01*
X110991500Y-204112055D01*
X110991500Y-204245945D01*
X111026153Y-204375274D01*
X111026154Y-204375276D01*
X111026155Y-204375278D01*
X111093097Y-204491224D01*
X111093099Y-204491227D01*
X111187772Y-204585900D01*
X111187775Y-204585902D01*
X111255964Y-204625271D01*
X111303726Y-204652847D01*
X111433055Y-204687500D01*
X111433057Y-204687500D01*
X111566943Y-204687500D01*
X111566945Y-204687500D01*
X111696274Y-204652847D01*
X111812226Y-204585901D01*
X111906901Y-204491226D01*
X111973847Y-204375274D01*
X112008500Y-204245945D01*
X112008500Y-204112055D01*
X111973847Y-203982726D01*
X111964579Y-203966674D01*
X111921466Y-203892000D01*
X111904728Y-203823005D01*
X111921466Y-203766000D01*
X111961912Y-203695945D01*
X111973847Y-203675274D01*
X112008500Y-203545945D01*
X112008500Y-203412055D01*
X219691500Y-203412055D01*
X219691500Y-203545945D01*
X219726153Y-203675274D01*
X219726153Y-203675275D01*
X219726154Y-203675276D01*
X219778534Y-203766001D01*
X219795271Y-203834996D01*
X219778534Y-203891999D01*
X219726154Y-203982723D01*
X219726153Y-203982724D01*
X219726153Y-203982726D01*
X219691500Y-204112055D01*
X219691500Y-204245945D01*
X219726153Y-204375274D01*
X219726154Y-204375276D01*
X219726155Y-204375278D01*
X219793097Y-204491224D01*
X219793099Y-204491227D01*
X219887772Y-204585900D01*
X219887775Y-204585902D01*
X219955964Y-204625271D01*
X220003726Y-204652847D01*
X220133055Y-204687500D01*
X220133057Y-204687500D01*
X220266943Y-204687500D01*
X220266945Y-204687500D01*
X220396274Y-204652847D01*
X220512226Y-204585901D01*
X220606901Y-204491226D01*
X220673847Y-204375274D01*
X220708500Y-204245945D01*
X220708500Y-204112055D01*
X220673847Y-203982726D01*
X220664579Y-203966674D01*
X220621466Y-203892000D01*
X220604728Y-203823005D01*
X220621466Y-203766000D01*
X220661912Y-203695945D01*
X220673847Y-203675274D01*
X220708500Y-203545945D01*
X220708500Y-203412055D01*
X220673847Y-203282726D01*
X220659701Y-203258226D01*
X220606902Y-203166775D01*
X220606900Y-203166772D01*
X220512227Y-203072099D01*
X220512224Y-203072097D01*
X220396278Y-203005155D01*
X220396276Y-203005154D01*
X220396274Y-203005153D01*
X220266945Y-202970500D01*
X220133055Y-202970500D01*
X220003726Y-203005153D01*
X220003724Y-203005154D01*
X220003721Y-203005155D01*
X219887775Y-203072097D01*
X219887772Y-203072099D01*
X219793099Y-203166772D01*
X219793097Y-203166775D01*
X219726155Y-203282721D01*
X219726154Y-203282724D01*
X219726153Y-203282726D01*
X219691500Y-203412055D01*
X112008500Y-203412055D01*
X111973847Y-203282726D01*
X111959701Y-203258226D01*
X111906902Y-203166775D01*
X111906900Y-203166772D01*
X111812227Y-203072099D01*
X111812224Y-203072097D01*
X111696278Y-203005155D01*
X111696276Y-203005154D01*
X111696274Y-203005153D01*
X111566945Y-202970500D01*
X111433055Y-202970500D01*
X111303726Y-203005153D01*
X111303724Y-203005154D01*
X111303721Y-203005155D01*
X111187775Y-203072097D01*
X111187772Y-203072099D01*
X111093099Y-203166772D01*
X111093097Y-203166775D01*
X111026155Y-203282721D01*
X111026154Y-203282724D01*
X111026153Y-203282726D01*
X110991500Y-203412055D01*
X101561912Y-203412055D01*
X101506901Y-203316774D01*
X101506900Y-203316772D01*
X101412227Y-203222099D01*
X101412224Y-203222097D01*
X101296278Y-203155155D01*
X101296276Y-203155154D01*
X101296274Y-203155153D01*
X101166945Y-203120500D01*
X101033055Y-203120500D01*
X101033054Y-203120500D01*
X100958610Y-203140447D01*
X100887634Y-203138757D01*
X100828838Y-203098962D01*
X100800891Y-203033698D01*
X100800000Y-203018740D01*
X100800000Y-201512055D01*
X224791500Y-201512055D01*
X224791500Y-201645945D01*
X224826153Y-201775274D01*
X224826153Y-201775275D01*
X224826154Y-201775276D01*
X224878534Y-201866001D01*
X224895271Y-201934996D01*
X224878534Y-201991999D01*
X224826154Y-202082723D01*
X224826153Y-202082724D01*
X224826153Y-202082726D01*
X224791500Y-202212055D01*
X224791500Y-202345945D01*
X224826153Y-202475274D01*
X224826154Y-202475276D01*
X224826155Y-202475278D01*
X224893097Y-202591224D01*
X224893099Y-202591227D01*
X224987772Y-202685900D01*
X224987775Y-202685902D01*
X225079226Y-202738701D01*
X225103726Y-202752847D01*
X225233055Y-202787500D01*
X225233057Y-202787500D01*
X225366943Y-202787500D01*
X225366945Y-202787500D01*
X225496274Y-202752847D01*
X225612226Y-202685901D01*
X225706901Y-202591226D01*
X225773847Y-202475274D01*
X225808500Y-202345945D01*
X225808500Y-202212055D01*
X225773847Y-202082726D01*
X225764579Y-202066674D01*
X225721466Y-201992000D01*
X225704728Y-201923005D01*
X225721466Y-201866000D01*
X225744132Y-201826740D01*
X225773847Y-201775274D01*
X225808500Y-201645945D01*
X225808500Y-201512055D01*
X225773847Y-201382726D01*
X225706901Y-201266774D01*
X225706900Y-201266772D01*
X225612227Y-201172099D01*
X225612224Y-201172097D01*
X225496278Y-201105155D01*
X225496276Y-201105154D01*
X225496274Y-201105153D01*
X225366945Y-201070500D01*
X225233055Y-201070500D01*
X225103726Y-201105153D01*
X225103724Y-201105154D01*
X225103721Y-201105155D01*
X224987775Y-201172097D01*
X224987772Y-201172099D01*
X224893099Y-201266772D01*
X224893097Y-201266775D01*
X224826155Y-201382721D01*
X224826154Y-201382724D01*
X224826153Y-201382726D01*
X224791500Y-201512055D01*
X100800000Y-201512055D01*
X100800000Y-197662055D01*
X105391500Y-197662055D01*
X105391500Y-197795945D01*
X105426153Y-197925274D01*
X105426153Y-197925275D01*
X105426154Y-197925276D01*
X105478534Y-198016001D01*
X105495271Y-198084996D01*
X105478534Y-198141999D01*
X105426154Y-198232723D01*
X105426153Y-198232724D01*
X105426153Y-198232726D01*
X105391500Y-198362055D01*
X105391500Y-198495945D01*
X105426153Y-198625274D01*
X105426153Y-198625275D01*
X105426154Y-198625276D01*
X105478534Y-198716001D01*
X105495271Y-198784996D01*
X105478534Y-198841999D01*
X105426154Y-198932723D01*
X105426153Y-198932724D01*
X105426153Y-198932726D01*
X105391500Y-199062055D01*
X105391500Y-199195945D01*
X105426153Y-199325274D01*
X105426154Y-199325276D01*
X105426155Y-199325278D01*
X105493097Y-199441224D01*
X105493099Y-199441227D01*
X105587772Y-199535900D01*
X105587775Y-199535902D01*
X105655964Y-199575271D01*
X105703726Y-199602847D01*
X105720322Y-199607293D01*
X105780944Y-199644245D01*
X105811965Y-199708105D01*
X105803537Y-199778600D01*
X105758334Y-199833347D01*
X105720323Y-199850705D01*
X105711399Y-199853096D01*
X105703728Y-199855152D01*
X105703721Y-199855155D01*
X105587775Y-199922097D01*
X105587772Y-199922099D01*
X105493099Y-200016772D01*
X105493097Y-200016775D01*
X105426155Y-200132721D01*
X105426154Y-200132724D01*
X105426153Y-200132726D01*
X105391500Y-200262055D01*
X105391500Y-200395945D01*
X105426153Y-200525274D01*
X105426154Y-200525276D01*
X105426155Y-200525278D01*
X105493097Y-200641224D01*
X105493099Y-200641227D01*
X105587772Y-200735900D01*
X105587775Y-200735902D01*
X105679226Y-200788701D01*
X105703726Y-200802847D01*
X105833055Y-200837500D01*
X105833057Y-200837500D01*
X105966943Y-200837500D01*
X105966945Y-200837500D01*
X106096274Y-200802847D01*
X106212226Y-200735901D01*
X106306901Y-200641226D01*
X106373847Y-200525274D01*
X106408500Y-200395945D01*
X106408500Y-200262055D01*
X106373847Y-200132726D01*
X106306901Y-200016774D01*
X106306900Y-200016772D01*
X106212227Y-199922099D01*
X106212224Y-199922097D01*
X106096278Y-199855155D01*
X106096276Y-199855154D01*
X106096274Y-199855153D01*
X106079677Y-199850706D01*
X106019056Y-199813756D01*
X105988034Y-199749896D01*
X105996462Y-199679401D01*
X106041664Y-199624654D01*
X106051820Y-199618458D01*
X106065076Y-199611206D01*
X106096274Y-199602847D01*
X106212226Y-199535901D01*
X106223682Y-199524444D01*
X106239531Y-199515775D01*
X106257268Y-199511902D01*
X106273203Y-199503199D01*
X106291233Y-199504486D01*
X106308893Y-199500631D01*
X106325907Y-199506962D01*
X106344019Y-199508256D01*
X106364150Y-199521194D01*
X106375432Y-199525392D01*
X106379848Y-199531282D01*
X106380561Y-199531740D01*
X106381225Y-199530876D01*
X106387775Y-199535902D01*
X106455964Y-199575271D01*
X106503726Y-199602847D01*
X106633055Y-199637500D01*
X106633057Y-199637500D01*
X106766943Y-199637500D01*
X106766945Y-199637500D01*
X106896274Y-199602847D01*
X107012226Y-199535901D01*
X107106901Y-199441226D01*
X107173847Y-199325274D01*
X107177389Y-199312055D01*
X219691500Y-199312055D01*
X219691500Y-199445945D01*
X219726153Y-199575274D01*
X219726153Y-199575275D01*
X219726154Y-199575276D01*
X219778534Y-199666001D01*
X219795271Y-199734996D01*
X219778534Y-199791999D01*
X219726154Y-199882723D01*
X219726153Y-199882724D01*
X219726153Y-199882726D01*
X219691500Y-200012055D01*
X219691500Y-200145945D01*
X219726153Y-200275274D01*
X219726154Y-200275276D01*
X219726155Y-200275278D01*
X219793097Y-200391224D01*
X219793099Y-200391227D01*
X219887772Y-200485900D01*
X219887775Y-200485902D01*
X219955964Y-200525271D01*
X220003726Y-200552847D01*
X220133055Y-200587500D01*
X220133057Y-200587500D01*
X220266943Y-200587500D01*
X220266945Y-200587500D01*
X220396274Y-200552847D01*
X220512226Y-200485901D01*
X220606901Y-200391226D01*
X220673847Y-200275274D01*
X220708500Y-200145945D01*
X220708500Y-200012055D01*
X220673847Y-199882726D01*
X220657929Y-199855155D01*
X220621466Y-199792000D01*
X220604728Y-199723005D01*
X220621466Y-199666000D01*
X220648914Y-199618458D01*
X220673847Y-199575274D01*
X220708500Y-199445945D01*
X220708500Y-199312055D01*
X220673847Y-199182726D01*
X220606901Y-199066774D01*
X220606900Y-199066772D01*
X220512227Y-198972099D01*
X220512224Y-198972097D01*
X220396278Y-198905155D01*
X220396276Y-198905154D01*
X220396274Y-198905153D01*
X220266945Y-198870500D01*
X220133055Y-198870500D01*
X220003726Y-198905153D01*
X220003724Y-198905154D01*
X220003721Y-198905155D01*
X219887775Y-198972097D01*
X219887772Y-198972099D01*
X219793099Y-199066772D01*
X219793097Y-199066775D01*
X219726155Y-199182721D01*
X219726154Y-199182724D01*
X219726153Y-199182726D01*
X219691500Y-199312055D01*
X107177389Y-199312055D01*
X107208500Y-199195945D01*
X107208500Y-199062055D01*
X107173847Y-198932726D01*
X107157929Y-198905155D01*
X107121466Y-198842000D01*
X107104728Y-198773005D01*
X107121466Y-198716000D01*
X107144132Y-198676740D01*
X107173847Y-198625274D01*
X107208500Y-198495945D01*
X107208500Y-198362055D01*
X107173847Y-198232726D01*
X107161912Y-198212055D01*
X107121466Y-198142000D01*
X107104728Y-198073005D01*
X107121466Y-198016000D01*
X107144132Y-197976740D01*
X107173847Y-197925274D01*
X107208500Y-197795945D01*
X107208500Y-197662055D01*
X107173847Y-197532726D01*
X107161912Y-197512055D01*
X224791500Y-197512055D01*
X224791500Y-197645945D01*
X224826153Y-197775274D01*
X224826153Y-197775275D01*
X224826154Y-197775276D01*
X224878534Y-197866001D01*
X224895271Y-197934996D01*
X224878534Y-197991999D01*
X224826154Y-198082723D01*
X224826153Y-198082724D01*
X224826153Y-198082726D01*
X224791500Y-198212055D01*
X224791500Y-198345945D01*
X224826153Y-198475274D01*
X224826154Y-198475276D01*
X224826155Y-198475278D01*
X224893097Y-198591224D01*
X224893099Y-198591227D01*
X224987772Y-198685900D01*
X224987775Y-198685902D01*
X225039906Y-198716000D01*
X225103726Y-198752847D01*
X225233055Y-198787500D01*
X225233057Y-198787500D01*
X225366943Y-198787500D01*
X225366945Y-198787500D01*
X225496274Y-198752847D01*
X225612226Y-198685901D01*
X225706901Y-198591226D01*
X225773847Y-198475274D01*
X225808500Y-198345945D01*
X225808500Y-198212055D01*
X225773847Y-198082726D01*
X225735322Y-198016000D01*
X225721466Y-197992000D01*
X225704728Y-197923005D01*
X225721466Y-197866000D01*
X225761912Y-197795945D01*
X225773847Y-197775274D01*
X225808500Y-197645945D01*
X225808500Y-197512055D01*
X225773847Y-197382726D01*
X225741246Y-197326260D01*
X225706902Y-197266775D01*
X225706900Y-197266772D01*
X225612227Y-197172099D01*
X225612224Y-197172097D01*
X225496278Y-197105155D01*
X225496276Y-197105154D01*
X225496274Y-197105153D01*
X225366945Y-197070500D01*
X225233055Y-197070500D01*
X225103726Y-197105153D01*
X225103724Y-197105154D01*
X225103721Y-197105155D01*
X224987775Y-197172097D01*
X224987772Y-197172099D01*
X224893099Y-197266772D01*
X224893097Y-197266775D01*
X224826155Y-197382721D01*
X224826154Y-197382724D01*
X224826153Y-197382726D01*
X224791500Y-197512055D01*
X107161912Y-197512055D01*
X107106901Y-197416774D01*
X107106900Y-197416772D01*
X107012227Y-197322099D01*
X107012224Y-197322097D01*
X106896278Y-197255155D01*
X106896276Y-197255154D01*
X106896274Y-197255153D01*
X106766945Y-197220500D01*
X106633055Y-197220500D01*
X106503726Y-197255153D01*
X106503724Y-197255154D01*
X106503721Y-197255155D01*
X106387775Y-197322097D01*
X106381225Y-197327124D01*
X106380116Y-197325679D01*
X106326783Y-197354803D01*
X106255968Y-197349738D01*
X106219437Y-197326260D01*
X106218775Y-197327124D01*
X106212224Y-197322097D01*
X106096278Y-197255155D01*
X106096276Y-197255154D01*
X106096274Y-197255153D01*
X105966945Y-197220500D01*
X105833055Y-197220500D01*
X105703726Y-197255153D01*
X105703724Y-197255154D01*
X105703721Y-197255155D01*
X105587775Y-197322097D01*
X105587772Y-197322099D01*
X105493099Y-197416772D01*
X105493097Y-197416775D01*
X105426155Y-197532721D01*
X105426154Y-197532724D01*
X105426153Y-197532726D01*
X105391500Y-197662055D01*
X100800000Y-197662055D01*
X100800000Y-194639259D01*
X100820002Y-194571138D01*
X100873658Y-194524645D01*
X100943932Y-194514541D01*
X100958589Y-194517547D01*
X101033055Y-194537500D01*
X101033058Y-194537500D01*
X101166943Y-194537500D01*
X101166945Y-194537500D01*
X101296274Y-194502847D01*
X101412226Y-194435901D01*
X101506901Y-194341226D01*
X101573847Y-194225274D01*
X101608500Y-194095945D01*
X101608500Y-193962055D01*
X101573847Y-193832726D01*
X101506901Y-193716774D01*
X101501876Y-193710225D01*
X101503321Y-193709115D01*
X101474199Y-193655797D01*
X101479256Y-193584981D01*
X101487708Y-193566857D01*
X101496136Y-193551990D01*
X101506901Y-193541226D01*
X101552611Y-193462055D01*
X213891500Y-193462055D01*
X213891500Y-193595945D01*
X213926153Y-193725274D01*
X213926154Y-193725276D01*
X213926155Y-193725278D01*
X213993097Y-193841224D01*
X213993099Y-193841227D01*
X214087772Y-193935900D01*
X214087775Y-193935902D01*
X214133073Y-193962055D01*
X214203726Y-194002847D01*
X214333055Y-194037500D01*
X214333057Y-194037500D01*
X214466943Y-194037500D01*
X214466945Y-194037500D01*
X214596274Y-194002847D01*
X214712226Y-193935901D01*
X214806901Y-193841226D01*
X214873847Y-193725274D01*
X214908500Y-193595945D01*
X214908500Y-193462055D01*
X214873847Y-193332726D01*
X214806901Y-193216774D01*
X214806900Y-193216772D01*
X214712227Y-193122099D01*
X214712224Y-193122097D01*
X214596278Y-193055155D01*
X214596276Y-193055154D01*
X214596274Y-193055153D01*
X214466945Y-193020500D01*
X214333055Y-193020500D01*
X214203726Y-193055153D01*
X214203724Y-193055154D01*
X214203721Y-193055155D01*
X214087775Y-193122097D01*
X214087772Y-193122099D01*
X213993099Y-193216772D01*
X213993097Y-193216775D01*
X213926155Y-193332721D01*
X213926154Y-193332724D01*
X213926153Y-193332726D01*
X213891500Y-193462055D01*
X101552611Y-193462055D01*
X101573847Y-193425274D01*
X101608500Y-193295945D01*
X101608500Y-193162055D01*
X101573847Y-193032726D01*
X101506901Y-192916774D01*
X101506900Y-192916772D01*
X101412227Y-192822099D01*
X101412224Y-192822097D01*
X101296278Y-192755155D01*
X101296276Y-192755154D01*
X101296274Y-192755153D01*
X101166945Y-192720500D01*
X101033055Y-192720500D01*
X101033054Y-192720500D01*
X100958610Y-192740447D01*
X100887634Y-192738757D01*
X100828838Y-192698962D01*
X100800891Y-192633698D01*
X100800000Y-192618740D01*
X100800000Y-192239259D01*
X100820002Y-192171138D01*
X100873658Y-192124645D01*
X100943932Y-192114541D01*
X100958589Y-192117547D01*
X101033055Y-192137500D01*
X101033058Y-192137500D01*
X101166943Y-192137500D01*
X101166945Y-192137500D01*
X101296274Y-192102847D01*
X101412226Y-192035901D01*
X101506901Y-191941226D01*
X101573847Y-191825274D01*
X101608500Y-191695945D01*
X101608500Y-191562055D01*
X101573847Y-191432726D01*
X101556430Y-191402559D01*
X101506902Y-191316775D01*
X101501876Y-191310225D01*
X101503321Y-191309115D01*
X101474199Y-191255797D01*
X101479256Y-191184981D01*
X101502740Y-191148438D01*
X101501876Y-191147775D01*
X101506898Y-191141228D01*
X101506901Y-191141226D01*
X101573847Y-191025274D01*
X101604183Y-190912055D01*
X110991500Y-190912055D01*
X110991500Y-191045945D01*
X111026153Y-191175274D01*
X111026153Y-191175275D01*
X111026154Y-191175276D01*
X111078534Y-191266001D01*
X111095271Y-191334996D01*
X111078534Y-191391999D01*
X111026154Y-191482723D01*
X111026153Y-191482724D01*
X111026153Y-191482726D01*
X110991500Y-191612055D01*
X110991500Y-191745945D01*
X111026153Y-191875274D01*
X111026154Y-191875276D01*
X111026155Y-191875278D01*
X111093097Y-191991224D01*
X111093099Y-191991227D01*
X111187772Y-192085900D01*
X111187775Y-192085902D01*
X111237379Y-192114541D01*
X111303726Y-192152847D01*
X111433055Y-192187500D01*
X111433057Y-192187500D01*
X111566943Y-192187500D01*
X111566945Y-192187500D01*
X111696274Y-192152847D01*
X111812226Y-192085901D01*
X111906901Y-191991226D01*
X111973847Y-191875274D01*
X112008500Y-191745945D01*
X112008500Y-191612055D01*
X111973847Y-191482726D01*
X111927562Y-191402559D01*
X111921466Y-191392000D01*
X111904728Y-191323005D01*
X111921466Y-191266000D01*
X111944132Y-191226740D01*
X111973847Y-191175274D01*
X112008500Y-191045945D01*
X112008500Y-190912055D01*
X111973847Y-190782726D01*
X111916409Y-190683242D01*
X111906902Y-190666775D01*
X111906900Y-190666772D01*
X111812227Y-190572099D01*
X111812224Y-190572097D01*
X111696278Y-190505155D01*
X111696276Y-190505154D01*
X111696274Y-190505153D01*
X111566945Y-190470500D01*
X111433055Y-190470500D01*
X111303726Y-190505153D01*
X111303724Y-190505154D01*
X111303721Y-190505155D01*
X111187775Y-190572097D01*
X111187772Y-190572099D01*
X111093099Y-190666772D01*
X111093097Y-190666775D01*
X111026155Y-190782721D01*
X111026154Y-190782724D01*
X111026153Y-190782726D01*
X110991500Y-190912055D01*
X101604183Y-190912055D01*
X101608500Y-190895945D01*
X101608500Y-190762055D01*
X101573847Y-190632726D01*
X101559701Y-190608226D01*
X101506902Y-190516775D01*
X101506900Y-190516772D01*
X101412227Y-190422099D01*
X101412224Y-190422097D01*
X101296278Y-190355155D01*
X101296276Y-190355154D01*
X101296274Y-190355153D01*
X101166945Y-190320500D01*
X101033055Y-190320500D01*
X101033054Y-190320500D01*
X100958610Y-190340447D01*
X100887634Y-190338757D01*
X100828838Y-190298962D01*
X100800891Y-190233698D01*
X100800000Y-190218740D01*
X100800000Y-189839259D01*
X100820002Y-189771138D01*
X100873658Y-189724645D01*
X100943932Y-189714541D01*
X100958589Y-189717547D01*
X101033055Y-189737500D01*
X101033058Y-189737500D01*
X101166943Y-189737500D01*
X101166945Y-189737500D01*
X101296274Y-189702847D01*
X101412226Y-189635901D01*
X101506901Y-189541226D01*
X101573847Y-189425274D01*
X101608500Y-189295945D01*
X101608500Y-189162055D01*
X101573847Y-189032726D01*
X101559701Y-189008226D01*
X101506902Y-188916775D01*
X101501876Y-188910225D01*
X101503321Y-188909115D01*
X101474199Y-188855797D01*
X101479256Y-188784981D01*
X101502740Y-188748438D01*
X101501876Y-188747775D01*
X101506898Y-188741228D01*
X101506901Y-188741226D01*
X101573847Y-188625274D01*
X101608500Y-188495945D01*
X101608500Y-188362055D01*
X101573847Y-188232726D01*
X101515512Y-188131688D01*
X101506902Y-188116775D01*
X101506900Y-188116772D01*
X101412227Y-188022099D01*
X101412224Y-188022097D01*
X101296278Y-187955155D01*
X101296276Y-187955154D01*
X101296274Y-187955153D01*
X101166945Y-187920500D01*
X101033055Y-187920500D01*
X101033054Y-187920500D01*
X100958610Y-187940447D01*
X100933215Y-187939842D01*
X100908068Y-187943458D01*
X100898332Y-187939011D01*
X100887634Y-187938757D01*
X100866594Y-187924516D01*
X100843488Y-187913964D01*
X100837702Y-187904961D01*
X100828838Y-187898962D01*
X100818836Y-187875606D01*
X100805104Y-187854238D01*
X100802787Y-187838126D01*
X100800891Y-187833698D01*
X100800000Y-187818740D01*
X100800000Y-187570590D01*
X100804292Y-187537985D01*
X100807586Y-187525689D01*
X100818388Y-187507964D01*
X100820002Y-187502469D01*
X100823680Y-187499281D01*
X100844534Y-187465065D01*
X100896682Y-187436587D01*
X100921028Y-187430064D01*
X100929042Y-187428195D01*
X101040485Y-187406029D01*
X101138388Y-187340612D01*
X101466764Y-187012236D01*
X226699500Y-187012236D01*
X226699500Y-187018474D01*
X226699500Y-187387764D01*
X226732229Y-187761863D01*
X226797439Y-188131685D01*
X226853554Y-188341109D01*
X226894635Y-188494425D01*
X227023070Y-188847296D01*
X227181772Y-189187635D01*
X227181776Y-189187642D01*
X227318971Y-189425271D01*
X227369542Y-189512861D01*
X227584929Y-189820467D01*
X227584933Y-189820472D01*
X227584934Y-189820473D01*
X227826318Y-190108144D01*
X227826322Y-190108148D01*
X227826328Y-190108155D01*
X228091844Y-190373671D01*
X228091850Y-190373676D01*
X228091856Y-190373682D01*
X228328321Y-190572099D01*
X228379532Y-190615070D01*
X228479460Y-190685040D01*
X228687142Y-190830460D01*
X229012358Y-191018224D01*
X229012361Y-191018225D01*
X229012364Y-191018227D01*
X229071806Y-191045945D01*
X229352702Y-191176929D01*
X229495766Y-191229000D01*
X229705574Y-191305364D01*
X229705576Y-191305364D01*
X229705583Y-191305367D01*
X230068315Y-191402561D01*
X230438137Y-191467771D01*
X230812236Y-191500500D01*
X230812242Y-191500500D01*
X231187758Y-191500500D01*
X231187764Y-191500500D01*
X231561863Y-191467771D01*
X231931685Y-191402561D01*
X232294417Y-191305367D01*
X232647298Y-191176929D01*
X232987642Y-191018224D01*
X233312858Y-190830460D01*
X233620473Y-190615066D01*
X233908144Y-190373682D01*
X234173682Y-190108144D01*
X234415066Y-189820473D01*
X234630460Y-189512858D01*
X234818224Y-189187642D01*
X234976929Y-188847298D01*
X235105367Y-188494417D01*
X235202561Y-188131685D01*
X235267771Y-187761863D01*
X235300500Y-187387764D01*
X235300500Y-187012236D01*
X235267771Y-186638137D01*
X235202561Y-186268315D01*
X235105367Y-185905583D01*
X235078847Y-185832721D01*
X235036646Y-185716774D01*
X234976929Y-185552702D01*
X234851864Y-185284499D01*
X234818227Y-185212364D01*
X234818217Y-185212346D01*
X234696402Y-185001357D01*
X234630460Y-184887142D01*
X234510323Y-184715568D01*
X234415070Y-184579532D01*
X234344333Y-184495231D01*
X234173682Y-184291856D01*
X234173676Y-184291850D01*
X234173671Y-184291844D01*
X233908155Y-184026328D01*
X233908148Y-184026322D01*
X233908144Y-184026318D01*
X233620473Y-183784934D01*
X233620472Y-183784933D01*
X233620467Y-183784929D01*
X233312861Y-183569542D01*
X233308709Y-183567145D01*
X233172046Y-183488242D01*
X232987653Y-183381782D01*
X232987635Y-183381772D01*
X232647296Y-183223070D01*
X232294425Y-183094635D01*
X232208710Y-183071667D01*
X231931685Y-182997439D01*
X231561863Y-182932229D01*
X231187764Y-182899500D01*
X230812236Y-182899500D01*
X230438137Y-182932229D01*
X230068315Y-182997439D01*
X230068311Y-182997440D01*
X229705574Y-183094635D01*
X229352703Y-183223070D01*
X229012364Y-183381772D01*
X229012346Y-183381782D01*
X228687138Y-183569542D01*
X228379532Y-183784929D01*
X228091844Y-184026328D01*
X227826328Y-184291844D01*
X227584929Y-184579532D01*
X227369542Y-184887138D01*
X227181782Y-185212346D01*
X227181772Y-185212364D01*
X227023070Y-185552703D01*
X226894635Y-185905574D01*
X226823860Y-186169711D01*
X226797439Y-186268315D01*
X226732229Y-186638137D01*
X226699500Y-187012236D01*
X101466764Y-187012236D01*
X101507107Y-186971893D01*
X101631470Y-186820357D01*
X101723880Y-186647470D01*
X101780785Y-186459877D01*
X101783147Y-186435902D01*
X101795826Y-186307162D01*
X101800000Y-186264786D01*
X101800000Y-185962055D01*
X213891500Y-185962055D01*
X213891500Y-186095945D01*
X213926153Y-186225274D01*
X213926154Y-186225276D01*
X213926155Y-186225278D01*
X213993097Y-186341224D01*
X213993099Y-186341227D01*
X214087772Y-186435900D01*
X214087775Y-186435902D01*
X214129301Y-186459877D01*
X214203726Y-186502847D01*
X214333055Y-186537500D01*
X214333057Y-186537500D01*
X214466943Y-186537500D01*
X214466945Y-186537500D01*
X214596274Y-186502847D01*
X214712226Y-186435901D01*
X214806901Y-186341226D01*
X214873847Y-186225274D01*
X214908500Y-186095945D01*
X214908500Y-185962055D01*
X214873847Y-185832726D01*
X214806901Y-185716774D01*
X214806900Y-185716772D01*
X214712227Y-185622099D01*
X214712224Y-185622097D01*
X214596278Y-185555155D01*
X214596276Y-185555154D01*
X214596274Y-185555153D01*
X214466945Y-185520500D01*
X214333055Y-185520500D01*
X214203726Y-185555153D01*
X214203724Y-185555154D01*
X214203721Y-185555155D01*
X214087775Y-185622097D01*
X214087772Y-185622099D01*
X213993099Y-185716772D01*
X213993097Y-185716775D01*
X213926155Y-185832721D01*
X213926154Y-185832724D01*
X213926153Y-185832726D01*
X213891500Y-185962055D01*
X101800000Y-185962055D01*
X101800000Y-184322768D01*
X103224500Y-184322768D01*
X103224500Y-184322771D01*
X103224500Y-184495229D01*
X103258145Y-184664374D01*
X103324142Y-184823705D01*
X103419955Y-184967099D01*
X103541901Y-185089045D01*
X103685295Y-185184858D01*
X103844626Y-185250855D01*
X104013771Y-185284500D01*
X104013772Y-185284500D01*
X104186228Y-185284500D01*
X104186229Y-185284500D01*
X104355374Y-185250855D01*
X104514705Y-185184858D01*
X104658099Y-185089045D01*
X104780045Y-184967099D01*
X104875858Y-184823705D01*
X104941855Y-184664374D01*
X104975500Y-184495229D01*
X104975500Y-184322771D01*
X104941855Y-184153626D01*
X104875858Y-183994295D01*
X104780045Y-183850901D01*
X104658099Y-183728955D01*
X104514705Y-183633142D01*
X104355374Y-183567145D01*
X104186231Y-183533500D01*
X104186229Y-183533500D01*
X104013771Y-183533500D01*
X104013768Y-183533500D01*
X103844625Y-183567145D01*
X103844620Y-183567147D01*
X103685295Y-183633142D01*
X103541905Y-183728952D01*
X103541898Y-183728957D01*
X103419957Y-183850898D01*
X103419952Y-183850905D01*
X103324142Y-183994295D01*
X103258147Y-184153620D01*
X103258145Y-184153625D01*
X103224500Y-184322768D01*
X101800000Y-184322768D01*
X101800000Y-182679000D01*
X101780785Y-182483910D01*
X101723880Y-182296317D01*
X101631470Y-182123430D01*
X101507107Y-181971893D01*
X101355570Y-181847530D01*
X101182683Y-181755120D01*
X100995090Y-181698215D01*
X100995089Y-181698214D01*
X100995083Y-181698213D01*
X100800006Y-181679000D01*
X100800000Y-181679000D01*
X95556187Y-181679000D01*
X95543838Y-181678393D01*
X95511095Y-181675168D01*
X95367261Y-181661001D01*
X95343037Y-181656183D01*
X95179191Y-181606482D01*
X95156372Y-181597030D01*
X95108011Y-181571180D01*
X95005372Y-181516318D01*
X94984834Y-181502595D01*
X94852485Y-181393979D01*
X94835020Y-181376514D01*
X94726404Y-181244165D01*
X94712681Y-181223627D01*
X94699064Y-181198153D01*
X94631967Y-181072622D01*
X94622520Y-181049815D01*
X94572815Y-180885959D01*
X94567998Y-180861737D01*
X94550607Y-180685162D01*
X94550000Y-180672812D01*
X94550000Y-178685187D01*
X94550607Y-178672837D01*
X94567998Y-178496262D01*
X94572814Y-178472042D01*
X94622521Y-178308181D01*
X94631965Y-178285380D01*
X94712682Y-178134369D01*
X94726398Y-178113842D01*
X94835025Y-177981479D01*
X94852479Y-177964025D01*
X94984842Y-177855398D01*
X95005369Y-177841682D01*
X95156380Y-177760965D01*
X95179181Y-177751521D01*
X95343042Y-177701814D01*
X95367257Y-177696998D01*
X95543837Y-177679606D01*
X95556187Y-177679000D01*
X97635777Y-177679000D01*
X97635786Y-177679000D01*
X97746681Y-177668077D01*
X97830870Y-177659786D01*
X97830871Y-177659785D01*
X97830877Y-177659785D01*
X98018470Y-177602880D01*
X98191357Y-177510470D01*
X98342893Y-177386107D01*
X98507107Y-177221893D01*
X98631470Y-177070357D01*
X98723880Y-176897470D01*
X98780785Y-176709877D01*
X98783642Y-176680875D01*
X98796859Y-176546676D01*
X98800000Y-176514786D01*
X98800000Y-173012236D01*
X99699500Y-173012236D01*
X99699500Y-173018474D01*
X99699500Y-173387764D01*
X99732229Y-173761863D01*
X99797439Y-174131685D01*
X99797440Y-174131687D01*
X99797440Y-174131688D01*
X99894635Y-174494425D01*
X100023070Y-174847296D01*
X100181772Y-175187635D01*
X100181776Y-175187642D01*
X100309331Y-175408574D01*
X100369542Y-175512861D01*
X100584929Y-175820467D01*
X100584933Y-175820472D01*
X100584934Y-175820473D01*
X100826318Y-176108144D01*
X100826322Y-176108148D01*
X100826328Y-176108155D01*
X101091844Y-176373671D01*
X101091850Y-176373676D01*
X101091856Y-176373682D01*
X101260018Y-176514786D01*
X101379532Y-176615070D01*
X101479160Y-176684830D01*
X101687142Y-176830460D01*
X102012358Y-177018224D01*
X102352702Y-177176929D01*
X102476240Y-177221893D01*
X102705574Y-177305364D01*
X102705576Y-177305364D01*
X102705583Y-177305367D01*
X103068315Y-177402561D01*
X103438137Y-177467771D01*
X103812236Y-177500500D01*
X103812242Y-177500500D01*
X104187758Y-177500500D01*
X104187764Y-177500500D01*
X104561863Y-177467771D01*
X104931685Y-177402561D01*
X105294417Y-177305367D01*
X105647298Y-177176929D01*
X105987642Y-177018224D01*
X106312858Y-176830460D01*
X106620473Y-176615066D01*
X106908144Y-176373682D01*
X107173682Y-176108144D01*
X107415066Y-175820473D01*
X107630460Y-175512858D01*
X107818224Y-175187642D01*
X107976929Y-174847298D01*
X108105367Y-174494417D01*
X108202561Y-174131685D01*
X108267771Y-173761863D01*
X108300500Y-173387764D01*
X108300500Y-173012236D01*
X226699500Y-173012236D01*
X226699500Y-173018474D01*
X226699500Y-173387764D01*
X226732229Y-173761863D01*
X226797439Y-174131685D01*
X226797440Y-174131687D01*
X226797440Y-174131688D01*
X226894635Y-174494425D01*
X227023070Y-174847296D01*
X227181772Y-175187635D01*
X227181776Y-175187642D01*
X227309331Y-175408574D01*
X227369542Y-175512861D01*
X227584929Y-175820467D01*
X227584933Y-175820472D01*
X227584934Y-175820473D01*
X227826318Y-176108144D01*
X227826322Y-176108148D01*
X227826328Y-176108155D01*
X228091844Y-176373671D01*
X228091850Y-176373676D01*
X228091856Y-176373682D01*
X228260018Y-176514786D01*
X228379532Y-176615070D01*
X228479160Y-176684830D01*
X228687142Y-176830460D01*
X229012358Y-177018224D01*
X229352702Y-177176929D01*
X229476240Y-177221893D01*
X229705574Y-177305364D01*
X229705576Y-177305364D01*
X229705583Y-177305367D01*
X230068315Y-177402561D01*
X230438137Y-177467771D01*
X230812236Y-177500500D01*
X230812242Y-177500500D01*
X231187758Y-177500500D01*
X231187764Y-177500500D01*
X231561863Y-177467771D01*
X231931685Y-177402561D01*
X232294417Y-177305367D01*
X232647298Y-177176929D01*
X232987642Y-177018224D01*
X233312858Y-176830460D01*
X233620473Y-176615066D01*
X233908144Y-176373682D01*
X234173682Y-176108144D01*
X234415066Y-175820473D01*
X234630460Y-175512858D01*
X234818224Y-175187642D01*
X234976929Y-174847298D01*
X235105367Y-174494417D01*
X235202561Y-174131685D01*
X235267771Y-173761863D01*
X235300500Y-173387764D01*
X235300500Y-173012236D01*
X235267771Y-172638137D01*
X235202561Y-172268315D01*
X235105367Y-171905583D01*
X234976929Y-171552702D01*
X234818224Y-171212358D01*
X234630460Y-170887142D01*
X234510323Y-170715568D01*
X234415070Y-170579532D01*
X234310515Y-170454928D01*
X234173682Y-170291856D01*
X234173676Y-170291850D01*
X234173671Y-170291844D01*
X233908155Y-170026328D01*
X233908148Y-170026322D01*
X233908144Y-170026318D01*
X233620473Y-169784934D01*
X233620472Y-169784933D01*
X233620467Y-169784929D01*
X233312861Y-169569542D01*
X233200995Y-169504956D01*
X233172046Y-169488242D01*
X232987653Y-169381782D01*
X232987635Y-169381772D01*
X232647296Y-169223070D01*
X232294425Y-169094635D01*
X232208710Y-169071667D01*
X231931685Y-168997439D01*
X231561863Y-168932229D01*
X231187764Y-168899500D01*
X230812236Y-168899500D01*
X230438137Y-168932229D01*
X230068315Y-168997439D01*
X230068311Y-168997440D01*
X229705574Y-169094635D01*
X229352703Y-169223070D01*
X229012364Y-169381772D01*
X229012346Y-169381782D01*
X228687138Y-169569542D01*
X228379532Y-169784929D01*
X228091844Y-170026328D01*
X227826328Y-170291844D01*
X227584929Y-170579532D01*
X227369542Y-170887138D01*
X227181782Y-171212346D01*
X227181772Y-171212364D01*
X227023070Y-171552703D01*
X226894635Y-171905574D01*
X226823860Y-172169711D01*
X226797439Y-172268315D01*
X226732229Y-172638137D01*
X226699500Y-173012236D01*
X108300500Y-173012236D01*
X108267771Y-172638137D01*
X108202561Y-172268315D01*
X108105367Y-171905583D01*
X107976929Y-171552702D01*
X107818224Y-171212358D01*
X107630460Y-170887142D01*
X107510323Y-170715568D01*
X107415070Y-170579532D01*
X107310515Y-170454928D01*
X107173682Y-170291856D01*
X107173676Y-170291850D01*
X107173671Y-170291844D01*
X106908155Y-170026328D01*
X106908148Y-170026322D01*
X106908144Y-170026318D01*
X106620473Y-169784934D01*
X106620472Y-169784933D01*
X106620467Y-169784929D01*
X106312861Y-169569542D01*
X106200995Y-169504956D01*
X106172046Y-169488242D01*
X105987653Y-169381782D01*
X105987635Y-169381772D01*
X105647296Y-169223070D01*
X105294425Y-169094635D01*
X105208710Y-169071667D01*
X104931685Y-168997439D01*
X104561863Y-168932229D01*
X104187764Y-168899500D01*
X103812236Y-168899500D01*
X103438137Y-168932229D01*
X103068315Y-168997439D01*
X103068311Y-168997440D01*
X102705574Y-169094635D01*
X102352703Y-169223070D01*
X102012364Y-169381772D01*
X102012346Y-169381782D01*
X101687138Y-169569542D01*
X101379532Y-169784929D01*
X101091844Y-170026328D01*
X100826328Y-170291844D01*
X100584929Y-170579532D01*
X100369542Y-170887138D01*
X100181782Y-171212346D01*
X100181772Y-171212364D01*
X100023070Y-171552703D01*
X99894635Y-171905574D01*
X99823860Y-172169711D01*
X99797439Y-172268315D01*
X99732229Y-172638137D01*
X99699500Y-173012236D01*
X98800000Y-173012236D01*
X98800000Y-168935187D01*
X98800607Y-168922837D01*
X98800607Y-168922836D01*
X98817999Y-168746255D01*
X98822814Y-168722042D01*
X98872521Y-168558181D01*
X98881965Y-168535380D01*
X98962682Y-168384369D01*
X98976398Y-168363842D01*
X99085025Y-168231479D01*
X99102479Y-168214025D01*
X99234842Y-168105398D01*
X99255369Y-168091682D01*
X99406380Y-168010965D01*
X99429181Y-168001521D01*
X99593042Y-167951814D01*
X99617257Y-167946998D01*
X99793837Y-167929606D01*
X99806187Y-167929000D01*
X235293813Y-167929000D01*
X235306162Y-167929606D01*
G37*
G04 #@! TD.AperFunction*
G04 #@! TA.AperFunction,Conductor*
G36*
X271048799Y-222284291D02*
G01*
X271080093Y-222292676D01*
X271110477Y-222305262D01*
X271132046Y-222317715D01*
X271138522Y-222321454D01*
X271164614Y-222341475D01*
X271227412Y-222404272D01*
X271227416Y-222404275D01*
X271227419Y-222404278D01*
X271270605Y-222439080D01*
X271270613Y-222439086D01*
X271315660Y-222468037D01*
X271315662Y-222468037D01*
X271315669Y-222468042D01*
X271339811Y-222481789D01*
X271339812Y-222481789D01*
X271346659Y-222485688D01*
X271345488Y-222487743D01*
X271362243Y-222501241D01*
X271388950Y-222521234D01*
X271389762Y-222523411D01*
X271391571Y-222524869D01*
X271402105Y-222556504D01*
X271413761Y-222587755D01*
X271413267Y-222590025D01*
X271414001Y-222592229D01*
X271405758Y-222624541D01*
X271398669Y-222657129D01*
X271396812Y-222659608D01*
X271396452Y-222661023D01*
X271377177Y-222685839D01*
X271210953Y-222852062D01*
X271148641Y-222886087D01*
X271077825Y-222881022D01*
X271035135Y-222850838D01*
X271033375Y-222852631D01*
X271028955Y-222848289D01*
X270973684Y-222803745D01*
X270970645Y-222801636D01*
X270967536Y-222797778D01*
X270861474Y-222736542D01*
X270835380Y-222716519D01*
X270772595Y-222653735D01*
X270772588Y-222653728D01*
X270738401Y-222626178D01*
X270727691Y-222610752D01*
X270713196Y-222598811D01*
X270707863Y-222582194D01*
X270697912Y-222567861D01*
X270697241Y-222549093D01*
X270691503Y-222531210D01*
X270696000Y-222514348D01*
X270695378Y-222496910D01*
X270704961Y-222480758D01*
X270709802Y-222462612D01*
X270726901Y-222443780D01*
X270731606Y-222435852D01*
X270732605Y-222434931D01*
X270737084Y-222430849D01*
X270772590Y-222404270D01*
X270837459Y-222339398D01*
X270839616Y-222337434D01*
X270842449Y-222336053D01*
X270861475Y-222321455D01*
X270881089Y-222310131D01*
X270889517Y-222305265D01*
X270919905Y-222292678D01*
X270951199Y-222284293D01*
X270983809Y-222280000D01*
X271016196Y-222280000D01*
X271048799Y-222284291D01*
G37*
G04 #@! TD.AperFunction*
G04 #@! TA.AperFunction,Conductor*
G36*
X277077023Y-216437379D02*
G01*
X277106222Y-216443007D01*
X277110686Y-216447263D01*
X277116606Y-216449002D01*
X277136082Y-216471478D01*
X277157604Y-216492000D01*
X277160816Y-216500023D01*
X277163099Y-216502658D01*
X277170932Y-216525292D01*
X277184005Y-216579179D01*
X277211456Y-216647750D01*
X277211458Y-216647753D01*
X277223739Y-216669026D01*
X277236323Y-216699408D01*
X277244706Y-216730692D01*
X277249000Y-216763302D01*
X277249000Y-216795690D01*
X277244707Y-216828301D01*
X277236325Y-216859583D01*
X277223736Y-216889974D01*
X277207540Y-216918025D01*
X277187517Y-216944118D01*
X277164620Y-216967015D01*
X277138527Y-216987038D01*
X277110476Y-217003234D01*
X277080086Y-217015822D01*
X277048805Y-217024204D01*
X277016193Y-217028498D01*
X276983809Y-217028498D01*
X276951195Y-217024204D01*
X276919908Y-217015820D01*
X276889522Y-217003233D01*
X276861473Y-216987039D01*
X276861472Y-216987038D01*
X276835382Y-216967019D01*
X276812476Y-216944114D01*
X276792456Y-216918023D01*
X276791588Y-216916520D01*
X276776262Y-216889974D01*
X276763676Y-216859588D01*
X276755291Y-216828296D01*
X276751000Y-216795690D01*
X276751000Y-216763304D01*
X276755292Y-216730697D01*
X276763677Y-216699402D01*
X276776262Y-216669022D01*
X276788544Y-216647750D01*
X276809036Y-216602878D01*
X276824635Y-216557810D01*
X276830848Y-216537108D01*
X276830848Y-216537102D01*
X276831500Y-216533366D01*
X276832703Y-216530924D01*
X276833006Y-216529918D01*
X276833175Y-216529968D01*
X276862901Y-216469691D01*
X276923743Y-216433101D01*
X276955629Y-216429000D01*
X277048485Y-216429000D01*
X277077023Y-216437379D01*
G37*
G04 #@! TD.AperFunction*
G04 #@! TA.AperFunction,Conductor*
G36*
X274145760Y-216449002D02*
G01*
X274192253Y-216502658D01*
X274200088Y-216525298D01*
X274213153Y-216579163D01*
X274213157Y-216579174D01*
X274217392Y-216589751D01*
X274222822Y-216603316D01*
X274223916Y-216606047D01*
X274228648Y-216620266D01*
X274244706Y-216680194D01*
X274249000Y-216712806D01*
X274249000Y-216745192D01*
X274244707Y-216777803D01*
X274236325Y-216809085D01*
X274223736Y-216839476D01*
X274207540Y-216867527D01*
X274187517Y-216893620D01*
X274164620Y-216916517D01*
X274138527Y-216936540D01*
X274110476Y-216952736D01*
X274080086Y-216965324D01*
X274048805Y-216973706D01*
X274016193Y-216978000D01*
X273983809Y-216978000D01*
X273951195Y-216973706D01*
X273919908Y-216965322D01*
X273889523Y-216952736D01*
X273861477Y-216936544D01*
X273835381Y-216916520D01*
X273772595Y-216853735D01*
X273772588Y-216853728D01*
X273772584Y-216853725D01*
X273772580Y-216853721D01*
X273729394Y-216818919D01*
X273729386Y-216818913D01*
X273684339Y-216789962D01*
X273684336Y-216789961D01*
X273677204Y-216785900D01*
X273660189Y-216776211D01*
X273638393Y-216770231D01*
X273599074Y-216759444D01*
X273588971Y-216753203D01*
X273577265Y-216751225D01*
X273559320Y-216734886D01*
X273538673Y-216722131D01*
X273532212Y-216710203D01*
X273524770Y-216703427D01*
X273517783Y-216683566D01*
X273510678Y-216670448D01*
X273508500Y-216662293D01*
X273508500Y-216662055D01*
X273488527Y-216587513D01*
X273489393Y-216552307D01*
X273490243Y-216516634D01*
X273490272Y-216516590D01*
X273490274Y-216516539D01*
X273509882Y-216487617D01*
X273530038Y-216457838D01*
X273530086Y-216457817D01*
X273530115Y-216457775D01*
X273562560Y-216443911D01*
X273595302Y-216429891D01*
X273595384Y-216429886D01*
X273595401Y-216429879D01*
X273595427Y-216429883D01*
X273610260Y-216429000D01*
X274077639Y-216429000D01*
X274145760Y-216449002D01*
G37*
G04 #@! TD.AperFunction*
G04 #@! TD*
G04 #@! TA.AperFunction,Conductor*
G04 #@! TO.N,+12V*
G36*
X276522812Y-216349002D02*
G01*
X276569305Y-216402658D01*
X276579409Y-216472932D01*
X276563810Y-216518000D01*
X276526155Y-216583219D01*
X276526154Y-216583222D01*
X276526153Y-216583224D01*
X276491500Y-216712553D01*
X276491500Y-216846443D01*
X276526153Y-216975772D01*
X276526154Y-216975774D01*
X276526155Y-216975776D01*
X276593097Y-217091722D01*
X276593099Y-217091725D01*
X276687772Y-217186398D01*
X276687775Y-217186400D01*
X276716262Y-217202847D01*
X276803726Y-217253345D01*
X276933055Y-217287998D01*
X276933057Y-217287998D01*
X277066943Y-217287998D01*
X277066945Y-217287998D01*
X277196274Y-217253345D01*
X277312226Y-217186399D01*
X277406901Y-217091724D01*
X277473847Y-216975772D01*
X277508500Y-216846443D01*
X277508500Y-216712553D01*
X277473847Y-216583224D01*
X277444693Y-216532728D01*
X277436190Y-216518000D01*
X277419452Y-216449004D01*
X277442673Y-216381913D01*
X277498480Y-216338025D01*
X277545309Y-216329000D01*
X280293813Y-216329000D01*
X280306162Y-216329606D01*
X280482740Y-216346998D01*
X280506959Y-216351815D01*
X280670815Y-216401520D01*
X280693622Y-216410967D01*
X280809550Y-216472932D01*
X280844627Y-216491681D01*
X280865162Y-216505402D01*
X280997514Y-216614020D01*
X281014978Y-216631484D01*
X281081510Y-216712554D01*
X281123595Y-216763834D01*
X281137318Y-216784372D01*
X281143503Y-216795943D01*
X281212634Y-216925278D01*
X281218029Y-216935370D01*
X281227482Y-216958191D01*
X281277183Y-217122037D01*
X281282001Y-217146261D01*
X281299393Y-217322836D01*
X281300000Y-217335187D01*
X281300000Y-232422812D01*
X281299393Y-232435163D01*
X281282001Y-232611738D01*
X281277183Y-232635962D01*
X281227482Y-232799808D01*
X281218029Y-232822629D01*
X281137318Y-232973627D01*
X281123595Y-232994165D01*
X281014979Y-233126514D01*
X280997514Y-233143979D01*
X280865165Y-233252595D01*
X280844627Y-233266318D01*
X280693629Y-233347029D01*
X280670808Y-233356482D01*
X280506962Y-233406183D01*
X280482738Y-233411001D01*
X280334273Y-233425624D01*
X280306161Y-233428393D01*
X280293813Y-233429000D01*
X215257078Y-233429000D01*
X215242971Y-233428208D01*
X215184900Y-233421665D01*
X215097213Y-233411785D01*
X215069706Y-233405506D01*
X214937987Y-233359416D01*
X214912568Y-233347175D01*
X214794402Y-233272926D01*
X214772343Y-233255334D01*
X214673665Y-233156656D01*
X214656073Y-233134597D01*
X214650994Y-233126514D01*
X214581822Y-233016428D01*
X214569585Y-232991018D01*
X214523491Y-232859288D01*
X214517215Y-232831790D01*
X214500792Y-232686029D01*
X214500000Y-232671922D01*
X214500000Y-232343223D01*
X214500000Y-232343214D01*
X214480785Y-232148123D01*
X214423880Y-231960530D01*
X214331470Y-231787643D01*
X214207107Y-231636107D01*
X214207103Y-231636103D01*
X214207094Y-231636093D01*
X213293346Y-230722345D01*
X213293343Y-230722343D01*
X213293335Y-230722335D01*
X213141577Y-230597824D01*
X212968419Y-230505358D01*
X212968418Y-230505357D01*
X212968417Y-230505357D01*
X212780534Y-230448501D01*
X212585164Y-230429442D01*
X212585162Y-230429442D01*
X212585158Y-230429442D01*
X120207012Y-230527926D01*
X120194655Y-230527332D01*
X120017964Y-230510110D01*
X119993721Y-230505312D01*
X119829745Y-230455734D01*
X119806911Y-230446298D01*
X119655768Y-230365669D01*
X119635212Y-230351957D01*
X119502711Y-230243373D01*
X119485229Y-230225914D01*
X119376467Y-230093550D01*
X119362735Y-230073022D01*
X119281905Y-229921983D01*
X119272437Y-229899156D01*
X119228965Y-229756055D01*
X119222642Y-229735243D01*
X119217814Y-229711012D01*
X119213093Y-229663222D01*
X119200359Y-229534330D01*
X119199750Y-229521983D01*
X119199327Y-227812236D01*
X271699500Y-227812236D01*
X271699500Y-227818474D01*
X271699500Y-228187764D01*
X271732229Y-228561863D01*
X271797439Y-228931685D01*
X271797440Y-228931687D01*
X271797440Y-228931688D01*
X271894635Y-229294425D01*
X272023070Y-229647296D01*
X272181772Y-229987635D01*
X272181776Y-229987642D01*
X272309331Y-230208574D01*
X272369542Y-230312861D01*
X272584929Y-230620467D01*
X272584933Y-230620472D01*
X272584934Y-230620473D01*
X272826318Y-230908144D01*
X272826322Y-230908148D01*
X272826328Y-230908155D01*
X273091844Y-231173671D01*
X273091850Y-231173676D01*
X273091856Y-231173682D01*
X273267861Y-231321367D01*
X273379532Y-231415070D01*
X273479460Y-231485040D01*
X273687142Y-231630460D01*
X274012358Y-231818224D01*
X274352702Y-231976929D01*
X274553476Y-232050004D01*
X274705574Y-232105364D01*
X274705576Y-232105364D01*
X274705583Y-232105367D01*
X275068315Y-232202561D01*
X275438137Y-232267771D01*
X275812236Y-232300500D01*
X275812242Y-232300500D01*
X276187758Y-232300500D01*
X276187764Y-232300500D01*
X276561863Y-232267771D01*
X276931685Y-232202561D01*
X277294417Y-232105367D01*
X277647298Y-231976929D01*
X277987642Y-231818224D01*
X278312858Y-231630460D01*
X278620473Y-231415066D01*
X278908144Y-231173682D01*
X279173682Y-230908144D01*
X279415066Y-230620473D01*
X279630460Y-230312858D01*
X279818224Y-229987642D01*
X279976929Y-229647298D01*
X280105367Y-229294417D01*
X280202561Y-228931685D01*
X280267771Y-228561863D01*
X280300500Y-228187764D01*
X280300500Y-227812236D01*
X280267771Y-227438137D01*
X280202561Y-227068315D01*
X280105367Y-226705583D01*
X279976929Y-226352702D01*
X279818224Y-226012358D01*
X279630460Y-225687142D01*
X279510323Y-225515568D01*
X279415070Y-225379532D01*
X279310515Y-225254928D01*
X279173682Y-225091856D01*
X279173676Y-225091850D01*
X279173671Y-225091844D01*
X278908155Y-224826328D01*
X278908148Y-224826322D01*
X278908144Y-224826318D01*
X278620473Y-224584934D01*
X278620472Y-224584933D01*
X278620467Y-224584929D01*
X278312861Y-224369542D01*
X278265446Y-224342167D01*
X278172046Y-224288242D01*
X277987653Y-224181782D01*
X277987635Y-224181772D01*
X277647296Y-224023070D01*
X277294425Y-223894635D01*
X277208710Y-223871667D01*
X276931685Y-223797439D01*
X276561863Y-223732229D01*
X276187764Y-223699500D01*
X275812236Y-223699500D01*
X275438137Y-223732229D01*
X275068315Y-223797439D01*
X275068311Y-223797440D01*
X274705574Y-223894635D01*
X274352703Y-224023070D01*
X274012364Y-224181772D01*
X274012346Y-224181782D01*
X273687138Y-224369542D01*
X273379532Y-224584929D01*
X273091844Y-224826328D01*
X272826328Y-225091844D01*
X272584929Y-225379532D01*
X272369542Y-225687138D01*
X272181782Y-226012346D01*
X272181772Y-226012364D01*
X272023070Y-226352703D01*
X271894635Y-226705574D01*
X271823860Y-226969711D01*
X271797439Y-227068315D01*
X271732229Y-227438137D01*
X271699500Y-227812236D01*
X119199327Y-227812236D01*
X119198221Y-223341057D01*
X119198823Y-223328740D01*
X119216199Y-223151993D01*
X119221014Y-223127775D01*
X119270747Y-222963803D01*
X119280205Y-222940973D01*
X119360986Y-222789877D01*
X119374721Y-222769328D01*
X119410895Y-222725271D01*
X119483445Y-222636909D01*
X119500921Y-222619443D01*
X119633412Y-222510792D01*
X119653964Y-222497073D01*
X119805107Y-222416382D01*
X119827948Y-222406937D01*
X119854695Y-222398842D01*
X119991941Y-222357304D01*
X120016178Y-222352501D01*
X120192904Y-222335233D01*
X120205253Y-222334637D01*
X196351774Y-222398842D01*
X196419878Y-222418902D01*
X196440763Y-222435747D01*
X198347175Y-224342160D01*
X198347178Y-224342162D01*
X198347183Y-224342167D01*
X198422319Y-224385546D01*
X198506122Y-224408001D01*
X198506124Y-224408001D01*
X270493876Y-224408001D01*
X270493878Y-224408001D01*
X270577681Y-224385546D01*
X270652817Y-224342166D01*
X271920578Y-223074405D01*
X271982890Y-223040380D01*
X272009673Y-223037500D01*
X272066943Y-223037500D01*
X272066945Y-223037500D01*
X272196274Y-223002847D01*
X272312226Y-222935901D01*
X272406901Y-222841226D01*
X272473847Y-222725274D01*
X272508500Y-222595945D01*
X272508500Y-222462055D01*
X273491500Y-222462055D01*
X273491500Y-222595945D01*
X273526153Y-222725274D01*
X273526154Y-222725276D01*
X273526155Y-222725278D01*
X273593097Y-222841224D01*
X273593099Y-222841227D01*
X273687772Y-222935900D01*
X273687775Y-222935902D01*
X273750951Y-222972377D01*
X273803726Y-223002847D01*
X273933055Y-223037500D01*
X273933057Y-223037500D01*
X274066943Y-223037500D01*
X274066945Y-223037500D01*
X274196274Y-223002847D01*
X274312226Y-222935901D01*
X274406901Y-222841226D01*
X274473847Y-222725274D01*
X274508500Y-222595945D01*
X274508500Y-222462055D01*
X274473847Y-222332726D01*
X274452611Y-222295945D01*
X274406902Y-222216775D01*
X274406900Y-222216772D01*
X274312227Y-222122099D01*
X274312224Y-222122097D01*
X274196278Y-222055155D01*
X274196276Y-222055154D01*
X274196274Y-222055153D01*
X274066945Y-222020500D01*
X273933055Y-222020500D01*
X273803726Y-222055153D01*
X273803724Y-222055154D01*
X273803721Y-222055155D01*
X273687775Y-222122097D01*
X273687772Y-222122099D01*
X273593099Y-222216772D01*
X273593097Y-222216775D01*
X273526155Y-222332721D01*
X273526154Y-222332724D01*
X273526153Y-222332726D01*
X273491500Y-222462055D01*
X272508500Y-222462055D01*
X272473847Y-222332726D01*
X272452611Y-222295945D01*
X272406902Y-222216775D01*
X272406900Y-222216772D01*
X272312227Y-222122099D01*
X272312224Y-222122097D01*
X272196278Y-222055155D01*
X272196276Y-222055154D01*
X272196274Y-222055153D01*
X272066945Y-222020500D01*
X271933055Y-222020500D01*
X271803726Y-222055153D01*
X271803724Y-222055154D01*
X271803721Y-222055155D01*
X271687775Y-222122097D01*
X271687772Y-222122099D01*
X271589095Y-222220777D01*
X271526783Y-222254803D01*
X271455968Y-222249738D01*
X271410905Y-222220777D01*
X271312227Y-222122099D01*
X271312224Y-222122097D01*
X271196278Y-222055155D01*
X271196276Y-222055154D01*
X271196274Y-222055153D01*
X271066945Y-222020500D01*
X270933055Y-222020500D01*
X270803726Y-222055153D01*
X270803724Y-222055154D01*
X270803721Y-222055155D01*
X270687775Y-222122097D01*
X270687772Y-222122099D01*
X270589095Y-222220777D01*
X270526783Y-222254803D01*
X270455968Y-222249738D01*
X270410905Y-222220777D01*
X270312227Y-222122099D01*
X270312224Y-222122097D01*
X270196278Y-222055155D01*
X270196276Y-222055154D01*
X270196274Y-222055153D01*
X270066945Y-222020500D01*
X269933055Y-222020500D01*
X269803726Y-222055153D01*
X269803724Y-222055154D01*
X269803721Y-222055155D01*
X269687775Y-222122097D01*
X269687772Y-222122099D01*
X269593099Y-222216772D01*
X269593097Y-222216775D01*
X269564619Y-222266101D01*
X269513236Y-222315094D01*
X269443523Y-222328530D01*
X269377612Y-222302143D01*
X269336430Y-222244311D01*
X269329500Y-222203101D01*
X269329500Y-220978532D01*
X269349502Y-220910411D01*
X269354844Y-220902741D01*
X269540654Y-220656062D01*
X269552174Y-220642808D01*
X272920578Y-217274405D01*
X272982890Y-217240379D01*
X273009673Y-217237500D01*
X273066943Y-217237500D01*
X273066945Y-217237500D01*
X273196274Y-217202847D01*
X273312226Y-217135901D01*
X273356405Y-217091722D01*
X273410905Y-217037223D01*
X273473217Y-217003197D01*
X273544032Y-217008262D01*
X273589095Y-217037223D01*
X273687772Y-217135900D01*
X273687775Y-217135902D01*
X273775236Y-217186398D01*
X273803726Y-217202847D01*
X273933055Y-217237500D01*
X273933057Y-217237500D01*
X274066943Y-217237500D01*
X274066945Y-217237500D01*
X274196274Y-217202847D01*
X274312226Y-217135901D01*
X274406901Y-217041226D01*
X274473847Y-216925274D01*
X274508500Y-216795945D01*
X274508500Y-216662055D01*
X274473847Y-216532726D01*
X274465343Y-216517998D01*
X274448607Y-216449004D01*
X274471828Y-216381912D01*
X274527636Y-216338025D01*
X274574464Y-216329000D01*
X276454691Y-216329000D01*
X276522812Y-216349002D01*
G37*
G04 #@! TD.AperFunction*
G04 #@! TD*
M02*
